<?xml version="1.0" encoding="UTF-8"?>
<svg width="96px" height="96px" viewBox="0 0 96 96" version="1.1" xmlns="http://www.w3.org/2000/svg" xmlns:xlink="http://www.w3.org/1999/xlink">
    <!-- Generator: Sketch 43.1 (39012) - http://www.bohemiancoding.com/sketch -->
    <title>96x96</title>
    <desc>Created with Sketch.</desc>
    <defs></defs>
    <g id="Page-1" stroke="none" stroke-width="1" fill="none" fill-rule="evenodd">
        <g id="96x96">
            <g id="Group" transform="translate(0.000000, 25.000000)">
                <polygon id="Rectangle-315" fill="#1DC11D" points="0 0 96 0 96 41.1428571 5.48571429 41.1428571 0 46.6285714"></polygon>
                <path d="M31.3821429,32.9142857 L28.2160714,32.9142857 L16.95,15.0428571 L16.8535714,15.075 L16.8535714,32.9142857 L13.6875,32.9142857 L13.6875,9.51428571 L16.8535714,9.51428571 L28.1196429,27.3696429 L28.2160714,27.3375 L28.2160714,9.51428571 L31.3821429,9.51428571 L31.3821429,32.9142857 Z M49.4946429,22.0660714 L39.8839286,22.0660714 L39.8839286,30.4392857 L51.1339286,30.4392857 L51.1339286,32.9142857 L36.7178571,32.9142857 L36.7178571,9.51428571 L50.9571429,9.51428571 L50.9571429,12.0053571 L39.8839286,12.0053571 L39.8839286,19.575 L49.4946429,19.575 L49.4946429,22.0660714 Z M59.8285714,24.7982143 L60.2303571,27.8678571 L60.3267857,27.8839286 L60.8732143,24.7982143 L65.0196429,9.51428571 L68.1214286,9.51428571 L72.3,24.7982143 L72.8464286,27.9321429 L72.9428571,27.9321429 L73.3767857,24.7982143 L76.7196429,9.51428571 L80.1589286,9.51428571 L74.5017857,32.9142857 L71.6732143,32.9142857 L66.9964286,16.6821429 L66.6428571,14.5767857 L66.5464286,14.5767857 L66.2089286,16.6821429 L61.4678571,32.9142857 L58.6392857,32.9142857 L52.9982143,9.51428571 L56.4214286,9.51428571 L59.8285714,24.7982143 Z" id="NEW" fill="#FFFFFF"></path>
            </g>
        </g>
    </g>
</svg>