<?xml version="1.0" encoding="utf-8"?>
<!-- Generator: Adobe Illustrator 17.0.0, SVG Export Plug-In . SVG Version: 6.00 Build 0)  -->
<!DOCTYPE svg PUBLIC "-//W3C//DTD SVG 1.1//EN" "http://www.w3.org/Graphics/SVG/1.1/DTD/svg11.dtd">
<svg version="1.1" id="图层_1" xmlns="http://www.w3.org/2000/svg" xmlns:xlink="http://www.w3.org/1999/xlink" x="0px" y="0px"
	 width="96px" height="96px" viewBox="0 0 96 96" enable-background="new 0 0 96 96" xml:space="preserve">
<g>
	<g>
		<polygon fill-rule="evenodd" clip-rule="evenodd" fill="#FFBA00" points="78.402,8.347 78.402,21.752 63.725,21.752 63.725,3.954 
			48,0 32.275,3.954 32.275,21.752 17.598,21.752 17.598,8.347 2.387,12.975 6.354,83.029 48,96 89.646,83.029 93.613,12.975 		"/>
	</g>
	<polygon fill-rule="evenodd" clip-rule="evenodd" fill="#FF991F" points="2.387,12.975 17.598,8.347 17.598,21.752 32.275,21.752 
		32.275,3.954 48,0 48,96 6.354,83.029 	"/>
	<g>
		<path fill="#FFFFFF" d="M53.464,60.959c0-1.599-0.495-2.9-1.489-3.902c-0.992-1.002-2.712-1.935-5.157-2.799
			c-3.952-1.341-6.881-2.923-8.784-4.743s-2.854-4.376-2.854-7.667c0-3.126,0.914-5.649,2.744-7.57
			c1.828-1.921,4.361-3.076,7.597-3.462v-6.011h4.413v6.066c3.218,0.479,5.696,1.807,7.433,3.985
			c1.738,2.179,2.608,5.134,2.608,8.867H53.3c0-2.353-0.507-4.187-1.517-5.501c-1.011-1.315-2.437-1.973-4.275-1.973
			c-1.913,0-3.327,0.492-4.246,1.476c-0.921,0.984-1.379,2.34-1.379,4.069c0,1.617,0.479,2.909,1.434,3.874
			c0.956,0.966,2.739,1.908,5.35,2.827c3.952,1.416,6.857,3.02,8.716,4.812c1.856,1.793,2.785,4.326,2.785,7.599
			c0,3.236-0.952,5.787-2.855,7.654c-1.903,1.866-4.556,2.973-7.956,3.324v5.377h-4.384v-5.35c-3.347-0.349-6.073-1.531-8.179-3.543
			c-2.104-2.014-3.158-5.061-3.158-9.143h6.703c0,2.666,0.63,4.546,1.888,5.639c1.26,1.095,2.864,1.642,4.813,1.642
			c2.078,0,3.668-0.487,4.772-1.463C52.914,64.067,53.464,62.705,53.464,60.959z"/>
	</g>
	<polygon opacity="0.2" fill-rule="evenodd" clip-rule="evenodd" fill="#FFFFFF" points="48,96 2.387,12.975 48,41.105 	"/>
	<polygon opacity="0.2" fill-rule="evenodd" clip-rule="evenodd" fill="#FFFFFF" points="48,96 93.613,12.975 48,41.132 	"/>
</g>
<g display="none">
	<g display="inline">
		<polygon fill-rule="evenodd" clip-rule="evenodd" fill="#FACE32" points="78.402,8.347 78.402,21.752 63.725,21.752 63.725,3.954 
			48,0 32.275,3.954 32.275,21.752 17.598,21.752 17.598,8.347 2.387,12.975 6.354,83.029 48,96 89.646,83.029 93.613,12.975 		"/>
	</g>
	<g display="inline">
		<path fill="#FFFFFF" d="M53.464,60.959c0-1.599-0.495-2.9-1.489-3.902c-0.992-1.002-2.712-1.935-5.157-2.799
			c-3.952-1.341-6.881-2.923-8.784-4.743c-1.903-1.82-2.854-4.376-2.854-7.667c0-3.126,0.914-5.649,2.744-7.57
			c1.828-1.921,4.361-3.076,7.597-3.462v-6.011h4.413v6.066c3.218,0.479,5.696,1.807,7.433,3.986
			c1.738,2.179,2.608,5.134,2.608,8.867H53.3c0-2.353-0.507-4.187-1.517-5.501s-2.437-1.973-4.275-1.973
			c-1.913,0-3.327,0.492-4.246,1.476c-0.921,0.984-1.379,2.34-1.379,4.069c0,1.617,0.479,2.909,1.434,3.874
			c0.956,0.966,2.739,1.908,5.35,2.827c3.952,1.416,6.857,3.02,8.716,4.812c1.856,1.793,2.786,4.326,2.786,7.599
			c0,3.236-0.952,5.787-2.855,7.654s-4.556,2.973-7.956,3.324v5.377h-4.384v-5.35c-3.347-0.349-6.073-1.531-8.179-3.543
			c-2.104-2.014-3.158-5.061-3.158-9.143h6.703c0,2.666,0.63,4.546,1.888,5.639c1.26,1.095,2.864,1.642,4.813,1.642
			c2.078,0,3.668-0.487,4.772-1.463C52.914,64.067,53.464,62.705,53.464,60.959z"/>
	</g>
</g>
<g display="none">
	<path display="inline" fill="#FACE32" d="M96,26H0V12c0-1.105,0.895-2,2-2h92c1.105,0,2,0.895,2,2V26z"/>
	<path display="inline" fill="#E3715D" d="M96,26v54.344L90.343,86H2c-1.105,0-2-0.895-2-2V26H96z"/>
	<path display="inline" fill="#FFFFFF" d="M96,80.344L85.925,70.27c2.945-3.999,4.69-8.933,4.69-14.27
		c0-13.298-10.819-24.117-24.117-24.117S42.382,42.702,42.382,56s10.818,24.116,24.116,24.116c5.08,0,9.795-1.582,13.686-4.275
		L90.343,86H94c1.104,0,2-0.896,2-2V80.344z M66.499,72.116c-8.887,0-16.116-7.229-16.116-16.116s7.229-16.117,16.116-16.117
		S82.616,47.114,82.616,56S75.385,72.116,66.499,72.116z"/>
</g>
<g display="none">
	<path display="inline" fill="#55A344" d="M46,91.154l-40-23.1c-1.237-0.715-2-2.035-2-3.464V6.309c0-1.105,0.895-2,2-2h84
		c1.105,0,2,0.895,2,2V64.59c0,1.429-0.762,2.749-2,3.464l-40,23.1C48.763,91.869,47.237,91.869,46,91.154z"/>
	<g display="inline">
		<defs>
			<polygon id="SVGID_1_" points="36.498,66.794 14.539,73.057 4,66.971 4,4.381 92,4.381 92,66.971 55.864,87.839 			"/>
		</defs>
		<clipPath id="SVGID_2_">
			<use xlink:href="#SVGID_1_"  overflow="visible"/>
		</clipPath>
		<g clip-path="url(#SVGID_2_)">
			<path fill="#FFFFFF" d="M44.235,106.454v-8.646c-1.748-0.22-3.486-0.582-5.175-1.078c-2.771-0.812-5.277-2.116-7.45-3.874
				c-2.222-1.794-4.022-4.141-5.349-6.974c-1.323-2.816-1.993-6.24-1.993-10.176v-3h8.428v3c0,2.737,0.455,5.004,1.352,6.739
				c0.906,1.751,2.068,3.157,3.454,4.18c1.446,1.067,3.098,1.839,4.91,2.292c1.952,0.493,3.892,0.743,5.768,0.743
				c2.166,0,4.1-0.325,5.75-0.965c1.64-0.636,3.033-1.484,4.141-2.521c1.086-1.014,1.924-2.191,2.491-3.5
				c0.566-1.307,0.854-2.667,0.854-4.045c0-1.592-0.212-2.99-0.632-4.155c-0.378-1.049-1.048-2.037-1.992-2.938
				c-1.074-1.023-2.569-2.027-4.443-2.984c-2.016-1.03-4.583-2.106-7.631-3.198c-2.886-0.972-5.543-2.001-7.887-3.057
				c-2.521-1.135-4.711-2.504-6.513-4.068c-1.916-1.662-3.403-3.664-4.418-5.949c-1.007-2.267-1.518-4.991-1.518-8.099
				c0-2.779,0.484-5.371,1.438-7.703c0.971-2.37,2.386-4.44,4.206-6.153c1.788-1.68,3.947-3.026,6.419-4.001
				c1.624-0.64,3.403-1.096,5.297-1.357v-8.656h8.473v8.711c1.942,0.306,3.76,0.813,5.409,1.51c2.521,1.065,4.699,2.595,6.472,4.545
				c1.752,1.93,3.11,4.279,4.036,6.982c0.897,2.627,1.353,5.64,1.353,8.955v3h-8.428v-3c0-2.086-0.302-4.03-0.896-5.779
				c-0.569-1.671-1.408-3.129-2.493-4.334c-1.065-1.181-2.412-2.123-4.005-2.8c-1.626-0.691-3.576-1.042-5.796-1.042
				c-2.365,0-4.399,0.33-6.046,0.981c-1.622,0.641-2.963,1.479-3.987,2.491c-1.005,0.994-1.763,2.148-2.251,3.431
				c-0.511,1.343-0.771,2.732-0.771,4.127c0,1.572,0.173,2.974,0.514,4.167c0.281,0.985,0.862,1.939,1.726,2.835
				c0.983,1.019,2.43,2.026,4.3,2.993c2.023,1.047,4.746,2.144,8.094,3.261c2.849,0.99,5.466,2.016,7.784,3.051
				c2.511,1.123,4.707,2.493,6.524,4.073c1.914,1.664,3.422,3.655,4.48,5.917c1.069,2.283,1.61,5.025,1.61,8.152
				c0,2.819-0.495,5.427-1.471,7.749c-0.985,2.347-2.397,4.394-4.198,6.084c-1.771,1.665-3.908,2.997-6.354,3.958
				c-1.582,0.62-3.3,1.078-5.113,1.363v8.761H44.235z"/>
		</g>
	</g>
</g>
<g display="none">
	<path display="inline" fill="#FACE32" d="M93.994,85.996H2.004c-1.104,0-2-0.895-2-2V48V12.004c0-1.104,0.895-2,2-2h91.99
		c1.104,0,2,0.895,2,2v71.992C95.994,85.101,95.099,85.996,93.994,85.996z"/>
	<g display="inline">
		<rect x="0.005" y="46.001" fill="#FFFFFF" width="9.999" height="4"/>
	</g>
	<g display="inline">
		<rect x="85.997" y="46.001" fill="#FFFFFF" width="9.999" height="4"/>
	</g>
	<g display="inline">
		<path fill="#FFFFFF" d="M30.187,10.004c-6.249,2.92-11.769,7.369-15.958,13.029l-0.6,0.81H0v-4h11.629
			c2.98-3.85,6.529-7.159,10.489-9.839H30.187z"/>
		<path fill="#FFFFFF" d="M96,19.863v4H82.381l-0.6-0.81c-4.189-5.669-9.709-10.119-15.958-13.049h8.039
			c3.97,2.69,7.539,5.999,10.529,9.859H96z"/>
	</g>
	<g display="inline">
		<path fill="#FFFFFF" d="M30.057,85.996h-8.009c-3.57-2.44-6.819-5.419-9.639-8.859H0v-4h14.339l0.6,0.76
			C19.058,79.147,24.237,83.246,30.057,85.996z"/>
		<path fill="#FFFFFF" d="M95.99,72.157v4H84.371c-2.98,3.85-6.529,7.159-10.489,9.839h-8.069
			c6.249-2.92,11.769-7.369,15.958-13.029l0.6-0.81H95.99z"/>
	</g>
	<g display="inline">
		<path fill="#55A344" d="M26.002,34.001h-8.999v27.997h5.999V52h3c4.97,0,8.999-4.03,8.999-8.999
			C35.001,38.031,30.972,34.001,26.002,34.001z M29.002,43.501c0,1.38-1.12,2.5-2.5,2.5h-3.5v-5.999h3.5c1.38,0,2.5,1.12,2.5,2.5
			V43.501z"/>
		<polygon fill="#55A344" points="80.997,34.001 72.997,51 72.997,61.999 66.998,61.999 66.998,51 58.999,34.001 65.398,34.001 
			69.978,44.25 74.497,34.001 		"/>
		<path fill="#55A344" d="M57.659,56.999l-1.07-4l-0.54-2L51.5,34.001H44.5L39.951,51l-0.54,2l-1.07,4l-1.34,4.999h5.999l1.23-4.999
			h7.539l1.23,4.999h5.999L57.659,56.999z M47.99,41.651L50.29,51H45.7L47.99,41.651z"/>
	</g>
</g>
<g display="none">
	<path display="inline" fill="#F2B211" d="M86.782,53.156L74.315,65.661l-0.012,0.012c-0.99,0.99-2.162,1.666-3.417,2.028
		c-2.741,0.82-5.844,0.144-8.029-2.042L47.947,50.757l-3.442,3.441c-0.652,0.652-1.389,1.183-2.186,1.557
		c-0.399,0.193-0.821,0.362-1.244,0.483c-0.749,0.217-1.521,0.326-2.294,0.326c-0.471,0-0.942-0.049-1.413-0.121
		c-0.531-0.085-1.05-0.23-1.558-0.423c-0.495-0.193-0.978-0.447-1.437-0.749c-0.459-0.314-0.905-0.664-1.316-1.075l-0.012,0
		l-1.014-1.244l9.046-9.066l6.847-6.845c0.012-0.012,0.012-0.012,0.024-0.024l0-0.012c1.908-1.895,4.975-1.895,6.87,0.001
		l3.441,3.442l7.899-7.92L86.782,53.156z"/>
	<path display="inline" fill="#FACE32" d="M74.303,65.673L58.241,81.73c-2.826,2.825-6.533,4.249-10.24,4.248
		c-3.634-0.001-7.269-1.366-10.082-4.083L9.227,53.156l20.622-20.63l7.788,7.928l3.442-3.44c1.896-1.908,4.951-1.907,6.858,0.001
		l-0.012,0.012l0,0.012l-6.847,6.845l-9.046,9.066l1.014,1.244l0.012,0c0.41,0.411,0.857,0.761,1.316,1.075
		c0.459,0.302,0.942,0.556,1.437,0.749c0.507,0.193,1.026,0.338,1.558,0.423c0.471,0.085,0.942,0.121,1.413,0.121
		c0.773,0,1.546-0.108,2.294-0.326c0.423-0.121,0.845-0.29,1.244-0.483c0.797-0.374,1.534-0.905,2.186-1.557l3.442-3.429
		l10.382,10.386l4.515,4.517c2.185,2.186,5.288,2.862,8.041,2.03C72.141,67.339,73.312,66.663,74.303,65.673z"/>
	<path display="inline" fill="#4F74B3" d="M29.85,32.522L9.23,53.152l-6.896-6.918C0.839,44.734,0,42.703,0,40.585V12.022
		c0-1.105,0.895-2,2-2l3.74,0c1.063,0,2.077,0.418,2.828,1.171C16.338,18.983,29.85,32.522,29.85,32.522z"/>
	<path display="inline" fill="#4F74B3" d="M96,12.022v28.574c0,2.117-0.839,4.148-2.334,5.648l-6.886,6.908l-20.62-20.63
		c0,0,13.51-13.537,21.272-21.328c0.751-0.753,1.766-1.172,2.829-1.172l3.739,0C95.105,10.022,96,10.917,96,12.022z"/>
</g>
<g display="none">
	<path display="inline" fill="#FACE32" d="M78.499,62.057l-8.319,8.319c-1.47,1.46-3.389,2.205-5.308,2.205
		c-1.878,0-3.767-0.714-5.216-2.123L44.794,55.575l10.677-10.687l4.032,4.114l1.786-1.786c0.98-0.99,2.562-0.99,3.552,0l-0.01,0.01
		l-3.542,3.552l-4.685,4.695l0.521,0.643h0.01c0.214,0.214,0.439,0.388,0.684,0.551c0.235,0.163,0.48,0.296,0.745,0.388
		c0.255,0.102,0.531,0.184,0.806,0.225c0.245,0.041,0.48,0.061,0.725,0.061c0.408,0,0.806-0.051,1.194-0.163
		c0.214-0.071,0.439-0.153,0.643-0.255c0.408-0.194,0.796-0.47,1.133-0.806l1.776-1.776l5.379,5.379l2.338,2.337
		c0.102,0.102,0.214,0.204,0.327,0.286c0.225,0.184,0.449,0.337,0.694,0.459c0.102,0.061,0.214,0.112,0.327,0.153
		c0.02,0.01,0.031,0.01,0.051,0.02c0.255,0.112,0.51,0.184,0.766,0.235c0.47,0.092,0.939,0.102,1.409,0.031c0.01,0,0.01,0,0.02,0
		c0.194-0.031,0.388-0.072,0.572-0.133C77.376,62.924,77.989,62.577,78.499,62.057z"/>
	<path display="inline" fill="#F2B211" d="M84.96,55.575l-6.461,6.482c-0.51,0.521-1.123,0.868-1.776,1.051
		c-0.184,0.061-0.378,0.102-0.572,0.133c-0.01,0-0.01,0-0.02,0c-0.47,0.071-0.939,0.061-1.409-0.031
		c-0.255-0.051-0.51-0.133-0.766-0.235c-0.02-0.01-0.031-0.01-0.051-0.02c-0.112-0.041-0.225-0.092-0.327-0.153
		c-0.245-0.122-0.47-0.276-0.694-0.459c-0.112-0.082-0.225-0.184-0.327-0.286l-2.338-2.337l-5.379-5.379l-1.776,1.776
		c-0.337,0.337-0.725,0.612-1.133,0.806c-0.204,0.102-0.429,0.184-0.643,0.255c-0.388,0.112-0.786,0.163-1.194,0.163
		c-0.245,0-0.48-0.02-0.725-0.061c-0.276-0.041-0.551-0.122-0.806-0.225c-0.265-0.092-0.51-0.225-0.745-0.388
		c-0.245-0.163-0.47-0.337-0.684-0.551h-0.01l-0.521-0.643l4.685-4.695l3.542-3.552l0.01-0.01h0.01
		c0.49-0.49,1.133-0.745,1.776-0.745s1.286,0.255,1.776,0.745l1.786,1.776l0.051-0.051l4.042-4.052L84.96,55.575z"/>
	<path display="inline" fill="#4F74B3" d="M91.072,46.671c0.78,0.78,0.781,2.044,0.003,2.826l-6.084,6.109l-0.031-0.031
		L74.283,44.888l7.492-7.513L91.072,46.671z"/>
	<path display="inline" fill="#4F74B3" d="M55.471,44.888L44.794,55.575l-6.017-6.005c-0.782-0.781-0.783-2.048-0.001-2.83
		l9.214-9.214L55.471,44.888z"/>
	<path display="inline" fill="#4F74B3" d="M92,77.586v12c0,1.105-0.895,2-2,2H6c-1.105,0-2-0.895-2-2V49.243
		c0-1.061,0.421-2.078,1.172-2.828L46.586,5c0.781-0.781,2.047-0.781,2.828,0L75.78,31.366l-11.32,11.31L48,26.216h-0.01l-27.99,28
		h-0.01v21.37H90C91.105,75.586,92,76.481,92,77.586z"/>
</g>
<g display="none">
	<path display="inline" fill="#4F74B3" d="M94,86H2c-1.105,0-2-0.895-2-2V12c0-1.105,0.895-2,2-2h92c1.105,0,2,0.895,2,2v72
		C96,85.104,95.105,86,94,86z"/>
	<polygon display="inline" fill="#FFFFFF" points="62,48 38,61.86 38,34.14 	"/>
	<rect x="40" y="20" display="inline" fill="#FFFFFF" width="16" height="2"/>
	<rect x="20" y="20" display="inline" fill="#FFFFFF" width="16" height="2"/>
	<rect x="60" y="20" display="inline" fill="#FFFFFF" width="16" height="2"/>
	<rect x="80" y="20" display="inline" fill="#FFFFFF" width="16" height="2"/>
	<rect y="20" display="inline" fill="#FFFFFF" width="16" height="2"/>
	<rect x="40" y="74" display="inline" fill="#FFFFFF" width="16" height="2"/>
	<rect x="20" y="74" display="inline" fill="#FFFFFF" width="16" height="2"/>
	<rect x="60" y="74" display="inline" fill="#FFFFFF" width="16" height="2"/>
	<rect x="80" y="74" display="inline" fill="#FFFFFF" width="16" height="2"/>
	<rect y="74" display="inline" fill="#FFFFFF" width="16" height="2"/>
</g>
<g display="none">
	<path display="inline" fill="#4F74B3" d="M94,86H2c-1.105,0-2-0.895-2-2V12c0-1.105,0.895-2,2-2h92c1.105,0,2,0.895,2,2v72
		C96,85.104,95.105,86,94,86z"/>
	<circle display="inline" fill="#FFFFFF" cx="27.999" cy="38.005" r="8"/>
	<g display="inline">
		<g>
			<polygon fill="#FACE32" points="64.588,74 52,61.52 56.807,56.755 64.589,64.47 79.194,50 84,54.766 			"/>
		</g>
	</g>
	<g display="inline">
		<g>
			<rect x="52" y="22" fill="#375EA3" width="32" height="4"/>
		</g>
	</g>
	<path display="inline" fill="#FFFFFF" d="M44,74H12V54c0-2.209,1.791-4,4-4h24c2.209,0,4,1.791,4,4V74z"/>
	<g display="inline">
		<g>
			<rect x="52" y="30" fill="#375EA3" width="32" height="4"/>
		</g>
	</g>
	<g display="inline">
		<g>
			<rect x="52" y="38" fill="#375EA3" width="32" height="4"/>
		</g>
	</g>
</g>
<g display="none">
	<circle display="inline" fill="#FFFFFF" cx="48" cy="48" r="48"/>
	<g display="inline">
		<path fill="#4F74B3" d="M24.033,46h21.97V26h-19.1C25.213,32.04,24.183,38.85,24.033,46z"/>
		<path fill="#4F74B3" d="M26.903,70h19.1V50h-21.97C24.183,57.15,25.213,63.96,26.903,70z"/>
		<path fill="#4F74B3" d="M46.003,22V1.17c-7.34,1.25-13.86,9.31-17.86,20.83H46.003z"/>
		<path fill="#4F74B3" d="M73.253,70h17.404c3.119-6.035,4.997-12.811,5.292-20H75.973C75.833,57.14,74.873,63.9,73.253,70z"/>
		<path fill="#4F74B3" d="M46.003,94.83V74h-17.86C32.143,85.52,38.663,93.58,46.003,94.83z"/>
		<path fill="#4F74B3" d="M72.083,22h16.256C81.761,11.815,71.438,4.284,59.312,1.353C64.65,5.664,69.116,12.924,72.083,22z"/>
		<path fill="#4F74B3" d="M67.863,22c-4-11.52-10.52-19.58-17.86-20.83V22H67.863z"/>
		<path fill="#4F74B3" d="M73.253,26c1.62,6.1,2.58,12.86,2.72,20h19.976c-0.295-7.189-2.174-13.965-5.292-20H73.253z"/>
		<path fill="#4F74B3" d="M23.923,74H7.661c6.58,10.187,16.906,17.719,29.036,20.649C31.358,90.338,26.89,83.078,23.923,74z"/>
		<path fill="#4F74B3" d="M50.003,74v20.83c7.34-1.25,13.86-9.31,17.86-20.83H50.003z"/>
		<path fill="#4F74B3" d="M20.033,50H0.051c0.295,7.189,2.174,13.965,5.292,20h17.41C21.133,63.9,20.173,57.14,20.033,50z"/>
		<path fill="#4F74B3" d="M72.083,74c-2.967,9.076-7.433,16.336-12.771,20.647C71.438,91.716,81.761,84.185,88.339,74H72.083z"/>
		<path fill="#4F74B3" d="M5.343,26c-3.119,6.035-4.997,12.811-5.292,20h19.983c0.14-7.14,1.1-13.9,2.72-20H5.343z"/>
		<path fill="#4F74B3" d="M71.973,50h-21.97v20h19.1C70.793,63.96,71.823,57.15,71.973,50z"/>
		<path fill="#4F74B3" d="M23.923,22c2.967-9.078,7.435-16.338,12.774-20.649C24.567,4.28,14.241,11.813,7.661,22H23.923z"/>
		<path fill="#4F74B3" d="M69.103,26h-19.1v20h21.97C71.823,38.85,70.793,32.04,69.103,26z"/>
	</g>
	<g display="inline">
		<path fill="#D9624E" d="M75.908,46l-6.21-9.318l-6.504-10.586c-2.063-3.262-3.051-7.29-3.051-10.084
			C60.143,7.168,67.201,0,75.908,0s15.765,7.168,15.765,16.011c0,0,0.401,5.168-3.185,10.335L83.62,34.26L75.908,46z"/>
		<path fill="#C43F31" d="M75.914,8.718c3.624,0,6.571,2.939,6.571,6.571c0,3.624-2.947,6.571-6.571,6.571
			c-3.632,0-6.571-2.947-6.571-6.571C69.343,11.657,72.282,8.718,75.914,8.718z"/>
	</g>
</g>
<g display="none" enable-background="new    ">
	<g display="inline">
		<defs>
			<rect id="SVGID_3_" y="11.428" width="96" height="73.143"/>
		</defs>
		<clipPath id="SVGID_4_">
			<use xlink:href="#SVGID_3_"  overflow="visible"/>
		</clipPath>
		<g clip-path="url(#SVGID_4_)">
			<defs>
				<path id="SVGID_5_" d="M68.25,66.286c-6.323,10.931-18.142,18.286-31.679,18.286C16.374,84.571,0,68.198,0,48
					s16.374-36.571,36.571-36.571c13.537,0,25.355,7.354,31.679,18.286h-5.415C57.053,21.424,47.446,16,36.571,16
					c-17.673,0-32,14.327-32,32c0,17.673,14.327,32,32,32c10.874,0,20.482-5.424,26.264-13.714H68.25z"/>
			</defs>
			<clipPath id="SVGID_6_">
				<use xlink:href="#SVGID_5_"  overflow="visible"/>
			</clipPath>
			<g clip-path="url(#SVGID_6_)">
				<defs>
					<rect id="SVGID_7_" y="11.428" width="96" height="73.143"/>
				</defs>
				<clipPath id="SVGID_8_">
					<use xlink:href="#SVGID_7_"  overflow="visible"/>
				</clipPath>
				<rect x="-22.857" y="-11.429" clip-path="url(#SVGID_8_)" fill="#1DC11D" width="113.965" height="118.857"/>
			</g>
		</g>
		<g clip-path="url(#SVGID_4_)">
			<defs>
				<rect id="SVGID_9_" y="11.428" width="96" height="73.143"/>
			</defs>
			<clipPath id="SVGID_10_">
				<use xlink:href="#SVGID_9_"  overflow="visible"/>
			</clipPath>
			<g clip-path="url(#SVGID_10_)">
				<text transform="matrix(1 0 0 1 9.1455 61.7156)" fill="#0EC826" font-family="'Roboto-Regular'" font-size="36.5714">100%</text>
			</g>
			<g clip-path="url(#SVGID_10_)">
				<text transform="matrix(1 0 0 1 9.1455 61.7156)" fill="#0EC826" font-family="'Roboto-Regular'" font-size="36.5714">100%</text>
			</g>
		</g>
	</g>
</g>
<g display="none">
	<g display="inline">
		<circle fill="#5375BD" cx="48" cy="48" r="48"/>
	</g>
	<g display="inline">
		<circle fill="#FFFFFF" cx="48" cy="48" r="44"/>
	</g>
	<g display="inline">
		<path fill="#5375BD" d="M18.222,69.22c0,0,0.298-1.364,0-2.928c-0.45-2.364-1.585-3.624-3.146-6.061
			c-1.529-2.387-2.033-4.975-2.033-4.975s-0.646,5.892,0.787,8.445C15.599,66.856,18.222,69.22,18.222,69.22z"/>
		<path fill="#5375BD" d="M18.449,73.949c3.155,1.689,7.317,1.013,7.317,1.013s-0.452-0.365-1.353-1.48
			c-1.182-1.464-1.546-3.296-2.053-5.999c-0.507-2.702-4.138-6.596-4.138-6.596c1.013,1.689,1.915,4.279,2.066,7.521
			c0.095,2.027,0.639,3.229,0.639,3.229s-1.297,0.115-4.113-1.658C13.443,67.858,12,64.576,12,64.576s0.76,3.209,1.689,4.645
			C14.618,70.656,15.294,72.26,18.449,73.949z"/>
		<path fill="#5375BD" d="M37.542,77.818c0,0-0.798,0.016-2.15-0.322c-1.351-0.338-2.42-0.831-4.729-2.4
			c-3.096-2.105-5.743-5.876-5.743-5.876s0.4,2.308,1.711,4.335c1.312,2.027,2.849,3.434,2.849,3.434s-2.027,1.014-6.587,0.676
			c-4.56-0.338-7.172-2.871-7.172-2.871s0.918,1.911,3.963,3.547c1.706,0.916,4.336,2.252,8.896,2.252
			C33.76,80.592,37.542,77.818,37.542,77.818z"/>
		<path fill="#5375BD" d="M77.779,69.22c0,0,2.622-2.365,4.392-5.518c1.433-2.552,0.787-8.445,0.787-8.445s-0.504,2.588-2.033,4.975
			c-1.561,2.437-2.696,3.696-3.146,6.061C77.481,67.857,77.779,69.22,77.779,69.22z"/>
		<path fill="#5375BD" d="M79.186,69.98c-2.816,1.774-4.113,1.658-4.113,1.658s0.544-1.202,0.639-3.229
			c0.152-3.243,1.053-5.832,2.066-7.521c0,0-3.631,3.894-4.138,6.596c-0.507,2.703-0.871,4.535-2.053,5.999
			c-0.9,1.115-1.353,1.48-1.353,1.48s4.162,0.676,7.317-1.013c3.155-1.689,3.831-3.294,4.76-4.729C83.24,67.785,84,64.576,84,64.576
			S82.557,67.858,79.186,69.98z"/>
		<path fill="#5375BD" d="M66.519,76.99c0,0,1.537-1.407,2.849-3.434c1.311-2.027,1.711-4.335,1.711-4.335s-2.647,3.772-5.743,5.876
			c-2.309,1.569-3.378,2.062-4.729,2.4c-1.351,0.338-2.15,0.322-2.15,0.322s3.782,2.774,8.961,2.774c4.56,0,7.19-1.335,8.896-2.252
			c3.045-1.636,3.963-3.547,3.963-3.547s-2.612,2.533-7.172,2.871C68.546,78.003,66.519,76.99,66.519,76.99z"/>
		<path fill="#5375BD" d="M65.506,82.31c-3.716-1.013-5.451-2.248-7.753-3.12c-3.282-1.243-5.674-0.934-7.025-0.849
			c-1.351,0.084-2.702,0.38-2.702,0.38h-0.049c0,0-1.351-0.295-2.702-0.38c-1.351-0.084-3.744-0.394-7.025,0.849
			c-2.303,0.871-4.038,2.107-7.754,3.12c-3.716,1.013-7.432-0.844-7.432-0.844s1.418,1.681,1.944,2.093
			c1.135,0.887,2.659,1.693,5.938,1.482c4.004-0.257,6.516-2.224,9.261-3.955c2.745-1.731,4.687-1.267,4.687-1.267
			s-1.478,0.591-3.505,2.238c-2.027,1.647-4.18,3.842-4.18,3.842l1.689,1.52c0,0,2.956-3.42,4.856-4.806
			c1.9-1.387,4.223-2.541,4.223-2.541h0.049c0,0,2.322,1.154,4.222,2.541c1.9,1.386,4.856,4.806,4.856,4.806l1.689-1.52
			c0,0-2.153-2.196-4.18-3.842c-2.027-1.647-3.505-2.238-3.505-2.238s1.942-0.464,4.687,1.267c2.744,1.731,5.256,3.698,9.26,3.955
			c3.279,0.211,4.804-0.595,5.939-1.482c0.526-0.412,1.944-2.093,1.944-2.093S69.221,83.323,65.506,82.31z"/>
	</g>
	<g display="inline">
		<path fill="#5375BD" d="M14.551,43.919l-0.228,3.021l1.769,0.769l-0.106,1.408L8.41,45.584l0.092-1.216l8.02-2.364l-0.105,1.414
			L14.551,43.919z M13.26,46.477l0.17-2.26l-3.32,0.887L13.26,46.477z"/>
		<path fill="#5375BD" d="M15.958,36.913c-0.151-0.044-0.293-0.062-0.425-0.052s-0.265,0.06-0.398,0.149
			c-0.135,0.089-0.278,0.225-0.43,0.405c-0.152,0.182-0.326,0.421-0.521,0.718c-0.211,0.326-0.43,0.62-0.656,0.882
			c-0.226,0.263-0.462,0.476-0.708,0.641s-0.506,0.274-0.779,0.328c-0.273,0.055-0.562,0.037-0.869-0.053
			c-0.302-0.089-0.562-0.234-0.778-0.438c-0.216-0.203-0.383-0.449-0.5-0.737s-0.179-0.61-0.187-0.967s0.047-0.732,0.163-1.128
			c0.124-0.422,0.296-0.784,0.517-1.085s0.47-0.537,0.748-0.707c0.277-0.171,0.572-0.277,0.885-0.319
			c0.313-0.043,0.626-0.019,0.938,0.073l-0.381,1.299c-0.182-0.054-0.357-0.074-0.527-0.062c-0.169,0.012-0.327,0.06-0.473,0.145
			c-0.146,0.084-0.276,0.206-0.391,0.366c-0.114,0.161-0.207,0.363-0.278,0.607c-0.067,0.229-0.101,0.437-0.099,0.62
			c0.003,0.184,0.033,0.345,0.094,0.483c0.06,0.139,0.146,0.254,0.257,0.345c0.112,0.09,0.241,0.157,0.39,0.2
			c0.278,0.082,0.549,0.019,0.812-0.19c0.262-0.208,0.552-0.559,0.868-1.052c0.247-0.387,0.492-0.712,0.734-0.978
			c0.241-0.265,0.487-0.472,0.738-0.62s0.51-0.237,0.778-0.267c0.268-0.03,0.551-0.001,0.851,0.087
			c0.315,0.093,0.582,0.238,0.798,0.438c0.215,0.199,0.378,0.44,0.486,0.725c0.109,0.284,0.163,0.604,0.16,0.962
			c-0.002,0.357-0.062,0.739-0.182,1.145c-0.105,0.361-0.259,0.702-0.46,1.023c-0.2,0.322-0.44,0.594-0.72,0.813
			c-0.279,0.221-0.591,0.372-0.937,0.456c-0.346,0.083-0.718,0.066-1.116-0.05l0.383-1.305c0.237,0.069,0.453,0.088,0.647,0.053
			c0.195-0.034,0.368-0.108,0.519-0.223c0.151-0.114,0.281-0.264,0.39-0.448s0.196-0.393,0.264-0.622
			c0.133-0.454,0.141-0.822,0.023-1.104C16.469,37.188,16.259,37.002,15.958,36.913z"/>
		<path fill="#5375BD" d="M18.801,30.744c-0.14-0.073-0.274-0.118-0.405-0.135s-0.271,0.005-0.421,0.065
			c-0.149,0.062-0.317,0.165-0.502,0.312c-0.186,0.146-0.403,0.347-0.654,0.599c-0.271,0.277-0.545,0.522-0.818,0.733
			c-0.274,0.212-0.548,0.374-0.822,0.486s-0.551,0.168-0.829,0.166c-0.278-0.001-0.559-0.076-0.841-0.226
			c-0.278-0.147-0.503-0.342-0.675-0.585c-0.172-0.242-0.286-0.517-0.343-0.822c-0.058-0.306-0.054-0.634,0.01-0.984
			c0.064-0.351,0.192-0.709,0.385-1.072c0.206-0.39,0.447-0.71,0.724-0.961s0.567-0.432,0.873-0.543
			c0.307-0.112,0.617-0.157,0.932-0.137c0.315,0.021,0.617,0.107,0.905,0.26l-0.633,1.196c-0.168-0.089-0.336-0.145-0.504-0.166
			c-0.169-0.022-0.333-0.007-0.493,0.046c-0.159,0.054-0.312,0.147-0.455,0.282c-0.145,0.135-0.275,0.313-0.395,0.539
			c-0.112,0.212-0.186,0.408-0.22,0.588c-0.034,0.181-0.036,0.345-0.005,0.492c0.03,0.148,0.092,0.278,0.183,0.389
			c0.092,0.111,0.205,0.203,0.342,0.274c0.256,0.136,0.534,0.128,0.833-0.024c0.299-0.151,0.652-0.438,1.061-0.857
			c0.32-0.329,0.625-0.6,0.915-0.811c0.289-0.211,0.572-0.365,0.848-0.46c0.274-0.096,0.547-0.131,0.815-0.106
			s0.54,0.109,0.815,0.255c0.292,0.153,0.523,0.35,0.694,0.589c0.172,0.238,0.283,0.508,0.333,0.808s0.038,0.624-0.035,0.975
			c-0.074,0.35-0.209,0.711-0.407,1.085c-0.175,0.332-0.394,0.636-0.654,0.911s-0.55,0.493-0.868,0.653
			c-0.317,0.16-0.653,0.247-1.009,0.26c-0.354,0.013-0.716-0.078-1.083-0.272l0.635-1.201c0.219,0.115,0.427,0.176,0.624,0.182
			c0.198,0.005,0.382-0.033,0.553-0.115s0.328-0.202,0.471-0.362c0.144-0.159,0.271-0.345,0.383-0.557
			c0.221-0.418,0.302-0.777,0.244-1.077S19.08,30.892,18.801,30.744z"/>
		<path fill="#5375BD" d="M21.958,23.957l-2.019,2.499l1.872,1.512l2.359-2.92l0.844,0.682l-3.213,3.978l-6.084-4.914l3.189-3.949
			l0.853,0.689l-2.336,2.891l1.68,1.357l2.019-2.499L21.958,23.957z"/>
		<path fill="#5375BD" d="M27.486,20.945c-0.102-0.12-0.21-0.213-0.324-0.277c-0.115-0.064-0.254-0.097-0.415-0.097
			s-0.355,0.033-0.583,0.1c-0.227,0.067-0.504,0.17-0.831,0.31c-0.356,0.154-0.701,0.278-1.034,0.371
			c-0.334,0.094-0.648,0.141-0.944,0.142c-0.297,0.001-0.573-0.052-0.831-0.158c-0.258-0.105-0.489-0.281-0.694-0.525
			c-0.202-0.241-0.338-0.506-0.405-0.795s-0.07-0.587-0.009-0.892c0.062-0.305,0.188-0.607,0.38-0.908s0.444-0.584,0.76-0.85
			c0.337-0.283,0.681-0.489,1.031-0.617c0.351-0.129,0.688-0.187,1.015-0.176c0.325,0.012,0.63,0.087,0.914,0.225
			s0.531,0.331,0.741,0.581l-1.036,0.87c-0.122-0.145-0.258-0.26-0.405-0.344s-0.306-0.131-0.474-0.142s-0.344,0.019-0.528,0.09
			c-0.184,0.07-0.373,0.188-0.567,0.351c-0.184,0.154-0.326,0.309-0.426,0.463c-0.1,0.153-0.163,0.305-0.189,0.454
			c-0.027,0.148-0.02,0.292,0.023,0.429c0.043,0.138,0.114,0.265,0.213,0.383c0.187,0.222,0.447,0.318,0.781,0.291
			c0.334-0.028,0.77-0.16,1.306-0.396c0.42-0.185,0.804-0.32,1.152-0.407c0.348-0.086,0.667-0.122,0.958-0.107
			c0.291,0.016,0.557,0.085,0.796,0.208c0.24,0.124,0.46,0.305,0.66,0.544c0.212,0.252,0.353,0.521,0.422,0.807
			c0.069,0.285,0.071,0.576,0.005,0.873s-0.2,0.593-0.399,0.89c-0.2,0.297-0.462,0.581-0.785,0.853
			c-0.288,0.242-0.604,0.441-0.949,0.599c-0.346,0.156-0.695,0.25-1.05,0.278c-0.354,0.029-0.698-0.017-1.032-0.139
			s-0.635-0.342-0.902-0.659l1.041-0.875c0.158,0.189,0.329,0.323,0.51,0.402c0.182,0.08,0.366,0.113,0.556,0.102
			c0.189-0.011,0.38-0.063,0.572-0.158c0.192-0.094,0.38-0.218,0.563-0.372c0.362-0.304,0.572-0.605,0.632-0.906
			C27.76,21.456,27.689,21.186,27.486,20.945z"/>
		<path fill="#5375BD" d="M33.274,17.369c-0.075-0.139-0.163-0.251-0.263-0.337c-0.101-0.086-0.229-0.146-0.388-0.177
			c-0.158-0.032-0.354-0.038-0.591-0.018c-0.235,0.021-0.527,0.066-0.876,0.138c-0.38,0.081-0.742,0.134-1.088,0.159
			c-0.345,0.024-0.663,0.009-0.953-0.05c-0.291-0.058-0.552-0.164-0.783-0.319s-0.423-0.372-0.576-0.652
			c-0.15-0.276-0.23-0.563-0.239-0.86s0.047-0.589,0.168-0.875s0.306-0.558,0.553-0.815c0.247-0.257,0.552-0.483,0.913-0.681
			c0.387-0.211,0.765-0.345,1.134-0.401c0.369-0.056,0.712-0.046,1.028,0.03c0.317,0.075,0.602,0.209,0.853,0.4
			s0.454,0.431,0.61,0.717l-1.188,0.647c-0.091-0.166-0.2-0.306-0.328-0.417s-0.273-0.189-0.437-0.233
			c-0.162-0.044-0.341-0.05-0.535-0.018c-0.194,0.033-0.403,0.11-0.626,0.231c-0.211,0.115-0.381,0.238-0.509,0.369
			c-0.129,0.132-0.221,0.268-0.276,0.408s-0.076,0.282-0.062,0.425s0.059,0.282,0.132,0.417c0.14,0.255,0.375,0.401,0.708,0.44
			c0.333,0.038,0.786-0.005,1.358-0.129c0.448-0.098,0.852-0.154,1.21-0.171c0.358-0.016,0.679,0.013,0.961,0.085
			c0.282,0.073,0.528,0.193,0.739,0.362c0.21,0.169,0.39,0.39,0.539,0.663c0.157,0.289,0.242,0.581,0.253,0.875
			c0.012,0.293-0.045,0.579-0.169,0.856s-0.313,0.542-0.568,0.793c-0.254,0.251-0.567,0.478-0.938,0.68
			c-0.33,0.18-0.68,0.312-1.049,0.397c-0.37,0.086-0.731,0.107-1.084,0.065c-0.354-0.042-0.682-0.155-0.984-0.341
			c-0.304-0.186-0.554-0.461-0.753-0.826l1.193-0.65c0.118,0.217,0.258,0.383,0.42,0.496s0.337,0.184,0.524,0.21
			s0.385,0.013,0.592-0.042c0.207-0.054,0.416-0.138,0.627-0.253c0.415-0.226,0.681-0.48,0.799-0.763
			C33.442,17.925,33.425,17.646,33.274,17.369z"/>
		<path fill="#5375BD" d="M39.656,13.462l-3.063,0.963l0.722,2.296l3.581-1.127l0.325,1.035l-4.877,1.534l-2.346-7.46l4.842-1.522
			l0.328,1.045l-3.545,1.115l0.647,2.06l3.063-0.964L39.656,13.462z"/>
		<path fill="#5375BD" d="M42.056,16.456l-0.803-7.778l2.298-0.237c0.52-0.054,1.003-0.016,1.45,0.115
			c0.447,0.13,0.842,0.341,1.184,0.631c0.341,0.291,0.62,0.655,0.839,1.094c0.218,0.438,0.355,0.938,0.414,1.501l0.039,0.385
			c0.059,0.563,0.026,1.08-0.096,1.552c-0.123,0.472-0.323,0.884-0.602,1.236c-0.279,0.353-0.629,0.64-1.051,0.859
			s-0.902,0.357-1.439,0.413L42.056,16.456z M42.717,9.628l0.579,5.61l0.882-0.092c0.366-0.037,0.683-0.13,0.948-0.278
			c0.266-0.147,0.479-0.344,0.639-0.587s0.27-0.531,0.329-0.865s0.068-0.704,0.026-1.109l-0.041-0.396
			c-0.087-0.845-0.337-1.47-0.75-1.878c-0.413-0.407-0.968-0.575-1.666-0.503L42.717,9.628z"/>
		<path fill="#5375BD" d="M56.055,14.87c0.029-0.154,0.032-0.297,0.01-0.427c-0.023-0.131-0.085-0.258-0.188-0.383
			c-0.102-0.125-0.251-0.255-0.446-0.388c-0.195-0.134-0.45-0.283-0.765-0.448c-0.346-0.179-0.659-0.367-0.942-0.566
			s-0.519-0.413-0.707-0.643c-0.188-0.229-0.322-0.477-0.403-0.743c-0.08-0.267-0.091-0.557-0.032-0.869
			c0.059-0.31,0.179-0.583,0.36-0.818c0.181-0.235,0.409-0.425,0.685-0.569c0.275-0.146,0.59-0.238,0.944-0.281
			c0.354-0.042,0.733-0.024,1.138,0.052c0.433,0.082,0.81,0.218,1.131,0.408s0.58,0.415,0.777,0.675
			c0.196,0.259,0.332,0.543,0.404,0.85c0.073,0.308,0.08,0.621,0.02,0.941l-1.33-0.252c0.035-0.187,0.038-0.363,0.01-0.531
			c-0.028-0.167-0.092-0.319-0.189-0.457c-0.098-0.137-0.232-0.254-0.403-0.352c-0.171-0.099-0.382-0.171-0.631-0.218
			c-0.236-0.045-0.445-0.058-0.628-0.037c-0.182,0.021-0.34,0.066-0.472,0.141c-0.132,0.073-0.238,0.17-0.317,0.289
			c-0.079,0.12-0.133,0.256-0.161,0.407c-0.055,0.285,0.035,0.548,0.269,0.789c0.233,0.24,0.61,0.494,1.133,0.761
			c0.408,0.208,0.757,0.42,1.044,0.635s0.517,0.439,0.689,0.675c0.172,0.234,0.286,0.483,0.342,0.748
			c0.056,0.264,0.055,0.549-0.003,0.854c-0.062,0.323-0.181,0.603-0.357,0.837c-0.178,0.234-0.402,0.42-0.674,0.556
			c-0.272,0.137-0.586,0.221-0.942,0.254c-0.355,0.033-0.741,0.01-1.156-0.068c-0.37-0.07-0.725-0.189-1.064-0.357
			s-0.633-0.38-0.88-0.637c-0.246-0.256-0.429-0.552-0.545-0.888c-0.117-0.335-0.137-0.707-0.06-1.115l1.335,0.253
			c-0.046,0.242-0.042,0.459,0.011,0.649c0.054,0.19,0.145,0.355,0.273,0.494c0.128,0.14,0.29,0.254,0.484,0.344
			c0.194,0.089,0.409,0.156,0.645,0.201c0.465,0.088,0.832,0.06,1.102-0.084C55.833,15.406,55.997,15.18,56.055,14.87z"/>
		<path fill="#5375BD" d="M66.226,12.385l-2.02,4.826c-0.173,0.413-0.395,0.745-0.665,0.997s-0.571,0.431-0.902,0.536
			c-0.332,0.105-0.683,0.143-1.054,0.109c-0.37-0.032-0.742-0.127-1.115-0.283c-0.387-0.162-0.723-0.363-1.008-0.605
			c-0.285-0.241-0.505-0.517-0.658-0.825c-0.154-0.31-0.234-0.647-0.239-1.015c-0.006-0.367,0.078-0.757,0.251-1.17l2.02-4.826
			l1.248,0.522l-2.02,4.826c-0.107,0.258-0.167,0.494-0.177,0.709c-0.011,0.215,0.021,0.41,0.096,0.585
			c0.074,0.174,0.188,0.328,0.343,0.46c0.154,0.133,0.342,0.245,0.563,0.338c0.221,0.093,0.434,0.147,0.638,0.165
			s0.395-0.009,0.569-0.079s0.335-0.185,0.481-0.343c0.146-0.158,0.272-0.366,0.38-0.624l2.02-4.826L66.226,12.385z"/>
		<path fill="#5375BD" d="M67.017,18.589l-1.664,2.382l-1.114-0.778l4.48-6.41l2.452,1.714c0.372,0.261,0.668,0.543,0.886,0.846
			c0.219,0.304,0.364,0.616,0.437,0.938s0.073,0.644,0.003,0.966c-0.069,0.322-0.207,0.63-0.412,0.924
			c-0.218,0.311-0.465,0.553-0.741,0.727s-0.574,0.276-0.893,0.307c-0.318,0.031-0.654-0.009-1.007-0.12s-0.716-0.297-1.088-0.558
			L67.017,18.589z M67.642,17.696l1.338,0.936c0.215,0.149,0.417,0.252,0.608,0.307c0.19,0.056,0.37,0.069,0.537,0.042
			c0.168-0.027,0.321-0.092,0.46-0.193s0.264-0.231,0.374-0.391c0.104-0.149,0.183-0.309,0.233-0.479s0.064-0.344,0.039-0.521
			c-0.024-0.177-0.093-0.351-0.202-0.521c-0.11-0.171-0.272-0.331-0.486-0.48l-1.339-0.936L67.642,17.696z"/>
		<path fill="#5375BD" d="M72.749,23.189l-2.124,1.983l-0.927-0.993l5.716-5.337l2.041,2.187c0.311,0.332,0.541,0.67,0.691,1.012
			s0.228,0.678,0.231,1.008c0.004,0.329-0.062,0.645-0.197,0.944c-0.136,0.301-0.335,0.573-0.597,0.818
			c-0.277,0.259-0.569,0.444-0.876,0.557s-0.619,0.15-0.937,0.114c-0.318-0.036-0.638-0.146-0.96-0.327
			c-0.321-0.183-0.638-0.439-0.948-0.771L72.749,23.189z M73.546,22.445l1.114,1.194c0.179,0.19,0.355,0.333,0.531,0.426
			c0.175,0.094,0.348,0.145,0.517,0.153c0.17,0.008,0.333-0.023,0.49-0.094c0.156-0.07,0.306-0.172,0.447-0.304
			c0.134-0.125,0.242-0.265,0.328-0.42c0.085-0.155,0.134-0.322,0.146-0.501c0.012-0.178-0.018-0.361-0.09-0.552
			s-0.197-0.381-0.376-0.571l-1.114-1.193L73.546,22.445z"/>
		<path fill="#5375BD" d="M75.838,29.85l1.876,3.014l-0.921,0.573L74.2,29.269l6.64-4.132l0.718,1.154L75.838,29.85z"/>
		<path fill="#5375BD" d="M77.69,35.628l-0.551-1.237l7.146-3.178l0.55,1.236L77.69,35.628z"/>
		<path fill="#5375BD" d="M82.922,40.456l-0.877-3.089l-2.315,0.657l1.026,3.611l-1.044,0.297l-1.397-4.919l7.523-2.137l1.387,4.882
			l-1.054,0.3l-1.016-3.575l-2.077,0.59l0.878,3.09L82.922,40.456z"/>
		<path fill="#5375BD" d="M83.083,45.435l-0.12-1.51l-3.004,0.238l-0.107-1.355l7.796-0.617l0.218,2.741
			c0.035,0.446,0.016,0.848-0.058,1.206c-0.074,0.357-0.201,0.665-0.38,0.922c-0.179,0.257-0.41,0.459-0.692,0.606
			c-0.283,0.148-0.617,0.238-1.003,0.269c-0.521,0.041-0.968-0.05-1.339-0.273c-0.372-0.224-0.67-0.554-0.895-0.988l-3.111,2.009
			l-0.069,0.006l-0.115-1.451L83.083,45.435z M84.049,43.838l0.11,1.393c0.02,0.243,0.068,0.452,0.147,0.63
			c0.078,0.177,0.18,0.321,0.304,0.434c0.123,0.112,0.267,0.192,0.429,0.241c0.161,0.048,0.337,0.064,0.526,0.05
			c0.199-0.017,0.379-0.06,0.536-0.129c0.158-0.07,0.29-0.169,0.397-0.296c0.106-0.127,0.184-0.285,0.231-0.474
			s0.062-0.411,0.041-0.669l-0.109-1.387L84.049,43.838z"/>
	</g>
	<g display="inline">
		<path fill="#5375BD" d="M76.16,48c0,16.038-13.484,28.933-29.747,27.947c-13.946-0.846-25.311-12.18-26.195-26.124
			C19.185,33.538,32.096,20,48.16,20c4.245,0,8.268,0.942,11.864,2.639c0.562,0.265,0.728,0.99,0.36,1.491L43.36,47.26l-5.31-2.89
			l-0.06-0.04l-0.07-0.03c-1.029-0.514-2.103-0.753-3.212-0.716c-3.511,0.117-6.378,3.18-6.286,6.691
			c0.041,1.558,0.598,2.98,1.618,4.125l9.15,10.46c1.67,1.94,4.14,3.07,6.78,3.07c3.3,0,6.33-1.79,7.92-4.68l16.214-30.13
			c0.363-0.675,1.323-0.709,1.733-0.061C74.577,37.384,76.16,42.505,76.16,48z"/>
	</g>
	<path display="inline" fill="#D8725B" d="M67.369,28.737c0-1.402-1.152-2.504-2.504-2.504c-0.852,0-1.553,0.401-2.054,1.002
		L44.381,52.276l-8.364-4.558c-0.401-0.2-0.802-0.301-1.202-0.301c-1.403,0-2.504,1.152-2.504,2.504c0,0.651,0.2,1.202,0.601,1.653
		l9.165,10.468c0.901,1.052,2.254,1.703,3.756,1.703c1.903,0,3.556-1.052,4.407-2.604l16.828-31.252
		C67.269,29.538,67.369,29.138,67.369,28.737z"/>
</g>
</svg>
