<?xml version="1.0" encoding="utf-8"?>
<!-- Generator: Adobe Illustrator 17.0.0, SVG Export Plug-In . SVG Version: 6.00 Build 0)  -->
<!DOCTYPE svg PUBLIC "-//W3C//DTD SVG 1.1//EN" "http://www.w3.org/Graphics/SVG/1.1/DTD/svg11.dtd">
<svg version="1.1" id="图层_1" xmlns="http://www.w3.org/2000/svg" xmlns:xlink="http://www.w3.org/1999/xlink" x="0px" y="0px"
	 width="64px" height="64px" viewBox="0 0 64 64" enable-background="new 0 0 64 64" xml:space="preserve">
<g display="none">
	<g display="inline">
		<polygon fill-rule="evenodd" clip-rule="evenodd" fill="#FFBA00" points="52.268,5.564 52.268,14.501 42.484,14.501 42.484,2.636 
			32,0 21.516,2.636 21.516,14.501 11.732,14.501 11.732,5.564 1.592,8.65 4.236,55.353 32,64 59.764,55.353 62.409,8.65 		"/>
	</g>
	<polygon display="inline" fill-rule="evenodd" clip-rule="evenodd" fill="#FF991F" points="1.591,8.65 11.732,5.564 11.732,14.501 
		21.516,14.501 21.516,2.636 32,0 32,64 4.236,55.353 	"/>
	<g display="inline">
		<path fill="#FFFFFF" d="M35.643,40.639c0-1.066-0.33-1.933-0.993-2.602c-0.661-0.668-1.808-1.29-3.438-1.866
			c-2.635-0.894-4.587-1.949-5.856-3.162s-1.902-2.917-1.902-5.111c0-2.084,0.609-3.766,1.829-5.047
			c1.219-1.281,2.907-2.051,5.065-2.308v-4.008h2.942v4.044c2.145,0.319,3.797,1.204,4.955,2.657
			c1.159,1.453,1.738,3.423,1.738,5.911h-4.45c0-1.569-0.338-2.791-1.012-3.668s-1.624-1.315-2.85-1.315
			c-1.275,0-2.218,0.328-2.831,0.984c-0.614,0.656-0.92,1.56-0.92,2.712c0,1.078,0.319,1.939,0.956,2.583s1.826,1.272,3.567,1.885
			c2.635,0.944,4.572,2.013,5.81,3.208c1.238,1.196,1.857,2.884,1.857,5.066c0,2.157-0.635,3.858-1.904,5.102
			s-3.037,1.982-5.304,2.216v3.584h-2.923v-3.567c-2.232-0.233-4.049-1.02-5.453-2.362c-1.403-1.343-2.105-3.374-2.105-6.095h4.469
			c0,1.777,0.42,3.03,1.259,3.759c0.84,0.73,1.909,1.095,3.209,1.095c1.385,0,2.445-0.325,3.181-0.975
			C35.276,42.711,35.643,41.804,35.643,40.639z"/>
	</g>
	<polygon display="inline" opacity="0.2" fill-rule="evenodd" clip-rule="evenodd" fill="#FFFFFF" points="32,64 1.592,8.65 
		32,27.403 	"/>
	<polygon display="inline" opacity="0.2" fill-rule="evenodd" clip-rule="evenodd" fill="#FFFFFF" points="32,64 62.409,8.65 
		32,27.421 	"/>
</g>
<g display="none">
	<g display="inline">
		<polygon fill-rule="evenodd" clip-rule="evenodd" fill="#FACE32" points="52.268,5.564 52.268,14.501 42.484,14.501 42.484,2.636 
			32,0 21.516,2.636 21.516,14.501 11.732,14.501 11.732,5.564 1.592,8.65 4.236,55.353 32,64 59.764,55.353 62.408,8.65 		"/>
	</g>
	<g display="inline">
		<path fill="#FFFFFF" d="M35.643,40.639c0-1.066-0.33-1.933-0.993-2.602c-0.661-0.668-1.808-1.29-3.438-1.866
			c-2.635-0.894-4.587-1.949-5.856-3.162s-1.902-2.917-1.902-5.111c0-2.084,0.609-3.766,1.829-5.047
			c1.219-1.281,2.907-2.051,5.065-2.308v-4.008h2.942v4.044c2.145,0.319,3.797,1.204,4.955,2.657
			c1.159,1.453,1.738,3.423,1.738,5.911h-4.45c0-1.569-0.338-2.791-1.012-3.668c-0.674-0.876-1.624-1.315-2.85-1.315
			c-1.275,0-2.218,0.328-2.831,0.984c-0.614,0.656-0.92,1.56-0.92,2.712c0,1.078,0.319,1.939,0.956,2.583s1.826,1.272,3.567,1.885
			c2.635,0.944,4.572,2.013,5.81,3.208c1.238,1.196,1.857,2.884,1.857,5.066c0,2.157-0.635,3.858-1.904,5.102
			s-3.037,1.982-5.304,2.216v3.584h-2.923v-3.567c-2.232-0.233-4.049-1.02-5.453-2.362c-1.403-1.343-2.105-3.374-2.105-6.095h4.469
			c0,1.777,0.42,3.03,1.259,3.759c0.84,0.73,1.909,1.095,3.209,1.095c1.385,0,2.445-0.325,3.181-0.975
			C35.276,42.711,35.643,41.804,35.643,40.639z"/>
	</g>
</g>
<g display="none">
	<path display="inline" fill="#FACE32" d="M64,17.333H0V8c0-0.736,0.597-1.333,1.333-1.333h61.333C63.403,6.667,64,7.264,64,8
		V17.333z"/>
	<path display="inline" fill="#E3715D" d="M64,17.333v36.23l-3.771,3.77H1.333C0.597,57.333,0,56.736,0,56V17.333H64z"/>
	<path display="inline" fill="#FFFFFF" d="M64,53.563l-6.716-6.716c1.964-2.666,3.127-5.956,3.127-9.513
		c0-8.865-7.213-16.078-16.078-16.078s-16.077,7.213-16.077,16.078s7.212,16.077,16.077,16.077c3.386,0,6.53-1.055,9.124-2.85
		l6.772,6.772h2.438C63.403,57.333,64,56.736,64,56V53.563z M44.332,48.078c-5.924,0-10.744-4.82-10.744-10.744
		s4.82-10.745,10.744-10.745s10.745,4.82,10.745,10.745S50.257,48.078,44.332,48.078z"/>
</g>
<g display="none">
	<path display="inline" fill="#55A344" d="M30.682,60.443L4.318,45.218C3.502,44.747,3,43.876,3,42.935V4.522
		c0-0.728,0.59-1.318,1.318-1.318h55.364C60.41,3.204,61,3.794,61,4.522v38.412c0,0.942-0.502,1.812-1.318,2.283L33.318,60.443
		C32.503,60.914,31.497,60.914,30.682,60.443z"/>
	<g display="inline">
		<defs>
			<polygon id="SVGID_1_" points="24.419,44.387 9.946,48.515 3,44.503 3,3.251 61,3.251 61,44.503 37.183,58.258 			"/>
		</defs>
		<clipPath id="SVGID_2_">
			<use xlink:href="#SVGID_1_"  overflow="visible"/>
		</clipPath>
		<g clip-path="url(#SVGID_2_)">
			<path fill="#FFFFFF" d="M29.519,70.526v-5.698c-1.152-0.145-2.298-0.384-3.411-0.711c-1.826-0.536-3.478-1.395-4.91-2.553
				c-1.464-1.182-2.651-2.729-3.526-4.596c-0.872-1.856-1.314-4.113-1.314-6.707v-1.977h5.555v1.977c0,1.804,0.3,3.298,0.891,4.441
				c0.597,1.154,1.363,2.081,2.277,2.755c0.953,0.704,2.042,1.212,3.236,1.511c1.286,0.325,2.565,0.49,3.802,0.49
				c1.427,0,2.702-0.214,3.789-0.636c1.081-0.419,1.999-0.978,2.729-1.662c0.716-0.668,1.268-1.444,1.642-2.307
				c0.373-0.861,0.563-1.758,0.563-2.666c0-1.049-0.14-1.971-0.416-2.738c-0.249-0.691-0.691-1.343-1.313-1.936
				c-0.708-0.674-1.693-1.336-2.929-1.967c-1.329-0.679-3.021-1.388-5.029-2.108c-1.902-0.64-3.653-1.319-5.198-2.015
				c-1.661-0.748-3.105-1.65-4.292-2.681c-1.263-1.095-2.243-2.415-2.912-3.921c-0.664-1.494-1-3.29-1-5.338
				c0-1.832,0.319-3.54,0.947-5.077c0.64-1.562,1.572-2.926,2.772-4.056c1.178-1.107,2.602-1.995,4.231-2.637
				c1.07-0.422,2.243-0.722,3.491-0.894v-5.705h5.585v5.741c1.28,0.201,2.478,0.536,3.565,0.995c1.662,0.702,3.097,1.71,4.266,2.996
				c1.155,1.272,2.05,2.82,2.66,4.602c0.592,1.732,0.891,3.717,0.891,5.902v1.977h-5.555V31.35c0-1.375-0.199-2.656-0.591-3.809
				c-0.375-1.101-0.928-2.062-1.643-2.856c-0.702-0.778-1.59-1.399-2.64-1.845c-1.072-0.456-2.357-0.687-3.82-0.687
				c-1.559,0-2.9,0.218-3.985,0.647c-1.069,0.423-1.953,0.975-2.628,1.642c-0.663,0.655-1.162,1.416-1.484,2.261
				c-0.337,0.885-0.508,1.801-0.508,2.72c0,1.036,0.114,1.96,0.339,2.746c0.185,0.649,0.568,1.278,1.137,1.868
				c0.648,0.672,1.602,1.336,2.834,1.972c1.333,0.69,3.128,1.413,5.335,2.149c1.878,0.653,3.602,1.329,5.13,2.011
				c1.655,0.74,3.102,1.643,4.3,2.685c1.262,1.097,2.255,2.409,2.953,3.9c0.704,1.505,1.061,3.312,1.061,5.373
				c0,1.858-0.326,3.577-0.969,5.107c-0.649,1.547-1.58,2.896-2.767,4.01c-1.167,1.097-2.576,1.975-4.188,2.609
				c-1.042,0.409-2.175,0.711-3.37,0.899v5.774H29.519z"/>
		</g>
	</g>
</g>
<g display="none">
	<path display="inline" fill="#FACE32" d="M62.663,57.331H1.336c-0.736,0-1.333-0.597-1.333-1.333V32V8.003
		c0-0.736,0.597-1.333,1.333-1.333h61.327c0.736,0,1.333,0.597,1.333,1.333v47.995C63.996,56.734,63.399,57.331,62.663,57.331z"/>
	<g display="inline">
		<rect x="0.003" y="30.667" fill="#FFFFFF" width="6.666" height="2.666"/>
	</g>
	<g display="inline">
		<rect x="57.331" y="30.667" fill="#FFFFFF" width="6.666" height="2.666"/>
	</g>
	<g display="inline">
		<path fill="#FFFFFF" d="M20.125,6.669c-4.166,1.946-7.846,4.913-10.639,8.686l-0.4,0.54H0v-2.666h7.753
			c1.987-2.566,4.353-4.773,6.993-6.559H20.125z"/>
		<path fill="#FFFFFF" d="M64,13.242v2.666h-9.079l-0.4-0.54c-2.793-3.78-6.473-6.746-10.639-8.699h5.359
			c2.646,1.793,5.026,4,7.019,6.573H64z"/>
	</g>
	<g display="inline">
		<path fill="#FFFFFF" d="M20.038,57.331h-5.339c-2.38-1.626-4.546-3.613-6.426-5.906H0v-2.666h9.559l0.4,0.507
			C12.705,52.764,16.158,55.498,20.038,57.331z"/>
		<path fill="#FFFFFF" d="M63.993,48.105v2.666h-7.746c-1.986,2.566-4.353,4.773-6.993,6.559h-5.379
			c4.166-1.946,7.846-4.913,10.639-8.686l0.4-0.54H63.993z"/>
	</g>
	<g display="inline">
		<path fill="#55A344" d="M17.335,22.668h-5.999v18.665h4v-6.666h2c3.313,0,5.999-2.686,5.999-5.999
			C23.334,25.354,20.648,22.668,17.335,22.668z M19.335,29c0,0.92-0.747,1.666-1.666,1.666h-2.333v-4h2.333
			c0.92,0,1.666,0.747,1.666,1.666V29z"/>
		<polygon fill="#55A344" points="53.998,22.668 48.665,34 48.665,41.332 44.665,41.332 44.665,34 39.333,22.668 43.599,22.668 
			46.652,29.5 49.665,22.668 		"/>
		<path fill="#55A344" d="M38.439,37.999l-0.713-2.666L37.366,34l-3.033-11.332h-4.666L26.634,34l-0.36,1.333l-0.713,2.666
			l-0.893,3.333h4l0.82-3.333h5.026l0.82,3.333h4L38.439,37.999z M31.994,27.767L33.527,34h-3.06L31.994,27.767z"/>
	</g>
</g>
<g display="none">
	<path display="inline" fill="#F2B211" d="M57.854,35.437l-8.311,8.337l-0.008,0.008c-0.66,0.66-1.441,1.111-2.278,1.352
		c-1.827,0.547-3.896,0.096-5.353-1.361l-9.94-9.935l-2.295,2.294c-0.435,0.435-0.926,0.789-1.457,1.038
		c-0.266,0.129-0.547,0.241-0.829,0.322c-0.499,0.145-1.014,0.217-1.529,0.217c-0.314,0-0.628-0.032-0.942-0.081
		c-0.354-0.056-0.7-0.153-1.038-0.282c-0.33-0.129-0.652-0.298-0.958-0.499c-0.306-0.209-0.604-0.443-0.877-0.716h-0.008
		l-0.676-0.829l6.03-6.044l4.565-4.563c0.008-0.008,0.008-0.008,0.016-0.016l0-0.008c1.272-1.264,3.317-1.263,4.58,0.001
		l2.294,2.294l5.266-5.28L57.854,35.437z"/>
	<path display="inline" fill="#FACE32" d="M49.535,43.782L38.827,54.486c-1.884,1.883-4.355,2.833-6.827,2.832
		c-2.423,0-4.846-0.91-6.721-2.722L6.151,35.437l13.748-13.753l5.192,5.286l2.295-2.294c1.264-1.272,3.301-1.271,4.572,0.001
		l-0.008,0.008l0,0.008l-4.565,4.563l-6.03,6.044l0.676,0.829h0.008c0.274,0.274,0.571,0.507,0.877,0.716
		c0.306,0.201,0.628,0.37,0.958,0.499c0.338,0.129,0.684,0.225,1.038,0.282c0.314,0.056,0.628,0.081,0.942,0.081
		c0.515,0,1.03-0.072,1.529-0.217c0.282-0.08,0.563-0.193,0.829-0.322c0.531-0.249,1.022-0.604,1.457-1.038l2.295-2.286l6.921,6.924
		l3.01,3.011c1.457,1.457,3.525,1.908,5.361,1.353C48.094,44.893,48.875,44.442,49.535,43.782z"/>
	<path display="inline" fill="#4F74B3" d="M19.9,21.681L6.153,35.434l-4.597-4.612C0.56,29.822,0,28.468,0,27.057V8.014
		c0-0.736,0.597-1.333,1.333-1.333h2.493c0.708,0,1.385,0.279,1.885,0.78C10.892,12.655,19.9,21.681,19.9,21.681z"/>
	<path display="inline" fill="#4F74B3" d="M64,8.014v19.049c0,1.411-0.56,2.765-1.556,3.765l-4.591,4.606L44.107,21.681
		c0,0,9.007-9.025,14.181-14.219c0.5-0.502,1.177-0.781,1.886-0.781h2.492C63.403,6.681,64,7.278,64,8.014z"/>
</g>
<g display="none">
	<path display="inline" fill="#FACE32" d="M52.102,41.265l-5.483,5.483c-0.969,0.962-2.234,1.453-3.498,1.453
		c-1.238,0-2.483-0.471-3.438-1.399l-9.796-9.809l7.037-7.044l2.657,2.711l1.177-1.177c0.646-0.653,1.689-0.653,2.341,0
		l-0.007,0.007l-2.335,2.341l-3.088,3.095l0.343,0.424h0.007c0.141,0.141,0.289,0.256,0.451,0.363
		c0.155,0.108,0.316,0.195,0.491,0.256c0.168,0.067,0.35,0.121,0.531,0.148c0.161,0.027,0.316,0.04,0.478,0.04
		c0.269,0,0.531-0.034,0.787-0.108c0.141-0.047,0.289-0.101,0.424-0.168c0.269-0.128,0.525-0.31,0.747-0.532l1.171-1.171
		l3.545,3.546l1.541,1.541c0.067,0.067,0.141,0.135,0.215,0.188c0.148,0.121,0.296,0.222,0.457,0.303
		c0.067,0.04,0.141,0.074,0.215,0.101c0.013,0.007,0.02,0.007,0.034,0.013c0.168,0.074,0.336,0.121,0.505,0.155
		c0.309,0.061,0.619,0.067,0.928,0.02c0.007,0,0.007,0,0.013,0c0.128-0.02,0.256-0.047,0.377-0.088
		C51.362,41.837,51.765,41.608,52.102,41.265z"/>
	<path display="inline" fill="#F2B211" d="M56.36,36.993l-4.259,4.272c-0.336,0.343-0.74,0.572-1.171,0.693
		c-0.121,0.04-0.249,0.067-0.377,0.088c-0.007,0-0.007,0-0.013,0c-0.309,0.047-0.619,0.04-0.928-0.02
		c-0.168-0.034-0.336-0.088-0.505-0.155c-0.013-0.007-0.02-0.007-0.034-0.013c-0.074-0.027-0.148-0.061-0.215-0.101
		c-0.161-0.081-0.309-0.182-0.457-0.303c-0.074-0.054-0.148-0.121-0.215-0.188l-1.541-1.541L43.1,36.179l-1.171,1.171
		c-0.222,0.222-0.478,0.404-0.747,0.532c-0.135,0.067-0.283,0.121-0.424,0.168c-0.256,0.074-0.518,0.108-0.787,0.108
		c-0.161,0-0.316-0.013-0.478-0.04c-0.182-0.027-0.363-0.081-0.531-0.148c-0.175-0.061-0.336-0.148-0.491-0.256
		c-0.161-0.108-0.309-0.222-0.451-0.363h-0.007l-0.343-0.424l3.088-3.095l2.335-2.341l0.007-0.007h0.007
		c0.323-0.323,0.747-0.491,1.171-0.491s0.848,0.168,1.171,0.491l1.177,1.171l0.034-0.034l2.664-2.671L56.36,36.993z"/>
	<path display="inline" fill="#4F74B3" d="M60.388,31.124c0.514,0.514,0.515,1.347,0.002,1.862l-4.01,4.026l-0.02-0.02l-7.037-7.044
		l4.938-4.952L60.388,31.124z"/>
	<path display="inline" fill="#4F74B3" d="M36.924,29.949l-7.037,7.044l-3.966-3.958c-0.516-0.515-0.516-1.35-0.001-1.865
		l6.073-6.073L36.924,29.949z"/>
	<path display="inline" fill="#4F74B3" d="M61,51.5v7.909c0,0.728-0.59,1.318-1.318,1.318H4.318C3.59,60.727,3,60.137,3,59.409
		v-26.59c0-0.699,0.278-1.37,0.772-1.864L31.068,3.659c0.515-0.515,1.349-0.515,1.864,0L50.31,21.036l-7.461,7.454L32,17.642h-0.007
		L13.545,36.097h-0.007v14.085h46.143C60.41,50.181,61,50.772,61,51.5z"/>
</g>
<g>
	<g>
		<circle fill="#4F74B3" cx="32" cy="32" r="32"/>
	</g>
	<g>
		<circle fill="#FFFFFF" cx="32" cy="32" r="22.667"/>
	</g>
	<g>
		<circle fill="#4F74B3" cx="32.107" cy="32" r="20"/>
	</g>
	<path fill="#E36E5B" d="M31.587,43.933c-1.48,0-2.872-0.633-3.819-1.738l-6.84-7.811c-0.507-0.57-0.779-1.303-0.779-2.113
		c0-1.767,1.438-3.204,3.204-3.204c0.507,0,1.009,0.123,1.494,0.365l5.269,2.87l13.106-17.807l0.026-0.031
		c0.66-0.792,1.569-1.229,2.559-1.229c1.767,0,3.204,1.438,3.204,3.204c0,0.538-0.138,1.064-0.4,1.521L36.054,41.286
		C35.157,42.923,33.447,43.933,31.587,43.933z"/>
	<path fill="#FFFFFF" d="M45.808,14.57c1.01,0,1.871,0.823,1.871,1.871c0,0.299-0.075,0.599-0.225,0.861L34.88,40.654
		c-0.636,1.16-1.871,1.946-3.293,1.946c-1.123,0-2.133-0.487-2.807-1.272l-6.848-7.822c-0.299-0.337-0.449-0.749-0.449-1.235
		c0-1.01,0.823-1.871,1.871-1.871c0.299,0,0.599,0.075,0.898,0.225l6.25,3.406l13.772-18.712
		C44.648,14.869,45.171,14.57,45.808,14.57 M45.808,11.903c-1.392,0-2.665,0.606-3.583,1.708l-0.052,0.062l-0.048,0.065
		L29.733,30.575l-4.206-2.292l-0.042-0.023l-0.042-0.021c-0.672-0.336-1.375-0.506-2.09-0.506c-2.502,0-4.538,2.036-4.538,4.538
		c0,1.141,0.388,2.181,1.123,3.007l6.835,7.806c1.182,1.379,2.943,2.182,4.813,2.182c2.347,0,4.505-1.276,5.631-3.33L49.79,18.589
		c0.364-0.651,0.556-1.392,0.556-2.148C50.346,13.939,48.31,11.903,45.808,11.903L45.808,11.903z"/>
</g>
</svg>
