<?xml version="1.0" encoding="UTF-8" standalone="no"?>
<svg width="64px" height="64px" viewBox="0 0 64 64" version="1.1" xmlns="http://www.w3.org/2000/svg" xmlns:xlink="http://www.w3.org/1999/xlink">
    <!-- Generator: Sketch 3.8.2 (29753) - http://www.bohemiancoding.com/sketch -->
    <title>钻石面（64x64)</title>
    <desc>Created with Sketch.</desc>
    <defs>
        <rect id="path-1" x="-2.67838482e-13" y="0" width="32.201389" height="56.3349239"></rect>
        <rect id="path-3" x="0" y="0" width="32.201389" height="56.3349239"></rect>
    </defs>
    <g id="Page-1" stroke="none" stroke-width="1" fill="none" fill-rule="evenodd">
        <g id="钻石面（64x64)">
            <g id="Group-Copy-2" transform="translate(0.000000, 4.000000)">
                <g id="Group-Copy-21" transform="translate(47.728814, 28.203390) scale(-1, 1) translate(-47.728814, -28.203390) translate(31.457627, 0.000000)">
                    <mask id="mask-2" fill="white">
                        <use xlink:href="#path-1"></use>
                    </mask>
                    <use id="Mask" fill-opacity="0" fill="#FFFFFF" xlink:href="#path-1"></use>
                    <g id="Group-Copy-14" mask="url(#mask-2)">
                        <g transform="translate(0.890120, 0.000000)">
                            <polygon id="Shape" fill="#F7BC1A" points="61.2272972 14.6368375 30.9426653 53.8122289 30.8721891 53.7140696 30.8721891 53.7140696 45.8936887 14.6368375"></polygon>
                            <polygon id="Shape" fill="#FACB25" points="61.5293381 14.2540161 61.2272972 14.6368375 45.8936887 14.6368375 39.0474288 0.18778308 48.6120566 0.18778308"></polygon>
                            <path d="M21.871371,0.18778308 L15.2566758,14.6368375 L0.335856477,14.6368375 L12.5383079,0.18778308 L21.871371,0.18778308 Z M30.8721891,53.7140696 L0.335856477,14.6368375 L15.2566758,14.6368375 L30.8721891,53.7140696 Z M45.8936887,14.6368375 L30.8721891,53.7140696 L15.2566758,14.6368375 L45.8936887,14.6368375 Z M45.8936887,14.6368375 L15.2566758,14.6368375 L21.871371,0.18778308 L39.0474288,0.18778308 L45.8936887,14.6368375 Z" id="Combined-Shape" fill="#EBECF0"></path>
                        </g>
                    </g>
                </g>
                <g id="Group-Copy-22">
                    <mask id="mask-4" fill="white">
                        <use xlink:href="#path-3"></use>
                    </mask>
                    <use id="Mask" fill-opacity="0" fill="#FFFFFF" xlink:href="#path-3"></use>
                    <g id="Group-Copy-14" mask="url(#mask-4)">
                        <g transform="translate(0.890120, 0.000000)" id="Shape">
                            <polygon fill="#F7BC1A" points="61.2272972 14.6368375 30.9426653 53.8122289 30.8721891 53.7140696 30.8721891 53.7140696 45.8936887 14.6368375"></polygon>
                            <polygon fill="#FACB25" points="61.5293381 14.2540161 61.2272972 14.6368375 45.8936887 14.6368375 39.0474288 0.18778308 48.6120566 0.18778308"></polygon>
                            <polygon fill="#FF8A3D" points="21.871371 0.18778308 15.2566758 14.6368375 0.335856477 14.6368375 12.5383079 0.18778308"></polygon>
                            <polygon fill="#FF6A00" points="30.8721891 53.7140696 0.335856477 14.6368375 15.2566758 14.6368375"></polygon>
                            <polygon fill="#FF8A3D" points="45.8936887 14.6368375 30.8721891 53.7140696 15.2566758 14.6368375"></polygon>
                            <polygon fill="#FFAC74" points="45.8936887 14.6368375 15.2566758 14.6368375 21.871371 0.18778308 39.0474288 0.18778308"></polygon>
                        </g>
                    </g>
                </g>
            </g>
        </g>
    </g>
</svg>