<?xml version="1.0" encoding="UTF-8" standalone="no"?>
<svg width="64px" height="64px" viewBox="0 0 64 64" version="1.1" xmlns="http://www.w3.org/2000/svg" xmlns:xlink="http://www.w3.org/1999/xlink" xmlns:sketch="http://www.bohemiancoding.com/sketch/ns">
    <!-- Generator: Sketch 3.4.3 (16618) - http://www.bohemiancoding.com/sketch -->
    <title>64x64</title>
    <desc>Created with Sketch.</desc>
    <defs></defs>
    <g id="Page-1" stroke="none" stroke-width="1" fill="none" fill-rule="evenodd" sketch:type="MSPage">
        <g id="64x64" sketch:type="MSArtboardGroup" fill="#FF6600">
            <g id="钻石" sketch:type="MSLayerGroup" transform="translate(0.000000, 6.000000)">
                <g id="图层_1" sketch:type="MSShapeGroup">
                    <path d="M62.4966531,18.5952653 L49.7057959,1.87820408 C49.4171429,1.50073469 48.970449,1.28 48.4963265,1.28 L14.2550204,1.28 C14.2550204,1.28 13.2806531,1.38710204 12.6589388,2.29485714 C11.0406531,4.66155102 0.796734694,19.3593469 0.796734694,19.3593469 L0.112326531,20.3480816 L0.918204082,21.2414694 L28.7529796,52.0555102 C28.9724082,52.2997551 29.184,52.4930612 29.4099592,52.6406531 C29.8553469,52.9319184 31.4592653,53.3577143 32.404898,52.6576327 C32.6177959,52.500898 32.8385306,52.3271837 33.0592653,52.0907755 L59.3044898,26.6827755 C59.9079184,26.0989388 59.9235918,25.1376327 59.3397551,24.5355102 C58.7559184,23.9320816 57.7933061,23.9164082 57.1911837,24.5002449 L34.5626122,46.6899592 L44.4133878,21.0690612 L44.4186122,21.0546939 L60.5270204,21.0546939 C60.672,21.0546939 61.7051429,21.0285714 62.0460408,20.8313469 C62.1022041,20.8 62.154449,20.7634286 62.2066939,20.7242449 C62.8754286,20.2148571 63.0034286,19.2626939 62.4966531,18.5952653 L62.4966531,18.5952653 Z M48.8829388,4.08293878 L42.8081633,17.8246531 L20.6367347,17.8246531 L14.9590204,4.08293878 L48.8829388,4.08293878 L48.8829388,4.08293878 Z M12.8666122,6.9877551 L17.5137959,17.8246531 L5.39689796,17.8246531 L12.8666122,6.9877551 L12.8666122,6.9877551 Z M4.59885714,20.8065306 L18.4620408,20.8065306 L27.3515102,46.0016327 L4.59885714,20.8065306 L4.59885714,20.8065306 Z M30.9577143,47.7818776 L21.5484082,20.820898 L41.1663673,20.820898 L30.9577143,47.7818776 L30.9577143,47.7818776 Z M45.8213878,18.0166531 L50.4672653,7.81453061 L58.2360816,18.0166531 L45.8213878,18.0166531 L45.8213878,18.0166531 Z" id="Shape"></path>
                </g>
            </g>
        </g>
    </g>
</svg>