<?xml version="1.0" encoding="utf-8"?>
<!-- Generator: Adobe Illustrator 17.0.0, SVG Export Plug-In . SVG Version: 6.00 Build 0)  -->
<!DOCTYPE svg PUBLIC "-//W3C//DTD SVG 1.1//EN" "http://www.w3.org/Graphics/SVG/1.1/DTD/svg11.dtd">
<svg version="1.1" id="图层_1" xmlns="http://www.w3.org/2000/svg" xmlns:xlink="http://www.w3.org/1999/xlink" x="0px" y="0px"
	 width="64px" height="64px" viewBox="0 0 64 64" enable-background="new 0 0 64 64" xml:space="preserve">
<g display="none">
	<g display="inline">
		<polygon fill-rule="evenodd" clip-rule="evenodd" fill="#FFBA00" points="52.268,5.564 52.268,14.501 42.484,14.501 42.484,2.636 
			32,0 21.516,2.636 21.516,14.501 11.732,14.501 11.732,5.564 1.592,8.65 4.236,55.353 32,64 59.764,55.353 62.409,8.65 		"/>
	</g>
	<polygon display="inline" fill-rule="evenodd" clip-rule="evenodd" fill="#FF991F" points="1.591,8.65 11.732,5.564 11.732,14.501 
		21.516,14.501 21.516,2.636 32,0 32,64 4.236,55.353 	"/>
	<g display="inline">
		<path fill="#FFFFFF" d="M35.643,40.639c0-1.066-0.33-1.933-0.993-2.602c-0.661-0.668-1.808-1.29-3.438-1.866
			c-2.635-0.894-4.587-1.949-5.856-3.162s-1.902-2.917-1.902-5.111c0-2.084,0.609-3.766,1.829-5.047
			c1.219-1.281,2.907-2.051,5.065-2.308v-4.008h2.942v4.044c2.145,0.319,3.797,1.204,4.955,2.657
			c1.159,1.453,1.738,3.423,1.738,5.911h-4.45c0-1.569-0.338-2.791-1.012-3.668s-1.624-1.315-2.85-1.315
			c-1.275,0-2.218,0.328-2.831,0.984c-0.614,0.656-0.92,1.56-0.92,2.712c0,1.078,0.319,1.939,0.956,2.583s1.826,1.272,3.567,1.885
			c2.635,0.944,4.572,2.013,5.81,3.208c1.238,1.196,1.857,2.884,1.857,5.066c0,2.157-0.635,3.858-1.904,5.102
			s-3.037,1.982-5.304,2.216v3.584h-2.923v-3.567c-2.232-0.233-4.049-1.02-5.453-2.362c-1.403-1.343-2.105-3.374-2.105-6.095h4.469
			c0,1.777,0.42,3.03,1.259,3.759c0.84,0.73,1.909,1.095,3.209,1.095c1.385,0,2.445-0.325,3.181-0.975
			C35.276,42.711,35.643,41.804,35.643,40.639z"/>
	</g>
	<polygon display="inline" opacity="0.2" fill-rule="evenodd" clip-rule="evenodd" fill="#FFFFFF" points="32,64 1.592,8.65 
		32,27.403 	"/>
	<polygon display="inline" opacity="0.2" fill-rule="evenodd" clip-rule="evenodd" fill="#FFFFFF" points="32,64 62.409,8.65 
		32,27.421 	"/>
</g>
<g display="none">
	<g display="inline">
		<polygon fill-rule="evenodd" clip-rule="evenodd" fill="#FACE32" points="52.268,5.564 52.268,14.501 42.484,14.501 42.484,2.636 
			32,0 21.516,2.636 21.516,14.501 11.732,14.501 11.732,5.564 1.592,8.65 4.236,55.353 32,64 59.764,55.353 62.408,8.65 		"/>
	</g>
	<g display="inline">
		<path fill="#FFFFFF" d="M35.643,40.639c0-1.066-0.33-1.933-0.993-2.602c-0.661-0.668-1.808-1.29-3.438-1.866
			c-2.635-0.894-4.587-1.949-5.856-3.162s-1.902-2.917-1.902-5.111c0-2.084,0.609-3.766,1.829-5.047
			c1.219-1.281,2.907-2.051,5.065-2.308v-4.008h2.942v4.044c2.145,0.319,3.797,1.204,4.955,2.657
			c1.159,1.453,1.738,3.423,1.738,5.911h-4.45c0-1.569-0.338-2.791-1.012-3.668c-0.674-0.876-1.624-1.315-2.85-1.315
			c-1.275,0-2.218,0.328-2.831,0.984c-0.614,0.656-0.92,1.56-0.92,2.712c0,1.078,0.319,1.939,0.956,2.583s1.826,1.272,3.567,1.885
			c2.635,0.944,4.572,2.013,5.81,3.208c1.238,1.196,1.857,2.884,1.857,5.066c0,2.157-0.635,3.858-1.904,5.102
			s-3.037,1.982-5.304,2.216v3.584h-2.923v-3.567c-2.232-0.233-4.049-1.02-5.453-2.362c-1.403-1.343-2.105-3.374-2.105-6.095h4.469
			c0,1.777,0.42,3.03,1.259,3.759c0.84,0.73,1.909,1.095,3.209,1.095c1.385,0,2.445-0.325,3.181-0.975
			C35.276,42.711,35.643,41.804,35.643,40.639z"/>
	</g>
</g>
<g>
	<path fill="#FACE32" d="M64,17.333H0V8c0-0.736,0.597-1.333,1.333-1.333h61.333C63.403,6.667,64,7.264,64,8V17.333z"/>
	<path fill="#E3715D" d="M64,17.333v36.23l-3.771,3.77H1.333C0.597,57.333,0,56.736,0,56V17.333H64z"/>
	<path fill="#FFFFFF" d="M64,53.563l-6.716-6.716c1.964-2.666,3.127-5.956,3.127-9.513c0-8.865-7.213-16.078-16.078-16.078
		s-16.077,7.213-16.077,16.078s7.212,16.077,16.077,16.077c3.386,0,6.53-1.055,9.124-2.85l6.772,6.772h2.438
		C63.403,57.333,64,56.736,64,56V53.563z M44.332,48.078c-5.924,0-10.744-4.82-10.744-10.744s4.82-10.745,10.744-10.745
		s10.745,4.82,10.745,10.745S50.257,48.078,44.332,48.078z"/>
</g>
</svg>
