<?xml version="1.0" encoding="UTF-8" standalone="no"?>
<svg width="96px" height="96px" viewBox="0 0 96 96" version="1.1" xmlns="http://www.w3.org/2000/svg" xmlns:xlink="http://www.w3.org/1999/xlink" xmlns:sketch="http://www.bohemiancoding.com/sketch/ns">
    <!-- Generator: Sketch 3.4.3 (16618) - http://www.bohemiancoding.com/sketch -->
    <title>96x96</title>
    <desc>Created with Sketch.</desc>
    <defs></defs>
    <g id="Page-1" stroke="none" stroke-width="1" fill="none" fill-rule="evenodd" sketch:type="MSPage">
        <g id="96x96" sketch:type="MSArtboardGroup" fill="#FF6600">
            <g id="钻石-copy" sketch:type="MSLayerGroup" transform="translate(1.000000, 8.000000)">
                <g id="图层_1" sketch:type="MSShapeGroup">
                    <path d="M93.7449796,27.892898 L74.5586939,2.81730612 C74.1257143,2.25110204 73.4556735,1.92 72.7444898,1.92 L21.3825306,1.92 C21.3825306,1.92 19.9209796,2.08065306 18.9884082,3.44228571 C16.5609796,6.99232653 1.19510204,29.0390204 1.19510204,29.0390204 L0.168489796,30.5221224 L1.37730612,31.8622041 L43.1294694,78.0832653 C43.4586122,78.4496327 43.776,78.7395918 44.1149388,78.9609796 C44.7830204,79.3978776 47.188898,80.0365714 48.6073469,78.986449 C48.9266939,78.7513469 49.2577959,78.4907755 49.588898,78.1361633 L88.9567347,40.0241633 C89.8618776,39.1484082 89.8853878,37.706449 89.0096327,36.8032653 C88.1338776,35.8981224 86.6899592,35.8746122 85.7867755,36.7503673 L51.8439184,70.0349388 L66.6200816,31.6035918 L66.6279184,31.5820408 L90.7905306,31.5820408 C91.008,31.5820408 92.5577143,31.5428571 93.0690612,31.2470204 C93.1533061,31.2 93.2316735,31.1451429 93.3100408,31.0863673 C94.3131429,30.3222857 94.5051429,28.8940408 93.7449796,27.892898 L93.7449796,27.892898 Z M73.3244082,6.12440816 L64.2122449,26.7369796 L30.955102,26.7369796 L22.4385306,6.12440816 L73.3244082,6.12440816 L73.3244082,6.12440816 Z M19.2999184,10.4816327 L26.2706939,26.7369796 L8.09534694,26.7369796 L19.2999184,10.4816327 L19.2999184,10.4816327 Z M6.89828571,31.2097959 L27.6930612,31.2097959 L41.0272653,69.002449 L6.89828571,31.2097959 L6.89828571,31.2097959 Z M46.4365714,71.6728163 L32.3226122,31.2313469 L61.749551,31.2313469 L46.4365714,71.6728163 L46.4365714,71.6728163 Z M68.7320816,27.0249796 L75.700898,11.7217959 L87.3541224,27.0249796 L68.7320816,27.0249796 L68.7320816,27.0249796 Z" id="Shape"></path>
                </g>
            </g>
        </g>
    </g>
</svg>