<?xml version="1.0" encoding="UTF-8" standalone="no"?>
<svg width="96px" height="96px" viewBox="0 0 96 96" version="1.1" xmlns="http://www.w3.org/2000/svg" xmlns:xlink="http://www.w3.org/1999/xlink" xmlns:sketch="http://www.bohemiancoding.com/sketch/ns">
    <!-- Generator: Sketch 3.4.3 (16618) - http://www.bohemiancoding.com/sketch -->
    <title>96x96</title>
    <desc>Created with Sketch.</desc>
    <defs></defs>
    <g id="Page-1" stroke="none" stroke-width="1" fill="none" fill-rule="evenodd" sketch:type="MSPage">
        <g id="96x96" sketch:type="MSArtboardGroup">
            <g id="Fill-1-+-Fill-2-+-Fill-3-Copy-2" sketch:type="MSLayerGroup" transform="translate(3.000000, -1.000000)">
                <path d="M88.2936471,59.2018824 C79.4120784,76.486902 63.936,89.8346667 45.1896471,95.9366275 L43.3192157,95.9366275 C24.7347451,89.888 9.36658824,76.7221961 0.450509804,59.6523922 L0.450509804,1.90807843 C0.450509804,1.16203922 1.05662745,0.564078431 1.79639216,0.564078431 L86.9483922,0.564078431 C87.6881569,0.564078431 88.2936471,1.16203922 88.2936471,1.90807843 L88.2936471,59.2018824 Z" id="Fill-1" fill="#F8BD00" sketch:type="MSShapeGroup"></path>
                <path d="M88.2905098,1.90807843 L88.2905098,59.2018824 C79.4083137,76.486902 63.9328627,89.8340392 45.1865098,95.9366275 L44.3720784,95.9366275 L44.3720784,0.564078431 L86.9446275,0.564078431 C87.6850196,0.564078431 88.2905098,1.16203922 88.2905098,1.90807843" id="Fill-2" fill="#FBCC00" sketch:type="MSShapeGroup"></path>
                <path d="M40.5973333,57.3057255 C38.7312941,57.3057255 36.9756863,56.5032157 35.7822745,55.1033725 L27.1585882,45.2047059 C26.5192157,44.4825098 26.176,43.5526275 26.176,42.5261176 C26.176,40.2867451 27.9887059,38.4652549 30.2167843,38.4652549 C30.8555294,38.4652549 31.4892549,38.6208627 32.1010196,38.9283137 L38.7444706,42.5656471 L55.2690196,19.9993725 L55.3016471,19.9604706 C56.1342745,18.956549 57.28,18.4037647 58.528,18.4037647 C60.7560784,18.4037647 62.5681569,20.2252549 62.5681569,22.4646275 C62.5681569,23.1460392 62.3937255,23.8130196 62.0643137,24.3927843 L46.2299608,53.952 C45.0992941,56.025098 42.9433725,57.3057255 40.5973333,57.3057255" id="Fill-3" fill="#DB5D45" sketch:type="MSShapeGroup"></path>
            </g>
        </g>
    </g>
</svg>