<?xml version="1.0" encoding="UTF-8"?>
<svg width="64px" height="64px" viewBox="0 0 64 64" version="1.1" xmlns="http://www.w3.org/2000/svg" xmlns:xlink="http://www.w3.org/1999/xlink">
    <!-- Generator: Sketch 43.1 (39012) - http://www.bohemiancoding.com/sketch -->
    <title>64x64</title>
    <desc>Created with Sketch.</desc>
    <defs></defs>
    <g id="Page-1" stroke="none" stroke-width="1" fill="none" fill-rule="evenodd">
        <g id="64x64">
            <g id="Group" transform="translate(0.000000, 16.000000)">
                <polygon id="Rectangle-315" fill="#1DC11D" points="0 0 64 0 64 27.4285714 3.65714286 27.4285714 0 31.0857143"></polygon>
                <path d="M20.9214286,21.9428571 L18.8107143,21.9428571 L11.3,10.0285714 L11.2357143,10.05 L11.2357143,21.9428571 L9.125,21.9428571 L9.125,6.34285714 L11.2357143,6.34285714 L18.7464286,18.2464286 L18.8107143,18.225 L18.8107143,6.34285714 L20.9214286,6.34285714 L20.9214286,21.9428571 Z M32.9964286,14.7107143 L26.5892857,14.7107143 L26.5892857,20.2928571 L34.0892857,20.2928571 L34.0892857,21.9428571 L24.4785714,21.9428571 L24.4785714,6.34285714 L33.9714286,6.34285714 L33.9714286,8.00357143 L26.5892857,8.00357143 L26.5892857,13.05 L32.9964286,13.05 L32.9964286,14.7107143 Z M39.8857143,16.5321429 L40.1535714,18.5785714 L40.2178571,18.5892857 L40.5821429,16.5321429 L43.3464286,6.34285714 L45.4142857,6.34285714 L48.2,16.5321429 L48.5642857,18.6214286 L48.6285714,18.6214286 L48.9178571,16.5321429 L51.1464286,6.34285714 L53.4392857,6.34285714 L49.6678571,21.9428571 L47.7821429,21.9428571 L44.6642857,11.1214286 L44.4285714,9.71785714 L44.3642857,9.71785714 L44.1392857,11.1214286 L40.9785714,21.9428571 L39.0928571,21.9428571 L35.3321429,6.34285714 L37.6142857,6.34285714 L39.8857143,16.5321429 Z" id="NEW" fill="#FFFFFF"></path>
            </g>
        </g>
    </g>
</svg>