<?xml version="1.0" encoding="UTF-8" standalone="no"?>
<svg width="64px" height="64px" viewBox="0 0 64 64" version="1.1" xmlns="http://www.w3.org/2000/svg" xmlns:xlink="http://www.w3.org/1999/xlink" xmlns:sketch="http://www.bohemiancoding.com/sketch/ns">
    <!-- Generator: Sketch 3.4.3 (16618) - http://www.bohemiancoding.com/sketch -->
    <title>64x64</title>
    <desc>Created with Sketch.</desc>
    <defs></defs>
    <g id="Page-1" stroke="none" stroke-width="1" fill="none" fill-rule="evenodd" sketch:type="MSPage">
        <g id="64x64" sketch:type="MSArtboardGroup">
            <g id="Fill-1-+-Fill-2-+-Fill-3-Copy" sketch:type="MSLayerGroup" transform="translate(2.000000, -1.000000)">
                <path d="M58.8624314,39.4679216 C52.9413856,50.991268 42.624,59.8897778 30.1264314,63.9577516 L28.8794771,63.9577516 C16.4898301,59.9253333 6.24439216,51.1481307 0.300339869,39.7682614 L0.300339869,1.27205229 C0.300339869,0.77469281 0.704418301,0.376052288 1.19759477,0.376052288 L57.9655948,0.376052288 C58.4587712,0.376052288 58.8624314,0.77469281 58.8624314,1.27205229 L58.8624314,39.4679216 Z" id="Fill-1" fill="#F8BD00" sketch:type="MSShapeGroup"></path>
                <path d="M58.8603399,1.27205229 L58.8603399,39.4679216 C52.9388758,50.991268 42.6219085,59.8893595 30.1243399,63.9577516 L29.5813856,63.9577516 L29.5813856,0.376052288 L57.963085,0.376052288 C58.4566797,0.376052288 58.8603399,0.77469281 58.8603399,1.27205229" id="Fill-2" fill="#FBCC00" sketch:type="MSShapeGroup"></path>
                <path d="M27.0648889,38.203817 C25.8208627,38.203817 24.6504575,37.6688105 23.8548497,36.7355817 L18.1057255,30.1364706 C17.6794771,29.6550065 17.4506667,29.035085 17.4506667,28.3507451 C17.4506667,26.8578301 18.6591373,25.6435033 20.1445229,25.6435033 C20.5703529,25.6435033 20.9928366,25.7472418 21.4006797,25.9522092 L25.8296471,28.377098 L36.8460131,13.332915 L36.8677647,13.3069804 C37.4228497,12.6376993 38.1866667,12.2691765 39.0186667,12.2691765 C40.5040523,12.2691765 41.7121046,13.4835033 41.7121046,14.9764183 C41.7121046,15.4306928 41.595817,15.8753464 41.3762092,16.2618562 L30.8199739,35.968 C30.0661961,37.3500654 28.628915,38.203817 27.0648889,38.203817" id="Fill-3" fill="#DB5D45" sketch:type="MSShapeGroup"></path>
            </g>
        </g>
    </g>
</svg>