<?xml version="1.0" encoding="utf-8"?>
<!-- Generator: Adobe Illustrator 17.0.0, SVG Export Plug-In . SVG Version: 6.00 Build 0)  -->
<!DOCTYPE svg PUBLIC "-//W3C//DTD SVG 1.1//EN" "http://www.w3.org/Graphics/SVG/1.1/DTD/svg11.dtd">
<svg version="1.1" id="图层_1" xmlns="http://www.w3.org/2000/svg" xmlns:xlink="http://www.w3.org/1999/xlink" x="0px" y="0px"
	 width="42.068px" height="16px" viewBox="0 0 42.068 16" enable-background="new 0 0 42.068 16" xml:space="preserve">
<g>
	<g>
		<defs>
			<path id="SVGID_1_" d="M-278.573-17.789l-0.039,0.039c-0.629,0.641-1.357,0.981-2.107,0.981c-1.565,0-2.703-1.175-2.703-2.796
				c0-1.618,1.137-2.794,2.703-2.794c0.75,0,1.478,0.34,2.107,0.983l0.039,0.039l1.007-1.218l-0.027-0.033
				c-0.837-0.99-1.842-1.471-3.077-1.471c-1.239,0-2.373,0.417-3.189,1.169c-0.888,0.815-1.356,1.964-1.356,3.324
				c0,1.36,0.468,2.512,1.356,3.327c0.817,0.756,1.951,1.17,3.189,1.17c1.235,0,2.241-0.481,3.077-1.471l0.027-0.031
				L-278.573-17.789z"/>
		</defs>
		<clipPath id="SVGID_2_">
			<use xlink:href="#SVGID_1_"  overflow="visible"/>
		</clipPath>
		<g clip-path="url(#SVGID_2_)">
			<defs>
				<rect id="SVGID_3_" x="-417.654" y="-323.77" width="703.735" height="559.789"/>
			</defs>
			<clipPath id="SVGID_4_">
				<use xlink:href="#SVGID_3_"  overflow="visible"/>
			</clipPath>
		</g>
	</g>
</g>
<g>
	<g>
		<defs>
			<path id="SVGID_9_" d="M-280.432,11.026l-0.028,0.028c-0.455,0.463-0.981,0.709-1.523,0.709c-1.131,0-1.953-0.849-1.953-2.021
				c0-1.169,0.822-2.019,1.953-2.019c0.542,0,1.068,0.246,1.523,0.71l0.028,0.028l0.728-0.88l-0.02-0.024
				c-0.605-0.715-1.331-1.063-2.224-1.063c-0.895,0-1.715,0.302-2.305,0.845c-0.642,0.589-0.98,1.42-0.98,2.403
				s0.338,1.816,0.98,2.405c0.59,0.546,1.41,0.846,2.305,0.846c0.893,0,1.62-0.348,2.224-1.063l0.02-0.022L-280.432,11.026z"/>
		</defs>
		<clipPath id="SVGID_6_">
			<use xlink:href="#SVGID_9_"  overflow="visible"/>
		</clipPath>
		<g clip-path="url(#SVGID_6_)">
			<defs>
				<rect id="SVGID_11_" x="-424.61" y="-294.31" width="703.735" height="559.789"/>
			</defs>
			<clipPath id="SVGID_8_">
				<use xlink:href="#SVGID_11_"  overflow="visible"/>
			</clipPath>
		</g>
	</g>
</g>
<g>
	<g>
		<g>
			<g>
				<g>
					<path fill="#2893B4" d="M13.735,9.423c1.703,0.569,2.089,0.599,2.089,0.599V3.916c0-1.043-0.847-1.888-1.893-1.888H5.898
						c-1.046,0-1.893,0.845-1.893,1.888v8.009c0,1.042,0.847,1.888,1.893,1.888h8.033c1.046,0,1.893-0.845,1.893-1.888v-0.081
						c0,0-3.076-1.279-4.629-2.023c-1.042,1.278-2.386,2.054-3.78,2.054c-1.383,0-2.37-0.807-2.482-1.655c0,0.002,0,0.003,0,0.003
						S4.63,9.347,5.371,8.461c0.246-0.294,0.658-0.578,1.301-0.736c1.006-0.246,2.607,0.154,4.107,0.647
						c0.27-0.496,0.497-1.041,0.666-1.623H6.821V6.282h2.384V5.445H6.318V4.978h2.888V3.784c0,0,0-0.201,0.204-0.201h1.165v1.396
						h2.855v0.467h-2.855v0.837h2.331c-0.223,0.911-0.562,1.75-0.987,2.486C12.627,9.023,13.262,9.265,13.735,9.423z"/>
					<path fill="#1B94D3" d="M15.824,11.844v0.081c0,1.042-0.847,1.888-1.893,1.888H5.898c-1.046,0-1.893-0.845-1.893-1.888V3.916
						c0-1.043,0.847-1.888,1.893-1.888h8.033c1.046,0,1.893,0.845,1.893,1.888v6.106V11.844z"/>
				</g>
			</g>
		</g>
		<path fill="#FFFFFF" d="M13.736,9.428c-0.473-0.158-1.107-0.399-1.814-0.654c0.425-0.736,0.763-1.574,0.986-2.484h-2.329V5.453
			h2.854V4.986h-2.854V3.591H9.413c-0.204,0-0.204,0.201-0.204,0.201v1.194H6.323v0.467h2.886v0.837H6.826v0.467h4.622
			c-0.169,0.581-0.396,1.126-0.666,1.622c-1.5-0.493-3.1-0.893-4.105-0.647c-0.643,0.158-1.057,0.44-1.3,0.735
			c-1.117,1.355-0.316,3.412,2.042,3.412c1.394,0,2.737-0.775,3.778-2.052c1.552,0.744,4.626,2.022,4.626,2.022v-1.821
			C15.824,10.027,15.438,9.996,13.736,9.428z M7.199,11.091c-1.839,0-2.382-1.444-1.474-2.234C6.028,8.59,6.582,8.459,6.878,8.43
			c1.092-0.108,2.103,0.308,3.296,0.889C9.335,10.409,8.267,11.091,7.199,11.091z"/>
	</g>
	<g>
		<g>
			<path fill="#3D3A39" d="M33.258,3.88h3.437v0.68h1.227V3.88V3.755c0-0.002,0-0.003,0-0.005c0-0.181-0.142-0.328-0.318-0.331
				h-1.986V2.785h-1.285v0.634h-2.302V3.65V3.88v0.68h1.227V3.88z"/>
			<polygon fill="#3D3A39" points="25.823,2.843 24.564,5.819 25.53,5.819 25.53,9.361 26.585,9.361 26.585,4.663 26.203,4.663 
				26.998,2.843 			"/>
			<path fill="#3D3A39" d="M38.068,9.214l-0.39-1.318c-0.026-0.083-0.101-0.143-0.19-0.143h-1.022l0.296,1H35.56V6.815h2.359V6.354
				H35.56V5.442h2.359V4.98H35.56h-1.17h-2.359v0.461h2.359v0.912h-2.359v0.461h2.359v1.938h-2.359v0.461H38.068z"/>
			<path fill="#3D3A39" d="M28.305,5.144h-0.914l0.712,2.242h1.081l-0.662-2.103C28.482,5.201,28.4,5.145,28.305,5.144z"/>
			<path fill="#3D3A39" d="M30.836,2.897h-1.097v1.146h-2.704v0.461h2.704v4.121c-0.01,0.094-0.084,0.168-0.177,0.173h-0.558v0.478
				h1.422c0.225-0.01,0.405-0.196,0.41-0.428v-0.05V4.505h0.446V4.044h-0.446V2.897z"/>
			<path fill="#3D3A39" d="M22.609,5.456c0,0-0.582,2.272-4.5,3.443v0.563c0,0,4.956-0.934,5.882-4.477l-1.348,0.192L22.609,5.456z"
				/>
			<path fill="#3D3A39" d="M19.926,5.924c0,0,0.956,1.725,4.471,3.006v0.533c0,0-3.981-0.791-5.566-3.539H19.926z"/>
			<polygon fill="#3D3A39" points="23.773,5.456 18.53,5.456 18.53,4.986 23.99,4.986 			"/>
			<rect x="18.151" y="3.76" fill="#3D3A39" width="6.175" height="0.47"/>
			<path fill="#3D3A39" d="M20.794,2.803L20.794,2.803c-0.119,0-0.216,0.1-0.216,0.224c0,0,0,0,0,0v2.254h1.305V2.803H20.794z"/>
		</g>
		<path fill="#3D3A39" d="M20.532,12.507l0.182,0.55h0.511l-1.006-2.731h-0.39l-1.002,2.731h0.511l0.19-0.55H20.532z M20.038,11.029
			l0.378,1.133h-0.769L20.038,11.029z"/>
		<polygon fill="#3D3A39" points="22.836,10.325 22.836,13.057 24.49,13.057 24.49,12.685 23.328,12.685 23.328,10.325 		"/>
		<rect x="26.292" y="10.325" fill="#3D3A39" width="0.492" height="2.731"/>
		<path fill="#3D3A39" d="M29.837,10.325h-1.062v2.731h0.492v-1.05h0.57c0.53,0,0.9-0.346,0.9-0.841
			C30.737,10.671,30.367,10.325,29.837,10.325z M29.809,11.631h-0.543v-0.934h0.543c0.273,0,0.436,0.238,0.436,0.469
			C30.245,11.392,30.092,11.631,29.809,11.631z"/>
		<path fill="#3D3A39" d="M33.622,12.507l0.182,0.55h0.511l-1.006-2.731h-0.39l-1.002,2.731h0.511l0.19-0.55H33.622z M33.128,11.029
			l0.378,1.133h-0.769L33.128,11.029z"/>
		<polygon fill="#3D3A39" points="37.051,10.325 36.516,11.489 35.972,10.325 35.441,10.325 36.268,11.935 36.268,13.057 
			36.755,13.057 36.755,11.935 36.758,11.928 37.582,10.325 		"/>
	</g>
</g>
</svg>
