<?xml version="1.0" encoding="utf-8"?>
<!-- Generator: Adobe Illustrator 17.0.0, SVG Export Plug-In . SVG Version: 6.00 Build 0)  -->
<!DOCTYPE svg PUBLIC "-//W3C//DTD SVG 1.1//EN" "http://www.w3.org/Graphics/SVG/1.1/DTD/svg11.dtd">
<svg version="1.1" id="图层_1" xmlns="http://www.w3.org/2000/svg" xmlns:xlink="http://www.w3.org/1999/xlink" x="0px" y="0px"
	 width="46.791px" height="16px" viewBox="0 0 46.791 16" enable-background="new 0 0 46.791 16" xml:space="preserve">
<g>
	<path fill="#FFFFFF" d="M14.043,8.421V7.926l-0.236,0.494h-2.048L11.502,7.89v0.531H7.674L7.222,7.35H6.455L5.976,8.421H3.991
		V5.189l1.455-3.292h2.786L8.623,2.83V1.904h3.407l0.749,1.57l0.733-1.577h10.755c0,0,0.564-0.008,0.935,0.253L25.2,1.897h2.71
		v0.357c0,0,0.488-0.357,1.208-0.357c0.72,0,4.781,0,4.781,0l0.42,0.947V1.897h3.064l0.556,0.947V1.897h2.929v6.53h-3.009
		l-0.707-1.138v1.132h-3.74l-0.526-1.166h-0.733l-0.493,1.166h-2.264c0,0-0.844-0.011-1.477-0.464c0,0.237,0,0.464,0,0.464h-4.506
		c0,0,0-1.302,0-1.523c0-0.221-0.169-0.206-0.169-0.206h-0.165v1.729H14.043z"/>
	<path fill="#FFFFFF" d="M11.794,7.394h5.921l0.855,0.967l0.874-0.967h4.553c0,0,0.427,0.011,0.833,0.227V7.394c0,0,3.541,0,4.054,0
		c0.514,0,0.947,0.257,0.947,0.257V7.394h5.211v0.237c0,0,0.371-0.237,0.87-0.237c0.498,0,3.395,0,3.395,0v0.237
		c0,0,0.427-0.237,0.88-0.237c0.453,0,2.666,0,2.666,0v6.153c0,0-0.35,0.397-1.075,0.397h-3.514v-0.196c0,0-0.334,0.196-0.844,0.196
		c-0.509,0-9.336,0-9.336,0s0-1.433,0-1.59c0-0.156-0.068-0.185-0.207-0.185h-0.129v1.775h-2.917V12.18c0,0-0.323,0.174-0.864,0.174
		c-0.54,0-1.049,0-1.049,0v1.59h-3.596l-0.818-0.998l-0.875,0.998h-5.834V7.394z"/>
	<polygon fill="#0078B0" points="30.457,8.376 34.173,8.376 34.173,9.373 31.595,9.373 31.595,10.242 34.101,10.242 34.101,11.12 
		31.595,11.12 31.595,12.034 34.173,12.034 34.173,13.006 30.457,13.006 	"/>
	<path fill="#0078B0" d="M41.352,10.18c1.396,0.072,1.513,0.769,1.513,1.513c0,0.867-0.713,1.333-1.457,1.333h-2.388v-0.993h1.86
		c0.316,0,0.786,0,0.786-0.444c0-0.211-0.082-0.346-0.418-0.381c-0.149-0.022-0.702-0.052-0.786-0.054
		c-1.262-0.033-1.556-0.661-1.556-1.425c0-0.868,0.61-1.342,1.355-1.342h2.387v0.992h-1.747c-0.397,0.004-0.826-0.047-0.826,0.402
		c0,0.284,0.212,0.341,0.481,0.367C40.649,10.149,41.269,10.181,41.352,10.18z"/>
	<path fill="#0078B0" d="M37.072,10.18c1.397,0.072,1.514,0.769,1.514,1.513c0,0.867-0.712,1.333-1.457,1.333h-2.387v-0.993h1.86
		c0.315,0,0.786,0,0.786-0.444c0-0.211-0.083-0.346-0.419-0.381c-0.149-0.022-0.702-0.052-0.785-0.054
		c-1.263-0.033-1.555-0.661-1.555-1.425c0-0.868,0.609-1.342,1.353-1.342h2.387v0.992h-1.746c-0.398,0.004-0.827-0.047-0.827,0.402
		c0,0.284,0.213,0.341,0.481,0.367C36.37,10.149,36.99,10.181,37.072,10.18z"/>
	<path fill="#0078B0" d="M23.595,8.386h-3.989l-1.302,1.436l-1.26-1.446h-4.48v4.63h4.335l1.365-1.53l1.332,1.54h2.181v-1.572h1.529
		c0.589,0,1.664-0.02,1.664-1.643C24.97,8.644,24.154,8.386,23.595,8.386z M16.305,12.034h-2.621V11.12h2.507v-0.878h-2.507V9.373
		l2.764,0.006l1.107,1.26L16.305,12.034z M20.65,12.572l-1.633-1.932l1.633-1.808V12.572z M23.213,10.491h-1.416V9.38h1.42
		c0.476,0,0.626,0.305,0.626,0.532C23.843,10.223,23.678,10.491,23.213,10.491z"/>
	<path fill="#0078B0" d="M29.086,10.908c0.621-0.31,0.786-0.723,0.786-1.282c0-0.991-0.806-1.239-1.364-1.239h-2.955v4.63h1.137
		v-1.634h1.488c0.393,0,0.548,0.393,0.558,0.786l0.03,0.848h1.107l-0.042-0.951C29.83,11.321,29.624,10.97,29.086,10.908z
		 M28.105,10.429h-1.416V9.38h1.42c0.475,0,0.625,0.305,0.625,0.532C28.735,10.222,28.57,10.429,28.105,10.429z"/>
	<rect x="26.008" y="2.825" fill="#0078B0" width="1.137" height="4.635"/>
	<polygon fill="#0078B0" points="16.703,2.83 20.418,2.83 20.418,3.827 17.84,3.827 17.84,4.695 20.345,4.695 20.345,5.573 
		17.84,5.573 17.84,6.488 20.418,6.488 20.418,7.46 16.703,7.46 	"/>
	<path fill="#0078B0" d="M24.627,5.351c0.621-0.309,0.786-0.723,0.786-1.282c0-0.992-0.806-1.239-1.364-1.239h-2.956v4.63h1.137
		V5.827h1.488c0.393,0,0.548,0.392,0.558,0.785l0.031,0.848h1.106l-0.041-0.951C25.371,5.764,25.164,5.413,24.627,5.351z
		 M23.645,4.872h-1.416V3.823h1.421c0.474,0,0.625,0.305,0.625,0.532C24.275,4.665,24.11,4.872,23.645,4.872z"/>
	<path fill="#0078B0" d="M14.081,2.83l-1.395,3.105l-1.39-3.105H9.514v4.459L7.53,2.83H6.026L4,7.46h1.199l0.444-1.034h2.269
		l0.45,1.034h2.288V4.023l1.52,3.437h1.034l1.555-3.38v3.38h1.137V2.83H14.081z M6.073,5.427L6.75,3.809l0.706,1.618H6.073z"/>
	<path fill="#0078B0" d="M38.874,2.828v3.206l-1.917-3.206h-1.68v4.348L33.341,2.83h-1.504l-1.566,3.586c0,0-0.662,0-0.729-0.016
		c-0.273-0.056-0.702-0.25-0.707-1.066V4.998c0-1.085,0.589-1.165,1.345-1.165h0.702V2.828h-1.484c-0.517,0-1.641,0.394-1.679,2.296
		c-0.026,1.282,0.532,2.338,1.793,2.338h1.499l0.444-1.034h2.268l0.45,1.034h2.243v-3.39l2.046,3.39h1.55V2.828H38.874z
		 M31.892,5.429l0.677-1.618l0.713,1.618H31.892z"/>
</g>
</svg>
