<?xml version="1.0" encoding="utf-8"?>
<!-- Generator: Adobe Illustrator 17.0.0, SVG Export Plug-In . SVG Version: 6.00 Build 0)  -->
<!DOCTYPE svg PUBLIC "-//W3C//DTD SVG 1.1//EN" "http://www.w3.org/Graphics/SVG/1.1/DTD/svg11.dtd">
<svg version="1.1" id="图层_1" xmlns="http://www.w3.org/2000/svg" xmlns:xlink="http://www.w3.org/1999/xlink" x="0px" y="0px"
	 width="32.56px" height="16px" viewBox="0 0 32.56 16" enable-background="new 0 0 32.56 16" xml:space="preserve">
<g>
	<rect x="3.999" y="1.945" fill-rule="evenodd" clip-rule="evenodd" fill="#DC4443" width="24.561" height="12"/>
	<g>
		<path fill="#FFFFFF" d="M7.695,8.79L7.576,9.342H6.645l-0.543,2.563H5.446l0.543-2.563H5.053L5.172,8.79H7.695z"/>
		<path fill="#FFFFFF" d="M8.514,10.682l-0.025,0.001h0.044C8.526,10.682,8.519,10.682,8.514,10.682z"/>
		<path fill="#FFFFFF" d="M11.875,8.79h0.735l0.442,3.114h-0.706l-0.066-0.64h-1.147l-0.351,0.64h-0.68L11.875,8.79z M11.423,10.728
			h0.79l-0.129-1.225L11.423,10.728z"/>
		<path fill="#FFFFFF" d="M13.99,8.79h0.682l0.778,2.174l0.463-2.174h0.606l-0.661,3.114h-0.651l-0.803-2.212l-0.469,2.212h-0.606
			L13.99,8.79z"/>
		<path fill="#FFFFFF" d="M17.03,10.943c-0.01,0.142,0.006,0.249,0.048,0.319c0.079,0.128,0.246,0.192,0.503,0.192
			c0.153,0,0.282-0.017,0.384-0.051c0.196-0.065,0.312-0.185,0.349-0.361c0.023-0.103-0.006-0.182-0.084-0.239
			c-0.078-0.055-0.209-0.104-0.393-0.146l-0.315-0.074c-0.308-0.073-0.515-0.153-0.621-0.239c-0.179-0.144-0.236-0.368-0.171-0.674
			c0.059-0.279,0.21-0.511,0.452-0.695c0.242-0.184,0.56-0.277,0.953-0.277c0.328,0,0.589,0.087,0.784,0.261
			c0.194,0.174,0.262,0.427,0.203,0.757h-0.625c0.03-0.187-0.023-0.32-0.158-0.399c-0.09-0.052-0.211-0.078-0.361-0.078
			c-0.168,0-0.309,0.034-0.424,0.101c-0.115,0.068-0.185,0.162-0.21,0.283c-0.024,0.111,0.008,0.194,0.095,0.249
			c0.055,0.037,0.181,0.08,0.378,0.129l0.509,0.129c0.223,0.056,0.384,0.132,0.484,0.226c0.155,0.146,0.203,0.358,0.144,0.636
			c-0.061,0.284-0.22,0.521-0.478,0.709c-0.258,0.188-0.585,0.282-0.983,0.282c-0.406,0-0.705-0.093-0.898-0.278
			c-0.193-0.185-0.255-0.44-0.186-0.764H17.03z"/>
		<path fill="#FFFFFF" d="M19.793,8.795h2.208l-0.116,0.547h-1.561l-0.152,0.716h1.367l-0.114,0.541h-1.367l-0.277,1.306h-0.647
			L19.793,8.795z"/>
		<path fill="#FFFFFF" d="M24.515,9.342h-1.648l-0.139,0.661h1.513l-0.116,0.541h-1.513l-0.169,0.801h1.724l-0.118,0.56h-2.36
			l0.661-3.114h2.284L24.515,9.342z"/>
		<rect x="5.053" y="3.945" fill-rule="evenodd" clip-rule="evenodd" fill="#FFFFFF" width="7.009" height="0.341"/>
		<rect x="5.053" y="5.172" fill-rule="evenodd" clip-rule="evenodd" fill="#FFFFFF" width="5.987" height="0.341"/>
		<rect x="5.053" y="6.536" fill-rule="evenodd" clip-rule="evenodd" fill="#FFFFFF" width="4.845" height="0.341"/>
		<g>
			<path fill="#FFFFFF" d="M15.907,4.238c0.068,0.133,0.082,0.291,0.044,0.475c-0.041,0.19-0.122,0.343-0.243,0.458
				c-0.066,0.065-0.157,0.124-0.273,0.178c0.146,0.058,0.247,0.149,0.301,0.275c0.054,0.125,0.062,0.278,0.024,0.456
				c-0.039,0.185-0.121,0.35-0.245,0.497c-0.08,0.097-0.172,0.179-0.275,0.245c-0.115,0.076-0.244,0.128-0.386,0.156
				c-0.142,0.028-0.292,0.042-0.451,0.042h-1.411l0.661-3.114h1.513C15.548,3.912,15.795,4.022,15.907,4.238z M13.904,5.649
				l-0.175,0.83h0.765c0.136,0,0.246-0.018,0.33-0.055c0.154-0.068,0.251-0.197,0.292-0.389c0.034-0.162-0.01-0.273-0.131-0.334
				c-0.068-0.034-0.169-0.051-0.304-0.053H13.904z M14.16,4.447l-0.146,0.687h0.765c0.136,0,0.253-0.026,0.35-0.077
				c0.097-0.051,0.159-0.143,0.187-0.274c0.03-0.145-0.006-0.241-0.108-0.287c-0.091-0.032-0.213-0.049-0.363-0.049H14.16z"/>
			<path fill="#FFFFFF" d="M17.553,3.906h0.735L18.73,7.02h-0.706l-0.066-0.64h-1.147l-0.351,0.64h-0.68L17.553,3.906z
				 M17.101,5.843h0.79l-0.129-1.225L17.101,5.843z"/>
			<path fill="#FFFFFF" d="M19.668,3.906h0.682l0.778,2.174l0.463-2.174h0.606L21.535,7.02h-0.651l-0.803-2.212L19.613,7.02h-0.606
				L19.668,3.906z"/>
			<path fill="#FFFFFF" d="M22.705,3.906h0.64l-0.273,1.283l1.475-1.283h0.841L23.84,5.188l0.953,1.832h-0.837L23.282,5.66
				l-0.378,0.319l-0.22,1.042h-0.64L22.705,3.906z"/>
		</g>
		<path fill="#FFFFFF" d="M10.344,9.677c0.025-0.123,0.029-0.232,0.01-0.327c-0.019-0.095-0.053-0.183-0.105-0.262
			c-0.061-0.095-0.146-0.168-0.254-0.218C9.888,8.821,9.726,8.795,9.509,8.79H7.982L7.32,11.904h0.635l0.258-1.22h0.275l0.025-0.001
			c0.005,0,0.012,0,0.019,0.001c0.061,0.008,0.185,0.053,0.353,0.259c0.154,0.187,0.461,0.961,0.461,0.961h0.665
			c0,0-0.29-0.835-0.682-1.261C9.688,10.643,10.207,10.343,10.344,9.677z M9.671,9.766c-0.038,0.175-0.128,0.292-0.27,0.352
			c-0.08,0.033-0.194,0.05-0.34,0.05H8.324l0.177-0.837h0.757c0.14,0,0.243,0.019,0.305,0.055C9.675,9.451,9.711,9.578,9.671,9.766z
			"/>
		<path fill="#FFFFFF" d="M27.485,9.677c0.025-0.123,0.029-0.232,0.01-0.327c-0.019-0.095-0.053-0.183-0.105-0.262
			c-0.061-0.095-0.146-0.168-0.254-0.218c-0.106-0.049-0.269-0.075-0.485-0.08h-1.527l-0.661,3.115h0.635l0.258-1.22h0.275
			l0.025-0.001c0.005,0,0.012,0,0.019,0.001c0.061,0.008,0.185,0.053,0.353,0.259c0.154,0.187,0.461,0.961,0.461,0.961h0.665
			c0,0-0.29-0.835-0.682-1.261C26.829,10.643,27.349,10.343,27.485,9.677z M26.813,9.766c-0.038,0.175-0.128,0.292-0.27,0.352
			c-0.08,0.033-0.194,0.05-0.34,0.05h-0.738l0.177-0.837H26.4c0.14,0,0.243,0.019,0.305,0.055
			C26.817,9.451,26.852,9.578,26.813,9.766z"/>
	</g>
</g>
</svg>
