<?xml version="1.0" encoding="utf-8"?>
<!-- Generator: Adobe Illustrator 17.0.0, SVG Export Plug-In . SVG Version: 6.00 Build 0)  -->
<!DOCTYPE svg PUBLIC "-//W3C//DTD SVG 1.1//EN" "http://www.w3.org/Graphics/SVG/1.1/DTD/svg11.dtd">
<svg version="1.1" id="图层_1" xmlns="http://www.w3.org/2000/svg" xmlns:xlink="http://www.w3.org/1999/xlink" x="0px" y="0px"
	 width="66.23px" height="16px" viewBox="0 0 66.23 16" enable-background="new 0 0 66.23 16" xml:space="preserve">
<g>
	<path fill="#127CB5" d="M12.969,13.993c3.322,0.016,6.354-2.708,6.354-6.024c0-3.624-3.032-6.13-6.354-6.128h-2.86
		C6.749,1.839,3.982,4.345,3.982,7.969c0,3.316,2.767,6.04,6.128,6.024H12.969z"/>
	<path fill="#FFFFFF" d="M11.385,11.197V4.615c1.323,0.508,2.262,1.788,2.264,3.291C13.647,9.409,12.708,10.689,11.385,11.197
		 M6.598,7.906c0.003-1.502,0.941-2.782,2.263-3.291v6.581C7.539,10.687,6.601,9.408,6.598,7.906 M10.123,2.343
		C7.052,2.344,4.562,4.834,4.561,7.906c0.001,3.072,2.491,5.561,5.562,5.562c3.073-0.001,5.562-2.49,5.563-5.562
		C15.685,4.834,13.196,2.344,10.123,2.343"/>
	<g>
		<path d="M22.959,7.645c0,0.675,0.482,0.753,0.91,0.753c1.89,0,2.512-1.426,2.512-2.73c0-1.636-1.051-2.817-2.739-2.817
			c-0.359,0-0.525,0.026-0.683,0.035V7.645z M22.103,3.541c0-0.787-0.411-0.735-0.805-0.743V2.57
			c0.342,0.017,0.692,0.017,1.034,0.017c0.367,0,0.865-0.017,1.514-0.017c2.265,0,3.5,1.513,3.5,3.063
			c0,0.866-0.507,3.045-3.604,3.045c-0.446,0-0.858-0.017-1.269-0.017c-0.394,0-0.779,0.008-1.173,0.017V8.451
			c0.525-0.053,0.779-0.07,0.805-0.665V3.541z"/>
		<path d="M28.587,3.332c-0.228,0-0.429-0.21-0.429-0.438c0-0.22,0.211-0.421,0.429-0.421c0.227,0,0.428,0.185,0.428,0.421
			S28.823,3.332,28.587,3.332 M27.651,8.451h0.166c0.246,0,0.42,0,0.42-0.29V5.79c0-0.385-0.131-0.437-0.455-0.612v-0.14
			c0.41-0.123,0.901-0.289,0.936-0.314c0.061-0.036,0.113-0.045,0.157-0.045c0.044,0,0.061,0.053,0.061,0.123v3.359
			c0,0.29,0.192,0.29,0.438,0.29h0.15v0.227c-0.298,0-0.605-0.017-0.919-0.017c-0.315,0-0.631,0.008-0.954,0.017V8.451z"/>
		<path d="M30.354,5.842c0-0.323-0.097-0.41-0.506-0.577V5.099c0.375-0.122,0.734-0.236,1.153-0.42c0.027,0,0.052,0.018,0.052,0.088
			v0.569c0.5-0.358,0.929-0.656,1.516-0.656c0.743,0,1.005,0.543,1.005,1.225v2.257c0,0.29,0.193,0.29,0.438,0.29h0.158v0.227
			c-0.308,0-0.615-0.017-0.928-0.017c-0.315,0-0.63,0.008-0.945,0.017V8.451h0.156c0.246,0,0.42,0,0.42-0.29V5.896
			c0-0.499-0.304-0.744-0.804-0.744c-0.279,0-0.726,0.228-1.016,0.421v2.589c0,0.29,0.195,0.29,0.439,0.29h0.157v0.227
			c-0.306,0-0.612-0.017-0.928-0.017c-0.314,0-0.63,0.008-0.945,0.017V8.451h0.158c0.244,0,0.419,0,0.419-0.29V5.842z"/>
		<path d="M36.383,5.983c0.219,0,0.244-0.114,0.244-0.219c0-0.447-0.271-0.805-0.761-0.805c-0.534,0-0.901,0.394-1.006,1.024H36.383
			z M34.835,6.263c-0.017,0.079-0.017,0.209,0,0.507c0.052,0.832,0.587,1.514,1.285,1.514c0.482,0,0.859-0.263,1.182-0.586
			l0.122,0.122c-0.403,0.535-0.901,0.988-1.618,0.988c-1.391,0-1.672-1.347-1.672-1.907c0-1.716,1.155-2.223,1.768-2.223
			c0.709,0,1.471,0.447,1.479,1.374c0,0.053,0,0.105-0.007,0.157l-0.08,0.053H34.835z"/>
		<path d="M37.583,8.451h0.236c0.244,0,0.42,0,0.42-0.29V5.703c0-0.271-0.323-0.324-0.455-0.395V5.177
			c0.638-0.271,0.989-0.499,1.069-0.499c0.051,0,0.077,0.027,0.077,0.115v0.787h0.019c0.218-0.341,0.586-0.902,1.12-0.902
			c0.219,0,0.499,0.148,0.499,0.463c0,0.237-0.166,0.447-0.411,0.447c-0.272,0-0.272-0.21-0.579-0.21
			c-0.148,0-0.637,0.202-0.637,0.727v2.056c0,0.29,0.175,0.29,0.42,0.29h0.489v0.227C39.367,8.669,39,8.66,38.624,8.66
			c-0.359,0-0.726,0.008-1.041,0.017V8.451z"/>
		<path d="M40.951,7.461c0.113,0.578,0.464,1.068,1.102,1.068c0.516,0,0.708-0.316,0.708-0.622c0-1.032-1.906-0.7-1.906-2.109
			c0-0.49,0.393-1.12,1.356-1.12c0.279,0,0.655,0.079,0.997,0.254l0.061,0.892h-0.202c-0.087-0.55-0.394-0.865-0.954-0.865
			c-0.35,0-0.682,0.201-0.682,0.577c0,1.024,2.03,0.708,2.03,2.082c0,0.578-0.464,1.19-1.505,1.19c-0.35,0-0.762-0.122-1.067-0.296
			l-0.096-1.006L40.951,7.461z"/>
		<path d="M51.364,4.153h-0.219c-0.166-1.023-0.893-1.434-1.873-1.434c-1.006,0-2.469,0.673-2.469,2.774
			c0,1.768,1.262,3.037,2.608,3.037c0.867,0,1.585-0.595,1.76-1.514l0.201,0.052l-0.201,1.278c-0.369,0.228-1.358,0.464-1.935,0.464
			c-2.047,0-3.341-1.32-3.341-3.29c0-1.794,1.601-3.08,3.315-3.08c0.708,0,1.391,0.228,2.066,0.464L51.364,4.153z"/>
		<path d="M51.68,8.451h0.166c0.246,0,0.42,0,0.42-0.29V3.288c0-0.569-0.131-0.587-0.465-0.683v-0.14
			c0.352-0.113,0.719-0.271,0.903-0.377c0.095-0.052,0.166-0.096,0.192-0.096c0.052,0,0.07,0.053,0.07,0.123v6.046
			c0,0.29,0.193,0.29,0.439,0.29h0.147v0.227c-0.297,0-0.603-0.017-0.918-0.017c-0.315,0-0.63,0.008-0.954,0.017V8.451z"/>
		<path d="M57.298,8.196c0,0.158,0.096,0.166,0.244,0.166c0.105,0,0.236-0.008,0.35-0.008v0.184c-0.377,0.035-1.095,0.219-1.26,0.27
			l-0.044-0.026V8.074c-0.525,0.429-0.928,0.734-1.55,0.734c-0.473,0-0.963-0.305-0.963-1.04V5.527c0-0.227-0.034-0.447-0.524-0.49
			V4.872c0.314-0.009,1.014-0.062,1.128-0.062c0.097,0,0.097,0.062,0.097,0.254v2.258c0,0.263,0,1.015,0.761,1.015
			c0.297,0,0.691-0.228,1.059-0.533V5.449c0-0.175-0.42-0.271-0.734-0.358V4.932C56.65,4.88,57.14,4.81,57.227,4.81
			c0.071,0,0.071,0.062,0.071,0.158V8.196z"/>
		<path d="M59.038,7.689c0,0.332,0.315,0.893,0.901,0.893c0.938,0,1.329-0.92,1.329-1.699c0-0.944-0.717-1.732-1.399-1.732
			c-0.324,0-0.595,0.21-0.832,0.412V7.689z M59.038,5.308c0.35-0.297,0.823-0.63,1.304-0.63c1.015,0,1.627,0.885,1.627,1.838
			c0,1.146-0.84,2.292-2.091,2.292c-0.648,0-0.989-0.21-1.217-0.305L58.4,8.704l-0.183-0.096c0.077-0.516,0.122-1.024,0.122-1.558
			V3.288c0-0.569-0.132-0.587-0.464-0.683v-0.14c0.35-0.113,0.717-0.271,0.901-0.377c0.096-0.052,0.165-0.096,0.193-0.096
			c0.052,0,0.069,0.052,0.069,0.122V5.308z"/>
		<path d="M21.287,13.766h0.067c0.171,0,0.352-0.024,0.352-0.272v-2.493c0-0.248-0.181-0.272-0.352-0.272h-0.067v-0.143
			c0.187,0,0.473,0.019,0.706,0.019c0.238,0,0.524-0.019,0.747-0.019v0.143h-0.066c-0.171,0-0.353,0.024-0.353,0.272v2.493
			c0,0.248,0.182,0.272,0.353,0.272h0.066v0.143c-0.228,0-0.514-0.02-0.752-0.02c-0.233,0-0.514,0.02-0.701,0.02V13.766z"/>
		<path d="M22.72,13.888v-0.102h-0.046c-0.17,0-0.373-0.029-0.374-0.293v-2.493c0.001-0.264,0.204-0.293,0.374-0.293h0.046v-0.101
			c-0.221,0-0.495,0.019-0.727,0.019c-0.226,0-0.5-0.018-0.685-0.019v0.101h0.045c0.171,0,0.373,0.03,0.373,0.293v2.493
			c0,0.264-0.202,0.293-0.373,0.293h-0.045v0.102c0.185-0.002,0.454-0.019,0.68-0.019C22.22,13.869,22.495,13.887,22.72,13.888
			 M22.74,13.929c-0.229,0-0.514-0.018-0.752-0.018c-0.233,0-0.512,0.018-0.701,0.018h-0.02v-0.02v-0.143v-0.022h0.02h0.066
			c0.175-0.004,0.33-0.017,0.332-0.251v-2.493c-0.001-0.234-0.157-0.248-0.332-0.252h-0.086v-0.021v-0.164h0.02
			c0.188,0,0.473,0.019,0.706,0.019c0.238,0,0.522-0.019,0.747-0.019h0.021v0.022v0.163H22.74h-0.066
			c-0.172,0.003-0.332,0.018-0.332,0.252v2.493c0,0.234,0.16,0.247,0.332,0.251h0.087v0.022v0.162H22.74z"/>
		<path d="M26.011,12.971l0.009-0.01v-1.785c0-0.39-0.271-0.448-0.414-0.448h-0.105v-0.143c0.223,0,0.443,0.019,0.667,0.019
			c0.195,0,0.39-0.019,0.585-0.019v0.143h-0.071c-0.201,0-0.424,0.038-0.424,0.605V13.5c0,0.167,0.005,0.333,0.029,0.48h-0.181
			l-2.452-2.733v1.962c0,0.415,0.081,0.558,0.448,0.558h0.081v0.143c-0.204,0-0.409-0.02-0.615-0.02c-0.213,0-0.433,0.02-0.647,0.02
			v-0.143h0.067c0.328,0,0.428-0.224,0.428-0.605v-2.005c0-0.266-0.219-0.428-0.433-0.428H22.92v-0.143
			c0.181,0,0.367,0.019,0.546,0.019c0.145,0,0.282-0.019,0.425-0.019L26.011,12.971z"/>
		<path d="M26.001,12.961V12.96l-0.005-0.004L26.001,12.961z M26.011,12.971l0.015-0.014L26.011,12.971z M26.106,13.959h0.158
			c-0.022-0.143-0.026-0.301-0.026-0.459v-2.168c0-0.57,0.239-0.625,0.444-0.625h0.051v-0.101c-0.187,0.001-0.375,0.019-0.565,0.019
			c-0.218,0-0.431-0.018-0.646-0.019v0.101h0.084c0.146,0,0.435,0.065,0.435,0.469l-0.006,1.8l-0.01,0.009L26.009,13l-2.117-2.394
			c-0.141,0-0.279,0.019-0.425,0.019c-0.173,0-0.353-0.018-0.525-0.019l-0.001,0.101h0.042c0.223,0,0.454,0.171,0.454,0.449v2.005
			c0,0.381-0.106,0.624-0.449,0.626l-0.046-0.001v0.102c0.206-0.002,0.419-0.019,0.626-0.019c0.199,0,0.398,0.017,0.593,0.019
			v-0.101h-0.06c-0.374-0.001-0.468-0.163-0.468-0.578v-2.015L26.106,13.959z M26.287,14l-0.196-0.007L23.674,11.3v1.908
			c0.006,0.415,0.069,0.532,0.428,0.536h0.102v0.022v0.162h-0.021c-0.206,0-0.41-0.018-0.615-0.018
			c-0.212,0-0.431,0.018-0.647,0.018h-0.021v-0.02v-0.164h0.021h0.067c0.314-0.002,0.404-0.204,0.409-0.583v-2.005
			c-0.001-0.253-0.211-0.408-0.414-0.408h-0.084v-0.021v-0.162h0.021c0.182,0,0.368,0.017,0.546,0.017
			c0.142,0,0.281-0.017,0.441-0.011l2.093,2.356v-1.751c-0.004-0.379-0.257-0.424-0.395-0.428H25.48v-0.021v-0.162h0.021
			c0.224,0,0.444,0.017,0.667,0.017c0.195,0,0.389-0.017,0.585-0.017h0.021v0.02v0.164h-0.021h-0.071
			c-0.197,0.006-0.398,0.022-0.403,0.584V13.5c0,0.166,0.004,0.332,0.026,0.476L26.31,14H26.287z"/>
		<path d="M27.467,10.823c-0.358,0-0.373,0.085-0.443,0.433h-0.143c0.019-0.133,0.042-0.266,0.059-0.405
			c0.017-0.134,0.027-0.267,0.027-0.404h0.113c0.039,0.143,0.157,0.137,0.287,0.137h2.456c0.13,0,0.248-0.004,0.257-0.147
			l0.115,0.019c-0.019,0.128-0.039,0.257-0.052,0.385c-0.009,0.129-0.009,0.257-0.009,0.386l-0.143,0.053
			c-0.01-0.176-0.034-0.458-0.353-0.458h-0.781v2.534c0,0.367,0.167,0.409,0.395,0.409h0.09v0.143c-0.185,0-0.519-0.02-0.776-0.02
			c-0.285,0-0.618,0.02-0.804,0.02v-0.143h0.09c0.263,0,0.395-0.024,0.395-0.4v-2.543H27.467z"/>
		<path d="M29.344,13.929c-0.187,0-0.52-0.018-0.777-0.018c-0.285,0-0.617,0.018-0.804,0.018h-0.021V13.91v-0.165h0.021h0.09
			c0.263-0.005,0.368-0.009,0.374-0.378v-2.523h-0.759v-0.021v-0.021h0.8v2.564c0,0.382-0.153,0.42-0.415,0.421h-0.07v0.1
			c0.188-0.001,0.507-0.018,0.784-0.018c0.249,0,0.567,0.017,0.756,0.018v-0.1h-0.07c-0.231-0.001-0.415-0.057-0.415-0.43v-2.555
			h0.802c0.318,0.001,0.36,0.273,0.37,0.449l0.103-0.038c0-0.124,0.001-0.249,0.01-0.374c0.014-0.122,0.03-0.244,0.049-0.365
			l-0.072-0.012c-0.022,0.138-0.156,0.145-0.277,0.143h-2.455h-0.025c-0.112,0-0.234-0.004-0.277-0.138h-0.079
			c-0.001,0.132-0.011,0.259-0.029,0.386c-0.014,0.131-0.035,0.256-0.052,0.383h0.101c0.064-0.332,0.103-0.44,0.46-0.435v0.021
			v0.021c-0.353,0.007-0.345,0.065-0.424,0.418l-0.002,0.016h-0.016h-0.168l0.004-0.025c0.019-0.134,0.044-0.267,0.057-0.405
			c0.02-0.132,0.029-0.265,0.029-0.401v-0.021h0.021h0.131l0.002,0.014c0.032,0.121,0.121,0.121,0.242,0.123h0.025h2.455
			c0.133-0.002,0.229-0.003,0.238-0.128l0.001-0.022l0.022,0.004l0.135,0.022l-0.004,0.021c-0.019,0.128-0.037,0.256-0.052,0.384
			c-0.009,0.127-0.009,0.255-0.009,0.384v0.014l-0.014,0.006l-0.168,0.061l-0.001-0.028c-0.014-0.178-0.031-0.437-0.332-0.437
			h-0.761v2.513c0.004,0.359,0.146,0.383,0.374,0.388h0.111v0.022v0.162H29.344z"/>
		<path d="M30.346,13.766h0.069c0.171,0,0.352-0.024,0.352-0.272v-2.493c0-0.248-0.181-0.272-0.352-0.272h-0.069v-0.143
			c0.291,0,0.787,0.019,1.186,0.019c0.4,0,0.895-0.019,1.219-0.019c-0.009,0.204-0.004,0.52,0.01,0.729l-0.143,0.038
			c-0.024-0.31-0.08-0.556-0.581-0.556h-0.661v1.246h0.566c0.286,0,0.348-0.161,0.377-0.42h0.142
			c-0.009,0.186-0.014,0.372-0.014,0.558c0,0.181,0.005,0.362,0.014,0.543l-0.142,0.028c-0.029-0.285-0.042-0.47-0.373-0.47h-0.57
			v1.108c0,0.31,0.276,0.31,0.58,0.31c0.572,0,0.824-0.038,0.966-0.58l0.135,0.032c-0.064,0.253-0.12,0.505-0.162,0.758
			c-0.305,0-0.853-0.02-1.28-0.02c-0.43,0-0.995,0.02-1.268,0.02V13.766z"/>
		<path d="M32.876,13.887c0.042-0.24,0.097-0.481,0.155-0.721l-0.094-0.024c-0.143,0.533-0.419,0.581-0.98,0.577
			c-0.3,0-0.601,0-0.602-0.331V12.26h0.591c0.333-0.004,0.367,0.196,0.39,0.468l0.103-0.022c-0.01-0.175-0.014-0.35-0.014-0.525
			c0-0.18,0.004-0.358,0.014-0.537h-0.103c-0.026,0.249-0.103,0.422-0.394,0.419h-0.587v-1.289h0.682
			c0.496-0.003,0.577,0.252,0.6,0.551l0.102-0.027c-0.007-0.134-0.014-0.307-0.014-0.466c0-0.081,0.001-0.159,0.004-0.226
			c-0.323,0.001-0.804,0.019-1.197,0.019c-0.392,0-0.873-0.018-1.165-0.019v0.101h0.047c0.168,0,0.372,0.03,0.373,0.293v2.493
			c-0.001,0.264-0.205,0.292-0.373,0.293h-0.047v0.1c0.278,0,0.827-0.018,1.247-0.018S32.569,13.887,32.876,13.887 M32.895,13.929
			c-0.305,0-0.854-0.019-1.28-0.019c-0.43,0-0.995,0.019-1.268,0.019h-0.019V13.91v-0.143v-0.022h0.019h0.069
			c0.172-0.003,0.329-0.017,0.33-0.251v-2.493c-0.001-0.233-0.158-0.248-0.33-0.252h-0.087v-0.021v-0.163h0.019
			c0.292,0,0.787,0.017,1.186,0.017c0.4,0,0.895-0.017,1.219-0.017h0.021v0.021c-0.005,0.072-0.006,0.157-0.006,0.246
			c0,0.165,0.006,0.344,0.015,0.48v0.018l-0.015,0.004l-0.167,0.044l-0.002-0.024c-0.027-0.309-0.069-0.533-0.56-0.537h-0.642v1.205
			h0.547c0.274-0.002,0.323-0.143,0.355-0.4l0.002-0.019h0.019h0.163l-0.001,0.022c-0.007,0.185-0.014,0.371-0.014,0.556
			c0,0.18,0.006,0.361,0.014,0.541l0.001,0.018l-0.017,0.003L32.3,12.777l-0.002-0.023c-0.032-0.291-0.035-0.449-0.352-0.453h-0.551
			v1.088c0.001,0.29,0.252,0.288,0.562,0.29c0.572-0.004,0.803-0.031,0.946-0.567l0.005-0.019l0.019,0.004l0.153,0.039l-0.005,0.021
			c-0.061,0.251-0.118,0.504-0.161,0.757l-0.004,0.016H32.895z"/>
		<path d="M34.307,12.194h0.234c0.476,0,0.732-0.18,0.732-0.742c0-0.424-0.269-0.695-0.694-0.695c-0.143,0-0.204,0.014-0.272,0.018
			V12.194z M33.699,11.09c0-0.347-0.191-0.362-0.339-0.362h-0.085v-0.143c0.152,0,0.446,0.019,0.738,0.019
			c0.286,0,0.514-0.019,0.766-0.019c0.6,0,1.135,0.161,1.135,0.839c0,0.428-0.287,0.69-0.662,0.838l0.814,1.218
			c0.133,0.201,0.228,0.257,0.463,0.286v0.143c-0.158,0-0.31-0.02-0.468-0.02c-0.147,0-0.3,0.02-0.448,0.02
			c-0.367-0.481-0.682-0.996-0.99-1.544h-0.315v1.02c0,0.367,0.172,0.381,0.39,0.381h0.086v0.143c-0.271,0-0.546-0.02-0.818-0.02
			c-0.229,0-0.453,0.02-0.691,0.02v-0.143h0.085c0.178,0,0.339-0.081,0.339-0.257V11.09z"/>
		<path d="M34.542,12.174c0.471-0.004,0.708-0.168,0.713-0.721c-0.004-0.416-0.262-0.674-0.676-0.675
			c-0.128,0-0.19,0.011-0.251,0.017v1.38H34.542z M34.307,12.215h-0.02v-1.457l0.019-0.002c0.065-0.006,0.128-0.018,0.273-0.018
			c0.434,0,0.716,0.282,0.717,0.716c-0.001,0.569-0.276,0.762-0.754,0.762H34.307z M34.307,12.345h0.327l0.005,0.011
			c0.31,0.547,0.623,1.062,0.974,1.533c0.145,0,0.299-0.019,0.446-0.019c0.152,0,0.299,0.016,0.448,0.018v-0.104
			c-0.224-0.027-0.329-0.094-0.459-0.292l-0.828-1.239l0.022-0.01c0.373-0.147,0.65-0.401,0.65-0.818
			c0-0.661-0.515-0.815-1.113-0.818c-0.251,0-0.48,0.019-0.766,0.019c-0.281,0-0.562-0.018-0.718-0.019v0.101h0.065
			c0.15,0,0.359,0.025,0.359,0.382v2.419c0,0.191-0.178,0.278-0.359,0.278h-0.065v0.1c0.229,0,0.446-0.018,0.669-0.018
			c0.266,0,0.535,0.018,0.798,0.018v-0.1h-0.065c-0.217-0.001-0.41-0.026-0.41-0.402v-1.04H34.307z M36.528,13.929
			c-0.161,0-0.313-0.018-0.469-0.018c-0.145,0-0.297,0.018-0.463,0.011c-0.365-0.479-0.678-0.991-0.986-1.534h-0.282v0.998
			c0.005,0.358,0.148,0.355,0.369,0.36h0.107v0.022v0.162h-0.021c-0.272,0-0.549-0.018-0.819-0.018
			c-0.227,0-0.451,0.018-0.689,0.018h-0.021v-0.02v-0.164h0.021h0.085c0.172-0.001,0.317-0.074,0.318-0.236V11.09
			c-0.004-0.337-0.168-0.336-0.318-0.341h-0.106v-0.021v-0.164h0.021c0.155,0,0.448,0.019,0.738,0.019
			c0.284,0,0.512-0.019,0.766-0.019c0.601,0.002,1.153,0.167,1.155,0.86c0,0.429-0.284,0.698-0.651,0.847l0.799,1.198
			c0.133,0.198,0.217,0.247,0.449,0.276l0.017,0.003v0.019v0.162H36.528z"/>
		<path d="M39.759,12.971l0.009-0.01v-1.785c0-0.39-0.272-0.448-0.414-0.448H39.25v-0.143c0.223,0,0.443,0.019,0.667,0.019
			c0.196,0,0.389-0.019,0.586-0.019v0.143h-0.071c-0.201,0-0.424,0.038-0.424,0.605V13.5c0,0.167,0.005,0.333,0.027,0.48h-0.181
			l-2.451-2.733v1.962c0,0.415,0.08,0.558,0.448,0.558h0.081v0.143c-0.205,0-0.41-0.02-0.615-0.02c-0.214,0-0.434,0.02-0.647,0.02
			v-0.143h0.065c0.33,0,0.43-0.224,0.43-0.605v-2.005c0-0.266-0.219-0.428-0.434-0.428H36.67v-0.143c0.18,0,0.365,0.019,0.546,0.019
			c0.142,0,0.28-0.019,0.424-0.019L39.759,12.971z"/>
		<path d="M39.747,12.961L39.747,12.961l-0.004-0.005L39.747,12.961z M39.759,12.971l0.015-0.014L39.759,12.971z M39.854,13.959
			h0.157c-0.021-0.142-0.026-0.301-0.026-0.459v-2.168c0.001-0.57,0.242-0.623,0.446-0.625h0.05v-0.101
			c-0.187,0.001-0.375,0.019-0.565,0.019c-0.219,0-0.431-0.018-0.646-0.019v0.101h0.084c0.147,0.002,0.435,0.065,0.435,0.468
			l-0.007,1.8l-0.007,0.009L39.759,13l-2.12-2.394c-0.141,0-0.279,0.019-0.424,0.019c-0.176,0-0.354-0.018-0.527-0.019v0.101h0.042
			c0.224,0.002,0.454,0.171,0.454,0.449v2.005c0,0.382-0.107,0.625-0.45,0.626l-0.046-0.001v0.101
			c0.207-0.001,0.418-0.018,0.627-0.018c0.199,0,0.398,0.017,0.596,0.018v-0.1h-0.061c-0.375-0.001-0.469-0.163-0.47-0.578v-2.015
			L39.854,13.959z M40.035,14l-0.196-0.007L37.423,11.3v1.908c0.006,0.415,0.067,0.532,0.428,0.536h0.101v0.022v0.162H37.93
			c-0.206,0-0.41-0.019-0.615-0.019c-0.212,0-0.433,0.019-0.646,0.019h-0.022V13.91v-0.165h0.022h0.065
			c0.314-0.001,0.405-0.204,0.409-0.584v-2.005c-0.001-0.253-0.209-0.407-0.413-0.407h-0.084v-0.021v-0.164h0.022
			c0.181,0,0.367,0.019,0.546,0.019c0.141,0,0.278-0.019,0.439-0.012l2.092,2.357v-1.752c0-0.378-0.254-0.425-0.393-0.427h-0.126
			v-0.021v-0.164h0.021c0.224,0,0.444,0.019,0.667,0.019c0.195,0,0.389-0.019,0.585-0.019h0.022v0.022v0.163h-0.022h-0.07
			c-0.197,0.005-0.399,0.022-0.404,0.584V13.5c0,0.166,0.004,0.331,0.027,0.477L40.057,14H40.035z"/>
		<path d="M41.964,11.118h-0.01l-0.443,1.348H42.4L41.964,11.118z M41.268,13.228c-0.047,0.162-0.106,0.286-0.106,0.371
			c0,0.143,0.201,0.167,0.358,0.167h0.054v0.143c-0.192-0.011-0.386-0.02-0.578-0.02c-0.171,0-0.34,0.008-0.512,0.02v-0.143h0.029
			c0.184,0,0.343-0.11,0.413-0.31l0.763-2.185c0.062-0.176,0.148-0.414,0.177-0.591c0.152-0.052,0.342-0.147,0.433-0.204
			c0.015-0.004,0.024-0.01,0.037-0.01c0.014,0,0.024,0,0.034,0.015c0.014,0.037,0.027,0.081,0.044,0.118l0.875,2.49
			c0.057,0.167,0.115,0.342,0.176,0.486c0.057,0.133,0.157,0.19,0.315,0.19h0.027v0.143c-0.213-0.011-0.428-0.02-0.657-0.02
			c-0.232,0-0.471,0.008-0.714,0.02v-0.143h0.054c0.108,0,0.295-0.019,0.295-0.138c0-0.062-0.042-0.191-0.097-0.344L42.5,12.732
			h-1.08L41.268,13.228z"/>
		<path d="M41.943,11.125l0.011-0.004L41.943,11.125z M41.539,12.445h0.834l-0.414-1.275L41.539,12.445z M41.481,12.486l0.456-1.389
			h0.016h0.01v0.021l-0.005,0.001l0.005-0.001v-0.021h0.014l0.453,1.389H41.481z M42.455,13.887
			c0.234-0.008,0.468-0.017,0.693-0.017c0.222,0,0.429,0.009,0.637,0.017v-0.1h-0.007c-0.163,0.002-0.276-0.062-0.334-0.203
			c-0.062-0.144-0.121-0.32-0.177-0.488l-0.877-2.49c-0.014-0.037-0.027-0.081-0.04-0.115c-0.005-0.004-0.002-0.004-0.007-0.004
			h-0.009c-0.01,0-0.015,0.003-0.027,0.006c-0.092,0.06-0.283,0.154-0.424,0.191c-0.029,0.18-0.116,0.417-0.177,0.594l-0.762,2.186
			c-0.074,0.207-0.239,0.324-0.433,0.323h-0.009v0.1c0.165-0.008,0.329-0.017,0.494-0.017c0.185,0,0.373,0.009,0.554,0.017v-0.1
			h-0.03c-0.156-0.002-0.372-0.019-0.378-0.187c0.001-0.095,0.059-0.216,0.105-0.378l0.021,0.006l-0.021-0.007l0.157-0.509h1.111
			l0.191,0.566c0.052,0.153,0.097,0.279,0.097,0.35c-0.007,0.146-0.208,0.156-0.317,0.158h-0.031V13.887z M43.804,13.929
			c-0.213-0.008-0.428-0.019-0.656-0.019c-0.232,0-0.47,0.011-0.713,0.019l-0.021,0.002V13.91v-0.166h0.02h0.052
			c0.111,0,0.273-0.024,0.274-0.115c0.001-0.054-0.041-0.185-0.095-0.337l-0.181-0.539h-1.05l-0.147,0.481
			c-0.049,0.162-0.106,0.288-0.106,0.365c0.001,0.117,0.18,0.144,0.338,0.144h0.074v0.023v0.164l-0.022-0.002
			c-0.189-0.008-0.385-0.019-0.575-0.019c-0.171,0-0.342,0.011-0.512,0.019l-0.022,0.002V13.91v-0.166h0.021h0.029
			c0.177,0,0.324-0.1,0.393-0.294l0.763-2.186c0.062-0.177,0.147-0.414,0.19-0.603c0.148-0.051,0.339-0.147,0.431-0.204
			c0.014-0.005,0.027-0.011,0.046-0.011c0.011-0.001,0.037,0.002,0.052,0.028c0.014,0.039,0.029,0.082,0.044,0.12l0.877,2.491
			c0.056,0.166,0.112,0.343,0.176,0.483c0.054,0.127,0.142,0.177,0.295,0.177h0.049v0.023v0.164L43.804,13.929z"/>
		<path d="M44.015,10.823c-0.357,0-0.372,0.085-0.443,0.433h-0.143c0.019-0.133,0.044-0.266,0.059-0.405
			c0.019-0.134,0.026-0.267,0.026-0.404h0.116c0.039,0.143,0.158,0.137,0.286,0.137h2.457c0.128,0,0.247-0.004,0.256-0.147
			l0.115,0.019c-0.019,0.128-0.037,0.257-0.051,0.385c-0.01,0.129-0.01,0.257-0.01,0.386l-0.143,0.053
			c-0.009-0.176-0.032-0.458-0.352-0.458h-0.782v2.534c0,0.367,0.167,0.409,0.395,0.409h0.091v0.143c-0.186,0-0.519-0.02-0.777-0.02
			c-0.286,0-0.618,0.02-0.804,0.02v-0.143h0.09c0.263,0,0.395-0.024,0.395-0.4v-2.543H44.015z"/>
		<path d="M45.891,13.929c-0.187,0-0.521-0.018-0.777-0.018c-0.284,0-0.617,0.018-0.804,0.018h-0.021V13.91v-0.165h0.021h0.09
			c0.263-0.005,0.368-0.009,0.375-0.378l-0.001-2.523h-0.759v-0.021v-0.021h0.802v2.564c0,0.382-0.155,0.42-0.416,0.42h-0.07v0.102
			c0.188-0.002,0.509-0.019,0.784-0.019c0.249,0,0.567,0.017,0.756,0.019v-0.102H45.8c-0.229-0.001-0.414-0.055-0.415-0.429v-2.555
			h0.802c0.319,0.001,0.36,0.273,0.37,0.449l0.103-0.038c0-0.124,0.001-0.249,0.01-0.373c0.014-0.122,0.031-0.244,0.047-0.366
			l-0.071-0.012c-0.022,0.138-0.156,0.145-0.274,0.143h-2.457H43.89c-0.111,0.001-0.233-0.004-0.277-0.138h-0.079
			c0,0.132-0.009,0.26-0.027,0.387c-0.014,0.132-0.036,0.257-0.055,0.383h0.102c0.062-0.332,0.105-0.44,0.46-0.435v0.021v0.021
			c-0.353,0.006-0.344,0.065-0.423,0.418l-0.002,0.016h-0.017h-0.167l0.004-0.024c0.019-0.135,0.042-0.267,0.056-0.405
			c0.02-0.133,0.029-0.265,0.029-0.401v-0.021h0.02h0.131l0.004,0.014c0.035,0.121,0.121,0.121,0.242,0.123
			c0.009,0,0.016,0.001,0.025,0.001h2.457c0.131-0.003,0.228-0.005,0.236-0.129l0.001-0.022l0.021,0.004l0.137,0.022l-0.005,0.021
			c-0.02,0.128-0.037,0.256-0.052,0.384c-0.009,0.127-0.009,0.256-0.009,0.384v0.014l-0.014,0.006l-0.17,0.061v-0.028
			c-0.012-0.178-0.03-0.437-0.332-0.437h-0.761v2.513c0.005,0.359,0.147,0.383,0.374,0.388h0.111v0.022v0.162H45.891z"/>
		<path d="M46.918,13.766h0.067c0.171,0,0.352-0.024,0.352-0.272v-2.493c0-0.248-0.181-0.272-0.352-0.272h-0.067v-0.143
			c0.186,0,0.471,0.019,0.704,0.019c0.238,0,0.524-0.019,0.748-0.019v0.143h-0.066c-0.173,0-0.354,0.024-0.354,0.272v2.493
			c0,0.248,0.181,0.272,0.354,0.272h0.066v0.143c-0.229,0-0.514-0.02-0.752-0.02c-0.234,0-0.515,0.02-0.701,0.02V13.766z"/>
		<path d="M48.35,13.887v-0.101h-0.045c-0.172,0-0.374-0.029-0.374-0.293v-2.493c0-0.264,0.202-0.293,0.374-0.293h0.045v-0.101
			c-0.221,0.001-0.496,0.019-0.727,0.019c-0.226,0-0.499-0.018-0.685-0.019v0.101h0.047c0.168,0,0.373,0.03,0.373,0.293v2.493
			c0,0.264-0.204,0.293-0.373,0.293h-0.047v0.101c0.185-0.002,0.453-0.018,0.681-0.018C47.849,13.869,48.124,13.887,48.35,13.887
			 M48.371,13.929c-0.231,0-0.516-0.019-0.752-0.019c-0.233,0-0.514,0.019-0.701,0.019h-0.021V13.91v-0.143v-0.022h0.021h0.067
			c0.171-0.003,0.329-0.017,0.33-0.251v-2.493c-0.001-0.233-0.16-0.248-0.33-0.252h-0.089v-0.021v-0.163h0.021
			c0.187,0,0.473,0.017,0.704,0.017c0.237,0,0.522-0.017,0.748-0.017h0.02v0.02v0.164h-0.02h-0.066
			c-0.176,0.003-0.332,0.019-0.333,0.252v2.493c0.001,0.234,0.157,0.248,0.333,0.251h0.086v0.022v0.162H48.371z"/>
		<path d="M50.342,13.771c0.924,0,1.085-0.814,1.085-1.509c0-0.696-0.375-1.538-1.166-1.538c-0.833,0-1.081,0.742-1.081,1.38
			C49.18,12.956,49.57,13.771,50.342,13.771 M50.27,10.514c1.015,0,1.823,0.629,1.823,1.643c0,1.096-0.784,1.823-1.798,1.823
			c-1.01,0-1.782-0.685-1.782-1.709C48.513,11.281,49.28,10.514,50.27,10.514"/>
		<path d="M49.159,12.104c0.001-0.641,0.251-1.401,1.102-1.401c0.808,0.002,1.184,0.86,1.187,1.559
			c-0.002,0.694-0.165,1.528-1.106,1.528v-0.02v-0.02c0.905-0.001,1.062-0.794,1.065-1.488c0-0.69-0.373-1.517-1.146-1.519
			c-0.818,0.002-1.059,0.726-1.061,1.36c0.001,0.848,0.388,1.645,1.142,1.647v0.02v0.02C49.552,13.789,49.16,12.961,49.159,12.104
			 M48.492,12.271c0.001-1.002,0.777-1.776,1.778-1.778v0.021v0.021c-0.979,0-1.737,0.756-1.737,1.736
			c0.001,1.012,0.761,1.688,1.76,1.688c1.005-0.001,1.779-0.719,1.78-1.803c0-1.001-0.797-1.62-1.804-1.621v-0.021v-0.021
			c1.022,0.002,1.841,0.637,1.844,1.663c-0.001,1.107-0.797,1.842-1.82,1.844C49.275,13.998,48.493,13.306,48.492,12.271"/>
		<path d="M55.303,12.971l0.01-0.01v-1.785c0-0.39-0.273-0.448-0.416-0.448h-0.102v-0.143c0.222,0,0.441,0.019,0.665,0.019
			c0.196,0,0.392-0.019,0.587-0.019v0.143h-0.072c-0.201,0-0.424,0.038-0.424,0.605V13.5c0,0.167,0.004,0.333,0.029,0.48h-0.181
			l-2.452-2.733v1.962c0,0.415,0.08,0.558,0.448,0.558h0.081v0.143c-0.204,0-0.409-0.02-0.613-0.02c-0.216,0-0.434,0.02-0.65,0.02
			v-0.143h0.069c0.329,0,0.428-0.224,0.428-0.605v-2.005c0-0.266-0.218-0.428-0.434-0.428h-0.062v-0.143
			c0.182,0,0.367,0.019,0.549,0.019c0.142,0,0.28-0.019,0.424-0.019L55.303,12.971z"/>
		<path d="M55.291,12.961L55.291,12.961l-0.002-0.005L55.291,12.961z M55.303,12.971l0.014-0.014L55.303,12.971z M55.398,13.959
			h0.156c-0.02-0.143-0.024-0.301-0.024-0.459v-2.168c0-0.572,0.241-0.623,0.444-0.625h0.051v-0.101
			c-0.188,0.001-0.375,0.019-0.567,0.019c-0.216,0-0.429-0.018-0.643-0.019v0.101h0.082c0.147,0.002,0.435,0.066,0.435,0.469
			l-0.005,1.8l-0.01,0.009L55.303,13l-2.12-2.394c-0.141,0-0.279,0.019-0.424,0.019c-0.176,0-0.354-0.018-0.527-0.019v0.101h0.041
			c0.224,0.002,0.454,0.171,0.454,0.449v2.005c0,0.381-0.106,0.624-0.448,0.626l-0.047-0.001v0.101
			c0.208-0.001,0.419-0.018,0.627-0.018c0.199,0,0.396,0.017,0.595,0.018v-0.1h-0.062c-0.374-0.001-0.468-0.163-0.468-0.578v-2.015
			L55.398,13.959z M55.579,14l-0.197-0.007L52.965,11.3v1.908c0.006,0.415,0.07,0.531,0.426,0.535h0.102v0.023v0.162h-0.02
			c-0.206,0-0.411-0.018-0.615-0.018c-0.213,0-0.431,0.018-0.648,0.018h-0.02v-0.02v-0.165h0.02h0.069
			c0.313-0.001,0.404-0.202,0.406-0.582v-2.005c0-0.253-0.208-0.407-0.413-0.407h-0.082v-0.021v-0.163h0.02
			c0.183,0,0.368,0.017,0.549,0.017c0.141,0,0.278-0.017,0.439-0.011l2.092,2.356v-1.751c-0.001-0.379-0.254-0.424-0.394-0.428
			h-0.125v-0.021v-0.163h0.021c0.224,0,0.444,0.017,0.665,0.017c0.196,0,0.39-0.017,0.588-0.017h0.02v0.02v0.164h-0.02h-0.072
			c-0.196,0.006-0.399,0.023-0.404,0.584V13.5c0,0.166,0.005,0.332,0.029,0.477L55.602,14H55.579z"/>
		<path d="M57.507,11.118h-0.011l-0.443,1.348h0.891L57.507,11.118z M56.81,13.228c-0.046,0.162-0.105,0.286-0.105,0.371
			c0,0.143,0.201,0.167,0.358,0.167h0.052v0.143c-0.191-0.011-0.387-0.02-0.577-0.02c-0.171,0-0.342,0.008-0.512,0.02v-0.143h0.026
			c0.187,0,0.345-0.11,0.415-0.31l0.763-2.185c0.061-0.176,0.147-0.414,0.175-0.591c0.153-0.052,0.344-0.147,0.435-0.204
			c0.014-0.004,0.022-0.01,0.037-0.01c0.014,0,0.024,0,0.032,0.015c0.015,0.037,0.03,0.081,0.044,0.118l0.875,2.49
			c0.057,0.167,0.115,0.342,0.177,0.486c0.057,0.133,0.157,0.19,0.314,0.19h0.029v0.143c-0.214-0.011-0.429-0.02-0.658-0.02
			c-0.232,0-0.47,0.008-0.713,0.02v-0.143h0.052c0.11,0,0.295-0.019,0.295-0.138c0-0.062-0.042-0.191-0.096-0.344l-0.186-0.552
			h-1.081L56.81,13.228z"/>
		<path d="M57.487,11.125l0.009-0.004L57.487,11.125z M57.082,12.445h0.833L57.5,11.17L57.082,12.445z M57.025,12.486l0.456-1.389
			h0.015h0.011v0.021l-0.006,0.001l0.006-0.001v-0.021h0.014l0.451,1.389H57.025z M57.997,13.887
			c0.237-0.009,0.468-0.018,0.693-0.018c0.223,0,0.43,0.009,0.637,0.017l-0.001-0.1h-0.007c-0.161,0.001-0.273-0.062-0.332-0.203
			c-0.064-0.144-0.12-0.32-0.177-0.487l-0.877-2.491c-0.014-0.037-0.029-0.081-0.039-0.113c-0.005-0.006-0.005-0.006-0.007-0.006
			h-0.01c-0.01,0-0.016,0.003-0.027,0.006c-0.092,0.059-0.283,0.154-0.424,0.191c-0.029,0.18-0.116,0.417-0.177,0.594l-0.763,2.186
			c-0.072,0.207-0.238,0.324-0.434,0.323h-0.006v0.1c0.165-0.008,0.328-0.017,0.492-0.017c0.186,0,0.374,0.009,0.556,0.017v-0.1
			h-0.032c-0.155-0.002-0.372-0.018-0.378-0.188c0.001-0.094,0.06-0.215,0.106-0.377l0.02,0.006l-0.02-0.007l0.158-0.509h1.11
			l0.189,0.566c0.054,0.153,0.097,0.279,0.097,0.35c-0.007,0.146-0.207,0.156-0.315,0.158h-0.032V13.887z M59.348,13.929
			c-0.216-0.008-0.429-0.018-0.657-0.018c-0.231,0-0.47,0.01-0.712,0.018l-0.021,0.002v-0.021v-0.164h0.02h0.052
			c0.111,0,0.274-0.026,0.274-0.116c0.001-0.054-0.041-0.184-0.095-0.337l-0.181-0.539h-1.051l-0.146,0.481
			c-0.05,0.163-0.106,0.288-0.105,0.365c0,0.118,0.178,0.146,0.335,0.146h0.074v0.022v0.164l-0.021-0.002
			c-0.191-0.008-0.385-0.018-0.576-0.018c-0.17,0-0.34,0.01-0.512,0.018l-0.021,0.002v-0.021v-0.164h0.021h0.026
			c0.178-0.001,0.327-0.102,0.396-0.295l0.762-2.186c0.061-0.177,0.147-0.414,0.188-0.603c0.151-0.052,0.342-0.147,0.434-0.204
			c0.013-0.005,0.025-0.011,0.045-0.011c0.012-0.001,0.037,0.002,0.052,0.029c0.014,0.036,0.027,0.08,0.044,0.118l0.875,2.491
			c0.057,0.166,0.115,0.343,0.176,0.484c0.057,0.126,0.142,0.176,0.294,0.177h0.051v0.022v0.164L59.348,13.929z"/>
		<path d="M60.548,13.442c0,0.191,0.133,0.247,0.286,0.267c0.195,0.014,0.409,0.014,0.63-0.011c0.199-0.024,0.37-0.137,0.456-0.256
			c0.076-0.105,0.118-0.238,0.147-0.343h0.138c-0.052,0.271-0.12,0.539-0.176,0.81c-0.419,0-0.839-0.02-1.257-0.02
			c-0.42,0-0.838,0.02-1.258,0.02v-0.143h0.066c0.172,0,0.358-0.024,0.358-0.319v-2.446c0-0.248-0.186-0.272-0.358-0.272h-0.066
			v-0.143c0.253,0,0.5,0.019,0.753,0.019c0.243,0,0.48-0.019,0.723-0.019v0.143h-0.12c-0.18,0-0.323,0.005-0.323,0.257V13.442z"/>
		<path d="M62.012,13.887c0.055-0.257,0.117-0.511,0.168-0.767h-0.098c-0.029,0.103-0.072,0.231-0.146,0.335
			c-0.09,0.123-0.266,0.239-0.473,0.265c-0.125,0.013-0.247,0.02-0.364,0.02c-0.092,0-0.182-0.005-0.268-0.011
			c-0.156-0.017-0.305-0.083-0.304-0.287v-2.457c0-0.266,0.167-0.278,0.344-0.278h0.098v-0.101
			c-0.234,0.001-0.465,0.019-0.702,0.019c-0.248,0-0.489-0.018-0.733-0.019v0.101h0.046c0.17,0,0.379,0.03,0.379,0.293v2.447
			c0,0.308-0.207,0.339-0.379,0.339h-0.046v0.101c0.413,0,0.824-0.018,1.238-0.018S61.599,13.887,62.012,13.887 M62.029,13.929
			c-0.42,0-0.839-0.018-1.257-0.018c-0.42,0-0.838,0.018-1.259,0.018h-0.019v-0.02v-0.164h0.019h0.067
			c0.172-0.004,0.335-0.016,0.337-0.298V11c-0.001-0.232-0.163-0.248-0.337-0.251h-0.086v-0.021v-0.163h0.019
			c0.254,0,0.502,0.017,0.754,0.017c0.242,0,0.479-0.017,0.723-0.017h0.02v0.02v0.164h-0.02h-0.12
			c-0.183,0.005-0.299-0.003-0.303,0.237v2.457c0.001,0.177,0.118,0.225,0.267,0.246c0.083,0.006,0.172,0.01,0.264,0.01
			c0.116,0,0.237-0.005,0.36-0.018c0.195-0.023,0.362-0.136,0.443-0.25c0.074-0.101,0.116-0.232,0.143-0.335l0.005-0.016h0.016
			h0.163l-0.004,0.025c-0.055,0.272-0.12,0.538-0.178,0.809l-0.004,0.016H62.029z"/>
	</g>
</g>
<g>
	<g>
		<defs>
			<path id="SVGID_1_" d="M176.52-17.789l-0.039,0.039c-0.629,0.641-1.357,0.981-2.107,0.981c-1.565,0-2.703-1.175-2.703-2.796
				c0-1.618,1.137-2.794,2.703-2.794c0.75,0,1.478,0.34,2.107,0.983l0.039,0.039l1.007-1.218l-0.027-0.033
				c-0.837-0.99-1.842-1.471-3.077-1.471c-1.239,0-2.373,0.417-3.189,1.169c-0.888,0.815-1.356,1.964-1.356,3.324
				c0,1.36,0.468,2.512,1.356,3.327c0.817,0.756,1.951,1.17,3.189,1.17c1.235,0,2.241-0.481,3.077-1.471l0.027-0.031L176.52-17.789z
				"/>
		</defs>
		<clipPath id="SVGID_2_">
			<use xlink:href="#SVGID_1_"  overflow="visible"/>
		</clipPath>
		<g clip-path="url(#SVGID_2_)">
			<defs>
				<rect id="SVGID_3_" x="37.439" y="-323.77" width="703.735" height="559.789"/>
			</defs>
			<clipPath id="SVGID_4_">
				<use xlink:href="#SVGID_3_"  overflow="visible"/>
			</clipPath>
		</g>
	</g>
</g>
<g>
	<g>
		<defs>
			<path id="SVGID_9_" d="M174.661,11.026l-0.028,0.028c-0.455,0.463-0.981,0.709-1.523,0.709c-1.131,0-1.953-0.849-1.953-2.021
				c0-1.169,0.822-2.019,1.953-2.019c0.542,0,1.068,0.246,1.523,0.71l0.028,0.028l0.728-0.88l-0.02-0.024
				c-0.605-0.715-1.331-1.063-2.224-1.063c-0.895,0-1.715,0.302-2.305,0.845c-0.642,0.589-0.98,1.42-0.98,2.403
				s0.338,1.816,0.98,2.405c0.59,0.546,1.41,0.846,2.305,0.846c0.893,0,1.62-0.348,2.224-1.063l0.02-0.022L174.661,11.026z"/>
		</defs>
		<clipPath id="SVGID_6_">
			<use xlink:href="#SVGID_9_"  overflow="visible"/>
		</clipPath>
		<g clip-path="url(#SVGID_6_)">
			<defs>
				<rect id="SVGID_11_" x="30.483" y="-294.31" width="703.735" height="559.789"/>
			</defs>
			<clipPath id="SVGID_8_">
				<use xlink:href="#SVGID_11_"  overflow="visible"/>
			</clipPath>
		</g>
	</g>
</g>
</svg>
