<?xml version="1.0" encoding="utf-8"?>
<!-- Generator: Adobe Illustrator 17.0.0, SVG Export Plug-In . SVG Version: 6.00 Build 0)  -->
<!DOCTYPE svg PUBLIC "-//W3C//DTD SVG 1.1//EN" "http://www.w3.org/Graphics/SVG/1.1/DTD/svg11.dtd">
<svg version="1.1" id="图层_1" xmlns="http://www.w3.org/2000/svg" xmlns:xlink="http://www.w3.org/1999/xlink" x="0px" y="0px"
	 width="54.96px" height="16px" viewBox="0 0 54.96 16" enable-background="new 0 0 54.96 16" xml:space="preserve">
<g>
	<path fill="#569B3B" d="M6.132,10.933c-0.74,0-1.301-0.259-1.683-0.778c-0.382-0.519-0.52-1.166-0.414-1.942l0.024-0.196
		c0.119-0.886,0.419-1.591,0.9-2.113s1.115-0.782,1.902-0.778c0.658,0,1.152,0.229,1.481,0.685C8.671,6.268,8.784,6.884,8.68,7.66
		L8.553,8.575h-2.92L5.624,8.606c-0.016,0.3,0.05,0.539,0.197,0.716C5.969,9.5,6.206,9.589,6.532,9.589
		c0.291,0,0.547-0.028,0.766-0.085c0.219-0.057,0.464-0.144,0.734-0.261l0.235,1.065c-0.241,0.176-0.556,0.324-0.943,0.445
		S6.539,10.933,6.132,10.933z M6.677,6.47c-0.244,0-0.439,0.089-0.585,0.266C5.946,6.914,5.841,7.153,5.774,7.453l0.009,0.031h1.368
		l0.019-0.135c0.041-0.3,0.024-0.521-0.05-0.664C7.048,6.542,6.9,6.47,6.677,6.47z"/>
	<path fill="#569B3B" d="M11.985,8.255H9.215l0.184-1.35h2.769L11.985,8.255z"/>
	<path fill="#569B3B" d="M18.247,8.285l0.009,0.031c-0.11,0.893-0.417,1.553-0.922,1.978c-0.505,0.426-1.179,0.639-2.022,0.639
		c-0.815,0-1.448-0.288-1.9-0.864c-0.451-0.576-0.614-1.317-0.489-2.224l0.216-1.572c0.128-0.951,0.476-1.704,1.042-2.258
		c0.566-0.553,1.259-0.83,2.08-0.83c0.837,0,1.469,0.224,1.897,0.672c0.428,0.448,0.579,1.093,0.454,1.934l-0.014,0.031h-1.552
		c0.063-0.479,0.02-0.815-0.127-1.006c-0.147-0.192-0.428-0.287-0.842-0.287c-0.342,0-0.635,0.159-0.879,0.478
		c-0.245,0.319-0.401,0.737-0.47,1.254l-0.216,1.583c-0.075,0.545-0.029,0.971,0.139,1.28c0.168,0.309,0.449,0.463,0.844,0.463
		c0.348,0,0.621-0.101,0.818-0.305c0.197-0.203,0.328-0.536,0.39-0.998H18.247z"/>
	<path fill="#569B3B" d="M20.672,5.886c0.188-0.245,0.4-0.433,0.637-0.564c0.236-0.131,0.49-0.197,0.759-0.197
		c0.508,0,0.89,0.204,1.145,0.613c0.256,0.409,0.325,1.032,0.209,1.87l-0.437,3.217h-1.589l0.442-3.227
		c0.056-0.445,0.046-0.744-0.031-0.898c-0.077-0.153-0.219-0.23-0.426-0.23c-0.175,0-0.332,0.03-0.47,0.09
		c-0.138,0.061-0.26,0.146-0.367,0.256L20,10.825H18.41l1.1-8.069H21.1L20.672,5.886z"/>
	<path fill="#569B3B" d="M25.871,10.933c-0.74,0-1.301-0.259-1.683-0.778c-0.383-0.519-0.52-1.166-0.414-1.942l0.023-0.196
		c0.119-0.886,0.419-1.591,0.901-2.113c0.481-0.522,1.115-0.782,1.902-0.778c0.658,0,1.152,0.229,1.481,0.685
		c0.329,0.457,0.442,1.073,0.338,1.849l-0.127,0.916h-2.92l-0.009,0.031c-0.016,0.3,0.05,0.539,0.197,0.716
		c0.147,0.178,0.384,0.266,0.71,0.266c0.291,0,0.547-0.028,0.767-0.085c0.219-0.057,0.464-0.144,0.734-0.261l0.235,1.065
		c-0.241,0.176-0.555,0.324-0.942,0.445C26.676,10.873,26.279,10.933,25.871,10.933z M26.417,6.47c-0.245,0-0.44,0.089-0.585,0.266
		c-0.146,0.178-0.252,0.417-0.317,0.716l0.009,0.031h1.368l0.019-0.135c0.041-0.3,0.024-0.521-0.049-0.664
		C26.787,6.542,26.639,6.47,26.417,6.47z"/>
	<path fill="#569B3B" d="M30.765,9.589c0.207,0,0.374-0.065,0.503-0.196c0.129-0.131,0.21-0.317,0.245-0.559h1.443l0.009,0.031
		c-0.075,0.634-0.335,1.138-0.778,1.51c-0.443,0.372-0.979,0.559-1.606,0.559c-0.743,0-1.296-0.266-1.66-0.799
		c-0.363-0.533-0.487-1.215-0.371-2.046l0.019-0.119c0.116-0.872,0.416-1.564,0.9-2.076s1.115-0.768,1.892-0.768
		c0.624,0,1.108,0.2,1.451,0.6c0.343,0.4,0.463,0.94,0.36,1.619L33.163,7.37H31.71c0.038-0.276,0.013-0.495-0.073-0.657
		c-0.087-0.162-0.239-0.243-0.459-0.243c-0.295,0-0.524,0.138-0.689,0.414c-0.165,0.276-0.277,0.638-0.336,1.086l-0.019,0.119
		c-0.066,0.486-0.056,0.858,0.028,1.115C30.248,9.461,30.448,9.589,30.765,9.589z"/>
	<path fill="#569B3B" d="M35.282,8.601h-0.287l-0.301,2.224h-1.589l1.1-8.069h1.589l-0.621,4.526h0.23l1.349-2.053h1.786
		l0.009,0.026l-1.881,2.498l1.401,3.072h-1.81L35.282,8.601z"/>
	<path fill="#569B3B" d="M39.79,10.825h-1.594l0.761-5.596h1.594L39.79,10.825z M40.731,3.93h-1.594l0.16-1.174h1.594L40.731,3.93z"
		/>
	<path fill="#569B3B" d="M42.705,5.989c0.204-0.276,0.438-0.489,0.703-0.639c0.265-0.15,0.548-0.225,0.849-0.225
		c0.479,0,0.838,0.188,1.077,0.564c0.238,0.376,0.304,0.966,0.197,1.769l-0.461,3.367H43.48l0.461-3.372
		c0.05-0.369,0.033-0.625-0.05-0.768c-0.083-0.143-0.225-0.215-0.426-0.215c-0.166,0-0.321,0.035-0.465,0.103
		c-0.144,0.069-0.271,0.164-0.381,0.284l-0.541,3.967h-1.585l0.762-5.596h1.49L42.705,5.989z"/>
	<path fill="#569B3B" d="M45.858,8.037c0.122-0.903,0.391-1.614,0.804-2.133c0.414-0.519,0.938-0.778,1.575-0.778
		c0.26,0,0.482,0.072,0.665,0.217c0.183,0.145,0.333,0.35,0.449,0.616l0.207-0.729h1.401l-0.752,5.534
		c-0.107,0.765-0.414,1.344-0.922,1.735c-0.508,0.391-1.169,0.587-1.984,0.587c-0.254,0-0.524-0.039-0.809-0.119
		c-0.285-0.079-0.547-0.186-0.785-0.321l0.451-1.293c0.213,0.111,0.42,0.192,0.621,0.246c0.201,0.053,0.436,0.08,0.706,0.08
		c0.326,0,0.584-0.075,0.776-0.225c0.191-0.15,0.309-0.384,0.353-0.701l0.056-0.43c-0.172,0.2-0.36,0.352-0.564,0.455
		c-0.204,0.103-0.426,0.155-0.668,0.155c-0.602,0-1.047-0.258-1.335-0.776s-0.374-1.188-0.258-2.012L45.858,8.037z M47.429,8.146
		c-0.066,0.469-0.055,0.827,0.031,1.073c0.086,0.247,0.275,0.37,0.566,0.37c0.17,0,0.321-0.031,0.454-0.093
		c0.133-0.062,0.247-0.155,0.341-0.28l0.32-2.332c-0.06-0.135-0.146-0.237-0.259-0.308c-0.113-0.071-0.254-0.106-0.423-0.106
		c-0.269,0-0.49,0.146-0.663,0.437c-0.173,0.291-0.29,0.668-0.353,1.13L47.429,8.146z"/>
</g>
</svg>
