<?xml version="1.0" encoding="utf-8"?>
<!-- Generator: Adobe Illustrator 17.0.0, SVG Export Plug-In . SVG Version: 6.00 Build 0)  -->
<!DOCTYPE svg PUBLIC "-//W3C//DTD SVG 1.1//EN" "http://www.w3.org/Graphics/SVG/1.1/DTD/svg11.dtd">
<svg version="1.1" id="图层_1" xmlns="http://www.w3.org/2000/svg" xmlns:xlink="http://www.w3.org/1999/xlink" x="0px" y="0px"
	 width="23.64px" height="16px" viewBox="0 0 23.64 16" enable-background="new 0 0 23.64 16" xml:space="preserve">
<g>
	<path fill="#DC2525" d="M14.254,0.82v13.017c0,0.733-0.389,1.315-0.931,1.646c-0.61,0.373-1.622,0.438-1.396,0.438
		c0.223,0-2.564,0-2.564,0V1.858c0.055-0.656,0.492-1.229,1.066-1.584c0.41-0.273,0.906-0.326,1.425-0.353h2.4V0.82z"/>
	<path fill="#086BAE" d="M8.832,0.82v13.017c0,0.733-0.389,1.315-0.931,1.646c-0.61,0.373-1.622,0.438-1.396,0.438
		c0.223,0-2.564,0-2.564,0V1.858c0.055-0.656,0.492-1.229,1.066-1.584C5.417,0,5.913-0.053,6.432-0.079h2.4V0.82z"/>
	<path fill="#179C50" d="M19.712,0.82v13.017c0,0.733-0.389,1.315-0.931,1.646c-0.61,0.373-1.622,0.438-1.396,0.438
		c0.223,0-2.564,0-2.564,0V1.858c0.055-0.656,0.492-1.229,1.066-1.584c0.41-0.273,0.906-0.326,1.425-0.353h2.4V0.82z"/>
	<path fill="#FFFFFF" d="M6.667,5.949h1.728v2.519c0,0,0,1.03-1.232,1.287s-2.74,0.129-3.236-0.202V8.781
		c0,0,1.002,0.58,1.857,0.423C6.483,9.075,6.63,8.799,6.667,8.376V5.949z"/>
	<path fill="#FFFFFF" d="M13.667,6.152c0,0-0.699-0.257-2.207-0.257S9.364,6.593,9.364,6.593v2.629c0,0,0.515,0.725,2.151,0.725
		c1.489,0,2.151-0.32,2.151-0.32V8.891c0,0-0.827,0.478-1.839,0.386c-0.732-0.067-1.048-0.331-1.269-0.938
		c-0.221-0.607,0.055-2.096,1.931-1.765c0,0,0.846,0.165,1.177,0.441V6.152z"/>
	<path fill="#FFFFFF" d="M14.822,6.018h3.089c0,0,1.03,0,1.03,0.956c0,0.903-0.938,0.883-0.938,0.883s1.158-0.055,1.158,1.067
		c0,0.905-1.011,0.901-1.011,0.901h-3.328V6.018z M15.778,7.617c0,0,0.864,0,1.104,0c0.239,0,0.496-0.092,0.496-0.552
		c0-0.441-0.496-0.441-0.496-0.441h-1.104V7.617z M15.778,9.199c0,0,1.011,0.018,1.214,0c0.202-0.018,0.496-0.147,0.496-0.552
		c0-0.478-0.57-0.478-0.57-0.478h-1.14V9.199z"/>
</g>
</svg>
