<?xml version="1.0" encoding="utf-8"?>
<!-- Generator: Adobe Illustrator 17.0.0, SVG Export Plug-In . SVG Version: 6.00 Build 0)  -->
<!DOCTYPE svg PUBLIC "-//W3C//DTD SVG 1.1//EN" "http://www.w3.org/Graphics/SVG/1.1/DTD/svg11.dtd">
<svg version="1.1" id="图层_1" xmlns="http://www.w3.org/2000/svg" xmlns:xlink="http://www.w3.org/1999/xlink" x="0px" y="0px"
	 width="27.977px" height="16px" viewBox="0 0 27.977 16" enable-background="new 0 0 27.977 16" xml:space="preserve">
<g>
	<polygon fill="#DC252E" points="17.984,13.903 18.293,13.895 18.597,13.872 18.896,13.834 19.191,13.781 19.482,13.715 
		19.767,13.634 20.044,13.54 20.318,13.431 20.583,13.312 20.841,13.18 21.092,13.036 21.334,12.879 21.57,12.712 21.796,12.535 
		22.015,12.346 22.223,12.148 22.419,11.939 22.608,11.721 22.787,11.495 22.954,11.261 23.11,11.017 23.253,10.766 23.387,10.508 
		23.507,10.243 23.613,9.969 23.707,9.692 23.788,9.407 23.855,9.118 23.908,8.821 23.945,8.522 23.969,8.218 23.977,7.909 
		23.969,7.602 23.945,7.299 23.908,7.003 23.855,6.708 23.788,6.421 23.707,6.138 23.613,5.86 23.507,5.589 23.387,5.326 
		23.253,5.068 23.11,4.818 22.954,4.574 22.787,4.341 22.608,4.114 22.419,3.898 22.223,3.69 22.015,3.493 21.796,3.304 
		21.57,3.127 21.334,2.96 21.092,2.805 20.841,2.662 20.583,2.528 20.318,2.408 20.044,2.301 19.767,2.207 19.482,2.127 
		19.191,2.06 18.896,2.007 18.597,1.969 18.293,1.946 17.984,1.938 17.675,1.946 17.371,1.969 17.072,2.007 16.777,2.06 
		16.486,2.127 16.203,2.207 15.924,2.301 15.652,2.408 15.387,2.528 15.129,2.662 14.879,2.805 14.636,2.96 14.402,3.127 
		14.176,3.304 13.96,3.493 13.753,3.69 13.554,3.898 13.366,4.114 13.189,4.341 13.022,4.574 12.867,4.818 12.723,5.068 
		12.591,5.326 12.473,5.589 12.365,5.86 12.27,6.138 12.192,6.421 12.125,6.708 12.072,7.003 12.035,7.299 12.011,7.602 
		12.003,7.909 12.011,8.218 12.035,8.522 12.072,8.821 12.125,9.118 12.192,9.407 12.27,9.692 12.365,9.969 12.473,10.243 
		12.591,10.508 12.723,10.766 12.867,11.017 13.022,11.261 13.189,11.495 13.366,11.721 13.554,11.939 13.753,12.148 13.96,12.346 
		14.176,12.535 14.402,12.712 14.636,12.879 14.879,13.036 15.129,13.18 15.387,13.312 15.652,13.431 15.924,13.54 16.203,13.634 
		16.486,13.715 16.777,13.781 17.072,13.834 17.371,13.872 17.675,13.895 	"/>
	<polygon fill="#127CB5" points="10.049,13.903 10.358,13.895 10.662,13.872 10.961,13.834 11.256,13.781 11.547,13.715 
		11.83,13.634 12.11,13.54 12.381,13.431 12.646,13.312 12.904,13.18 13.153,13.036 13.397,12.879 13.631,12.712 13.857,12.535 
		14.074,12.346 14.282,12.148 14.479,11.939 14.667,11.721 14.844,11.495 15.011,11.261 15.167,11.017 15.31,10.766 15.442,10.508 
		15.562,10.243 15.668,9.969 15.762,9.692 15.841,9.407 15.908,9.118 15.961,8.821 15.998,8.522 16.022,8.218 16.03,7.909 
		16.022,7.602 15.998,7.299 15.961,7.003 15.908,6.708 15.841,6.421 15.762,6.138 15.668,5.86 15.562,5.589 15.442,5.326 
		15.31,5.068 15.167,4.818 15.011,4.574 14.844,4.341 14.667,4.114 14.479,3.898 14.282,3.69 14.074,3.493 13.857,3.304 
		13.631,3.127 13.397,2.96 13.153,2.805 12.904,2.662 12.646,2.528 12.381,2.408 12.11,2.301 11.83,2.207 11.547,2.127 11.256,2.06 
		10.961,2.007 10.662,1.969 10.358,1.946 10.049,1.938 9.74,1.946 9.436,1.969 9.137,2.007 8.842,2.06 8.551,2.127 8.266,2.207 
		7.988,2.301 7.715,2.408 7.45,2.528 7.192,2.662 6.941,2.805 6.699,2.96 6.463,3.127 6.237,3.304 6.018,3.493 5.812,3.69 
		5.614,3.898 5.425,4.114 5.246,4.341 5.079,4.574 4.923,4.818 4.78,5.068 4.646,5.326 4.526,5.589 4.42,5.86 4.326,6.138 
		4.245,6.421 4.178,6.708 4.125,7.003 4.088,7.299 4.064,7.602 4.057,7.909 4.064,8.218 4.088,8.522 4.125,8.821 4.178,9.118 
		4.245,9.407 4.326,9.692 4.42,9.969 4.526,10.243 4.646,10.508 4.78,10.766 4.923,11.017 5.079,11.261 5.246,11.495 5.425,11.721 
		5.614,11.939 5.812,12.148 6.018,12.346 6.237,12.535 6.463,12.712 6.699,12.879 6.941,13.036 7.192,13.18 7.45,13.312 
		7.715,13.431 7.988,13.54 8.266,13.634 8.551,13.715 8.842,13.781 9.137,13.834 9.436,13.872 9.74,13.895 	"/>
	<polygon fill="#DC252E" points="13.279,4.217 16.313,4.217 16.313,3.882 13.572,3.882 	"/>
	<polygon fill="#DC252E" points="12.803,4.924 16.313,4.924 16.313,4.592 13.016,4.592 	"/>
	<polygon fill="#DC252E" points="12.447,5.644 16.313,5.644 16.313,5.31 12.611,5.31 	"/>
	<polygon fill="#DC252E" points="12.216,6.352 16.313,6.352 16.313,6.019 12.318,6.019 	"/>
	<polygon fill="#DC252E" points="12.064,7.061 16.313,7.061 16.313,6.727 12.125,6.727 	"/>
	<polygon fill="#DC252E" points="12.064,7.74 16.313,7.74 16.313,7.406 12.125,7.406 	"/>
	<polygon fill="#DC252E" points="12.033,8.436 16.313,8.436 16.313,8.101 12.003,8.101 	"/>
	<polygon fill="#DC252E" points="12.135,9.185 16.313,9.185 16.313,8.851 12.074,8.851 	"/>
	<polygon fill="#DC252E" points="12.338,9.793 16.313,9.793 16.313,9.458 12.235,9.458 	"/>
	<polygon fill="#DC252E" points="12.64,10.532 16.313,10.532 16.313,10.197 12.479,10.197 	"/>
	<polygon fill="#DC252E" points="13.067,11.281 16.313,11.281 16.313,10.947 12.843,10.947 	"/>
	<polygon fill="#DC252E" points="13.602,12 16.283,12 16.283,11.666 13.309,11.666 	"/>
	<g>
		<g>
			<polygon fill="#DC252E" points="22.992,11.584 23.009,11.53 23.039,11.481 23.076,11.438 23.12,11.402 23.168,11.375 
				23.222,11.357 23.279,11.351 23.337,11.357 23.393,11.375 23.442,11.402 23.485,11.438 23.52,11.481 23.548,11.53 23.566,11.584 
				23.505,11.584 23.493,11.546 23.472,11.505 23.444,11.469 23.41,11.442 23.371,11.42 23.326,11.406 23.279,11.402 23.232,11.406 
				23.186,11.42 23.147,11.442 23.112,11.469 23.084,11.505 23.062,11.546 23.051,11.584 			"/>
			<polygon fill="#DC252E" points="23.176,11.584 23.176,11.513 23.289,11.513 23.314,11.514 23.335,11.517 23.355,11.523 
				23.371,11.53 23.383,11.54 23.393,11.552 23.399,11.566 23.401,11.584 23.349,11.584 23.349,11.584 23.347,11.574 23.343,11.566 
				23.337,11.558 23.33,11.552 23.32,11.548 23.31,11.546 23.3,11.544 23.289,11.544 23.227,11.544 23.227,11.584 			"/>
			<polygon fill="#DC252E" points="22.988,11.635 22.992,11.585 22.992,11.584 23.051,11.584 23.049,11.593 23.044,11.635 			"/>
			<polygon fill="#DC252E" points="23.176,11.635 23.176,11.584 23.227,11.584 23.227,11.625 23.279,11.625 23.296,11.625 
				23.312,11.625 23.324,11.623 23.334,11.619 23.34,11.615 23.346,11.607 23.349,11.597 23.349,11.584 23.401,11.584 
				23.401,11.584 23.399,11.601 23.394,11.617 23.389,11.629 23.383,11.635 			"/>
			<polygon fill="#DC252E" points="23.51,11.635 23.507,11.593 23.505,11.584 23.566,11.584 23.566,11.585 23.572,11.635 			"/>
			<polygon fill="#DC252E" points="22.988,11.635 22.986,11.644 22.992,11.703 23.009,11.758 23.039,11.806 23.076,11.849 
				23.12,11.882 23.168,11.908 23.222,11.923 23.279,11.929 23.337,11.923 23.393,11.908 23.442,11.882 23.485,11.849 23.52,11.806 
				23.548,11.758 23.566,11.703 23.572,11.644 23.572,11.635 23.51,11.635 23.51,11.644 23.507,11.696 23.493,11.743 23.472,11.784 
				23.444,11.819 23.41,11.849 23.371,11.87 23.326,11.884 23.279,11.888 23.232,11.884 23.186,11.87 23.147,11.849 23.112,11.819 
				23.084,11.784 23.062,11.743 23.049,11.696 23.044,11.644 23.044,11.635 			"/>
			<polygon fill="#DC252E" points="23.176,11.635 23.176,11.756 23.227,11.756 23.227,11.656 23.279,11.656 23.34,11.756 
				23.391,11.756 23.318,11.656 23.335,11.654 23.353,11.652 23.367,11.646 23.379,11.639 23.383,11.635 			"/>
		</g>
	</g>
	<polygon fill="#FFFFFF" points="16.688,7.406 16.649,7.404 16.61,7.4 16.574,7.394 16.539,7.39 16.504,7.384 16.468,7.378 
		16.431,7.372 16.391,7.366 16.35,7.362 16.307,7.358 16.258,7.354 16.204,7.352 16.146,7.352 16.081,7.354 16.008,7.358 
		15.93,7.364 15.872,7.372 15.819,7.384 15.77,7.4 15.727,7.418 15.688,7.439 15.652,7.463 15.623,7.49 15.599,7.518 15.582,7.549 
		15.57,7.582 15.564,7.616 15.564,7.651 15.572,7.689 15.585,7.726 15.607,7.763 15.634,7.801 15.692,7.852 15.758,7.893 
		15.837,7.929 15.922,7.958 16.01,7.987 16.103,8.017 16.197,8.05 16.287,8.09 16.372,8.137 16.453,8.194 16.523,8.267 
		16.582,8.353 16.627,8.459 16.657,8.585 16.667,8.735 16.657,8.912 16.635,9.043 16.6,9.161 16.555,9.267 16.497,9.362 
		16.431,9.444 16.358,9.515 16.277,9.576 16.191,9.629 16.1,9.672 16.006,9.708 15.91,9.737 15.813,9.759 15.717,9.775 
		15.623,9.784 15.533,9.79 15.444,9.793 15.322,9.793 15.212,9.79 15.112,9.788 15.019,9.787 14.935,9.783 14.86,9.779 
		14.789,9.773 14.726,9.765 14.667,9.757 14.612,9.747 14.561,9.737 14.51,9.724 14.463,9.71 14.416,9.696 14.369,9.678 
		14.319,9.661 14.441,9.043 14.469,9.049 14.502,9.059 14.543,9.069 14.589,9.08 14.642,9.091 14.701,9.104 14.764,9.116 
		14.83,9.128 14.901,9.138 14.976,9.148 15.053,9.155 15.133,9.163 15.214,9.167 15.297,9.169 15.379,9.169 15.464,9.165 
		15.542,9.151 15.607,9.13 15.656,9.098 15.695,9.063 15.725,9.022 15.747,8.979 15.764,8.935 15.776,8.892 15.782,8.847 
		15.78,8.807 15.77,8.77 15.754,8.739 15.733,8.707 15.705,8.68 15.672,8.654 15.634,8.63 15.593,8.609 15.548,8.587 15.499,8.566 
		15.448,8.546 15.397,8.526 15.342,8.505 15.287,8.483 15.23,8.459 15.175,8.436 15.12,8.41 15.065,8.381 15.011,8.349 14.96,8.316 
		14.913,8.278 14.868,8.235 14.827,8.19 14.789,8.139 14.756,8.084 14.728,8.023 14.705,7.958 14.689,7.885 14.679,7.807 
		14.677,7.72 14.683,7.628 14.689,7.571 14.697,7.515 14.705,7.463 14.716,7.411 14.728,7.362 14.742,7.313 14.76,7.268 
		14.777,7.223 14.799,7.181 14.821,7.14 14.846,7.103 14.874,7.065 14.903,7.03 14.935,6.996 14.968,6.965 15.005,6.936 
		15.045,6.908 15.086,6.883 15.131,6.859 15.179,6.835 15.227,6.816 15.28,6.796 15.336,6.78 15.395,6.764 15.458,6.751 
		15.523,6.739 15.589,6.729 15.66,6.721 15.735,6.715 15.813,6.712 15.894,6.708 15.979,6.708 16.083,6.708 16.177,6.709 
		16.262,6.712 16.34,6.715 16.409,6.719 16.472,6.723 16.529,6.729 16.578,6.733 16.624,6.739 16.663,6.745 16.7,6.749 
		16.731,6.755 16.759,6.759 16.785,6.763 16.808,6.766 16.83,6.769 	"/>
	<g>
		<g>
			<polyline fill="none" points="16.688,7.406 16.688,7.406 16.649,7.404 16.61,7.4 16.574,7.394 16.539,7.39 16.504,7.384 
				16.468,7.378 16.431,7.372 16.391,7.366 16.35,7.362 16.307,7.358 16.258,7.354 16.204,7.352 16.146,7.352 16.081,7.354 
				16.008,7.358 15.93,7.364 15.93,7.364 15.872,7.372 15.819,7.384 15.77,7.4 15.727,7.418 15.688,7.439 15.652,7.463 15.623,7.49 
				15.599,7.518 15.582,7.549 15.57,7.582 15.564,7.616 15.564,7.651 15.572,7.689 15.585,7.726 15.607,7.763 15.634,7.801 
				15.634,7.801 15.692,7.852 15.758,7.893 15.837,7.929 15.922,7.958 16.01,7.987 16.103,8.017 16.197,8.05 16.287,8.09 
				16.372,8.137 16.453,8.194 16.523,8.267 16.582,8.353 16.627,8.459 16.657,8.585 16.667,8.735 16.657,8.912 16.657,8.912 
				16.635,9.043 16.6,9.161 16.555,9.267 16.497,9.362 16.431,9.444 16.358,9.515 16.277,9.576 16.191,9.629 16.1,9.672 
				16.006,9.708 15.91,9.737 15.813,9.759 15.717,9.775 15.623,9.784 15.533,9.79 15.444,9.793 15.444,9.793 15.322,9.793 
				15.212,9.79 15.112,9.788 15.019,9.787 14.935,9.783 14.86,9.779 14.789,9.773 14.726,9.765 14.667,9.757 14.612,9.747 
				14.561,9.737 14.51,9.724 14.463,9.71 14.416,9.696 14.369,9.678 14.319,9.661 14.441,9.043 14.441,9.043 14.469,9.049 
				14.502,9.059 14.543,9.069 14.589,9.08 14.642,9.091 14.701,9.104 14.764,9.116 14.83,9.128 14.901,9.138 14.976,9.148 
				15.053,9.155 15.133,9.163 15.214,9.167 15.297,9.169 15.379,9.169 15.464,9.165 15.464,9.165 15.542,9.151 15.607,9.13 
				15.656,9.098 15.695,9.063 15.725,9.022 15.747,8.979 15.764,8.935 15.776,8.892 15.776,8.892 15.782,8.847 15.78,8.807 
				15.77,8.77 15.754,8.739 15.733,8.707 15.705,8.68 15.672,8.654 15.634,8.63 15.593,8.609 15.548,8.587 15.499,8.566 
				15.448,8.546 15.397,8.526 15.342,8.505 15.287,8.483 15.23,8.459 15.175,8.436 15.12,8.41 15.065,8.381 15.011,8.349 
				14.96,8.316 14.913,8.278 14.868,8.235 14.827,8.19 14.789,8.139 14.756,8.084 14.728,8.023 14.705,7.958 14.689,7.885 
				14.679,7.807 14.677,7.72 14.683,7.628 14.683,7.628 14.689,7.571 14.697,7.515 14.705,7.463 14.716,7.411 14.728,7.362 
				14.742,7.313 14.76,7.268 14.777,7.223 14.799,7.181 14.821,7.14 14.846,7.103 14.874,7.065 14.903,7.03 14.935,6.996 
				14.968,6.965 15.005,6.936 15.045,6.908 15.086,6.883 15.131,6.859 15.179,6.835 15.227,6.816 15.28,6.796 15.336,6.78 
				15.395,6.764 15.458,6.751 15.523,6.739 15.589,6.729 15.66,6.721 15.735,6.715 15.813,6.712 15.894,6.708 15.979,6.708 
				15.979,6.708 16.083,6.708 16.177,6.709 16.262,6.712 16.34,6.715 16.409,6.719 16.472,6.723 16.529,6.729 16.578,6.733 
				16.624,6.739 16.663,6.745 16.7,6.749 16.731,6.755 16.759,6.759 16.785,6.763 16.808,6.766 16.83,6.769 16.688,7.406 			"/>
		</g>
	</g>
	<polygon fill="#FFFFFF" points="17.335,6.09 18.125,6.09 18.004,6.779 18.489,6.779 18.379,7.406 17.882,7.396 17.62,8.963 
		17.616,8.996 17.616,9.025 17.62,9.051 17.628,9.075 17.64,9.095 17.653,9.114 17.671,9.13 17.691,9.141 17.715,9.153 
		17.739,9.163 17.766,9.171 17.793,9.175 17.825,9.181 17.856,9.183 17.89,9.185 17.923,9.185 17.986,9.185 18.041,9.181 
		18.092,9.173 18.136,9.163 18.169,9.153 18.195,9.143 18.21,9.135 18.216,9.134 18.136,9.67 18.116,9.682 18.094,9.692 
		18.073,9.702 18.051,9.712 18.029,9.72 18.005,9.727 17.982,9.735 17.955,9.743 17.927,9.751 17.897,9.757 17.864,9.763 
		17.829,9.769 17.791,9.775 17.752,9.78 17.707,9.787 17.66,9.793 17.447,9.793 17.335,9.784 17.235,9.773 17.147,9.757 
		17.07,9.735 17.005,9.712 16.95,9.682 16.905,9.649 16.867,9.611 16.838,9.57 16.816,9.525 16.802,9.476 16.795,9.421 
		16.793,9.364 16.795,9.301 16.8,9.236 16.81,9.165 	"/>
	<g>
		<g>
			<polyline fill="none" points="17.335,6.09 18.125,6.09 18.004,6.779 18.489,6.779 18.379,7.406 17.882,7.396 17.62,8.963 
				17.62,8.963 17.616,8.996 17.616,9.025 17.62,9.051 17.628,9.075 17.64,9.095 17.653,9.114 17.671,9.13 17.691,9.141 
				17.715,9.153 17.739,9.163 17.766,9.171 17.793,9.175 17.825,9.181 17.856,9.183 17.89,9.185 17.923,9.185 17.923,9.185 
				17.986,9.185 18.041,9.181 18.092,9.173 18.136,9.163 18.169,9.153 18.195,9.143 18.21,9.135 18.216,9.134 18.136,9.67 
				18.136,9.67 18.116,9.682 18.094,9.692 18.073,9.702 18.051,9.712 18.029,9.72 18.005,9.727 17.982,9.735 17.955,9.743 
				17.927,9.751 17.897,9.757 17.864,9.763 17.829,9.769 17.791,9.775 17.752,9.78 17.707,9.787 17.66,9.793 17.447,9.793 
				17.447,9.793 17.335,9.784 17.235,9.773 17.147,9.757 17.07,9.735 17.005,9.712 16.95,9.682 16.905,9.649 16.867,9.611 
				16.838,9.57 16.816,9.525 16.802,9.476 16.795,9.421 16.793,9.364 16.795,9.301 16.8,9.236 16.81,9.165 17.335,6.09 			"/>
		</g>
	</g>
	<polygon fill="#FFFFFF" points="12.53,8.477 12.52,8.526 12.519,8.575 12.522,8.628 12.534,8.68 12.55,8.733 12.573,8.786 
		12.601,8.837 12.634,8.886 12.672,8.933 12.715,8.979 12.76,9.018 12.809,9.055 12.862,9.087 12.917,9.112 12.977,9.132 
		13.035,9.145 13.106,9.155 13.177,9.165 13.25,9.173 13.322,9.177 13.397,9.179 13.47,9.179 13.547,9.175 13.621,9.169 
		13.698,9.157 13.777,9.143 13.855,9.124 13.934,9.098 14.013,9.069 14.095,9.034 14.176,8.99 14.259,8.943 14.137,9.641 
		14.091,9.665 14.046,9.686 14.005,9.704 13.962,9.72 13.918,9.735 13.875,9.747 13.83,9.757 13.781,9.767 13.73,9.773 
		13.674,9.779 13.614,9.784 13.549,9.787 13.478,9.79 13.399,9.79 13.313,9.793 13.218,9.793 13.15,9.793 13.079,9.788 13.01,9.784 
		12.939,9.777 12.867,9.767 12.796,9.755 12.725,9.739 12.654,9.724 12.585,9.702 12.517,9.68 12.45,9.655 12.383,9.625 
		12.318,9.592 12.255,9.556 12.196,9.517 12.137,9.474 12.082,9.427 12.029,9.376 11.978,9.32 11.932,9.261 11.889,9.196 
		11.85,9.13 11.815,9.057 11.783,8.98 11.756,8.898 11.734,8.811 11.716,8.721 11.705,8.623 11.697,8.52 11.697,8.414 11.7,8.3 
		11.71,8.182 11.716,8.141 11.722,8.094 11.73,8.046 11.74,7.995 11.749,7.942 11.763,7.887 11.779,7.83 11.795,7.771 11.815,7.71 
		11.836,7.651 11.862,7.59 11.889,7.53 11.921,7.468 11.954,7.407 11.991,7.347 12.031,7.288 12.076,7.231 12.123,7.174 
		12.174,7.118 12.231,7.067 12.29,7.016 12.355,6.969 12.424,6.926 12.499,6.884 12.577,6.849 12.662,6.816 12.75,6.786 
		12.844,6.763 12.945,6.743 13.051,6.729 13.161,6.721 13.279,6.717 13.335,6.717 13.389,6.721 13.446,6.725 13.503,6.731 
		13.56,6.739 13.619,6.751 13.676,6.764 13.733,6.78 13.79,6.798 13.848,6.82 13.902,6.843 13.956,6.871 14.007,6.902 14.058,6.936 
		14.105,6.975 14.152,7.016 14.195,7.061 14.237,7.111 14.274,7.166 14.307,7.223 14.339,7.285 14.367,7.352 14.39,7.425 
		14.408,7.502 14.423,7.585 14.433,7.671 14.438,7.763 14.438,7.862 14.431,7.966 14.422,8.076 14.404,8.192 14.38,8.314 
		14.349,8.487 12.306,8.487 12.428,7.94 13.653,7.94 13.659,7.866 13.659,7.797 13.655,7.732 13.643,7.673 13.627,7.62 
		13.608,7.571 13.582,7.527 13.552,7.488 13.519,7.453 13.482,7.423 13.442,7.4 13.401,7.38 13.356,7.364 13.309,7.352 13.26,7.347 
		13.208,7.344 13.153,7.344 13.102,7.352 13.051,7.362 13.004,7.378 12.959,7.4 12.916,7.425 12.874,7.455 12.837,7.488 
		12.802,7.527 12.77,7.569 12.74,7.614 12.713,7.663 12.69,7.714 12.67,7.769 12.654,7.828 12.64,7.889 	"/>
	<g>
		<g>
			<polyline fill="none" points="12.53,8.477 12.53,8.477 12.52,8.526 12.519,8.575 12.522,8.628 12.534,8.68 12.55,8.733 
				12.573,8.786 12.601,8.837 12.634,8.886 12.672,8.933 12.715,8.979 12.76,9.018 12.809,9.055 12.862,9.087 12.917,9.112 
				12.977,9.132 13.035,9.145 13.035,9.145 13.106,9.155 13.177,9.165 13.25,9.173 13.322,9.177 13.397,9.179 13.47,9.179 
				13.547,9.175 13.621,9.169 13.698,9.157 13.777,9.143 13.855,9.124 13.934,9.098 14.013,9.069 14.095,9.034 14.176,8.99 
				14.259,8.943 14.137,9.641 14.137,9.641 14.091,9.665 14.046,9.686 14.005,9.704 13.962,9.72 13.918,9.735 13.875,9.747 
				13.83,9.757 13.781,9.767 13.73,9.773 13.674,9.779 13.614,9.784 13.549,9.787 13.478,9.79 13.399,9.79 13.313,9.793 
				13.218,9.793 13.218,9.793 13.15,9.793 13.079,9.788 13.01,9.784 12.939,9.777 12.867,9.767 12.796,9.755 12.725,9.739 
				12.654,9.724 12.585,9.702 12.517,9.68 12.45,9.655 12.383,9.625 12.318,9.592 12.255,9.556 12.196,9.517 12.137,9.474 
				12.082,9.427 12.029,9.376 11.978,9.32 11.932,9.261 11.889,9.196 11.85,9.13 11.815,9.057 11.783,8.98 11.756,8.898 
				11.734,8.811 11.716,8.721 11.705,8.623 11.697,8.52 11.697,8.414 11.7,8.3 11.71,8.182 11.71,8.182 11.716,8.141 11.722,8.094 
				11.73,8.046 11.74,7.995 11.749,7.942 11.763,7.887 11.779,7.83 11.795,7.771 11.815,7.71 11.836,7.651 11.862,7.59 11.889,7.53 
				11.921,7.468 11.954,7.407 11.991,7.347 12.031,7.288 12.076,7.231 12.123,7.174 12.174,7.118 12.231,7.067 12.29,7.016 
				12.355,6.969 12.424,6.926 12.499,6.884 12.577,6.849 12.662,6.816 12.75,6.786 12.844,6.763 12.945,6.743 13.051,6.729 
				13.161,6.721 13.279,6.717 13.279,6.717 13.335,6.717 13.389,6.721 13.446,6.725 13.503,6.731 13.56,6.739 13.619,6.751 
				13.676,6.764 13.733,6.78 13.79,6.798 13.848,6.82 13.902,6.843 13.956,6.871 14.007,6.902 14.058,6.936 14.105,6.975 
				14.152,7.016 14.195,7.061 14.237,7.111 14.274,7.166 14.307,7.223 14.339,7.285 14.367,7.352 14.39,7.425 14.408,7.502 
				14.423,7.585 14.433,7.671 14.438,7.763 14.438,7.862 14.431,7.966 14.422,8.076 14.404,8.192 14.38,8.314 14.349,8.487 
				12.306,8.487 12.428,7.94 13.653,7.94 13.653,7.94 13.659,7.866 13.659,7.797 13.655,7.732 13.643,7.673 13.627,7.62 
				13.608,7.571 13.582,7.527 13.552,7.488 13.519,7.453 13.482,7.423 13.442,7.4 13.401,7.38 13.356,7.364 13.309,7.352 
				13.26,7.347 13.208,7.344 13.208,7.344 13.153,7.344 13.102,7.352 13.051,7.362 13.004,7.378 12.959,7.4 12.916,7.425 
				12.874,7.455 12.837,7.488 12.802,7.527 12.77,7.569 12.74,7.614 12.713,7.663 12.69,7.714 12.67,7.769 12.654,7.828 
				12.64,7.889 12.53,8.477 			"/>
		</g>
	</g>
	<polygon fill="#FFFFFF" points="11.437,9.165 11.325,9.793 10.615,9.793 10.623,9.733 10.631,9.674 10.639,9.621 10.647,9.572 
		10.655,9.531 10.66,9.495 10.668,9.472 10.676,9.458 10.639,9.501 10.592,9.544 10.539,9.586 10.478,9.625 10.413,9.663 
		10.342,9.698 10.267,9.729 10.19,9.759 10.11,9.784 10.028,9.806 9.945,9.822 9.862,9.834 9.78,9.84 9.699,9.842 9.62,9.836 
		9.544,9.824 9.443,9.8 9.355,9.769 9.275,9.731 9.204,9.69 9.141,9.645 9.088,9.594 9.041,9.541 9.001,9.482 8.968,9.423 
		8.94,9.362 8.919,9.299 8.901,9.234 8.889,9.171 8.881,9.106 8.877,9.043 8.875,8.982 8.883,8.872 8.901,8.768 8.927,8.667 
		8.964,8.573 9.009,8.485 9.06,8.402 9.121,8.326 9.186,8.253 9.259,8.188 9.335,8.131 9.418,8.078 9.505,8.032 9.595,7.994 
		9.687,7.962 9.782,7.939 9.878,7.921 9.882,7.921 9.896,7.919 9.917,7.916 9.947,7.913 9.98,7.909 10.02,7.905 10.063,7.899 
		10.11,7.895 10.157,7.891 10.205,7.885 10.254,7.881 10.301,7.877 10.344,7.873 10.385,7.872 10.423,7.87 10.454,7.87 10.487,7.87 
		10.521,7.87 10.555,7.87 10.59,7.872 10.623,7.872 10.655,7.873 10.686,7.873 10.717,7.873 10.745,7.876 10.771,7.876 
		10.792,7.877 10.812,7.877 10.828,7.879 10.839,7.879 10.847,7.879 10.849,7.879 10.855,7.86 10.869,7.813 10.879,7.757 
		10.879,7.708 10.875,7.673 10.869,7.639 10.859,7.608 10.845,7.579 10.83,7.551 10.81,7.526 10.79,7.502 10.767,7.478 
		10.741,7.459 10.715,7.443 10.686,7.427 10.657,7.413 10.625,7.404 10.592,7.396 10.558,7.39 10.525,7.386 10.444,7.384 
		10.36,7.386 10.271,7.388 10.181,7.394 10.09,7.4 10,7.407 9.909,7.418 9.821,7.427 9.737,7.441 9.656,7.453 9.583,7.467 
		9.514,7.482 9.453,7.498 9.402,7.514 9.361,7.53 9.332,7.547 9.534,6.879 9.593,6.851 9.656,6.826 9.719,6.804 9.785,6.786 
		9.855,6.772 9.925,6.761 10,6.751 10.076,6.743 10.155,6.739 10.236,6.735 10.318,6.733 10.405,6.733 10.495,6.733 10.586,6.733 
		10.68,6.735 10.778,6.737 10.859,6.745 10.944,6.757 11.032,6.779 11.12,6.804 11.209,6.837 11.298,6.879 11.38,6.926 
		11.459,6.981 11.531,7.044 11.596,7.113 11.652,7.189 11.695,7.274 11.726,7.366 11.744,7.467 11.746,7.572 11.73,7.689 	"/>
	<g>
		<g>
			<polyline fill="none" points="11.437,9.165 11.325,9.793 10.615,9.793 10.615,9.793 10.623,9.733 10.631,9.674 10.639,9.621 
				10.647,9.572 10.655,9.531 10.66,9.495 10.668,9.472 10.676,9.458 10.676,9.458 10.639,9.501 10.592,9.544 10.539,9.586 
				10.478,9.625 10.413,9.663 10.342,9.698 10.267,9.729 10.19,9.759 10.11,9.784 10.028,9.806 9.945,9.822 9.862,9.834 9.78,9.84 
				9.699,9.842 9.62,9.836 9.544,9.824 9.544,9.824 9.443,9.8 9.355,9.769 9.275,9.731 9.204,9.69 9.141,9.645 9.088,9.594 
				9.041,9.541 9.001,9.482 8.968,9.423 8.94,9.362 8.919,9.299 8.901,9.234 8.889,9.171 8.881,9.106 8.877,9.043 8.875,8.982 
				8.875,8.982 8.883,8.872 8.901,8.768 8.927,8.667 8.964,8.573 9.009,8.485 9.06,8.402 9.121,8.326 9.186,8.253 9.259,8.188 
				9.335,8.131 9.418,8.078 9.505,8.032 9.595,7.994 9.687,7.962 9.782,7.939 9.878,7.921 9.878,7.921 9.882,7.921 9.896,7.919 
				9.917,7.916 9.947,7.913 9.98,7.909 10.02,7.905 10.063,7.899 10.11,7.895 10.157,7.891 10.205,7.885 10.254,7.881 10.301,7.877 
				10.344,7.873 10.385,7.872 10.423,7.87 10.454,7.87 10.454,7.87 10.487,7.87 10.521,7.87 10.555,7.87 10.59,7.872 10.623,7.872 
				10.655,7.873 10.686,7.873 10.717,7.873 10.745,7.876 10.771,7.876 10.792,7.877 10.812,7.877 10.828,7.879 10.839,7.879 
				10.847,7.879 10.849,7.879 10.849,7.879 10.855,7.86 10.869,7.813 10.879,7.757 10.879,7.708 10.879,7.708 10.875,7.673 
				10.869,7.639 10.859,7.608 10.845,7.579 10.83,7.551 10.81,7.526 10.79,7.502 10.767,7.478 10.741,7.459 10.715,7.443 
				10.686,7.427 10.657,7.413 10.625,7.404 10.592,7.396 10.558,7.39 10.525,7.386 10.525,7.386 10.444,7.384 10.36,7.386 
				10.271,7.388 10.181,7.394 10.09,7.4 10,7.407 9.909,7.418 9.821,7.427 9.737,7.441 9.656,7.453 9.583,7.467 9.514,7.482 
				9.453,7.498 9.402,7.514 9.361,7.53 9.332,7.547 9.534,6.879 9.534,6.879 9.593,6.851 9.656,6.826 9.719,6.804 9.785,6.786 
				9.855,6.772 9.925,6.761 10,6.751 10.076,6.743 10.155,6.739 10.236,6.735 10.318,6.733 10.405,6.733 10.495,6.733 10.586,6.733 
				10.68,6.735 10.778,6.737 10.778,6.737 10.859,6.745 10.944,6.757 11.032,6.779 11.12,6.804 11.209,6.837 11.298,6.879 
				11.38,6.926 11.459,6.981 11.531,7.044 11.596,7.113 11.652,7.189 11.695,7.274 11.726,7.366 11.744,7.467 11.746,7.572 
				11.73,7.689 11.437,9.165 			"/>
		</g>
	</g>
	<polygon fill="#127CB5" points="10.759,8.426 10.757,8.41 10.745,8.398 10.725,8.389 10.7,8.383 10.666,8.379 10.631,8.377 
		10.59,8.377 10.546,8.377 10.501,8.381 10.454,8.387 10.409,8.392 10.364,8.4 10.32,8.408 10.279,8.416 10.244,8.426 10.212,8.436 
		10.195,8.44 10.171,8.447 10.142,8.457 10.11,8.471 10.076,8.485 10.039,8.503 10.002,8.524 9.965,8.546 9.927,8.573 9.892,8.603 
		9.858,8.634 9.829,8.67 9.801,8.707 9.782,8.749 9.766,8.794 9.756,8.841 9.752,8.937 9.766,9.012 9.79,9.071 9.825,9.114 
		9.868,9.143 9.913,9.163 9.963,9.173 10.01,9.175 10.096,9.173 10.173,9.165 10.246,9.151 10.311,9.134 10.37,9.114 10.423,9.091 
		10.47,9.063 10.511,9.034 10.548,9.004 10.58,8.971 10.608,8.939 10.631,8.906 10.651,8.872 10.666,8.841 10.678,8.809 
		10.688,8.78 10.698,8.736 10.708,8.691 10.717,8.644 10.727,8.595 10.735,8.548 10.743,8.505 10.751,8.463 	"/>
	<polygon fill="#FFFFFF" points="5.504,9.793 4.735,9.793 5.381,6.09 6.718,6.09 6.85,8.294 7.76,6.09 9.149,6.09 8.5,9.793 
		7.731,9.793 8.217,7.02 8.187,7.02 7.043,9.793 6.182,9.793 6.174,9.676 6.156,9.368 6.131,8.931 6.101,8.43 6.072,7.924 
		6.046,7.478 6.028,7.156 6.02,7.02 6.018,7.02 6.011,7.02 6.003,7.02 5.993,7.02 5.985,7.02 5.981,7.02 5.981,7.02 5.989,7.02 	"/>
	<g>
		<g>
			<polyline fill="none" points="5.504,9.793 4.735,9.793 5.381,6.09 6.718,6.09 6.85,8.294 7.76,6.09 9.149,6.09 8.5,9.793 
				7.731,9.793 8.217,7.02 8.187,7.02 7.043,9.793 6.182,9.793 6.182,9.793 6.174,9.676 6.156,9.368 6.131,8.931 6.101,8.43 
				6.072,7.924 6.046,7.478 6.028,7.156 6.02,7.02 6.02,7.02 6.018,7.02 6.011,7.02 6.003,7.02 5.993,7.02 5.985,7.02 5.981,7.02 
				5.981,7.02 5.989,7.02 5.504,9.793 			"/>
		</g>
	</g>
	<polygon fill="#FFFFFF" points="18.348,9.793 19.148,9.793 19.148,9.793 19.421,8.194 19.433,8.131 19.447,8.07 19.463,8.009 
		19.482,7.952 19.504,7.895 19.531,7.842 19.565,7.791 19.602,7.742 19.647,7.698 19.698,7.659 19.759,7.624 19.826,7.592 
		19.905,7.567 19.993,7.547 20.092,7.535 20.202,7.527 20.212,7.527 20.223,7.53 20.239,7.531 20.255,7.531 20.269,7.533 
		20.28,7.535 20.288,7.537 20.292,7.537 20.294,7.526 20.302,7.492 20.312,7.441 20.328,7.376 20.347,7.303 20.369,7.225 
		20.395,7.146 20.424,7.072 20.446,7.016 20.471,6.963 20.497,6.91 20.524,6.861 20.548,6.82 20.568,6.786 20.581,6.764 
		20.585,6.757 20.581,6.757 20.571,6.753 20.558,6.751 20.538,6.747 20.518,6.743 20.495,6.741 20.473,6.737 20.454,6.737 
		20.367,6.743 20.288,6.753 20.216,6.769 20.149,6.786 20.086,6.81 20.029,6.835 19.974,6.867 19.925,6.9 19.875,6.938 19.83,6.979 
		19.789,7.022 19.745,7.069 19.704,7.118 19.665,7.172 19.624,7.227 19.583,7.284 19.675,6.779 18.875,6.769 18.348,9.793 	"/>
	<g>
		<g>
			<polyline fill="none" points="18.348,9.793 19.148,9.793 19.148,9.793 19.421,8.194 19.421,8.194 19.433,8.131 19.447,8.07 
				19.463,8.009 19.482,7.952 19.504,7.895 19.531,7.842 19.565,7.791 19.602,7.742 19.647,7.698 19.698,7.659 19.759,7.624 
				19.826,7.592 19.905,7.567 19.993,7.547 20.092,7.535 20.202,7.527 20.202,7.527 20.212,7.527 20.223,7.53 20.239,7.531 
				20.255,7.531 20.269,7.533 20.28,7.535 20.288,7.537 20.292,7.537 20.292,7.537 20.294,7.526 20.302,7.492 20.312,7.441 
				20.328,7.376 20.347,7.303 20.369,7.225 20.395,7.146 20.424,7.072 20.424,7.072 20.446,7.016 20.471,6.963 20.497,6.91 
				20.524,6.861 20.548,6.82 20.568,6.786 20.581,6.764 20.585,6.757 20.585,6.757 20.581,6.757 20.571,6.753 20.558,6.751 
				20.538,6.747 20.518,6.743 20.495,6.741 20.473,6.737 20.454,6.737 20.454,6.737 20.367,6.743 20.288,6.753 20.216,6.769 
				20.149,6.786 20.086,6.81 20.029,6.835 19.974,6.867 19.925,6.9 19.875,6.938 19.83,6.979 19.789,7.022 19.745,7.069 
				19.704,7.118 19.665,7.172 19.624,7.227 19.583,7.284 19.675,6.779 18.875,6.769 18.348,9.793 18.348,9.793 			"/>
		</g>
	</g>
	<polygon fill="#FFFFFF" points="21.81,6.737 21.898,6.739 21.985,6.745 22.07,6.753 22.152,6.764 22.231,6.78 22.307,6.8 
		22.38,6.822 22.453,6.847 22.522,6.877 22.587,6.908 22.651,6.942 22.71,6.979 22.77,7.02 22.824,7.063 22.876,7.109 22.925,7.158 
		22.972,7.209 23.015,7.264 23.055,7.319 23.092,7.378 23.127,7.439 23.157,7.504 23.186,7.569 23.21,7.637 23.232,7.706 
		23.249,7.779 23.265,7.854 23.277,7.93 23.284,8.007 23.289,8.088 23.29,8.17 23.289,8.253 23.283,8.353 23.271,8.45 23.257,8.542 
		23.239,8.632 23.22,8.719 23.194,8.801 23.167,8.882 23.137,8.958 23.102,9.032 23.067,9.102 23.025,9.169 22.984,9.232 
		22.938,9.293 22.889,9.35 22.838,9.403 22.785,9.454 22.73,9.501 22.673,9.547 22.612,9.588 22.551,9.625 22.486,9.661 
		22.419,9.692 22.353,9.722 22.282,9.747 22.211,9.77 22.136,9.79 22.062,9.806 21.987,9.82 21.908,9.83 21.83,9.837 21.749,9.842 
		21.668,9.843 21.588,9.842 21.507,9.837 21.431,9.83 21.354,9.818 21.279,9.804 21.204,9.788 21.134,9.769 21.065,9.745 
		20.996,9.72 20.931,9.69 20.868,9.659 20.807,9.623 20.748,9.586 20.693,9.544 20.638,9.501 20.587,9.454 20.54,9.405 
		20.493,9.352 20.451,9.297 20.41,9.238 20.375,9.177 20.339,9.112 20.31,9.045 20.282,8.976 20.259,8.904 20.237,8.827 
		20.219,8.749 20.206,8.667 20.196,8.583 20.19,8.497 20.188,8.406 20.19,8.314 20.196,8.22 20.206,8.129 20.219,8.04 20.237,7.956 
		20.257,7.873 20.28,7.793 20.306,7.716 20.335,7.641 20.367,7.569 20.402,7.5 20.441,7.435 20.483,7.37 20.526,7.311 20.573,7.252 
		20.622,7.199 20.674,7.146 20.729,7.097 20.786,7.052 20.845,7.009 20.906,6.969 20.97,6.934 21.037,6.898 21.106,6.869 
		21.175,6.841 21.248,6.818 21.322,6.796 21.399,6.779 21.478,6.763 21.558,6.753 21.641,6.743 21.725,6.739 	"/>
	<g>
		<g>
			<polyline fill="none" points="21.81,6.737 21.81,6.737 21.898,6.739 21.985,6.745 22.07,6.753 22.152,6.764 22.231,6.78 
				22.307,6.8 22.38,6.822 22.453,6.847 22.522,6.877 22.587,6.908 22.651,6.942 22.71,6.979 22.77,7.02 22.824,7.063 22.876,7.109 
				22.925,7.158 22.972,7.209 23.015,7.264 23.055,7.319 23.092,7.378 23.127,7.439 23.157,7.504 23.186,7.569 23.21,7.637 
				23.232,7.706 23.249,7.779 23.265,7.854 23.277,7.93 23.284,8.007 23.289,8.088 23.29,8.17 23.289,8.253 23.289,8.253 
				23.283,8.353 23.271,8.45 23.257,8.542 23.239,8.632 23.22,8.719 23.194,8.801 23.167,8.882 23.137,8.958 23.102,9.032 
				23.067,9.102 23.025,9.169 22.984,9.232 22.938,9.293 22.889,9.35 22.838,9.403 22.785,9.454 22.73,9.501 22.673,9.547 
				22.612,9.588 22.551,9.625 22.486,9.661 22.419,9.692 22.353,9.722 22.282,9.747 22.211,9.77 22.136,9.79 22.062,9.806 
				21.987,9.82 21.908,9.83 21.83,9.837 21.749,9.842 21.668,9.843 21.668,9.843 21.588,9.842 21.507,9.837 21.431,9.83 
				21.354,9.818 21.279,9.804 21.204,9.788 21.134,9.769 21.065,9.745 20.996,9.72 20.931,9.69 20.868,9.659 20.807,9.623 
				20.748,9.586 20.693,9.544 20.638,9.501 20.587,9.454 20.54,9.405 20.493,9.352 20.451,9.297 20.41,9.238 20.375,9.177 
				20.339,9.112 20.31,9.045 20.282,8.976 20.259,8.904 20.237,8.827 20.219,8.749 20.206,8.667 20.196,8.583 20.19,8.497 
				20.188,8.406 20.19,8.314 20.19,8.314 20.196,8.22 20.206,8.129 20.219,8.04 20.237,7.956 20.257,7.873 20.28,7.793 
				20.306,7.716 20.335,7.641 20.367,7.569 20.402,7.5 20.441,7.435 20.483,7.37 20.526,7.311 20.573,7.252 20.622,7.199 
				20.674,7.146 20.729,7.097 20.786,7.052 20.845,7.009 20.906,6.969 20.97,6.934 21.037,6.898 21.106,6.869 21.175,6.841 
				21.248,6.818 21.322,6.796 21.399,6.779 21.478,6.763 21.558,6.753 21.641,6.743 21.725,6.739 21.81,6.737 			"/>
		</g>
	</g>
	<polygon fill="#FFFFFF" points="22.986,9.641 23.218,9.641 23.218,9.67 23.127,9.67 23.127,9.863 23.076,9.863 23.076,9.67 
		22.986,9.67 	"/>
	<g>
		<g>
			<polyline fill="none" points="22.986,9.641 23.218,9.641 23.218,9.67 23.127,9.67 23.127,9.863 23.076,9.863 23.076,9.67 
				22.986,9.67 22.986,9.641 			"/>
		</g>
	</g>
	<polygon fill="#FFFFFF" points="23.247,9.641 23.318,9.641 23.401,9.812 23.401,9.812 23.481,9.641 23.552,9.641 23.552,9.863 
		23.501,9.863 23.501,9.692 23.501,9.692 23.42,9.863 23.379,9.863 23.298,9.692 23.298,9.692 23.298,9.863 23.247,9.863 	"/>
	<g>
		<g>
			<polyline fill="none" points="23.247,9.641 23.318,9.641 23.401,9.812 23.401,9.812 23.481,9.641 23.552,9.641 23.552,9.863 
				23.501,9.863 23.501,9.692 23.501,9.692 23.42,9.863 23.379,9.863 23.298,9.692 23.298,9.692 23.298,9.863 23.247,9.863 
				23.247,9.641 			"/>
		</g>
	</g>
	<polygon fill="#DC252E" points="21.183,8.182 21.171,8.292 21.165,8.394 21.165,8.487 21.171,8.573 21.183,8.652 21.2,8.721 
		21.222,8.784 21.249,8.841 21.283,8.89 21.32,8.931 21.362,8.966 21.407,8.994 21.456,9.016 21.511,9.032 21.568,9.039 
		21.629,9.043 21.696,9.041 21.761,9.034 21.822,9.019 21.881,8.998 21.936,8.971 21.989,8.935 22.038,8.894 22.085,8.844 
		22.127,8.79 22.166,8.726 22.203,8.656 22.235,8.579 22.264,8.495 22.29,8.402 22.31,8.302 22.327,8.194 22.337,8.109 
		22.343,8.029 22.343,7.95 22.337,7.876 22.327,7.807 22.311,7.74 22.29,7.679 22.264,7.622 22.233,7.571 22.197,7.527 
		22.156,7.488 22.111,7.457 22.06,7.431 22.005,7.415 21.946,7.406 21.881,7.406 21.8,7.411 21.725,7.425 21.657,7.449 
		21.592,7.478 21.533,7.518 21.478,7.561 21.429,7.61 21.385,7.665 21.344,7.724 21.309,7.787 21.277,7.85 21.252,7.916 
		21.228,7.983 21.208,8.05 21.195,8.117 	"/>
</g>
<g>
	<g>
		<defs>
			<path id="SVGID_1_" d="M-406.531-17.789l-0.039,0.039c-0.629,0.641-1.357,0.981-2.107,0.981c-1.565,0-2.703-1.175-2.703-2.796
				c0-1.618,1.137-2.794,2.703-2.794c0.75,0,1.478,0.34,2.107,0.983l0.039,0.039l1.007-1.218l-0.027-0.033
				c-0.837-0.99-1.842-1.471-3.077-1.471c-1.239,0-2.373,0.417-3.189,1.169c-0.888,0.815-1.356,1.964-1.356,3.324
				c0,1.36,0.468,2.512,1.356,3.327c0.817,0.756,1.951,1.17,3.189,1.17c1.235,0,2.241-0.481,3.077-1.471l0.027-0.031
				L-406.531-17.789z"/>
		</defs>
		<clipPath id="SVGID_2_">
			<use xlink:href="#SVGID_1_"  overflow="visible"/>
		</clipPath>
		<g clip-path="url(#SVGID_2_)">
			<defs>
				<rect id="SVGID_3_" x="-545.612" y="-323.77" width="703.735" height="559.789"/>
			</defs>
			<clipPath id="SVGID_4_">
				<use xlink:href="#SVGID_3_"  overflow="visible"/>
			</clipPath>
		</g>
	</g>
</g>
<g>
	<g>
		<defs>
			<path id="SVGID_9_" d="M-408.391,11.026l-0.028,0.028c-0.455,0.463-0.981,0.709-1.523,0.709c-1.131,0-1.953-0.849-1.953-2.021
				c0-1.169,0.822-2.019,1.953-2.019c0.542,0,1.068,0.246,1.523,0.71l0.028,0.028l0.728-0.88l-0.02-0.024
				c-0.605-0.715-1.331-1.063-2.224-1.063c-0.895,0-1.715,0.302-2.305,0.845c-0.642,0.589-0.98,1.42-0.98,2.403
				s0.338,1.816,0.98,2.405c0.59,0.546,1.41,0.846,2.305,0.846c0.893,0,1.62-0.348,2.224-1.063l0.02-0.022L-408.391,11.026z"/>
		</defs>
		<clipPath id="SVGID_6_">
			<use xlink:href="#SVGID_9_"  overflow="visible"/>
		</clipPath>
		<g clip-path="url(#SVGID_6_)">
			<defs>
				<rect id="SVGID_11_" x="-552.568" y="-294.31" width="703.735" height="559.789"/>
			</defs>
			<clipPath id="SVGID_8_">
				<use xlink:href="#SVGID_11_"  overflow="visible"/>
			</clipPath>
		</g>
	</g>
</g>
</svg>
