<?xml version="1.0" encoding="utf-8"?>
<!-- Generator: Adobe Illustrator 17.0.0, SVG Export Plug-In . SVG Version: 6.00 Build 0)  -->
<!DOCTYPE svg PUBLIC "-//W3C//DTD SVG 1.1//EN" "http://www.w3.org/Graphics/SVG/1.1/DTD/svg11.dtd">
<svg version="1.1" id="图层_1" xmlns="http://www.w3.org/2000/svg" xmlns:xlink="http://www.w3.org/1999/xlink" x="0px" y="0px"
	 width="28.25px" height="16px" viewBox="0 0 28.25 16" enable-background="new 0 0 28.25 16" xml:space="preserve">
<g>
	<g>
		<defs>
			<path id="SVGID_1_" d="M-492.368-17.789l-0.039,0.039c-0.629,0.641-1.357,0.981-2.107,0.981c-1.565,0-2.703-1.175-2.703-2.796
				c0-1.618,1.137-2.794,2.703-2.794c0.75,0,1.478,0.34,2.107,0.983l0.039,0.039l1.007-1.218l-0.027-0.033
				c-0.837-0.99-1.842-1.471-3.078-1.471c-1.239,0-2.373,0.417-3.189,1.169c-0.888,0.815-1.356,1.964-1.356,3.324
				c0,1.36,0.468,2.512,1.356,3.327c0.817,0.756,1.951,1.17,3.189,1.17c1.235,0,2.241-0.481,3.078-1.471l0.027-0.031
				L-492.368-17.789z"/>
		</defs>
		<clipPath id="SVGID_2_">
			<use xlink:href="#SVGID_1_"  overflow="visible"/>
		</clipPath>
		<g clip-path="url(#SVGID_2_)">
			<defs>
				<rect id="SVGID_3_" x="-631.449" y="-323.77" width="703.735" height="559.789"/>
			</defs>
			<clipPath id="SVGID_4_">
				<use xlink:href="#SVGID_3_"  overflow="visible"/>
			</clipPath>
		</g>
	</g>
</g>
<g>
	<g>
		<defs>
			<path id="SVGID_9_" d="M-494.228,11.026l-0.028,0.028c-0.455,0.463-0.981,0.709-1.523,0.709c-1.131,0-1.953-0.849-1.953-2.021
				c0-1.169,0.822-2.019,1.953-2.019c0.542,0,1.068,0.246,1.523,0.71l0.028,0.028l0.728-0.88l-0.02-0.024
				c-0.605-0.715-1.331-1.063-2.224-1.063c-0.895,0-1.715,0.302-2.305,0.845c-0.642,0.589-0.98,1.42-0.98,2.403
				s0.338,1.816,0.98,2.405c0.59,0.546,1.41,0.846,2.305,0.846c0.893,0,1.62-0.348,2.224-1.063l0.02-0.022L-494.228,11.026z"/>
		</defs>
		<clipPath id="SVGID_6_">
			<use xlink:href="#SVGID_9_"  overflow="visible"/>
		</clipPath>
		<g clip-path="url(#SVGID_6_)">
			<defs>
				<rect id="SVGID_11_" x="-638.405" y="-294.31" width="703.735" height="559.789"/>
			</defs>
			<clipPath id="SVGID_8_">
				<use xlink:href="#SVGID_11_"  overflow="visible"/>
			</clipPath>
		</g>
	</g>
</g>
<g>
	<polygon fill-rule="evenodd" clip-rule="evenodd" fill="#F0AC37" points="18.195,13.949 18.506,13.941 18.814,13.919 
		19.114,13.881 19.414,13.827 19.705,13.76 19.991,13.679 20.272,13.583 20.546,13.476 20.814,13.354 21.075,13.222 21.327,13.075 
		21.573,12.918 21.809,12.75 22.037,12.571 22.257,12.382 22.466,12.18 22.667,11.971 22.856,11.751 23.036,11.523 23.204,11.287 
		23.361,11.042 23.507,10.789 23.639,10.529 23.761,10.261 23.869,9.986 23.964,9.705 24.046,9.419 24.113,9.128 24.166,8.829 
		24.205,8.528 24.227,8.221 24.235,7.91 24.227,7.601 24.205,7.295 24.166,6.995 24.113,6.699 24.046,6.409 23.964,6.124 
		23.869,5.844 23.761,5.571 23.639,5.305 23.507,5.044 23.361,4.794 23.204,4.548 23.036,4.312 22.856,4.087 22.667,3.867 
		22.466,3.657 22.257,3.458 22.037,3.269 21.809,3.09 21.573,2.921 21.327,2.765 21.075,2.62 20.814,2.488 20.546,2.366 
		20.272,2.258 19.991,2.163 19.705,2.081 19.414,2.014 19.114,1.962 18.814,1.923 18.506,1.9 18.195,1.892 17.886,1.9 17.579,1.923 
		17.278,1.962 16.981,2.014 16.69,2.081 16.403,2.163 16.125,2.258 15.85,2.366 15.584,2.488 15.326,2.62 15.074,2.765 14.83,2.921 
		14.594,3.09 14.366,3.269 14.148,3.458 13.939,3.657 13.74,3.867 13.551,4.087 13.372,4.312 13.205,4.548 13.048,4.794 
		12.904,5.044 12.769,5.305 12.65,5.571 12.542,5.844 12.448,6.124 12.367,6.409 12.3,6.699 12.247,6.995 12.209,7.295 
		12.186,7.601 12.178,7.91 12.186,8.221 12.209,8.528 12.247,8.829 12.3,9.128 12.367,9.419 12.448,9.705 12.542,9.986 
		12.65,10.261 12.769,10.529 12.904,10.789 13.048,11.042 13.205,11.287 13.372,11.523 13.551,11.751 13.74,11.971 13.939,12.18 
		14.148,12.382 14.366,12.571 14.594,12.75 14.83,12.918 15.074,13.075 15.326,13.222 15.584,13.354 15.85,13.476 16.125,13.583 
		16.403,13.679 16.69,13.76 16.981,13.827 17.278,13.881 17.579,13.919 17.886,13.941 18.195,13.949 18.195,13.949 	"/>
	<polygon fill-rule="evenodd" clip-rule="evenodd" fill="#DC252E" points="10.13,13.949 10.439,13.941 10.746,13.919 11.047,13.881 
		11.344,13.827 11.635,13.76 11.921,13.679 12.2,13.583 12.475,13.476 12.741,13.354 13,13.222 13.251,13.075 13.496,12.918 
		13.732,12.75 13.959,12.571 14.177,12.382 14.386,12.18 14.586,11.971 14.775,11.751 14.954,11.523 15.12,11.287 15.277,11.042 
		15.421,10.789 15.556,10.529 15.676,10.261 15.783,9.986 15.877,9.705 15.958,9.419 16.026,9.128 16.078,8.829 16.117,8.528 
		16.139,8.221 16.147,7.91 16.139,7.601 16.117,7.295 16.078,6.995 16.026,6.699 15.958,6.409 15.877,6.124 15.783,5.844 
		15.676,5.571 15.556,5.305 15.421,5.044 15.277,4.794 15.12,4.548 14.954,4.312 14.775,4.087 14.586,3.867 14.386,3.657 
		14.177,3.458 13.959,3.269 13.732,3.09 13.496,2.921 13.251,2.765 13,2.62 12.741,2.488 12.475,2.366 12.2,2.258 11.921,2.163 
		11.635,2.081 11.344,2.014 11.047,1.962 10.746,1.923 10.439,1.9 10.13,1.892 9.819,1.9 9.512,1.923 9.211,1.962 8.912,2.014 
		8.621,2.081 8.334,2.163 8.053,2.258 7.779,2.366 7.511,2.488 7.251,2.62 6.999,2.765 6.752,2.921 6.516,3.09 6.289,3.269 
		6.069,3.458 5.859,3.657 5.658,3.867 5.469,4.087 5.29,4.312 5.121,4.548 4.965,4.794 4.818,5.044 4.686,5.305 4.564,5.571 
		4.457,5.844 4.361,6.124 4.279,6.409 4.212,6.699 4.159,6.995 4.121,7.295 4.098,7.601 4.09,7.91 4.098,8.221 4.121,8.528 
		4.159,8.829 4.212,9.128 4.279,9.419 4.361,9.705 4.457,9.986 4.564,10.261 4.686,10.529 4.818,10.789 4.965,11.042 5.121,11.287 
		5.29,11.523 5.469,11.751 5.658,11.971 5.859,12.18 6.069,12.382 6.289,12.571 6.516,12.75 6.752,12.918 6.999,13.075 
		7.251,13.222 7.511,13.354 7.779,13.476 8.053,13.583 8.334,13.679 8.621,13.76 8.912,13.827 9.211,13.881 9.512,13.919 
		9.819,13.941 10.13,13.949 10.13,13.949 	"/>
	<polygon fill-rule="evenodd" clip-rule="evenodd" fill="#F0AC37" points="13.457,4.205 16.66,4.205 16.66,3.877 13.733,3.877 
		13.457,4.205 13.457,4.205 	"/>
	<polygon fill-rule="evenodd" clip-rule="evenodd" fill="#F0AC37" points="12.977,4.932 16.66,4.932 16.66,4.605 13.17,4.605 
		12.977,4.932 12.977,4.932 	"/>
	<polygon fill-rule="evenodd" clip-rule="evenodd" fill="#F0AC37" points="12.619,5.658 16.66,5.658 16.66,5.331 12.762,5.331 
		12.619,5.658 12.619,5.658 	"/>
	<polygon fill-rule="evenodd" clip-rule="evenodd" fill="#F0AC37" points="12.373,6.386 16.66,6.386 16.66,6.059 12.475,6.059 
		12.373,6.386 12.373,6.386 	"/>
	<polygon fill-rule="evenodd" clip-rule="evenodd" fill="#F0AC37" points="12.516,9.905 16.67,9.905 16.67,9.577 12.414,9.577 
		12.516,9.905 12.516,9.905 	"/>
	<polygon fill-rule="evenodd" clip-rule="evenodd" fill="#F0AC37" points="12.822,10.633 16.67,10.633 16.67,10.305 12.67,10.305 
		12.822,10.633 12.822,10.633 	"/>
	<polygon fill-rule="evenodd" clip-rule="evenodd" fill="#F0AC37" points="13.253,11.359 16.67,11.359 16.67,11.031 13.048,11.031 
		13.253,11.359 13.253,11.359 	"/>
	<polygon fill-rule="evenodd" clip-rule="evenodd" fill="#F0AC37" points="13.847,12.087 16.67,12.087 16.67,11.757 13.561,11.757 
		13.847,12.087 13.847,12.087 	"/>
	<polygon fill-rule="evenodd" clip-rule="evenodd" fill="#F0AC37" points="12.229,7.112 16.66,7.112 16.66,6.785 12.292,6.785 
		12.229,7.112 12.229,7.112 	"/>
	<polygon fill-rule="evenodd" clip-rule="evenodd" fill="#F0AC37" points="14.929,9.179 16.619,9.179 16.619,8.851 14.99,8.851 
		14.929,9.179 14.929,9.179 	"/>
	<polygon fill-rule="evenodd" clip-rule="evenodd" fill="#F0AC37" points="15.063,8.452 16.619,8.452 16.619,8.123 15.125,8.123 
		15.063,8.452 15.063,8.452 	"/>
	<polygon fill-rule="evenodd" clip-rule="evenodd" fill="#F0AC37" points="12.117,8.123 12.556,8.123 12.556,8.452 12.137,8.452 
		12.117,8.123 12.117,8.123 	"/>
	<polygon fill-rule="evenodd" clip-rule="evenodd" fill="#FFFFFF" points="11.297,7.726 11.269,7.724 11.24,7.72 11.214,7.717 
		11.188,7.712 11.163,7.708 11.137,7.704 11.11,7.7 11.081,7.696 11.053,7.692 11.021,7.69 10.984,7.688 10.946,7.686 10.903,7.686 
		10.856,7.688 10.803,7.692 10.745,7.696 10.704,7.702 10.665,7.708 10.63,7.72 10.6,7.732 10.571,7.747 10.545,7.763 10.525,7.784 
		10.506,7.802 10.494,7.824 10.483,7.847 10.48,7.871 10.48,7.895 10.486,7.922 10.494,7.948 10.51,7.975 10.53,8.001 10.571,8.04 
		10.621,8.07 10.677,8.097 10.738,8.119 10.803,8.139 10.871,8.162 10.938,8.186 11.002,8.213 11.064,8.247 11.12,8.29 
		11.171,8.341 11.214,8.404 11.246,8.481 11.267,8.573 11.275,8.683 11.267,8.811 11.253,8.906 11.228,8.989 11.196,9.067 
		11.155,9.134 11.108,9.193 11.055,9.244 10.998,9.288 10.936,9.327 10.871,9.358 10.803,9.384 10.734,9.404 10.663,9.421 
		10.594,9.433 10.526,9.439 10.459,9.443 10.397,9.445 10.309,9.445 10.228,9.443 10.156,9.443 10.089,9.441 10.028,9.439 
		9.973,9.435 9.925,9.431 9.878,9.425 9.835,9.421 9.796,9.413 9.758,9.406 9.723,9.396 9.689,9.388 9.656,9.376 9.624,9.364 
		9.589,9.351 9.681,8.902 9.699,8.906 9.722,8.912 9.75,8.92 9.784,8.929 9.821,8.937 9.861,8.945 9.906,8.955 9.955,8.963 
		10.006,8.971 10.059,8.979 10.114,8.985 10.171,8.991 10.23,8.993 10.289,8.996 10.348,8.996 10.406,8.993 10.466,8.981 
		10.513,8.965 10.549,8.943 10.578,8.914 10.597,8.886 10.614,8.853 10.624,8.821 10.633,8.79 10.636,8.731 10.618,8.68 
		10.583,8.639 10.533,8.605 10.472,8.575 10.4,8.544 10.321,8.515 10.242,8.483 10.161,8.447 10.083,8.404 10.012,8.351 
		9.947,8.288 9.896,8.21 9.86,8.119 9.841,8.009 9.843,7.879 9.853,7.8 9.868,7.724 9.888,7.655 9.913,7.59 9.945,7.529 
		9.982,7.477 10.025,7.425 10.075,7.381 10.134,7.342 10.199,7.31 10.273,7.279 10.354,7.257 10.445,7.238 10.545,7.224 
		10.655,7.216 10.775,7.214 10.85,7.214 10.919,7.216 10.982,7.218 11.039,7.22 11.09,7.224 11.137,7.228 11.177,7.232 
		11.214,7.237 11.248,7.241 11.277,7.247 11.304,7.251 11.328,7.255 11.348,7.259 11.367,7.261 11.385,7.265 11.401,7.267 
		11.297,7.726 11.297,7.726 	"/>
	<polyline fill="none" points="11.297,7.726 11.297,7.726 11.269,7.724 11.24,7.72 11.214,7.717 11.188,7.712 11.163,7.708 
		11.137,7.704 11.11,7.7 11.081,7.696 11.053,7.692 11.021,7.69 10.984,7.688 10.946,7.686 10.903,7.686 10.856,7.688 10.803,7.692 
		10.745,7.696 10.745,7.696 10.704,7.702 10.665,7.708 10.63,7.72 10.6,7.732 10.571,7.747 10.545,7.763 10.525,7.784 10.506,7.802 
		10.494,7.824 10.483,7.847 10.48,7.871 10.48,7.895 10.486,7.922 10.494,7.948 10.51,7.975 10.53,8.001 10.53,8.001 10.571,8.04 
		10.621,8.07 10.677,8.097 10.738,8.119 10.803,8.139 10.871,8.162 10.938,8.186 11.002,8.213 11.064,8.247 11.12,8.29 
		11.171,8.341 11.214,8.404 11.246,8.481 11.267,8.573 11.275,8.683 11.267,8.811 11.267,8.811 11.253,8.906 11.228,8.989 
		11.196,9.067 11.155,9.134 11.108,9.193 11.055,9.244 10.998,9.288 10.936,9.327 10.871,9.358 10.803,9.384 10.734,9.404 
		10.663,9.421 10.594,9.433 10.526,9.439 10.459,9.443 10.397,9.445 10.397,9.445 10.309,9.445 10.228,9.443 10.156,9.443 
		10.089,9.441 10.028,9.439 9.973,9.435 9.925,9.431 9.878,9.425 9.835,9.421 9.796,9.413 9.758,9.406 9.723,9.396 9.689,9.388 
		9.656,9.376 9.624,9.364 9.589,9.351 9.681,8.902 9.681,8.902 9.699,8.906 9.722,8.912 9.75,8.92 9.784,8.929 9.821,8.937 
		9.861,8.945 9.906,8.955 9.955,8.963 10.006,8.971 10.059,8.979 10.114,8.985 10.171,8.991 10.23,8.993 10.289,8.996 10.348,8.996 
		10.406,8.993 10.406,8.993 10.466,8.981 10.513,8.965 10.549,8.943 10.578,8.914 10.597,8.886 10.614,8.853 10.624,8.821 
		10.633,8.79 10.633,8.79 10.636,8.731 10.618,8.68 10.583,8.639 10.533,8.605 10.472,8.575 10.4,8.544 10.321,8.515 10.242,8.483 
		10.161,8.447 10.083,8.404 10.012,8.351 9.947,8.288 9.896,8.21 9.86,8.119 9.841,8.009 9.843,7.879 9.843,7.879 9.853,7.8 
		9.868,7.724 9.888,7.655 9.913,7.59 9.945,7.529 9.982,7.477 10.025,7.425 10.075,7.381 10.134,7.342 10.199,7.31 10.273,7.279 
		10.354,7.257 10.445,7.238 10.545,7.224 10.655,7.216 10.775,7.214 10.775,7.214 10.85,7.214 10.919,7.216 10.982,7.218 
		11.039,7.22 11.09,7.224 11.137,7.228 11.177,7.232 11.214,7.237 11.248,7.241 11.277,7.247 11.304,7.251 11.328,7.255 
		11.348,7.259 11.367,7.261 11.385,7.265 11.401,7.267 11.297,7.726 	"/>
	<polygon fill-rule="evenodd" clip-rule="evenodd" fill="#FFFFFF" points="11.779,6.765 12.343,6.765 12.259,7.257 12.599,7.257 
		12.526,7.717 12.168,7.706 11.973,8.841 11.97,8.882 11.98,8.916 12.001,8.943 12.028,8.965 12.064,8.979 12.105,8.991 
		12.149,8.999 12.198,9.004 12.243,9.002 12.284,8.998 12.32,8.991 12.353,8.983 12.379,8.975 12.397,8.969 12.409,8.965 
		12.414,8.963 12.343,9.341 12.328,9.351 12.314,9.36 12.3,9.368 12.285,9.376 12.271,9.382 12.255,9.388 12.237,9.394 12.219,9.4 
		12.198,9.406 12.178,9.41 12.154,9.415 12.129,9.419 12.102,9.423 12.072,9.427 12.04,9.431 12.005,9.435 11.851,9.435 
		11.769,9.429 11.698,9.421 11.633,9.408 11.578,9.394 11.531,9.376 11.493,9.356 11.458,9.331 11.432,9.305 11.411,9.276 
		11.397,9.242 11.387,9.207 11.381,9.168 11.379,9.126 11.379,9.081 11.385,9.034 11.391,8.983 11.779,6.765 11.779,6.765 	"/>
	<polyline fill="none" points="11.779,6.765 12.343,6.765 12.259,7.257 12.599,7.257 12.526,7.717 12.168,7.706 11.973,8.841 
		11.973,8.841 11.97,8.882 11.98,8.916 12.001,8.943 12.028,8.965 12.064,8.979 12.105,8.991 12.149,8.999 12.198,9.004 
		12.198,9.004 12.243,9.002 12.284,8.998 12.32,8.991 12.353,8.983 12.379,8.975 12.397,8.969 12.409,8.965 12.414,8.963 
		12.343,9.341 12.343,9.341 12.328,9.351 12.314,9.36 12.3,9.368 12.285,9.376 12.271,9.382 12.255,9.388 12.237,9.394 12.219,9.4 
		12.198,9.406 12.178,9.41 12.154,9.415 12.129,9.419 12.102,9.423 12.072,9.427 12.04,9.431 12.005,9.435 11.851,9.435 
		11.851,9.435 11.769,9.429 11.698,9.421 11.633,9.408 11.578,9.394 11.531,9.376 11.493,9.356 11.458,9.331 11.432,9.305 
		11.411,9.276 11.397,9.242 11.387,9.207 11.381,9.168 11.379,9.126 11.379,9.081 11.385,9.034 11.391,8.983 11.779,6.765 	"/>
	<polyline fill="none" points="13.048,8.483 13.048,8.483 13.043,8.518 13.041,8.554 13.044,8.593 13.052,8.631 13.067,8.67 
		13.083,8.707 13.105,8.746 13.129,8.78 13.158,8.815 13.189,8.845 13.221,8.876 13.258,8.9 13.294,8.923 13.335,8.941 
		13.375,8.955 13.416,8.963 13.416,8.963 13.47,8.971 13.52,8.977 13.573,8.983 13.626,8.988 13.678,8.989 13.733,8.989 
		13.787,8.988 13.841,8.983 13.896,8.975 13.952,8.965 14.008,8.953 14.063,8.935 14.12,8.912 14.179,8.888 14.236,8.855 
		14.295,8.821 14.214,9.321 14.214,9.321 14.181,9.337 14.148,9.354 14.116,9.366 14.085,9.378 14.055,9.388 14.022,9.398 
		13.99,9.406 13.955,9.413 13.919,9.419 13.878,9.423 13.835,9.427 13.788,9.431 13.735,9.433 13.68,9.433 13.618,9.435 
		13.551,9.435 13.551,9.435 13.451,9.433 13.349,9.423 13.248,9.408 13.146,9.384 13.046,9.354 12.951,9.315 12.859,9.264 
		12.774,9.205 12.694,9.136 12.625,9.053 12.566,8.959 12.517,8.851 12.483,8.731 12.46,8.595 12.454,8.444 12.464,8.278 
		12.464,8.278 12.473,8.213 12.485,8.137 12.501,8.058 12.524,7.972 12.554,7.885 12.591,7.798 12.638,7.708 12.694,7.623 
		12.76,7.542 12.839,7.464 12.928,7.395 13.03,7.334 13.148,7.283 13.28,7.247 13.427,7.222 13.592,7.214 13.592,7.214 
		13.671,7.216 13.754,7.224 13.837,7.238 13.921,7.259 14.002,7.29 14.081,7.326 14.155,7.375 14.222,7.432 14.283,7.501 
		14.333,7.582 14.374,7.676 14.403,7.784 14.419,7.905 14.421,8.044 14.407,8.198 14.376,8.369 14.366,8.493 12.884,8.493 
		12.977,8.093 13.868,8.093 13.868,8.093 13.872,8.042 13.87,7.993 13.866,7.948 13.858,7.908 13.843,7.869 13.829,7.834 
		13.809,7.804 13.788,7.775 13.764,7.751 13.737,7.731 13.707,7.712 13.676,7.696 13.644,7.684 13.611,7.676 13.577,7.67 
		13.541,7.666 13.541,7.666 13.502,7.668 13.465,7.674 13.431,7.682 13.396,7.694 13.361,7.71 13.331,7.729 13.3,7.751 
		13.274,7.775 13.248,7.804 13.223,7.834 13.201,7.867 13.182,7.902 13.164,7.938 13.15,7.979 13.138,8.02 13.129,8.062 
		13.048,8.483 	"/>
	<polygon fill-rule="evenodd" clip-rule="evenodd" fill="#FFFFFF" points="17.898,7.379 17.872,7.365 17.846,7.352 17.817,7.338 
		17.786,7.324 17.756,7.312 17.722,7.3 17.687,7.287 17.65,7.275 17.612,7.265 17.573,7.257 17.53,7.249 17.488,7.243 17.441,7.238 
		17.394,7.235 17.345,7.235 17.295,7.235 17.244,7.235 17.19,7.238 17.136,7.245 17.078,7.255 17.022,7.271 16.965,7.294 
		16.908,7.322 16.851,7.358 16.796,7.403 16.743,7.456 16.692,7.521 16.644,7.596 16.599,7.686 16.556,7.787 16.518,7.902 
		16.485,8.032 16.473,8.105 16.465,8.176 16.46,8.247 16.463,8.316 16.469,8.386 16.483,8.451 16.501,8.512 16.524,8.573 
		16.554,8.628 16.591,8.68 16.634,8.727 16.682,8.77 16.737,8.806 16.8,8.837 16.869,8.863 16.947,8.882 16.973,8.888 17.004,8.894 
		17.04,8.898 17.081,8.902 17.126,8.906 17.172,8.906 17.223,8.906 17.274,8.902 17.327,8.896 17.38,8.886 17.431,8.871 
		17.481,8.855 17.532,8.833 17.579,8.806 17.622,8.774 17.662,8.737 17.571,9.28 17.559,9.29 17.546,9.303 17.53,9.317 
		17.512,9.329 17.49,9.345 17.461,9.36 17.429,9.374 17.392,9.386 17.345,9.4 17.292,9.41 17.231,9.419 17.16,9.427 17.081,9.431 
		16.989,9.433 16.886,9.431 16.771,9.425 16.678,9.415 16.585,9.394 16.491,9.364 16.398,9.323 16.308,9.274 16.223,9.213 
		16.141,9.142 16.066,9.061 15.999,8.969 15.942,8.868 15.893,8.754 15.857,8.63 15.833,8.493 15.824,8.349 15.828,8.19 
		15.85,8.021 15.867,7.938 15.885,7.857 15.905,7.778 15.926,7.702 15.948,7.631 15.974,7.56 16.001,7.493 16.029,7.43 16.06,7.367 
		16.091,7.308 16.125,7.251 16.162,7.198 16.198,7.147 16.239,7.098 16.279,7.054 16.322,7.011 16.369,6.97 16.416,6.932 
		16.465,6.897 16.516,6.864 16.57,6.834 16.625,6.808 16.682,6.783 16.741,6.761 16.804,6.74 16.867,6.724 16.932,6.71 
		17.002,6.698 17.071,6.687 17.144,6.679 17.217,6.676 17.295,6.673 17.359,6.676 17.423,6.679 17.483,6.685 17.545,6.694 
		17.602,6.702 17.657,6.714 17.709,6.724 17.758,6.736 17.805,6.748 17.846,6.761 17.884,6.773 17.917,6.785 17.945,6.795 
		17.97,6.803 17.988,6.812 18,6.816 17.898,7.379 17.898,7.379 	"/>
	<polyline fill="none" points="17.898,7.379 17.898,7.379 17.872,7.365 17.846,7.352 17.817,7.338 17.786,7.324 17.756,7.312 
		17.722,7.3 17.687,7.287 17.65,7.275 17.612,7.265 17.573,7.257 17.53,7.249 17.488,7.243 17.441,7.238 17.394,7.235 17.345,7.235 
		17.295,7.235 17.295,7.235 17.244,7.235 17.19,7.238 17.136,7.245 17.078,7.255 17.022,7.271 16.965,7.294 16.908,7.322 
		16.851,7.358 16.796,7.403 16.743,7.456 16.692,7.521 16.644,7.596 16.599,7.686 16.556,7.787 16.518,7.902 16.485,8.032 
		16.485,8.032 16.473,8.105 16.465,8.176 16.46,8.247 16.463,8.316 16.469,8.386 16.483,8.451 16.501,8.512 16.524,8.573 
		16.554,8.628 16.591,8.68 16.634,8.727 16.682,8.77 16.737,8.806 16.8,8.837 16.869,8.863 16.947,8.882 16.947,8.882 16.973,8.888 
		17.004,8.894 17.04,8.898 17.081,8.902 17.126,8.906 17.172,8.906 17.223,8.906 17.274,8.902 17.327,8.896 17.38,8.886 
		17.431,8.871 17.481,8.855 17.532,8.833 17.579,8.806 17.622,8.774 17.662,8.737 17.571,9.28 17.571,9.28 17.559,9.29 
		17.546,9.303 17.53,9.317 17.512,9.329 17.49,9.345 17.461,9.36 17.429,9.374 17.392,9.386 17.345,9.4 17.292,9.41 17.231,9.419 
		17.16,9.427 17.081,9.431 16.989,9.433 16.886,9.431 16.771,9.425 16.771,9.425 16.678,9.415 16.585,9.394 16.491,9.364 
		16.398,9.323 16.308,9.274 16.223,9.213 16.141,9.142 16.066,9.061 15.999,8.969 15.942,8.868 15.893,8.754 15.857,8.63 
		15.833,8.493 15.824,8.349 15.828,8.19 15.85,8.021 15.85,8.021 15.867,7.938 15.885,7.857 15.905,7.778 15.926,7.702 
		15.948,7.631 15.974,7.56 16.001,7.493 16.029,7.43 16.06,7.367 16.091,7.308 16.125,7.251 16.162,7.198 16.198,7.147 
		16.239,7.098 16.279,7.054 16.322,7.011 16.369,6.97 16.416,6.932 16.465,6.897 16.516,6.864 16.57,6.834 16.625,6.808 
		16.682,6.783 16.741,6.761 16.804,6.74 16.867,6.724 16.932,6.71 17.002,6.698 17.071,6.687 17.144,6.679 17.217,6.676 
		17.295,6.673 17.295,6.673 17.359,6.676 17.423,6.679 17.483,6.685 17.545,6.694 17.602,6.702 17.657,6.714 17.709,6.724 
		17.758,6.736 17.805,6.748 17.846,6.761 17.884,6.773 17.917,6.785 17.945,6.795 17.97,6.803 17.988,6.812 18,6.816 17.898,7.379 	
		"/>
	<polygon fill-rule="evenodd" clip-rule="evenodd" fill="#FFFFFF" points="22.905,9.435 22.342,9.435 22.383,9.209 22.383,9.189 
		22.35,9.23 22.316,9.266 22.281,9.298 22.244,9.327 22.207,9.354 22.171,9.376 22.134,9.394 22.095,9.413 22.057,9.427 
		22.018,9.437 21.98,9.447 21.939,9.453 21.898,9.459 21.859,9.463 21.819,9.465 21.778,9.465 21.673,9.457 21.575,9.435 
		21.486,9.4 21.404,9.354 21.331,9.294 21.266,9.226 21.209,9.15 21.16,9.065 21.119,8.973 21.087,8.878 21.065,8.778 21.048,8.674 
		21.043,8.571 21.044,8.465 21.055,8.361 21.073,8.258 21.103,8.137 21.14,8.024 21.182,7.92 21.234,7.822 21.286,7.731 
		21.347,7.649 21.41,7.576 21.477,7.509 21.549,7.45 21.624,7.399 21.701,7.354 21.778,7.32 21.859,7.291 21.941,7.273 
		22.023,7.261 22.106,7.257 22.165,7.259 22.221,7.265 22.275,7.275 22.324,7.29 22.37,7.306 22.411,7.324 22.452,7.346 
		22.488,7.369 22.521,7.393 22.551,7.42 22.577,7.446 22.602,7.472 22.622,7.499 22.641,7.525 22.657,7.55 22.669,7.574 
		22.669,7.574 22.812,6.775 23.365,6.775 22.905,9.435 22.905,9.435 	"/>
	<polyline fill="none" points="22.905,9.435 22.342,9.435 22.383,9.209 22.383,9.189 22.383,9.189 22.35,9.23 22.316,9.266 
		22.281,9.298 22.244,9.327 22.207,9.354 22.171,9.376 22.134,9.394 22.095,9.413 22.057,9.427 22.018,9.437 21.98,9.447 
		21.939,9.453 21.898,9.459 21.859,9.463 21.819,9.465 21.778,9.465 21.778,9.465 21.673,9.457 21.575,9.435 21.486,9.4 
		21.404,9.354 21.331,9.294 21.266,9.226 21.209,9.15 21.16,9.065 21.119,8.973 21.087,8.878 21.065,8.778 21.048,8.674 
		21.043,8.571 21.044,8.465 21.055,8.361 21.073,8.258 21.073,8.258 21.103,8.137 21.14,8.024 21.182,7.92 21.234,7.822 
		21.286,7.731 21.347,7.649 21.41,7.576 21.477,7.509 21.549,7.45 21.624,7.399 21.701,7.354 21.778,7.32 21.859,7.291 
		21.941,7.273 22.023,7.261 22.106,7.257 22.106,7.257 22.165,7.259 22.221,7.265 22.275,7.275 22.324,7.29 22.37,7.306 
		22.411,7.324 22.452,7.346 22.488,7.369 22.521,7.393 22.551,7.42 22.577,7.446 22.602,7.472 22.622,7.499 22.641,7.525 
		22.657,7.55 22.669,7.574 22.669,7.574 22.812,6.775 23.365,6.775 22.905,9.435 	"/>
	<polygon fill-rule="evenodd" clip-rule="evenodd" fill="#F0AC37" points="21.984,8.943 22.041,8.939 22.094,8.927 22.142,8.912 
		22.19,8.89 22.232,8.866 22.273,8.835 22.311,8.801 22.346,8.764 22.376,8.723 22.405,8.678 22.431,8.631 22.454,8.583 
		22.474,8.532 22.49,8.479 22.505,8.424 22.515,8.369 22.524,8.313 22.531,8.254 22.531,8.198 22.529,8.142 22.523,8.089 
		22.515,8.038 22.5,7.989 22.484,7.942 22.464,7.902 22.44,7.863 22.413,7.83 22.383,7.802 22.348,7.778 22.311,7.761 22.273,7.751 
		22.23,7.747 22.175,7.751 22.124,7.759 22.078,7.775 22.03,7.796 21.99,7.822 21.949,7.855 21.915,7.889 21.88,7.928 21.849,7.972 
		21.821,8.02 21.795,8.068 21.772,8.121 21.752,8.176 21.736,8.231 21.72,8.29 21.707,8.349 21.697,8.439 21.701,8.536 
		21.715,8.635 21.742,8.731 21.782,8.815 21.835,8.882 21.902,8.927 21.984,8.943 21.984,8.943 	"/>
	<polygon fill-rule="evenodd" clip-rule="evenodd" fill="#FFFFFF" points="9.496,8.983 9.414,9.435 8.902,9.435 8.916,9.351 
		8.926,9.276 8.934,9.219 8.942,9.189 8.914,9.221 8.881,9.254 8.843,9.284 8.8,9.313 8.751,9.341 8.7,9.366 8.647,9.39 8.593,9.41 
		8.534,9.429 8.475,9.443 8.416,9.455 8.355,9.463 8.296,9.467 8.237,9.469 8.18,9.463 8.125,9.455 8.053,9.437 7.989,9.416 
		7.932,9.39 7.881,9.36 7.836,9.327 7.795,9.29 7.763,9.252 7.734,9.211 7.71,9.168 7.69,9.123 7.674,9.079 7.662,9.034 
		7.653,8.988 7.647,8.941 7.643,8.896 7.643,8.851 7.649,8.772 7.662,8.697 7.681,8.625 7.708,8.556 7.741,8.491 7.777,8.432 
		7.82,8.376 7.869,8.324 7.919,8.278 7.977,8.235 8.035,8.196 8.096,8.164 8.161,8.136 8.229,8.113 8.298,8.095 8.369,8.082 
		8.373,8.082 8.383,8.08 8.397,8.078 8.42,8.076 8.444,8.072 8.473,8.07 8.503,8.066 8.538,8.062 8.572,8.058 8.607,8.054 
		8.644,8.052 8.676,8.048 8.709,8.046 8.739,8.044 8.767,8.042 8.79,8.042 8.837,8.042 8.886,8.044 8.93,8.046 8.975,8.046 
		9.012,8.048 9.04,8.05 9.06,8.052 9.066,8.052 9.071,8.038 9.083,8.001 9.093,7.958 9.097,7.92 9.089,7.875 9.071,7.834 
		9.046,7.798 9.014,7.767 8.975,7.741 8.932,7.723 8.883,7.71 8.83,7.706 8.773,7.704 8.712,7.702 8.649,7.702 8.585,7.704 
		8.518,7.708 8.452,7.714 8.387,7.72 8.324,7.729 8.263,7.737 8.204,7.747 8.151,7.757 8.103,7.767 8.058,7.78 8.022,7.792 
		7.993,7.806 7.97,7.818 8.115,7.328 8.16,7.31 8.204,7.294 8.253,7.279 8.302,7.269 8.351,7.259 8.403,7.251 8.456,7.243 
		8.511,7.238 8.568,7.235 8.627,7.232 8.688,7.23 8.751,7.23 8.816,7.23 8.883,7.23 8.954,7.232 9.026,7.235 9.083,7.238 
		9.144,7.249 9.207,7.263 9.272,7.281 9.334,7.306 9.396,7.334 9.457,7.369 9.514,7.407 9.565,7.452 9.61,7.501 9.65,7.556 
		9.681,7.617 9.701,7.682 9.713,7.751 9.713,7.828 9.701,7.91 9.496,8.983 9.496,8.983 	"/>
	<polyline fill="none" points="9.496,8.983 9.414,9.435 8.902,9.435 8.902,9.435 8.916,9.351 8.926,9.276 8.934,9.219 8.942,9.189 
		8.942,9.189 8.914,9.221 8.881,9.254 8.843,9.284 8.8,9.313 8.751,9.341 8.7,9.366 8.647,9.39 8.593,9.41 8.534,9.429 8.475,9.443 
		8.416,9.455 8.355,9.463 8.296,9.467 8.237,9.469 8.18,9.463 8.125,9.455 8.125,9.455 8.053,9.437 7.989,9.416 7.932,9.39 
		7.881,9.36 7.836,9.327 7.795,9.29 7.763,9.252 7.734,9.211 7.71,9.168 7.69,9.123 7.674,9.079 7.662,9.034 7.653,8.988 
		7.647,8.941 7.643,8.896 7.643,8.851 7.643,8.851 7.649,8.772 7.662,8.697 7.681,8.625 7.708,8.556 7.741,8.491 7.777,8.432 
		7.82,8.376 7.869,8.324 7.919,8.278 7.977,8.235 8.035,8.196 8.096,8.164 8.161,8.136 8.229,8.113 8.298,8.095 8.369,8.082 
		8.369,8.082 8.373,8.082 8.383,8.08 8.397,8.078 8.42,8.076 8.444,8.072 8.473,8.07 8.503,8.066 8.538,8.062 8.572,8.058 
		8.607,8.054 8.644,8.052 8.676,8.048 8.709,8.046 8.739,8.044 8.767,8.042 8.79,8.042 8.79,8.042 8.837,8.042 8.886,8.044 
		8.93,8.046 8.975,8.046 9.012,8.048 9.04,8.05 9.06,8.052 9.066,8.052 9.066,8.052 9.071,8.038 9.083,8.001 9.093,7.958 
		9.097,7.92 9.097,7.92 9.089,7.875 9.071,7.834 9.046,7.798 9.014,7.767 8.975,7.741 8.932,7.723 8.883,7.71 8.83,7.706 
		8.83,7.706 8.773,7.704 8.712,7.702 8.649,7.702 8.585,7.704 8.518,7.708 8.452,7.714 8.387,7.72 8.324,7.729 8.263,7.737 
		8.204,7.747 8.151,7.757 8.103,7.767 8.058,7.78 8.022,7.792 7.993,7.806 7.97,7.818 8.115,7.328 8.115,7.328 8.16,7.31 
		8.204,7.294 8.253,7.279 8.302,7.269 8.351,7.259 8.403,7.251 8.456,7.243 8.511,7.238 8.568,7.235 8.627,7.232 8.688,7.23 
		8.751,7.23 8.816,7.23 8.883,7.23 8.954,7.232 9.026,7.235 9.026,7.235 9.083,7.238 9.144,7.249 9.207,7.263 9.272,7.281 
		9.334,7.306 9.396,7.334 9.457,7.369 9.514,7.407 9.565,7.452 9.61,7.501 9.65,7.556 9.681,7.617 9.701,7.682 9.713,7.751 
		9.713,7.828 9.701,7.91 9.496,8.983 	"/>
	<polygon fill-rule="evenodd" clip-rule="evenodd" fill="#DC252E" points="9.006,8.452 9.004,8.442 8.995,8.432 8.983,8.426 
		8.963,8.422 8.94,8.418 8.914,8.416 8.883,8.416 8.853,8.416 8.82,8.418 8.785,8.422 8.753,8.426 8.721,8.43 8.69,8.434 
		8.661,8.44 8.637,8.447 8.615,8.452 8.601,8.457 8.585,8.463 8.562,8.471 8.54,8.481 8.513,8.493 8.487,8.508 8.458,8.522 
		8.432,8.538 8.403,8.558 8.377,8.579 8.353,8.603 8.33,8.628 8.31,8.654 8.296,8.683 8.283,8.715 8.277,8.747 8.275,8.817 
		8.286,8.871 8.306,8.912 8.332,8.943 8.363,8.963 8.397,8.975 8.43,8.981 8.463,8.983 8.524,8.981 8.579,8.975 8.632,8.967 
		8.678,8.955 8.719,8.941 8.757,8.923 8.792,8.904 8.823,8.882 8.849,8.861 8.873,8.837 8.894,8.815 8.91,8.79 8.924,8.766 
		8.936,8.741 8.947,8.719 8.952,8.697 8.969,8.638 8.983,8.571 8.995,8.506 9.006,8.452 9.006,8.452 	"/>
	<polygon fill-rule="evenodd" clip-rule="evenodd" fill="#FFFFFF" points="5.217,9.435 4.664,9.435 5.125,6.765 6.088,6.765 
		6.179,8.349 6.844,6.765 7.848,6.765 7.376,9.435 6.823,9.435 7.173,7.44 7.151,7.44 6.323,9.435 5.699,9.435 5.695,9.351 
		5.68,9.13 5.662,8.815 5.642,8.452 5.621,8.089 5.603,7.77 5.589,7.538 5.585,7.44 5.579,7.44 5.567,7.44 5.554,7.44 5.554,7.44 
		5.217,9.435 5.217,9.435 	"/>
	<polyline fill="none" points="5.217,9.435 4.664,9.435 5.125,6.765 6.088,6.765 6.179,8.349 6.844,6.765 7.848,6.765 7.376,9.435 
		6.823,9.435 7.173,7.44 7.151,7.44 6.323,9.435 5.699,9.435 5.699,9.435 5.695,9.351 5.68,9.13 5.662,8.815 5.642,8.452 
		5.621,8.089 5.603,7.77 5.589,7.538 5.585,7.44 5.585,7.44 5.579,7.44 5.567,7.44 5.554,7.44 5.554,7.44 5.217,9.435 	"/>
	<polygon fill-rule="evenodd" clip-rule="evenodd" fill="#FFFFFF" points="19.588,8.983 19.505,9.435 18.995,9.435 18.999,9.351 
		19.001,9.278 19.001,9.224 19.005,9.199 18.978,9.23 18.947,9.26 18.911,9.288 18.871,9.317 18.828,9.343 18.779,9.368 
		18.728,9.392 18.678,9.413 18.622,9.429 18.566,9.445 18.508,9.455 18.452,9.463 18.392,9.467 18.336,9.469 18.28,9.463 
		18.226,9.455 18.153,9.437 18.088,9.416 18.031,9.39 17.978,9.36 17.933,9.327 17.894,9.29 17.862,9.252 17.833,9.211 
		17.809,9.168 17.791,9.123 17.774,9.079 17.764,9.034 17.756,8.988 17.75,8.941 17.746,8.896 17.746,8.851 17.75,8.772 
		17.762,8.697 17.781,8.625 17.807,8.556 17.837,8.491 17.876,8.432 17.919,8.376 17.965,8.324 18.019,8.278 18.073,8.235 
		18.132,8.196 18.195,8.164 18.258,8.136 18.325,8.113 18.392,8.095 18.461,8.082 18.466,8.082 18.476,8.08 18.49,8.078 
		18.511,8.076 18.537,8.072 18.566,8.07 18.596,8.066 18.628,8.062 18.663,8.058 18.699,8.054 18.734,8.052 18.769,8.048 
		18.802,8.046 18.83,8.044 18.858,8.042 18.881,8.042 18.929,8.042 18.978,8.044 19.025,8.046 19.07,8.046 19.108,8.048 
		19.141,8.05 19.159,8.052 19.168,8.052 19.171,8.038 19.178,8.001 19.183,7.958 19.188,7.92 19.179,7.875 19.164,7.834 
		19.137,7.798 19.106,7.767 19.07,7.741 19.027,7.723 18.982,7.71 18.933,7.706 18.876,7.704 18.816,7.702 18.752,7.702 
		18.687,7.704 18.62,7.708 18.555,7.714 18.49,7.72 18.427,7.729 18.366,7.737 18.307,7.747 18.255,7.757 18.206,7.767 18.161,7.78 
		18.124,7.792 18.096,7.806 18.073,7.818 18.216,7.328 18.26,7.31 18.307,7.294 18.354,7.279 18.403,7.269 18.454,7.259 
		18.504,7.251 18.557,7.243 18.612,7.238 18.669,7.235 18.728,7.232 18.787,7.23 18.85,7.23 18.913,7.23 18.978,7.23 19.047,7.232 
		19.117,7.235 19.174,7.238 19.235,7.249 19.298,7.263 19.363,7.281 19.426,7.306 19.489,7.334 19.55,7.369 19.607,7.407 
		19.658,7.452 19.705,7.501 19.745,7.556 19.775,7.617 19.798,7.682 19.812,7.751 19.812,7.828 19.802,7.91 19.588,8.983 
		19.588,8.983 	"/>
	<polygon fill-rule="evenodd" clip-rule="evenodd" fill="#FFFFFF" points="19.505,9.449 19.517,9.437 19.601,8.985 19.576,8.981 
		19.493,9.433 19.505,9.421 19.505,9.449 19.515,9.447 19.517,9.437 19.505,9.449 19.505,9.449 	"/>
	<polygon fill-rule="evenodd" clip-rule="evenodd" fill="#FFFFFF" points="18.982,9.435 18.995,9.449 19.505,9.449 19.505,9.421 
		18.995,9.421 19.007,9.435 18.982,9.435 18.98,9.449 18.995,9.449 18.982,9.435 18.982,9.435 	"/>
	<polygon fill-rule="evenodd" clip-rule="evenodd" fill="#FFFFFF" points="19.015,9.207 18.997,9.191 18.988,9.224 18.986,9.278 
		18.986,9.351 18.982,9.435 19.007,9.435 19.011,9.351 19.015,9.278 19.012,9.224 19.012,9.207 18.995,9.191 19.015,9.207 
		19.015,9.207 	"/>
	<polygon fill-rule="evenodd" clip-rule="evenodd" fill="#FFFFFF" points="18.224,9.467 18.224,9.467 18.28,9.476 18.336,9.481 
		18.392,9.48 18.452,9.476 18.511,9.467 18.568,9.457 18.624,9.441 18.681,9.425 18.732,9.404 18.785,9.38 18.833,9.356 
		18.876,9.327 18.919,9.298 18.956,9.27 18.988,9.238 19.015,9.207 18.995,9.191 18.968,9.221 18.94,9.25 18.903,9.278 
		18.864,9.307 18.821,9.331 18.773,9.356 18.724,9.38 18.673,9.4 18.62,9.416 18.563,9.433 18.506,9.443 18.452,9.451 18.392,9.455 
		18.336,9.457 18.28,9.451 18.228,9.443 18.228,9.443 18.224,9.467 18.224,9.467 	"/>
	<polygon fill-rule="evenodd" clip-rule="evenodd" fill="#FFFFFF" points="17.731,8.851 17.731,8.851 17.734,8.896 17.738,8.941 
		17.744,8.989 17.752,9.036 17.762,9.081 17.779,9.128 17.797,9.174 17.823,9.217 17.852,9.26 17.884,9.298 17.925,9.337 
		17.972,9.37 18.024,9.402 18.084,9.429 18.15,9.449 18.224,9.467 18.228,9.443 18.155,9.425 18.092,9.404 18.037,9.378 
		17.984,9.349 17.941,9.317 17.904,9.282 17.872,9.244 17.843,9.205 17.821,9.162 17.803,9.12 17.786,9.077 17.776,9.032 
		17.768,8.985 17.762,8.941 17.758,8.896 17.76,8.851 17.76,8.851 17.731,8.851 17.731,8.851 	"/>
	<polygon fill-rule="evenodd" clip-rule="evenodd" fill="#FFFFFF" points="18.461,8.07 18.461,8.07 18.391,8.082 18.322,8.101 
		18.255,8.123 18.189,8.152 18.126,8.184 18.065,8.225 18.01,8.268 17.958,8.316 17.908,8.367 17.866,8.424 17.825,8.485 
		17.795,8.552 17.768,8.621 17.75,8.695 17.738,8.772 17.731,8.851 17.76,8.851 17.762,8.772 17.774,8.699 17.793,8.63 17.819,8.56 
		17.85,8.497 17.886,8.44 17.929,8.383 17.974,8.333 18.026,8.288 18.082,8.245 18.138,8.209 18.201,8.176 18.262,8.148 
		18.33,8.125 18.394,8.107 18.461,8.095 18.461,8.095 18.461,8.07 18.461,8.07 	"/>
	<polygon fill-rule="evenodd" clip-rule="evenodd" fill="#FFFFFF" points="18.881,8.027 18.881,8.027 18.858,8.027 18.83,8.032 
		18.802,8.034 18.769,8.036 18.734,8.04 18.699,8.042 18.663,8.046 18.628,8.05 18.596,8.054 18.566,8.058 18.537,8.06 
		18.511,8.064 18.49,8.066 18.474,8.068 18.466,8.07 18.461,8.07 18.461,8.095 18.466,8.095 18.478,8.093 18.49,8.091 18.511,8.089 
		18.537,8.085 18.566,8.082 18.596,8.078 18.628,8.074 18.663,8.07 18.699,8.066 18.734,8.064 18.769,8.06 18.802,8.058 
		18.83,8.056 18.858,8.056 18.881,8.056 18.881,8.056 18.881,8.027 18.881,8.027 	"/>
	<polygon fill-rule="evenodd" clip-rule="evenodd" fill="#FFFFFF" points="19.155,8.05 19.168,8.04 19.159,8.04 19.141,8.038 
		19.108,8.036 19.07,8.032 19.025,8.032 18.978,8.032 18.929,8.027 18.881,8.027 18.881,8.056 18.929,8.056 18.978,8.056 
		19.025,8.06 19.07,8.06 19.108,8.06 19.141,8.062 19.159,8.064 19.168,8.064 19.179,8.054 19.168,8.064 19.178,8.066 19.179,8.054 
		19.155,8.05 19.155,8.05 	"/>
	<polygon fill-rule="evenodd" clip-rule="evenodd" fill="#FFFFFF" points="19.176,7.92 19.174,7.92 19.171,7.958 19.165,7.999 
		19.159,8.036 19.155,8.05 19.179,8.054 19.183,8.04 19.19,8.003 19.196,7.958 19.202,7.92 19.2,7.92 19.176,7.92 19.176,7.92 	"/>
	<polygon fill-rule="evenodd" clip-rule="evenodd" fill="#FFFFFF" points="18.933,7.719 18.933,7.72 18.98,7.723 19.023,7.735 
		19.064,7.753 19.098,7.778 19.126,7.806 19.151,7.84 19.168,7.877 19.176,7.92 19.2,7.92 19.192,7.873 19.176,7.828 19.147,7.79 
		19.114,7.757 19.076,7.729 19.031,7.71 18.984,7.698 18.933,7.692 18.933,7.694 18.933,7.719 18.933,7.719 	"/>
	<polygon fill-rule="evenodd" clip-rule="evenodd" fill="#FFFFFF" points="18.061,7.816 18.082,7.828 18.102,7.818 18.128,7.804 
		18.163,7.792 18.208,7.78 18.256,7.77 18.309,7.759 18.368,7.749 18.427,7.741 18.49,7.732 18.555,7.726 18.62,7.72 18.687,7.717 
		18.752,7.717 18.816,7.717 18.876,7.717 18.933,7.719 18.933,7.694 18.876,7.692 18.816,7.688 18.752,7.688 18.687,7.692 
		18.62,7.696 18.555,7.702 18.49,7.708 18.427,7.717 18.364,7.724 18.305,7.735 18.252,7.745 18.203,7.755 18.159,7.767 18.12,7.78 
		18.089,7.794 18.065,7.808 18.086,7.82 18.061,7.816 18.061,7.816 	"/>
	<polygon fill-rule="evenodd" clip-rule="evenodd" fill="#FFFFFF" points="18.212,7.316 18.203,7.326 18.061,7.816 18.086,7.82 
		18.228,7.33 18.22,7.34 18.212,7.316 18.206,7.318 18.203,7.326 18.212,7.316 18.212,7.316 	"/>
	<polygon fill-rule="evenodd" clip-rule="evenodd" fill="#FFFFFF" points="19.117,7.222 19.117,7.222 19.047,7.218 18.978,7.216 
		18.913,7.216 18.85,7.216 18.787,7.216 18.728,7.22 18.669,7.222 18.612,7.227 18.557,7.23 18.502,7.238 18.452,7.247 
		18.401,7.257 18.352,7.267 18.303,7.281 18.256,7.298 18.212,7.316 18.22,7.34 18.265,7.322 18.311,7.306 18.356,7.291 
		18.405,7.281 18.456,7.271 18.506,7.263 18.557,7.255 18.612,7.251 18.669,7.247 18.728,7.245 18.787,7.245 18.85,7.245 
		18.913,7.245 18.978,7.245 19.047,7.247 19.117,7.247 19.117,7.247 19.117,7.222 19.117,7.222 	"/>
	<polygon fill-rule="evenodd" clip-rule="evenodd" fill="#FFFFFF" points="19.814,7.912 19.814,7.912 19.824,7.828 19.824,7.751 
		19.81,7.68 19.788,7.613 19.755,7.55 19.715,7.493 19.665,7.442 19.615,7.397 19.556,7.358 19.495,7.322 19.43,7.294 19.367,7.269 
		19.3,7.251 19.236,7.237 19.174,7.227 19.117,7.222 19.117,7.247 19.174,7.251 19.232,7.261 19.295,7.275 19.359,7.294 
		19.422,7.318 19.482,7.346 19.543,7.379 19.598,7.418 19.649,7.462 19.694,7.509 19.734,7.562 19.763,7.621 19.786,7.684 
		19.8,7.751 19.8,7.828 19.789,7.908 19.789,7.908 19.814,7.912 19.814,7.912 	"/>
	<polygon fill-rule="evenodd" clip-rule="evenodd" fill="#FFFFFF" points="19.601,8.985 19.601,8.985 19.814,7.912 19.789,7.908 
		19.576,8.981 19.576,8.981 19.601,8.985 19.601,8.985 	"/>
	<polygon fill-rule="evenodd" clip-rule="evenodd" fill="#F0AC37" points="19.096,8.452 19.092,8.44 19.084,8.43 19.07,8.424 
		19.049,8.418 19.027,8.416 19.001,8.414 18.97,8.414 18.94,8.416 18.907,8.42 18.875,8.424 18.842,8.428 18.811,8.432 
		18.781,8.439 18.754,8.442 18.728,8.449 18.708,8.452 18.694,8.455 18.678,8.461 18.657,8.467 18.635,8.475 18.608,8.487 
		18.583,8.499 18.555,8.514 18.529,8.532 18.502,8.55 18.476,8.573 18.454,8.595 18.431,8.621 18.413,8.65 18.399,8.68 
		18.387,8.713 18.38,8.747 18.378,8.817 18.388,8.871 18.405,8.912 18.429,8.943 18.459,8.963 18.494,8.975 18.529,8.981 
		18.563,8.983 18.624,8.981 18.681,8.975 18.734,8.965 18.781,8.951 18.826,8.935 18.864,8.916 18.901,8.896 18.933,8.871 
		18.962,8.849 18.986,8.823 19.009,8.798 19.027,8.772 19.041,8.747 19.051,8.723 19.059,8.699 19.066,8.676 19.074,8.619 
		19.084,8.56 19.092,8.504 19.096,8.452 19.096,8.452 	"/>
	<polygon fill-rule="evenodd" clip-rule="evenodd" fill="#FFFFFF" points="23.285,9.157 23.289,9.109 23.306,9.054 23.334,9.006 
		23.369,8.963 23.411,8.929 23.46,8.904 23.513,8.888 23.57,8.882 23.627,8.888 23.68,8.904 23.729,8.929 23.771,8.963 
		23.806,9.006 23.834,9.054 23.851,9.109 23.855,9.157 23.794,9.157 23.792,9.12 23.78,9.075 23.759,9.034 23.733,8.999 23.7,8.971 
		23.662,8.951 23.617,8.937 23.57,8.932 23.523,8.937 23.479,8.951 23.44,8.971 23.407,8.999 23.381,9.034 23.361,9.075 
		23.349,9.12 23.344,9.157 23.285,9.157 23.285,9.157 	"/>
	<polygon fill-rule="evenodd" clip-rule="evenodd" fill="#FFFFFF" points="23.468,9.157 23.468,9.034 23.58,9.034 23.605,9.036 
		23.627,9.04 23.643,9.046 23.658,9.054 23.668,9.067 23.676,9.079 23.68,9.093 23.682,9.107 23.68,9.126 23.676,9.14 23.67,9.152 
		23.666,9.157 23.58,9.157 23.588,9.154 23.602,9.152 23.615,9.148 23.625,9.144 23.633,9.138 23.637,9.132 23.642,9.122 
		23.642,9.107 23.639,9.097 23.635,9.089 23.628,9.085 23.623,9.081 23.613,9.079 23.602,9.077 23.592,9.077 23.58,9.077 
		23.519,9.077 23.519,9.157 23.468,9.157 23.468,9.157 	"/>
	<polygon fill-rule="evenodd" clip-rule="evenodd" fill="#FFFFFF" points="23.285,9.157 23.284,9.168 23.289,9.227 23.306,9.282 
		23.334,9.331 23.369,9.372 23.411,9.406 23.46,9.433 23.513,9.449 23.57,9.455 23.627,9.449 23.68,9.433 23.729,9.406 
		23.771,9.372 23.806,9.331 23.834,9.282 23.851,9.227 23.857,9.168 23.855,9.157 23.794,9.157 23.796,9.168 23.792,9.217 
		23.78,9.262 23.759,9.301 23.733,9.335 23.7,9.364 23.662,9.386 23.617,9.4 23.57,9.404 23.523,9.4 23.479,9.386 23.44,9.364 
		23.407,9.335 23.381,9.301 23.361,9.262 23.349,9.217 23.344,9.168 23.344,9.157 23.285,9.157 23.285,9.157 	"/>
	<polygon fill-rule="evenodd" clip-rule="evenodd" fill="#FFFFFF" points="23.468,9.157 23.468,9.28 23.519,9.28 23.519,9.179 
		23.57,9.179 23.631,9.28 23.671,9.28 23.611,9.179 23.625,9.179 23.639,9.174 23.652,9.17 23.662,9.162 23.666,9.157 23.58,9.157 
		23.57,9.158 23.519,9.158 23.519,9.157 23.468,9.157 23.468,9.157 	"/>
	<path fill="none" d="M23.284,9.168L23.284,9.168l0.006-0.059l0.016-0.055l0.029-0.049l0.035-0.043l0.042-0.034l0.049-0.025
		l0.053-0.016l0.057-0.006l0,0l0.058,0.006l0.052,0.016l0.049,0.025l0.042,0.034l0.035,0.043l0.028,0.049l0.017,0.055l0.006,0.059
		l0,0l-0.006,0.059l-0.017,0.055l-0.028,0.049l-0.035,0.041l-0.042,0.034L23.68,9.433l-0.052,0.016L23.57,9.455l0,0l-0.057-0.006
		L23.46,9.433l-0.049-0.027l-0.042-0.034l-0.035-0.041l-0.029-0.049l-0.016-0.055L23.284,9.168 M23.519,9.28h-0.051V9.034h0.112l0,0
		l0.025,0.002l0.023,0.004l0.016,0.006l0.015,0.008l0.01,0.012l0.008,0.012l0.004,0.014l0.002,0.014l0,0L23.68,9.126L23.676,9.14
		L23.67,9.152l-0.008,0.01l-0.01,0.008l-0.013,0.004l-0.014,0.004h-0.015l0.061,0.102h-0.04L23.57,9.179h-0.051V9.28 M23.57,9.158
		L23.57,9.158l0.018-0.004l0.014-0.002l0.013-0.004l0.01-0.004l0.008-0.006l0.004-0.006l0.004-0.01V9.107l0,0l-0.003-0.01
		l-0.004-0.008l-0.007-0.004l-0.006-0.004l-0.01-0.002l-0.01-0.002h-0.01H23.58h-0.061v0.081H23.57 M23.57,9.404L23.57,9.404
		L23.617,9.4l0.045-0.014L23.7,9.364l0.032-0.029l0.027-0.034l0.02-0.039l0.012-0.045l0.004-0.049l0,0L23.792,9.12L23.78,9.075
		l-0.02-0.04l-0.027-0.035L23.7,8.971l-0.038-0.02l-0.045-0.014L23.57,8.932l0,0l-0.047,0.004l-0.044,0.014l-0.039,0.02
		l-0.032,0.028l-0.026,0.035l-0.02,0.04L23.349,9.12l-0.004,0.049l0,0l0.004,0.049l0.012,0.045l0.02,0.039l0.026,0.034l0.032,0.029
		l0.039,0.022L23.523,9.4L23.57,9.404"/>
	<polygon fill-rule="evenodd" clip-rule="evenodd" fill="#FFFFFF" points="19.741,9.435 20.314,9.435 20.314,9.435 20.52,8.278 
		20.528,8.233 20.54,8.188 20.552,8.144 20.569,8.099 20.589,8.054 20.613,8.011 20.64,7.971 20.673,7.932 20.709,7.898 
		20.75,7.865 20.796,7.834 20.849,7.81 20.908,7.79 20.973,7.773 21.044,7.761 21.124,7.757 21.152,7.757 21.168,7.757 
		21.174,7.757 21.174,7.757 21.266,7.235 21.209,7.238 21.154,7.245 21.103,7.255 21.055,7.269 21.01,7.285 20.967,7.306 
		20.926,7.328 20.888,7.352 20.851,7.381 20.817,7.409 20.784,7.442 20.752,7.474 20.721,7.509 20.691,7.548 20.66,7.584 
		20.631,7.625 20.693,7.257 20.121,7.257 19.741,9.435 19.741,9.435 19.741,9.435 	"/>
	<polyline fill="none" points="19.741,9.435 20.314,9.435 20.314,9.435 20.52,8.278 20.52,8.278 20.528,8.233 20.54,8.188 
		20.552,8.144 20.569,8.099 20.589,8.054 20.613,8.011 20.64,7.971 20.673,7.932 20.709,7.898 20.75,7.865 20.796,7.834 
		20.849,7.81 20.908,7.79 20.973,7.773 21.044,7.761 21.124,7.757 21.124,7.757 21.152,7.757 21.168,7.757 21.174,7.757 
		21.174,7.757 21.266,7.235 21.266,7.235 21.209,7.238 21.154,7.245 21.103,7.255 21.055,7.269 21.01,7.285 20.967,7.306 
		20.926,7.328 20.888,7.352 20.851,7.381 20.817,7.409 20.784,7.442 20.752,7.474 20.721,7.509 20.691,7.548 20.66,7.584 
		20.631,7.625 20.693,7.257 20.121,7.257 19.741,9.435 19.741,9.435 	"/>
	<polygon fill-rule="evenodd" clip-rule="evenodd" fill="#FFFFFF" points="14.356,9.435 14.929,9.435 14.939,9.435 15.135,8.278 
		15.143,8.233 15.153,8.19 15.163,8.148 15.177,8.107 15.194,8.066 15.214,8.027 15.238,7.991 15.267,7.956 15.299,7.926 
		15.336,7.895 15.38,7.871 15.43,7.849 15.487,7.83 15.55,7.814 15.619,7.804 15.698,7.798 15.704,7.798 15.712,7.8 15.722,7.802 
		15.733,7.802 15.743,7.804 15.751,7.806 15.757,7.808 15.759,7.808 15.761,7.8 15.767,7.775 15.775,7.739 15.786,7.694 15.8,7.641 
		15.814,7.584 15.833,7.527 15.85,7.47 15.867,7.432 15.888,7.393 15.907,7.354 15.928,7.32 15.946,7.29 15.96,7.265 15.97,7.251 
		15.974,7.245 15.972,7.245 15.964,7.243 15.954,7.241 15.94,7.238 15.926,7.238 15.91,7.237 15.895,7.235 15.881,7.235 
		15.818,7.238 15.761,7.245 15.708,7.255 15.659,7.267 15.612,7.283 15.57,7.304 15.531,7.324 15.495,7.348 15.46,7.375 
		15.428,7.405 15.397,7.436 15.366,7.47 15.336,7.505 15.307,7.544 15.277,7.584 15.247,7.625 15.32,7.257 14.736,7.257 
		14.356,9.435 14.356,9.435 14.356,9.435 	"/>
	<polyline fill="none" points="14.356,9.435 14.929,9.435 14.939,9.435 15.135,8.278 15.135,8.278 15.143,8.233 15.153,8.19 
		15.163,8.148 15.177,8.107 15.194,8.066 15.214,8.027 15.238,7.991 15.267,7.956 15.299,7.926 15.336,7.895 15.38,7.871 
		15.43,7.849 15.487,7.83 15.55,7.814 15.619,7.804 15.698,7.798 15.698,7.798 15.704,7.798 15.712,7.8 15.722,7.802 15.733,7.802 
		15.743,7.804 15.751,7.806 15.757,7.808 15.759,7.808 15.759,7.808 15.761,7.8 15.767,7.775 15.775,7.739 15.786,7.694 15.8,7.641 
		15.814,7.584 15.833,7.527 15.85,7.47 15.85,7.47 15.867,7.432 15.888,7.393 15.907,7.354 15.928,7.32 15.946,7.29 15.96,7.265 
		15.97,7.251 15.974,7.245 15.974,7.245 15.972,7.245 15.964,7.243 15.954,7.241 15.94,7.238 15.926,7.238 15.91,7.237 
		15.895,7.235 15.881,7.235 15.881,7.235 15.818,7.238 15.761,7.245 15.708,7.255 15.659,7.267 15.612,7.283 15.57,7.304 
		15.531,7.324 15.495,7.348 15.46,7.375 15.428,7.405 15.397,7.436 15.366,7.47 15.336,7.505 15.307,7.544 15.277,7.584 
		15.247,7.625 15.32,7.257 14.736,7.257 14.356,9.435 14.356,9.435 	"/>
	<polygon fill-rule="evenodd" clip-rule="evenodd" fill="#F0AC37" points="23.289,11.574 23.289,11.566 23.306,11.513 
		23.334,11.466 23.369,11.426 23.411,11.393 23.46,11.369 23.513,11.355 23.57,11.348 23.627,11.355 23.68,11.369 23.729,11.393 
		23.771,11.426 23.806,11.466 23.834,11.513 23.851,11.566 23.851,11.574 23.792,11.574 23.78,11.532 23.759,11.493 23.733,11.458 
		23.7,11.43 23.662,11.407 23.617,11.393 23.57,11.389 23.523,11.393 23.479,11.407 23.44,11.43 23.407,11.458 23.381,11.493 
		23.361,11.532 23.349,11.574 23.289,11.574 23.289,11.574 	"/>
	<polygon fill-rule="evenodd" clip-rule="evenodd" fill="#F0AC37" points="23.468,11.574 23.468,11.503 23.58,11.503 23.605,11.503 
		23.627,11.507 23.643,11.511 23.658,11.519 23.668,11.529 23.676,11.542 23.68,11.556 23.682,11.574 23.642,11.574 23.642,11.564 
		23.639,11.554 23.635,11.546 23.628,11.542 23.623,11.538 23.613,11.536 23.602,11.534 23.592,11.534 23.58,11.534 23.519,11.534 
		23.519,11.574 23.468,11.574 23.468,11.574 	"/>
	<polygon fill-rule="evenodd" clip-rule="evenodd" fill="#F0AC37" points="23.284,11.619 23.289,11.574 23.349,11.574 
		23.349,11.576 23.344,11.619 23.284,11.619 23.284,11.619 	"/>
	<polygon fill-rule="evenodd" clip-rule="evenodd" fill="#F0AC37" points="23.468,11.619 23.468,11.574 23.519,11.574 
		23.519,11.615 23.57,11.615 23.588,11.611 23.602,11.609 23.615,11.605 23.625,11.601 23.633,11.595 23.637,11.588 23.642,11.579 
		23.642,11.574 23.682,11.574 23.682,11.574 23.68,11.588 23.676,11.601 23.67,11.611 23.662,11.619 23.468,11.619 23.468,11.619 	
		"/>
	<polygon fill-rule="evenodd" clip-rule="evenodd" fill="#F0AC37" points="23.796,11.619 23.792,11.576 23.792,11.574 
		23.851,11.574 23.857,11.619 23.796,11.619 23.796,11.619 	"/>
	<polygon fill-rule="evenodd" clip-rule="evenodd" fill="#F0AC37" points="23.284,11.619 23.284,11.625 23.289,11.684 
		23.306,11.739 23.334,11.788 23.369,11.83 23.411,11.865 23.46,11.889 23.513,11.906 23.57,11.912 23.627,11.906 23.68,11.889 
		23.729,11.865 23.771,11.83 23.806,11.788 23.834,11.739 23.851,11.684 23.857,11.625 23.857,11.619 23.796,11.619 23.796,11.625 
		23.792,11.674 23.78,11.719 23.759,11.757 23.733,11.791 23.7,11.82 23.662,11.843 23.617,11.857 23.57,11.861 23.523,11.857 
		23.479,11.843 23.44,11.82 23.407,11.791 23.381,11.757 23.361,11.719 23.349,11.674 23.344,11.625 23.344,11.619 23.284,11.619 
		23.284,11.619 	"/>
	<polygon fill-rule="evenodd" clip-rule="evenodd" fill="#F0AC37" points="23.468,11.619 23.468,11.737 23.519,11.737 
		23.519,11.635 23.57,11.635 23.631,11.737 23.671,11.737 23.611,11.635 23.625,11.635 23.639,11.631 23.652,11.627 23.662,11.619 
		23.662,11.619 23.468,11.619 23.468,11.619 	"/>
	<path fill-rule="evenodd" clip-rule="evenodd" fill="#FFFFFF" d="M14.419,7.905l-0.016-0.122l-0.028-0.108l-0.041-0.093
		l-0.051-0.081l-0.061-0.069l-0.067-0.057l-0.073-0.049L14.002,7.29l-0.082-0.031l-0.084-0.02l-0.083-0.014l-0.084-0.008
		l-0.079-0.002l-0.165,0.008L13.28,7.247l-0.132,0.037L13.03,7.334l-0.102,0.061l-0.089,0.069L12.76,7.542l-0.065,0.081
		l-0.057,0.085l-0.047,0.089l-0.036,0.088l-0.031,0.087l-0.023,0.086l-0.016,0.079l-0.012,0.075l-0.008,0.065l-0.01,0.167
		l0.006,0.15l0.022,0.136l0.035,0.12l0.049,0.108l0.059,0.094l0.069,0.083l0.08,0.069l0.085,0.059l0.092,0.051l0.096,0.039
		l0.099,0.03l0.102,0.025l0.102,0.014l0.102,0.01l0.1,0.002h0.067l0.063-0.002h0.055l0.053-0.002l0.047-0.004l0.042-0.004
		l0.041-0.004l0.037-0.006l0.035-0.006l0.032-0.008l0.033-0.01l0.03-0.01l0.03-0.013l0.032-0.012l0.033-0.016l0.032-0.016l0.082-0.5
		l-0.06,0.035l-0.057,0.032L14.12,8.912l-0.057,0.022l-0.055,0.018l-0.057,0.012l-0.055,0.01l-0.055,0.008l-0.054,0.004
		l-0.053,0.002h-0.055l-0.052-0.002l-0.053-0.004L13.52,8.977l-0.05-0.006l-0.053-0.008l-0.041-0.008l-0.04-0.014l-0.041-0.018
		L13.258,8.9l-0.037-0.024l-0.032-0.03l-0.03-0.031L13.129,8.78l-0.025-0.034l-0.022-0.038L13.067,8.67l-0.015-0.039l-0.008-0.039
		l-0.003-0.039l0.002-0.034l0.005-0.026h1.319l0.01-0.124l0.03-0.171l0.014-0.155L14.419,7.905z M13.868,8.093h-0.743l0.001-0.002
		l-0.001,0l0.005-0.028l0.008-0.043l0.012-0.041l0.014-0.041l0.018-0.036l0.019-0.035l0.022-0.033l0.025-0.03l0.027-0.028
		L13.3,7.751l0.031-0.022l0.03-0.018l0.035-0.016l0.035-0.012l0.035-0.008l0.036-0.006l0.039-0.002l0.036,0.004l0.035,0.006
		l0.033,0.008l0.032,0.012l0.031,0.016l0.03,0.018l0.027,0.02l0.024,0.024l0.02,0.028l0.02,0.03l0.014,0.035l0.015,0.039l0.008,0.04
		l0.004,0.045l0.002,0.049L13.868,8.093z"/>
</g>
</svg>
