<?xml version="1.0" encoding="utf-8"?>
<!-- Generator: Adobe Illustrator 17.0.0, SVG Export Plug-In . SVG Version: 6.00 Build 0)  -->
<!DOCTYPE svg PUBLIC "-//W3C//DTD SVG 1.1//EN" "http://www.w3.org/Graphics/SVG/1.1/DTD/svg11.dtd">
<svg version="1.1" id="图层_1" xmlns="http://www.w3.org/2000/svg" xmlns:xlink="http://www.w3.org/1999/xlink" x="0px" y="0px"
	 width="49.896px" height="16px" viewBox="0 8 49.896 16" enable-background="new 0 8 49.896 16" xml:space="preserve">
<path fill="#186164" d="M24.217,15.346c0.123,0.079,0.301,0.14,0.49,0.14c0.284,0,0.448-0.146,0.448-0.365
	c0-0.198-0.113-0.315-0.402-0.422c-0.349-0.127-0.566-0.311-0.566-0.61c0-0.333,0.277-0.581,0.691-0.581
	c0.217,0,0.378,0.05,0.471,0.105l-0.077,0.225c-0.066-0.042-0.208-0.101-0.401-0.101c-0.293,0-0.404,0.174-0.404,0.32
	c0,0.2,0.13,0.299,0.426,0.413c0.362,0.143,0.542,0.313,0.542,0.628c0,0.329-0.24,0.618-0.746,0.618
	c-0.207,0-0.431-0.064-0.546-0.139L24.217,15.346"/>
<path fill="#186164" d="M26.801,14.763c0.003-0.174-0.073-0.455-0.383-0.455c-0.287,0-0.408,0.26-0.429,0.455H26.801 M25.985,14.963
	c0.006,0.377,0.244,0.533,0.523,0.533c0.201,0,0.325-0.034,0.428-0.076l0.049,0.198c-0.098,0.044-0.269,0.099-0.514,0.099
	c-0.469,0-0.756-0.315-0.756-0.775c0-0.466,0.277-0.832,0.725-0.832c0.501,0,0.632,0.442,0.632,0.724
	c0,0.057-0.004,0.101-0.009,0.133L25.985,14.963"/>
<path fill="#186164" d="M28.513,15.629c-0.074,0.034-0.236,0.088-0.442,0.088c-0.464,0-0.765-0.315-0.765-0.787
	c0-0.473,0.325-0.819,0.827-0.819c0.165,0,0.311,0.041,0.386,0.083l-0.063,0.213c-0.067-0.036-0.17-0.074-0.323-0.074
	c-0.352,0-0.544,0.263-0.544,0.584c0,0.356,0.23,0.576,0.535,0.576c0.157,0,0.263-0.039,0.342-0.074L28.513,15.629"/>
<path fill="#186164" d="M30.125,15.263c0,0.159,0.005,0.299,0.013,0.419h-0.249l-0.014-0.251h-0.007
	c-0.07,0.124-0.236,0.286-0.508,0.286c-0.241,0-0.53-0.136-0.53-0.673v-0.898h0.28v0.847c0,0.292,0.092,0.492,0.343,0.492
	c0.187,0,0.318-0.13,0.369-0.258c0.015-0.037,0.026-0.088,0.026-0.143v-0.939h0.278L30.125,15.263"/>
<path fill="#186164" d="M30.593,14.625c0-0.181-0.003-0.336-0.013-0.48h0.244l0.013,0.302h0.01c0.07-0.206,0.241-0.337,0.428-0.337
	c0.029,0,0.052,0.003,0.077,0.009v0.261c-0.032-0.003-0.06-0.007-0.098-0.007c-0.198,0-0.337,0.15-0.375,0.356
	c-0.007,0.041-0.01,0.086-0.01,0.134v0.818h-0.278L30.593,14.625"/>
<path fill="#186164" d="M32.719,13.779v0.368h0.4v0.212h-0.4v0.829c0,0.19,0.055,0.298,0.21,0.298c0.075,0,0.121-0.006,0.162-0.019
	l0.012,0.213c-0.053,0.019-0.139,0.038-0.247,0.038c-0.13,0-0.235-0.045-0.301-0.118c-0.077-0.086-0.109-0.222-0.109-0.404v-0.837
	h-0.238v-0.212h0.238v-0.283L32.719,13.779"/>
<path fill="#186164" d="M33.564,14.146l0.333,0.908c0.039,0.101,0.076,0.222,0.101,0.315h0.006c0.028-0.091,0.06-0.209,0.098-0.32
	l0.305-0.902h0.296l-0.42,1.095c-0.2,0.528-0.337,0.797-0.527,0.964c-0.139,0.118-0.273,0.165-0.342,0.178l-0.07-0.235
	c0.07-0.019,0.162-0.064,0.244-0.137c0.076-0.06,0.168-0.168,0.236-0.311c0.012-0.029,0.022-0.047,0.022-0.067
	c0-0.016-0.005-0.039-0.022-0.07l-0.566-1.419L33.564,14.146"/>
<path fill="#186164" d="M24.217,18.519c0.123,0.08,0.301,0.14,0.49,0.14c0.284,0,0.448-0.146,0.448-0.366
	c0-0.196-0.113-0.313-0.402-0.421c-0.349-0.126-0.566-0.311-0.566-0.61c0-0.333,0.277-0.58,0.691-0.58
	c0.217,0,0.378,0.051,0.471,0.105l-0.077,0.225c-0.066-0.041-0.208-0.101-0.401-0.101c-0.293,0-0.404,0.174-0.404,0.32
	c0,0.2,0.13,0.298,0.426,0.412c0.362,0.143,0.542,0.315,0.542,0.629c0,0.33-0.24,0.618-0.746,0.618c-0.207,0-0.431-0.064-0.546-0.14
	L24.217,18.519"/>
<path fill="#186164" d="M26.131,16.952v0.368h0.4v0.213h-0.4v0.828c0,0.191,0.055,0.298,0.21,0.298c0.077,0,0.122-0.006,0.162-0.019
	l0.013,0.213c-0.053,0.02-0.14,0.038-0.248,0.038c-0.13,0-0.235-0.044-0.301-0.117c-0.076-0.085-0.108-0.222-0.108-0.403v-0.838
	h-0.238V17.32h0.238v-0.282L26.131,16.952"/>
<path fill="#186164" d="M27.656,18.073c-0.305-0.007-0.652,0.047-0.652,0.345c0,0.184,0.121,0.266,0.26,0.266
	c0.203,0,0.334-0.126,0.378-0.256c0.01-0.029,0.013-0.06,0.013-0.089L27.656,18.073 M27.929,18.489c0,0.133,0.007,0.263,0.022,0.368
	H27.7l-0.026-0.192h-0.009c-0.082,0.119-0.249,0.227-0.47,0.227c-0.311,0-0.469-0.219-0.469-0.441c0-0.371,0.33-0.574,0.923-0.572
	v-0.032c0-0.126-0.035-0.358-0.349-0.355c-0.146,0-0.295,0.041-0.404,0.114l-0.064-0.188c0.128-0.079,0.315-0.132,0.508-0.132
	c0.473,0,0.587,0.32,0.587,0.627v0.575"/>
<path fill="#186164" d="M28.376,17.736c0-0.161-0.002-0.287-0.013-0.415h0.248l0.017,0.251h0.005
	c0.076-0.143,0.254-0.285,0.508-0.285c0.214,0,0.543,0.126,0.543,0.653v0.917h-0.278v-0.885c0-0.247-0.094-0.457-0.356-0.457
	c-0.181,0-0.323,0.129-0.375,0.285c-0.012,0.036-0.019,0.087-0.019,0.131v0.927h-0.28L28.376,17.736"/>
<path fill="#186164" d="M31.187,17.945c0-0.038-0.002-0.082-0.013-0.121c-0.041-0.174-0.193-0.321-0.403-0.321
	c-0.29,0-0.461,0.254-0.461,0.592c0,0.314,0.156,0.57,0.456,0.57c0.187,0,0.358-0.127,0.408-0.333
	c0.01-0.039,0.013-0.076,0.013-0.121V17.945 M31.467,16.603v1.858c0,0.136,0.002,0.291,0.012,0.396h-0.25l-0.013-0.266h-0.007
	c-0.084,0.172-0.269,0.301-0.52,0.301c-0.371,0-0.66-0.314-0.66-0.781c-0.003-0.514,0.318-0.824,0.689-0.824
	c0.237,0,0.397,0.11,0.463,0.232h0.007v-0.915H31.467"/>
<path fill="#186164" d="M32.74,18.073c-0.305-0.007-0.652,0.047-0.652,0.345c0,0.184,0.121,0.266,0.261,0.266
	c0.203,0,0.332-0.126,0.378-0.256c0.009-0.029,0.013-0.06,0.013-0.089V18.073 M33.013,18.489c0,0.133,0.006,0.263,0.022,0.368
	h-0.251l-0.026-0.192H32.75c-0.083,0.119-0.252,0.227-0.47,0.227c-0.311,0-0.471-0.219-0.471-0.441c0-0.371,0.33-0.574,0.924-0.572
	v-0.032c0-0.126-0.035-0.358-0.349-0.355c-0.146,0-0.296,0.041-0.403,0.114l-0.064-0.188c0.128-0.079,0.316-0.132,0.508-0.132
	c0.474,0,0.588,0.32,0.588,0.627L33.013,18.489"/>
<path fill="#186164" d="M33.464,17.8c0-0.181-0.005-0.336-0.012-0.48h0.245l0.012,0.302h0.01c0.07-0.207,0.241-0.336,0.429-0.336
	c0.028,0,0.05,0.002,0.076,0.008v0.261c-0.033-0.003-0.06-0.006-0.099-0.006c-0.196,0-0.336,0.15-0.374,0.356
	c-0.006,0.041-0.01,0.086-0.01,0.133v0.819h-0.28L33.464,17.8"/>
<path fill="#186164" d="M35.528,17.945c0-0.038-0.003-0.082-0.012-0.121c-0.043-0.174-0.194-0.321-0.404-0.321
	c-0.291,0-0.46,0.254-0.46,0.592c0,0.314,0.154,0.57,0.453,0.57c0.188,0,0.359-0.127,0.411-0.333
	c0.009-0.039,0.012-0.076,0.012-0.121L35.528,17.945 M35.807,16.603v1.858c0,0.136,0.003,0.291,0.013,0.396h-0.251l-0.013-0.266
	h-0.005c-0.086,0.172-0.27,0.301-0.522,0.301c-0.371,0-0.658-0.314-0.658-0.781c-0.004-0.514,0.317-0.824,0.687-0.824
	c0.239,0,0.398,0.11,0.465,0.232h0.006v-0.915H35.807"/>
<path fill="#186164" d="M36.233,18.574c0.085,0.051,0.232,0.108,0.371,0.108c0.201,0,0.294-0.099,0.294-0.229
	c0-0.133-0.078-0.207-0.281-0.283c-0.279-0.101-0.41-0.251-0.41-0.435c0-0.247,0.205-0.45,0.53-0.45c0.156,0,0.293,0.04,0.376,0.095
	l-0.067,0.201c-0.061-0.036-0.171-0.09-0.315-0.09c-0.164,0-0.254,0.095-0.254,0.21c0,0.129,0.09,0.187,0.289,0.263
	c0.264,0.098,0.404,0.232,0.404,0.463c0,0.273-0.212,0.463-0.571,0.463c-0.169,0-0.325-0.044-0.434-0.108L36.233,18.574"/>
<path fill="#186164" d="M39.704,18.79c-0.098,0.05-0.304,0.101-0.565,0.101c-0.603,0-1.054-0.381-1.054-1.085
	c0-0.673,0.454-1.123,1.118-1.123c0.263,0,0.434,0.057,0.507,0.095l-0.07,0.225c-0.101-0.051-0.251-0.09-0.428-0.09
	c-0.503,0-0.836,0.321-0.836,0.882c0,0.527,0.301,0.861,0.818,0.861c0.173,0,0.343-0.035,0.456-0.089L39.704,18.79"/>
<path fill="#186164" d="M40.637,18.682c0.267,0,0.467-0.251,0.467-0.6c0-0.26-0.13-0.586-0.461-0.586
	c-0.328,0-0.47,0.304-0.47,0.597c0,0.336,0.191,0.59,0.461,0.59H40.637 M40.628,18.891c-0.414,0-0.737-0.304-0.737-0.789
	c0-0.514,0.339-0.815,0.762-0.815c0.441,0,0.739,0.32,0.739,0.787c0,0.571-0.396,0.818-0.761,0.818L40.628,18.891"/>
<path fill="#186164" d="M43.032,18.438c0,0.159,0.002,0.298,0.012,0.418h-0.246l-0.017-0.251h-0.005
	c-0.07,0.124-0.236,0.286-0.51,0.286c-0.24,0-0.53-0.136-0.53-0.673v-0.899h0.28v0.847c0,0.293,0.091,0.492,0.343,0.492
	c0.187,0,0.317-0.129,0.368-0.256c0.017-0.039,0.025-0.089,0.025-0.143v-0.94h0.28v1.119"/>
<path fill="#186164" d="M43.495,17.736c0-0.161-0.003-0.287-0.012-0.415h0.246l0.017,0.251h0.006
	c0.076-0.143,0.254-0.285,0.508-0.285c0.213,0,0.542,0.126,0.542,0.653v0.917h-0.278v-0.885c0-0.247-0.093-0.457-0.357-0.457
	c-0.18,0-0.324,0.129-0.375,0.285c-0.012,0.036-0.018,0.087-0.018,0.131v0.927h-0.28L43.495,17.736"/>
<path fill="#186164" d="M46.354,18.803c-0.073,0.035-0.234,0.088-0.441,0.088c-0.464,0-0.765-0.314-0.765-0.787
	c0-0.472,0.323-0.818,0.827-0.818c0.163,0,0.31,0.04,0.385,0.081l-0.063,0.215c-0.067-0.036-0.173-0.074-0.323-0.074
	c-0.355,0-0.545,0.263-0.545,0.584c0,0.355,0.229,0.574,0.534,0.574c0.158,0,0.264-0.038,0.342-0.073L46.354,18.803"/>
<polyline fill="#186164" points="22.797,17.835 6.362,23 1.567,9.969 18.822,9 22.797,17.835 "/>
<path fill="#FFFFFF" d="M8.319,15.246c0-0.486-0.36-0.729-1.079-0.729H6.978v1.5h0.241c0.356,0,0.628-0.062,0.817-0.187
	C8.225,15.706,8.319,15.512,8.319,15.246 M10.371,15.223c0,0.33-0.072,0.62-0.221,0.872c-0.146,0.252-0.351,0.461-0.617,0.627
	c-0.266,0.168-0.584,0.294-0.958,0.377c-0.373,0.084-0.787,0.125-1.242,0.125H6.999v1.679H4.863V13.31h2.503
	c0.936,0,1.671,0.158,2.204,0.474C10.104,14.1,10.371,14.58,10.371,15.223"/>
<path fill="#FFFFFF" d="M15.651,18.9c-0.328,0.063-0.7,0.094-1.117,0.094c-0.591,0-1.118-0.067-1.583-0.203
	c-0.462-0.135-0.855-0.326-1.177-0.576c-0.321-0.249-0.566-0.552-0.734-0.907c-0.167-0.358-0.251-0.755-0.251-1.193
	c0-0.433,0.089-0.827,0.267-1.184c0.179-0.357,0.431-0.662,0.755-0.916c0.325-0.254,0.712-0.45,1.161-0.588
	c0.448-0.137,0.943-0.207,1.483-0.207c0.416,0,0.802,0.012,1.14,0.085c0.339,0.074,0.346,0.084,0.616,0.181l-0.004,1.501
	c-0.211-0.119-0.449-0.217-0.711-0.296c-0.262-0.077-0.544-0.118-0.843-0.118c-0.483,0-0.875,0.133-1.178,0.397
	c-0.303,0.266-0.454,0.644-0.454,1.136c0,0.255,0.047,0.478,0.142,0.669c0.096,0.192,0.224,0.352,0.383,0.479
	c0.161,0.128,0.349,0.224,0.564,0.287c0.215,0.065,0.447,0.098,0.696,0.098c0.255,0,0.506-0.027,0.75-0.081s0.505-0.132,0.782-0.236
	l0.003,1.402C16.006,18.823,15.979,18.837,15.651,18.9"/>
<rect x="17.22" y="13.31" fill="#FFFFFF" width="2.147" height="5.594"/>
<path fill="#FFFFFF" d="M19.597,11.556c0,0.376-0.125,0.672-0.374,0.887c-0.249,0.215-0.559,0.321-0.927,0.321
	c-0.367,0-0.676-0.107-0.927-0.321s-0.374-0.511-0.374-0.887c0-0.384,0.124-0.685,0.374-0.899c0.249-0.215,0.559-0.322,0.927-0.322
	c0.367,0,0.676,0.108,0.927,0.322C19.472,10.872,19.597,11.172,19.597,11.556"/>
<polyline fill="#186164" points="46.212,13.729 45.962,13.729 45.962,13.554 46.672,13.554 46.672,13.729 46.42,13.729 
	46.42,14.477 46.212,14.477 46.212,13.729 "/>
<path fill="#186164" d="M47.558,14.123c-0.005-0.11-0.009-0.243-0.009-0.379h-0.002c-0.03,0.118-0.069,0.249-0.104,0.358
	l-0.114,0.359h-0.162l-0.099-0.356c-0.029-0.11-0.06-0.24-0.083-0.362h-0.002c-0.006,0.125-0.012,0.268-0.016,0.383l-0.018,0.351
	h-0.193l0.058-0.923h0.278l0.091,0.309c0.029,0.106,0.057,0.221,0.077,0.328h0.005c0.025-0.106,0.056-0.227,0.088-0.331l0.096-0.306
	h0.274l0.049,0.923h-0.202L47.558,14.123"/>
</svg>
