<?xml version="1.0" encoding="utf-8"?>
<!-- Generator: Adobe Illustrator 17.0.0, SVG Export Plug-In . SVG Version: 6.00 Build 0)  -->
<!DOCTYPE svg PUBLIC "-//W3C//DTD SVG 1.1//EN" "http://www.w3.org/Graphics/SVG/1.1/DTD/svg11.dtd">
<svg version="1.1" id="图层_1" xmlns="http://www.w3.org/2000/svg" xmlns:xlink="http://www.w3.org/1999/xlink" x="0px" y="0px"
	 width="41.12px" height="16px" viewBox="0 0 41.12 16" enable-background="new 0 0 41.12 16" xml:space="preserve">
<g>
	<path fill-rule="evenodd" clip-rule="evenodd" fill="#FA9B00" d="M12.375,10.471c-0.003-0.001-0.005,0.001-0.008,0.002
		c-0.004,0.003-0.01,0.003-0.014,0.001c-0.005-0.001-0.011,0-0.016,0.003c-0.004,0.001-0.008,0.004-0.008,0.002
		c-0.012,0.002-0.019,0.004-0.029,0.006c-0.101,0.031-0.183,0.098-0.227,0.193c-0.097,0.227,0.044,0.53,0.314,0.682
		c0.124,0.068,0.254,0.095,0.371,0.08c0.001-0.001,0.001-0.001,0.007-0.001c0.003-0.002,0.01,0.001,0.013-0.001
		c0.005-0.003,0.01-0.006,0.014-0.008c0.003-0.002,0.008,0.002,0.01,0.001c0.01-0.001,0.017-0.004,0.025-0.008
		c0.102-0.031,0.185-0.093,0.229-0.194c0.097-0.223-0.039-0.526-0.311-0.68C12.62,10.481,12.491,10.454,12.375,10.471"/>
	<path fill-rule="evenodd" clip-rule="evenodd" fill="#FA9B00" d="M16.13,14.004c-0.286-0.709-0.939-1.121-1.608-1.508
		c-0.232-0.131-0.495-0.224-0.722-0.296c-0.525-0.164-1.033-0.203-1.625-0.298c-0.481-0.081-0.861-0.272-1.27-0.537
		c-0.213-0.138-0.385-0.331-0.531-0.533c-0.027-0.04-0.163-0.2-0.149-0.253c0,0-0.094,0.362,0.092,0.875
		c-1.721-0.075-3.23-0.993-3.923-2.105C5.123,7.3,5.572,4.819,7.269,3.724c1.697-1.096,4.284-0.323,5.669,1.657
		c0.869,1.239,1.09,2.685,0.718,3.861c-0.002,0.007-0.005,0.018-0.008,0.025c-0.736-0.512-1.408-0.253-1.408-0.253
		c0.737-0.072,1.32,0.492,1.32,0.492c0.086,0.074,0.168,0.154,0.242,0.245c0.017,0.021,0.034,0.041,0.051,0.066
		c0.192,0.253,0.313,0.534,0.364,0.816c1.463-1.785,1.706-4.256,0.41-6.176c-1.651-2.449-5.169-3.073-7.856-1.4
		c-2.689,1.676-3.531,5.017-1.88,7.465c1.357,2.013,4.599,2.722,6.423,2.167c0.688-0.207,3.613,0.053,4.631,1.365
		C16.045,14.182,16.169,14.098,16.13,14.004"/>
	<g>
		<g>
			<path fill="#3165BD" d="M20.174,7.03c-0.38-0.1-0.86-0.31-1.03-0.75c1-0.41,1.11-1.43,1.11-1.86c0-1.13-0.69-1.92-1.69-1.92
				c-1.04,0-1.71,0.77-1.71,1.96c0,0.8,0.38,1.71,1.42,1.89c0.48,1.04,1.9,1.14,1.91,1.14c0.17,0,0.25-0.12,0.25-0.22
				C20.434,7.09,20.294,7.06,20.174,7.03z M17.944,5.42c-0.18-0.29-0.22-0.71-0.22-1c0-0.42,0.08-0.77,0.22-0.98
				c0.14-0.23,0.38-0.37,0.62-0.37c0.13,0,0.39,0.05,0.59,0.35c0.2,0.31,0.24,0.75,0.24,0.98c0,0.29-0.03,0.7-0.19,0.99
				c-0.16,0.27-0.39,0.42-0.65,0.42C18.414,5.81,18.144,5.76,17.944,5.42z"/>
		</g>
		<g>
			<path fill-rule="evenodd" clip-rule="evenodd" fill="#3165BD" d="M21.944,2.76v3.35c0,0.12-0.07,0.19-0.19,0.19h-0.48
				c-0.05-0.01-0.18-0.02-0.18-0.19V2.76c0-0.06,0.01-0.18,0.18-0.18h0.49C21.844,2.58,21.944,2.6,21.944,2.76z"/>
		</g>
		<g>
			<path fill="#3165BD" d="M26.984,2.72c0,0.02,0,0.04-0.01,0.08l-0.01,0.02l-0.94,3.32c-0.03,0.09-0.06,0.16-0.18,0.16h-0.25
				c-0.11-0.01-0.14-0.07-0.17-0.15l-0.65-1.94l-0.62,1.93c-0.03,0.09-0.05,0.14-0.15,0.15c0,0-0.03,0.01-0.24,0.01
				c-0.1,0-0.17-0.03-0.21-0.15l-0.96-3.32c-0.01-0.06-0.01-0.07-0.01-0.1c0-0.04,0.01-0.15,0.17-0.15h0.48
				c0.11,0,0.17,0.02,0.2,0.16l0.53,2.05l0.63-2.06c0.03-0.07,0.05-0.15,0.17-0.15h0.21c0.08,0.02,0.09,0.07,0.12,0.17l0.65,2.04
				l0.52-2.06c0.03-0.11,0.09-0.15,0.19-0.15h0.35C26.854,2.58,26.984,2.58,26.984,2.72z"/>
		</g>
		<g>
			<path fill="#3165BD" d="M28.484,2.76v3.35c0,0.12-0.06,0.19-0.19,0.19h-0.47c-0.06-0.01-0.19-0.02-0.19-0.19V2.76
				c0.01-0.07,0.01-0.18,0.18-0.18h0.49C28.384,2.58,28.484,2.6,28.484,2.76z"/>
		</g>
		<g>
			<path fill="#3165BD" d="M21.534,8.69c0,0.03,0,0.05-0.01,0.07l-0.01,0.04l-0.94,3.32c-0.02,0.09-0.05,0.15-0.18,0.15h-0.25
				c-0.1-0.01-0.13-0.05-0.16-0.15l-0.66-1.94l-0.61,1.94c-0.03,0.08-0.06,0.14-0.16,0.15c0,0-0.03,0-0.23,0
				c-0.11,0-0.18-0.02-0.22-0.15l-0.95-3.32c-0.02-0.05-0.02-0.07-0.02-0.1c0-0.07,0.05-0.15,0.17-0.15h0.48
				c0.12,0,0.17,0.03,0.21,0.17l0.52,2.05l0.64-2.06c0.02-0.08,0.05-0.16,0.16-0.16l0.21,0.01c0.08,0.02,0.09,0.06,0.12,0.16
				l0.65,2.05l0.53-2.06c0.02-0.09,0.07-0.16,0.19-0.16h0.35C21.404,8.55,21.534,8.55,21.534,8.69z"/>
		</g>
		<g>
			<path fill="#3165BD" d="M24.904,12.03l-1.25-3.36c-0.04-0.09-0.08-0.12-0.19-0.12h-0.29c-0.13,0-0.17,0.07-0.2,0.15l-1.24,3.31
				c0,0-0.04,0.09-0.04,0.12c0,0.05,0.02,0.14,0.17,0.14h0.34c0.13,0,0.16-0.04,0.2-0.14l0.35-0.97h0.93l0.36,0.97
				c0.04,0.12,0.09,0.14,0.21,0.14h0.51c0.15,0,0.17-0.1,0.17-0.14C24.934,12.1,24.924,12.07,24.904,12.03z M23.504,10.63h-0.57
				l0.28-0.86L23.504,10.63z"/>
		</g>
		<g>
			<path fill="#3165BD" d="M27.674,11.83v0.27c-0.01,0.14-0.08,0.17-0.18,0.17h-1.75c-0.05,0-0.18,0-0.18-0.17V8.73
				c0-0.16,0.1-0.18,0.19-0.18h0.47c0.09,0,0.18,0.02,0.18,0.18v2.93h1.1C27.624,11.66,27.674,11.71,27.674,11.83z"/>
		</g>
		<g>
			<path fill="#3165BD" d="M30.464,11.83v0.27c-0.01,0.14-0.08,0.17-0.19,0.17h-1.75c-0.04,0-0.17,0-0.17-0.17V8.73
				c0-0.16,0.09-0.18,0.18-0.18h0.47c0.09,0,0.19,0.02,0.19,0.18v2.93h1.09C30.414,11.66,30.464,11.71,30.464,11.83z"/>
		</g>
		<g>
			<path fill-rule="evenodd" clip-rule="evenodd" fill="#3165BD" d="M31.974,9.15v0.89h0.95c0.05,0,0.18,0,0.18,0.18v0.24
				c0,0.16-0.09,0.18-0.19,0.18h-0.94v1.02h1.14c0.06,0,0.19,0,0.19,0.18v0.29c-0.03,0.13-0.12,0.14-0.19,0.14h-1.78
				c-0.1,0-0.2-0.02-0.2-0.19V8.76c0-0.14,0.06-0.2,0.19-0.21h1.79c0.05,0,0.11,0,0.15,0.04c0.03,0.03,0.04,0.08,0.04,0.13v0.25
				c0,0.04,0,0.1-0.04,0.14s-0.1,0.04-0.15,0.04H31.974z"/>
		</g>
		<g>
			<path fill="#3165BD" d="M36.494,8.72v0.25c0,0.12-0.06,0.18-0.19,0.18h-0.7v2.93c0,0.04,0,0.19-0.18,0.19h-0.46
				c-0.12,0-0.2-0.04-0.2-0.19V9.15h-0.7c-0.13,0-0.18-0.06-0.18-0.18V8.73c0-0.18,0.13-0.18,0.18-0.18h2.24
				C36.354,8.55,36.494,8.55,36.494,8.72z"/>
		</g>
	</g>
</g>
</svg>
