<?xml version="1.0" encoding="utf-8"?>
<!-- Generator: Adobe Illustrator 17.0.0, SVG Export Plug-In . SVG Version: 6.00 Build 0)  -->
<!DOCTYPE svg PUBLIC "-//W3C//DTD SVG 1.1//EN" "http://www.w3.org/Graphics/SVG/1.1/DTD/svg11.dtd">
<svg version="1.1" id="图层_1" xmlns="http://www.w3.org/2000/svg" xmlns:xlink="http://www.w3.org/1999/xlink" x="0px" y="0px"
	 width="27.574px" height="16px" viewBox="0 0 27.574 16" enable-background="new 0 0 27.574 16" xml:space="preserve">
<g>
	<path fill="#CF0A2C" d="M7.84,1.801h4.884c0.682,0,1.106,0.556,0.947,1.24l-2.274,9.762c-0.16,0.682-0.843,1.238-1.525,1.238H4.988
		c-0.681,0-1.106-0.556-0.947-1.238l2.275-9.762C6.475,2.357,7.157,1.801,7.84,1.801z"/>
	<path fill="#002856" d="M12.317,1.801h5.616c0.682,0,0.374,0.556,0.214,1.24l-2.273,9.762c-0.159,0.682-0.11,1.238-0.793,1.238
		H9.465c-0.683,0-1.106-0.556-0.945-1.238l2.273-9.762C10.954,2.357,11.635,1.801,12.317,1.801z"/>
	<path fill="#007078" d="M17.711,1.801h4.884c0.683,0,1.107,0.556,0.946,1.24l-2.273,9.762c-0.16,0.682-0.843,1.238-1.526,1.238
		H14.86c-0.683,0-1.107-0.556-0.947-1.238l2.274-9.762C16.346,2.357,17.028,1.801,17.711,1.801z"/>
	<path fill-rule="evenodd" clip-rule="evenodd" fill="#FFFFFF" d="M16.895,10.983h0.46l0.132-0.442h-0.459L16.895,10.983z
		 M17.263,9.761l-0.158,0.524c0,0,0.175-0.089,0.269-0.118c0.095-0.021,0.239-0.04,0.239-0.04l0.112-0.367H17.263 M17.493,9.008
		L17.34,9.512c0,0,0.172-0.078,0.265-0.103c0.095-0.025,0.237-0.033,0.237-0.033l0.111-0.367H17.493 M18.511,9.008l-0.596,1.97
		h0.161l-0.125,0.407h-0.159l-0.038,0.126h-0.567l0.039-0.126h-1.15l0.115-0.377h0.117l0.604-2l0.12-0.403h0.578l-0.06,0.203
		c0,0,0.154-0.111,0.3-0.148c0.146-0.039,0.983-0.053,0.983-0.053l-0.124,0.401H18.511"/>
	<path fill="#FFFFFF" d="M18.766,8.607h0.617l0.006,0.23c-0.004,0.039,0.029,0.057,0.101,0.057h0.126l-0.115,0.379h-0.333
		c-0.288,0.02-0.398-0.103-0.391-0.243L18.766,8.607z"/>
	<path fill="#FFFFFF" d="M18.847,10.407h-0.588l0.101-0.338h0.672l0.095-0.309h-0.664l0.113-0.381h1.846l-0.115,0.381H19.69
		l-0.097,0.309h0.621l-0.103,0.338H19.44L19.32,10.55h0.272l0.066,0.425c0.007,0.042,0.007,0.07,0.021,0.088
		c0.014,0.015,0.096,0.023,0.143,0.023h0.083L19.781,11.5h-0.21c-0.032,0-0.08-0.002-0.147-0.005
		c-0.062-0.006-0.106-0.042-0.149-0.064c-0.039-0.018-0.096-0.065-0.11-0.144l-0.066-0.425l-0.305,0.418
		c-0.097,0.133-0.228,0.233-0.45,0.233h-0.427l0.112-0.37h0.163c0.047,0,0.088-0.019,0.119-0.034
		c0.031-0.013,0.059-0.029,0.09-0.075L18.847,10.407z"/>
	<path fill="#FFFFFF" d="M12.408,9.483h1.558l-0.115,0.371h-0.623l-0.097,0.317h0.637l-0.116,0.383h-0.637l-0.155,0.515
		c-0.019,0.057,0.152,0.064,0.213,0.064l0.318-0.044l-0.128,0.425h-0.717c-0.058,0-0.101-0.008-0.163-0.022
		c-0.06-0.015-0.087-0.042-0.114-0.083c-0.026-0.042-0.067-0.076-0.039-0.166l0.206-0.682h-0.354l0.118-0.39h0.355l0.094-0.317
		h-0.354L12.408,9.483z"/>
	<path fill="#FFFFFF" d="M13.456,8.815h0.639l-0.116,0.388h-0.873l-0.094,0.082c-0.041,0.04-0.055,0.023-0.108,0.052
		c-0.049,0.025-0.153,0.074-0.287,0.074h-0.279l0.113-0.373h0.084c0.071,0,0.12-0.007,0.144-0.022
		c0.028-0.018,0.059-0.058,0.093-0.121l0.161-0.292h0.634L13.456,8.815z"/>
	<path fill-rule="evenodd" clip-rule="evenodd" fill="#FFFFFF" d="M14.681,9.454c0,0,0.174-0.159,0.473-0.211
		c0.068-0.013,0.491-0.008,0.491-0.008L15.71,9.02h-0.899L14.681,9.454z M15.524,9.616h-0.891l-0.055,0.179h0.772
		c0.091-0.011,0.11,0.002,0.118-0.002L15.524,9.616 M14.369,8.607h0.544l-0.08,0.274c0,0,0.172-0.138,0.292-0.187
		c0.119-0.044,0.391-0.084,0.391-0.084l0.881-0.005l-0.3,0.999c-0.051,0.171-0.11,0.281-0.146,0.332
		c-0.033,0.051-0.072,0.095-0.148,0.137c-0.074,0.04-0.142,0.062-0.204,0.069c-0.058,0.004-0.147,0.006-0.271,0.007h-0.849
		l-0.239,0.79c-0.023,0.079-0.033,0.116-0.019,0.138c0.012,0.018,0.041,0.04,0.081,0.04l0.374-0.035l-0.128,0.433h-0.418
		c-0.133,0-0.23-0.003-0.298-0.008c-0.065-0.006-0.132,0-0.178-0.034c-0.039-0.034-0.098-0.08-0.097-0.126
		c0.004-0.043,0.022-0.114,0.049-0.212L14.369,8.607"/>
	<path fill="#FFFFFF" d="M15.956,10.219l-0.051,0.24c-0.021,0.075-0.04,0.131-0.097,0.179c-0.06,0.051-0.129,0.104-0.292,0.104
		l-0.302,0.013l-0.002,0.271c-0.003,0.076,0.017,0.069,0.029,0.081c0.014,0.014,0.027,0.019,0.04,0.025l0.096-0.006l0.288-0.016
		l-0.12,0.396h-0.331c-0.232,0-0.404-0.006-0.459-0.05c-0.056-0.035-0.063-0.08-0.062-0.156l0.021-1.057h0.528l-0.007,0.216h0.127
		c0.044,0,0.073-0.004,0.091-0.016c0.016-0.012,0.028-0.028,0.035-0.055l0.053-0.169H15.956z"/>
	<path fill="#FFFFFF" d="M8.417,4.918C8.399,5.005,8.06,6.568,8.059,6.569C7.986,6.886,7.933,7.111,7.753,7.257
		c-0.102,0.085-0.222,0.126-0.36,0.126c-0.223,0-0.352-0.111-0.374-0.32L7.014,6.99c0,0,0.068-0.424,0.068-0.426
		c0,0,0.356-1.425,0.419-1.613C7.505,4.94,7.506,4.935,7.507,4.929c-0.692,0.006-0.815,0-0.823-0.011
		C6.678,4.934,6.661,5.022,6.661,5.022L6.298,6.628L6.267,6.764l-0.06,0.445c0,0.132,0.026,0.24,0.078,0.331
		C6.45,7.83,6.922,7.873,7.188,7.873c0.344,0,0.667-0.073,0.885-0.206c0.378-0.224,0.478-0.573,0.566-0.884L8.68,6.623
		c0,0,0.366-1.48,0.429-1.672C9.111,4.94,9.112,4.935,9.115,4.929C8.613,4.935,8.465,4.929,8.417,4.918z"/>
	<path fill="#FFFFFF" d="M10.445,7.857C10.2,7.853,10.112,7.853,9.825,7.869L9.815,7.847c0.025-0.11,0.052-0.217,0.076-0.328
		l0.035-0.15c0.053-0.232,0.105-0.502,0.111-0.585c0.006-0.049,0.023-0.173-0.119-0.173c-0.06,0-0.122,0.029-0.185,0.058
		C9.698,6.793,9.629,7.14,9.595,7.299C9.524,7.632,9.52,7.671,9.488,7.835l-0.02,0.022C9.214,7.853,9.126,7.853,8.835,7.869
		L8.822,7.843C8.87,7.646,8.919,7.446,8.965,7.248C9.087,6.71,9.117,6.505,9.15,6.231l0.024-0.016
		c0.284-0.04,0.353-0.048,0.66-0.111L9.86,6.134L9.812,6.305c0.053-0.031,0.102-0.062,0.155-0.089
		c0.145-0.071,0.306-0.093,0.395-0.093c0.135,0,0.283,0.038,0.344,0.193c0.058,0.139,0.02,0.31-0.057,0.646l-0.04,0.172
		c-0.079,0.374-0.092,0.443-0.136,0.7L10.445,7.857z"/>
	<path fill="#FFFFFF" d="M11.443,7.857c-0.148-0.001-0.244-0.004-0.337-0.001c-0.093,0.001-0.183,0.006-0.32,0.012l-0.007-0.012
		l-0.009-0.013c0.038-0.142,0.058-0.191,0.077-0.242c0.019-0.051,0.036-0.101,0.07-0.245c0.043-0.188,0.07-0.319,0.087-0.435
		c0.02-0.112,0.031-0.206,0.046-0.316l0.011-0.008l0.012-0.011c0.147-0.02,0.241-0.034,0.337-0.05
		c0.097-0.013,0.194-0.032,0.346-0.061l0.006,0.013l0.004,0.014c-0.028,0.116-0.057,0.232-0.085,0.351
		c-0.027,0.119-0.056,0.234-0.082,0.351c-0.055,0.247-0.077,0.34-0.09,0.407c-0.013,0.062-0.016,0.097-0.038,0.225l-0.014,0.012
		L11.443,7.857z"/>
	<path fill="#FFFFFF" d="M13.005,6.984c-0.012,0.064-0.068,0.3-0.143,0.401c-0.053,0.074-0.115,0.119-0.184,0.119
		c-0.02,0-0.142,0-0.144-0.181c-0.001-0.089,0.017-0.18,0.04-0.279c0.065-0.286,0.141-0.526,0.336-0.526
		C13.062,6.519,13.073,6.697,13.005,6.984z M13.649,7.011c0.086-0.378,0.019-0.554-0.065-0.661
		c-0.128-0.164-0.354-0.216-0.588-0.216c-0.141,0-0.477,0.014-0.739,0.256c-0.188,0.174-0.275,0.411-0.328,0.638
		c-0.053,0.231-0.114,0.647,0.269,0.802c0.118,0.051,0.288,0.065,0.398,0.065c0.28,0,0.568-0.077,0.784-0.306
		C13.546,7.402,13.622,7.125,13.649,7.011"/>
	<path fill="#FFFFFF" d="M19.654,7.883c-0.297-0.002-0.382-0.002-0.656,0.009L18.981,7.87c0.074-0.282,0.148-0.563,0.215-0.848
		c0.086-0.37,0.106-0.527,0.133-0.743l0.022-0.018c0.295-0.042,0.377-0.054,0.683-0.111l0.009,0.026
		c-0.056,0.233-0.111,0.464-0.166,0.697c-0.113,0.487-0.153,0.735-0.197,0.989L19.654,7.883z"/>
	<path fill="#FFFFFF" d="M19.209,7.017c-0.015,0.061-0.071,0.3-0.146,0.4c-0.05,0.071-0.17,0.115-0.239,0.115
		c-0.02,0-0.14,0-0.144-0.178c-0.001-0.088,0.017-0.179,0.04-0.279c0.066-0.281,0.141-0.518,0.336-0.518
		C19.209,6.556,19.274,6.729,19.209,7.017z M19.795,7.045c0.086-0.375-0.261-0.033-0.316-0.157
		c-0.085-0.193-0.032-0.585-0.373-0.716c-0.131-0.052-0.439,0.015-0.704,0.256c-0.186,0.172-0.275,0.408-0.326,0.634
		c-0.053,0.228-0.115,0.644,0.266,0.792c0.121,0.052,0.23,0.067,0.341,0.061c0.383-0.02,0.674-0.599,0.89-0.827
		C19.74,6.906,19.769,7.155,19.795,7.045"/>
	<path fill="#FFFFFF" d="M15.327,7.857c-0.246-0.004-0.331-0.004-0.618,0.011l-0.011-0.022c0.025-0.11,0.053-0.217,0.078-0.328
		l0.033-0.15c0.054-0.232,0.106-0.502,0.111-0.585c0.006-0.049,0.023-0.173-0.118-0.173c-0.061,0-0.123,0.029-0.186,0.058
		c-0.033,0.124-0.105,0.471-0.139,0.629c-0.069,0.333-0.074,0.372-0.105,0.537L14.35,7.857c-0.252-0.004-0.339-0.004-0.631,0.011
		l-0.013-0.025c0.048-0.198,0.097-0.398,0.143-0.596c0.122-0.538,0.15-0.743,0.185-1.016l0.022-0.016
		c0.284-0.04,0.354-0.048,0.661-0.111l0.024,0.029l-0.044,0.171c0.051-0.031,0.102-0.062,0.154-0.089
		c0.144-0.071,0.306-0.093,0.395-0.093c0.133,0,0.282,0.038,0.345,0.193c0.057,0.139,0.018,0.31-0.059,0.646l-0.039,0.172
		c-0.081,0.374-0.093,0.443-0.136,0.7L15.327,7.857z"/>
	<path fill="#FFFFFF" d="M17.455,4.916c-0.001,0-0.205,0.002-0.205,0.002c-0.531,0.007-0.744,0.005-0.831-0.006
		c-0.007,0.039-0.021,0.107-0.021,0.107s-0.19,0.882-0.19,0.883c0,0-0.455,1.874-0.477,1.963c0.464-0.006,0.654-0.006,0.734,0.003
		c0.018-0.088,0.126-0.612,0.126-0.612c0,0,0.092-0.384,0.097-0.398c0,0,0.029-0.04,0.058-0.056h0.042c0.4,0,0.851,0,1.205-0.26
		c0.241-0.179,0.405-0.442,0.479-0.763c0.019-0.079,0.033-0.172,0.033-0.266c0-0.123-0.025-0.244-0.096-0.339
		C18.229,4.923,17.87,4.918,17.455,4.916z M17.72,5.834c-0.043,0.196-0.17,0.36-0.333,0.44c-0.134,0.067-0.299,0.073-0.469,0.073
		h-0.11l0.008-0.044c0,0,0.202-0.88,0.201-0.876l0.007-0.045l0.003-0.034l0.081,0.008c0,0,0.417,0.036,0.427,0.037
		C17.7,5.455,17.768,5.619,17.72,5.834"/>
	<path fill="#FFFFFF" d="M22.08,6.148l-0.024-0.027c-0.303,0.061-0.358,0.071-0.637,0.109l-0.02,0.02
		c-0.001,0.003-0.002,0.008-0.003,0.013l-0.001-0.005c-0.207,0.478-0.201,0.375-0.37,0.752c-0.001-0.017-0.001-0.028-0.002-0.046
		l-0.042-0.817l-0.027-0.027c-0.318,0.061-0.325,0.071-0.618,0.109l-0.023,0.02c-0.003,0.01-0.003,0.02-0.005,0.032l0.002,0.004
		c0.037,0.187,0.028,0.146,0.065,0.441c0.017,0.145,0.04,0.291,0.057,0.434c0.029,0.24,0.045,0.358,0.08,0.724
		c-0.198,0.327-0.245,0.451-0.436,0.737l0.012,0.027c0.286-0.011,0.352-0.011,0.564-0.011l0.046-0.053
		C20.859,8.242,22.08,6.148,22.08,6.148z"/>
	<path fill="#FFFFFF" d="M11.711,6.35c0.163-0.113,0.183-0.269,0.046-0.35c-0.139-0.082-0.382-0.056-0.545,0.057
		c-0.163,0.111-0.182,0.268-0.044,0.351C11.305,6.488,11.549,6.464,11.711,6.35z"/>
	<path fill="#FFFFFF" d="M20.678,8.616l-0.239,0.409c-0.075,0.14-0.215,0.244-0.438,0.245l-0.379-0.007l0.111-0.368h0.074
		c0.039,0,0.066-0.002,0.088-0.013c0.02-0.007,0.033-0.022,0.049-0.044l0.141-0.223H20.678z"/>
</g>
</svg>
