<?xml version="1.0" encoding="utf-8"?>
<!-- Generator: Adobe Illustrator 17.0.0, SVG Export Plug-In . SVG Version: 6.00 Build 0)  -->
<!DOCTYPE svg PUBLIC "-//W3C//DTD SVG 1.1//EN" "http://www.w3.org/Graphics/SVG/1.1/DTD/svg11.dtd">
<svg version="1.1" id="图层_1" xmlns="http://www.w3.org/2000/svg" xmlns:xlink="http://www.w3.org/1999/xlink" x="0px" y="0px"
	 width="30.58px" height="16px" viewBox="0 0 30.58 16" enable-background="new 0 0 30.58 16" xml:space="preserve">
<g>
	<path fill-rule="evenodd" clip-rule="evenodd" fill="#9B0033" d="M7.864,3.189C6.869,3.2,5.962,3.44,5.153,3.921
		C4.355,4.402,3.721,5.047,3.229,5.845C2.748,6.654,2.508,7.561,2.497,8.556c0.011,0.995,0.251,1.902,0.732,2.711
		c0.492,0.809,1.126,1.454,1.924,1.946c0.809,0.47,1.716,0.71,2.711,0.732c1.006-0.011,1.913-0.251,2.722-0.732
		c0.809-0.492,1.454-1.137,1.935-1.946c0.47-0.809,0.721-1.716,0.733-2.711c-0.011-0.995-0.251-1.902-0.733-2.711
		c-0.481-0.798-1.126-1.443-1.935-1.924C9.777,3.44,8.87,3.2,7.864,3.189 M10.116,4.708c0.678,0.394,1.213,0.929,1.607,1.596
		c0.394,0.678,0.59,1.432,0.601,2.252c-0.011,0.831-0.208,1.585-0.601,2.252c-0.393,0.667-0.929,1.202-1.607,1.607
		c-0.667,0.393-1.41,0.59-2.252,0.601c-0.82-0.011-1.574-0.208-2.241-0.601c-0.678-0.405-1.213-0.94-1.596-1.607
		c-0.404-0.667-0.601-1.41-0.612-2.252c0.011-0.82,0.208-1.574,0.612-2.252C4.41,5.638,4.945,5.102,5.623,4.708
		C6.29,4.315,7.044,4.107,7.864,4.096C8.695,4.107,9.449,4.315,10.116,4.708"/>
	<polyline fill-rule="evenodd" clip-rule="evenodd" fill="#9B0033" points="14.609,7.004 14.981,7.004 15.374,8.086 15.779,7.004 
		16.139,7.004 15.527,8.545 15.232,8.545 14.609,7.004 	"/>
	<path fill-rule="evenodd" clip-rule="evenodd" fill="#9B0033" d="M16.893,8.567c-0.076,0-0.164-0.022-0.241-0.055
		c-0.076-0.022-0.142-0.066-0.197-0.12c-0.055-0.055-0.087-0.109-0.12-0.186c-0.033-0.076-0.055-0.164-0.055-0.251
		c0-0.087,0.011-0.164,0.044-0.241c0.033-0.077,0.066-0.142,0.12-0.197c0.055-0.055,0.109-0.098,0.186-0.131
		c0.077-0.033,0.153-0.044,0.241-0.044c0.098,0,0.175,0.022,0.251,0.055C17.2,7.43,17.254,7.474,17.298,7.54
		c0.044,0.055,0.076,0.12,0.109,0.197C17.429,7.813,17.44,7.9,17.44,7.977l-0.011,0.044v0.044H16.62
		c0.011,0.077,0.044,0.131,0.098,0.175c0.055,0.033,0.109,0.055,0.186,0.055c0.055,0,0.098-0.011,0.153-0.033
		c0.033-0.011,0.077-0.044,0.131-0.087l0.186,0.164c-0.055,0.077-0.12,0.131-0.197,0.164C17.101,8.545,17.003,8.567,16.893,8.567z
		 M17.112,7.857c-0.011-0.077-0.033-0.131-0.077-0.186c-0.044-0.044-0.098-0.066-0.164-0.066c-0.076,0-0.131,0.022-0.175,0.066
		c-0.044,0.055-0.077,0.109-0.087,0.186H17.112z M17.823,7.365h0.328v0.23c0.033-0.077,0.087-0.142,0.142-0.186
		c0.055-0.055,0.131-0.076,0.23-0.066v0.35h-0.011c-0.12,0-0.208,0.033-0.262,0.098c-0.066,0.065-0.098,0.175-0.098,0.317v0.426
		h-0.328V7.365z M18.872,6.938h0.35v0.295h-0.35V6.938z M18.883,7.365h0.339v1.17h-0.339V7.365z"/>
	<path fill-rule="evenodd" clip-rule="evenodd" fill="#9B0033" d="M20.25,8.556c-0.12,0-0.23-0.022-0.35-0.065
		c-0.109-0.033-0.208-0.098-0.306-0.186l0.208-0.23c0.066,0.055,0.131,0.098,0.208,0.131c0.076,0.033,0.153,0.055,0.241,0.055
		c0.076,0,0.131-0.011,0.164-0.044c0.033-0.022,0.055-0.055,0.055-0.098V8.053L20.413,8.01l-0.087-0.044l-0.164-0.055l-0.208-0.055
		L19.79,7.769l-0.098-0.131c-0.022-0.055-0.033-0.109-0.033-0.186V7.441l0.033-0.186c0.033-0.055,0.066-0.109,0.12-0.142
		c0.044-0.044,0.099-0.076,0.164-0.098c0.066-0.022,0.142-0.033,0.219-0.033c0.109,0,0.208,0.022,0.306,0.055
		c0.098,0.033,0.186,0.076,0.262,0.142L20.588,7.43l-0.208-0.109c-0.065-0.033-0.131-0.044-0.197-0.044
		c-0.066,0-0.11,0.011-0.142,0.044c-0.033,0.022-0.055,0.055-0.055,0.087v0.011l0.022,0.065l0.044,0.044l0.109,0.044l0.164,0.044
		l0.208,0.077c0.055,0.022,0.109,0.055,0.153,0.087l0.087,0.12c0.022,0.055,0.033,0.109,0.033,0.175v0.011
		c0,0.077-0.011,0.142-0.044,0.197c-0.022,0.055-0.055,0.109-0.109,0.153c-0.055,0.033-0.109,0.066-0.186,0.087
		C20.403,8.545,20.326,8.556,20.25,8.556"/>
	<path fill-rule="evenodd" clip-rule="evenodd" fill="#9B0033" d="M21.222,6.938h0.35v0.295h-0.35V6.938z M21.233,7.365h0.339v1.17
		h-0.339V7.365z"/>
	<path fill-rule="evenodd" clip-rule="evenodd" fill="#9B0033" d="M22.6,8.884l-0.273-0.033c-0.098-0.011-0.175-0.044-0.251-0.087
		l0.12-0.251L22.381,8.6l0.208,0.022c0.109,0,0.197-0.022,0.251-0.076c0.055-0.055,0.077-0.131,0.077-0.241V8.25
		c-0.044,0.055-0.099,0.109-0.153,0.142c-0.055,0.033-0.131,0.044-0.229,0.044c-0.066,0-0.131-0.011-0.197-0.033
		c-0.055-0.022-0.109-0.055-0.164-0.109C22.13,8.25,22.097,8.196,22.064,8.13c-0.033-0.077-0.044-0.153-0.044-0.241
		c0-0.087,0.011-0.164,0.044-0.23c0.033-0.076,0.066-0.131,0.109-0.175c0.055-0.055,0.109-0.087,0.175-0.109l0.186-0.033
		c0.098,0,0.175,0.022,0.229,0.055c0.055,0.033,0.109,0.065,0.153,0.12V7.365h0.328v0.907c0,0.208-0.044,0.361-0.142,0.459
		c-0.055,0.055-0.131,0.099-0.208,0.12L22.6,8.884z M22.632,8.163l0.12-0.022c0.033-0.011,0.055-0.022,0.087-0.055
		c0.022-0.022,0.044-0.055,0.055-0.087c0.011-0.033,0.022-0.066,0.022-0.109L22.895,7.78c-0.011-0.033-0.033-0.066-0.055-0.087
		l-0.087-0.055l-0.12-0.022l-0.109,0.022l-0.087,0.055c-0.033,0.022-0.055,0.055-0.065,0.087l-0.022,0.109
		c0,0.087,0.033,0.153,0.087,0.197C22.49,8.141,22.556,8.163,22.632,8.163z M23.682,7.365h0.328v0.164l0.065-0.066l0.076-0.065
		l0.087-0.044l0.11-0.011c0.131,0,0.229,0.044,0.295,0.12c0.077,0.076,0.109,0.175,0.109,0.317v0.754h-0.339V7.879
		c0-0.077-0.011-0.131-0.044-0.175c-0.033-0.033-0.087-0.055-0.153-0.055c-0.066,0-0.12,0.022-0.153,0.055
		c-0.033,0.044-0.055,0.098-0.055,0.175v0.656h-0.328V7.365z"/>
	<path fill-rule="evenodd" clip-rule="evenodd" fill="#9B0033" d="M15.461,10.469c-0.12,0-0.229-0.022-0.35-0.065
		c-0.109-0.033-0.208-0.098-0.306-0.186l0.208-0.23c0.066,0.055,0.131,0.098,0.208,0.131c0.076,0.033,0.153,0.055,0.24,0.055
		c0.077,0,0.131-0.011,0.164-0.044c0.033-0.022,0.055-0.055,0.055-0.098V9.966l-0.055-0.044l-0.088-0.044l-0.164-0.055L15.166,9.77
		l-0.164-0.087l-0.098-0.131c-0.022-0.055-0.033-0.109-0.033-0.186V9.354l0.033-0.186c0.033-0.055,0.065-0.109,0.12-0.142
		c0.044-0.044,0.098-0.076,0.164-0.098c0.066-0.022,0.142-0.033,0.219-0.033c0.109,0,0.208,0.022,0.306,0.055
		c0.098,0.033,0.186,0.076,0.262,0.142L15.8,9.343l-0.208-0.109c-0.065-0.033-0.131-0.044-0.197-0.044
		c-0.065,0-0.109,0.011-0.142,0.044c-0.033,0.022-0.055,0.055-0.055,0.087v0.011l0.022,0.065l0.044,0.044l0.109,0.044l0.164,0.044
		l0.208,0.077c0.055,0.022,0.109,0.055,0.153,0.087l0.087,0.12c0.022,0.055,0.033,0.109,0.033,0.175v0.011
		c0,0.077-0.011,0.142-0.044,0.197c-0.022,0.055-0.055,0.109-0.109,0.153c-0.055,0.033-0.109,0.066-0.186,0.087
		C15.614,10.458,15.538,10.469,15.461,10.469"/>
	<path fill-rule="evenodd" clip-rule="evenodd" fill="#9B0033" d="M17.025,10.48c-0.077,0-0.164-0.022-0.241-0.055
		c-0.076-0.022-0.142-0.066-0.197-0.12c-0.055-0.055-0.088-0.109-0.12-0.186c-0.033-0.077-0.055-0.164-0.055-0.251
		c0-0.087,0.011-0.164,0.044-0.241c0.033-0.076,0.066-0.142,0.12-0.197c0.055-0.055,0.109-0.098,0.186-0.131
		c0.077-0.033,0.153-0.044,0.241-0.044c0.098,0,0.175,0.022,0.251,0.055c0.076,0.033,0.131,0.077,0.175,0.142
		c0.044,0.055,0.077,0.12,0.109,0.197c0.022,0.076,0.033,0.164,0.033,0.241L17.56,9.934v0.044h-0.809
		c0.011,0.077,0.044,0.131,0.098,0.175c0.055,0.033,0.109,0.055,0.186,0.055c0.055,0,0.099-0.011,0.153-0.033
		c0.033-0.011,0.077-0.044,0.131-0.087l0.186,0.164c-0.055,0.077-0.12,0.131-0.197,0.164C17.232,10.458,17.134,10.48,17.025,10.48z
		 M17.243,9.77c-0.011-0.077-0.033-0.131-0.076-0.186c-0.044-0.044-0.098-0.066-0.164-0.066c-0.076,0-0.131,0.022-0.175,0.066
		c-0.044,0.055-0.076,0.109-0.087,0.186H17.243z M18.555,10.48c-0.087,0-0.164-0.022-0.24-0.055
		c-0.076-0.033-0.142-0.077-0.197-0.131c-0.055-0.055-0.087-0.109-0.12-0.186s-0.055-0.164-0.055-0.241
		c0-0.087,0.022-0.164,0.055-0.241c0.033-0.076,0.066-0.142,0.12-0.197c0.055-0.055,0.12-0.098,0.197-0.131
		c0.076-0.033,0.153-0.044,0.251-0.044c0.109,0,0.197,0.022,0.273,0.055c0.076,0.033,0.131,0.077,0.186,0.142l-0.197,0.219
		c-0.033-0.044-0.076-0.077-0.12-0.099c-0.033-0.022-0.087-0.033-0.153-0.033l-0.109,0.022l-0.087,0.076l-0.066,0.098l-0.022,0.12
		v0.011c0,0.044,0.011,0.088,0.022,0.12c0.011,0.044,0.033,0.076,0.066,0.109c0.022,0.033,0.055,0.055,0.087,0.066
		s0.077,0.022,0.131,0.022c0.055,0,0.099-0.011,0.142-0.033l0.12-0.088l0.197,0.197c-0.055,0.055-0.12,0.109-0.197,0.153
		C18.763,10.458,18.675,10.48,18.555,10.48z"/>
	<path fill-rule="evenodd" clip-rule="evenodd" fill="#9B0033" d="M19.834,10.469c-0.12,0-0.219-0.044-0.295-0.12
		c-0.066-0.077-0.098-0.175-0.098-0.317V9.278h0.328v0.656c0,0.076,0.022,0.131,0.055,0.175c0.033,0.033,0.088,0.055,0.153,0.055
		c0.055,0,0.109-0.022,0.153-0.055c0.033-0.044,0.055-0.098,0.055-0.175V9.278h0.328v1.17h-0.328v-0.164l-0.066,0.065l-0.076,0.066
		l-0.088,0.044L19.834,10.469"/>
	<path fill-rule="evenodd" clip-rule="evenodd" fill="#9B0033" d="M21.037,9.278h0.328v0.23c0.033-0.077,0.087-0.142,0.142-0.186
		c0.055-0.055,0.131-0.076,0.23-0.066v0.35h-0.011c-0.12,0-0.208,0.033-0.262,0.098c-0.065,0.065-0.098,0.175-0.098,0.317v0.426
		h-0.328V9.278z M22.687,10.48c-0.077,0-0.164-0.022-0.241-0.055c-0.076-0.022-0.142-0.066-0.197-0.12
		c-0.055-0.055-0.088-0.109-0.12-0.186c-0.033-0.077-0.055-0.164-0.055-0.251c0-0.087,0.011-0.164,0.044-0.241
		c0.033-0.076,0.066-0.142,0.12-0.197c0.055-0.055,0.109-0.098,0.186-0.131c0.077-0.033,0.153-0.044,0.241-0.044
		c0.098,0,0.175,0.022,0.251,0.055c0.076,0.033,0.131,0.077,0.175,0.142c0.044,0.055,0.076,0.12,0.109,0.197
		c0.022,0.076,0.033,0.164,0.033,0.241l-0.011,0.044v0.044h-0.809c0.011,0.077,0.044,0.131,0.098,0.175
		c0.055,0.033,0.109,0.055,0.186,0.055c0.055,0,0.099-0.011,0.153-0.033c0.033-0.011,0.077-0.044,0.131-0.087l0.186,0.164
		c-0.055,0.077-0.12,0.131-0.197,0.164C22.895,10.458,22.797,10.48,22.687,10.48z M22.906,9.77
		c-0.011-0.077-0.033-0.131-0.076-0.186c-0.044-0.044-0.098-0.066-0.164-0.066c-0.077,0-0.131,0.022-0.175,0.066
		c-0.044,0.055-0.076,0.109-0.087,0.186H22.906z M24.152,10.469c-0.076,0-0.142-0.011-0.208-0.044
		c-0.055-0.022-0.109-0.055-0.164-0.109c-0.055-0.055-0.087-0.12-0.12-0.197c-0.033-0.077-0.044-0.153-0.044-0.251V9.857
		c0-0.098,0.011-0.186,0.044-0.262c0.033-0.076,0.066-0.131,0.12-0.186c0.044-0.055,0.098-0.088,0.164-0.11
		c0.066-0.033,0.131-0.044,0.208-0.044c0.087,0,0.164,0.022,0.219,0.055c0.055,0.033,0.109,0.065,0.142,0.12V8.851h0.328v1.596
		h-0.328v-0.164c-0.033,0.055-0.087,0.098-0.142,0.131C24.316,10.447,24.239,10.469,24.152,10.469z M24.228,10.185
		c0.044,0,0.087-0.011,0.12-0.022l0.087-0.066c0.022-0.033,0.044-0.065,0.055-0.098l0.022-0.131V9.857l-0.022-0.131l-0.055-0.098
		l-0.087-0.065c-0.033-0.011-0.077-0.022-0.12-0.022l-0.109,0.022l-0.087,0.065l-0.066,0.098c-0.011,0.033-0.022,0.077-0.022,0.131
		v0.011l0.022,0.131c0.011,0.033,0.033,0.066,0.066,0.098l0.087,0.066L24.228,10.185z"/>
	<path fill-rule="evenodd" clip-rule="evenodd" fill="#9B0033" d="M26.579,4.315v0.557h-0.131V4.512l-0.142,0.24h-0.022l-0.142-0.24
		v0.361H26.01V4.315h0.142l0.153,0.241l0.142-0.241H26.579 M25.409,4.315h0.47v0.109h-0.164v0.448h-0.131V4.424h-0.175V4.315"/>
	<path fill-rule="evenodd" clip-rule="evenodd" d="M12.32,3.254h0.796V2.818H12.32v1.276h-0.807v0.414h-0.687v0.284h-0.36v0.371
		h-0.436v0.644H9.614v0.404H9.342v0.415H9.036c-0.611,0.905-1.091,1.8-1.44,2.705C6.811,8.229,6.08,7.574,5.404,7.356
		C5.218,7.302,5.087,7.345,5.011,7.509C4.935,7.672,5,7.879,5.229,8.12c0.687,0.752,1.32,1.822,1.898,3.185
		c0.087,0.218,0.284,0.338,0.6,0.371c0.295,0.022,0.491-0.087,0.578-0.327c0.425-1.123,0.916-2.083,1.484-2.902V7.978h0.327V7.574
		h0.349V7.083h0.404V6.625h0.414V6.211h0.327V5.709h0.36V5.371h0.349V4.509h0.403V4.094h0.469V3.68h-0.469v0.415H12.32v0.414h-0.404
		v0.404h-0.404V4.509h0.404V3.254H12.32z M11.098,3.691h0.415v0.404h-0.415V3.691z M10.465,5.164h0.404v0.403h-0.404V5.164z
		 M10.465,6.625h0.404V6.211h-0.404V6.625z"/>
	<rect x="12.32" y="3.254" fill-rule="evenodd" clip-rule="evenodd" fill="#A10045" width="0.403" height="0.425"/>
	<rect x="13.574" y="2.818" fill-rule="evenodd" clip-rule="evenodd" fill="#9B0033" width="0.436" height="0.436"/>
	<rect x="13.149" y="2.382" fill-rule="evenodd" clip-rule="evenodd" width="0.436" height="0.436"/>
	<rect x="13.574" y="1.945" fill-rule="evenodd" clip-rule="evenodd" fill="#9B0033" width="0.436" height="0.436"/>
</g>
</svg>
