<?xml version="1.0" encoding="utf-8"?>
<!-- Generator: Adobe Illustrator 17.0.0, SVG Export Plug-In . SVG Version: 6.00 Build 0)  -->
<!DOCTYPE svg PUBLIC "-//W3C//DTD SVG 1.1//EN" "http://www.w3.org/Graphics/SVG/1.1/DTD/svg11.dtd">
<svg version="1.1" id="图层_1" xmlns="http://www.w3.org/2000/svg" xmlns:xlink="http://www.w3.org/1999/xlink" x="0px" y="0px"
	 width="33.786px" height="16px" viewBox="0 0 33.786 16" enable-background="new 0 0 33.786 16" xml:space="preserve">
<g>
	<g>
		<polygon fill="#0461A5" points="15.178,11.964 13.075,11.964 14.389,3.882 16.494,3.882 		"/>
		<path fill="#0461A5" d="M11.304,3.882L9.298,9.441L9.061,8.244v0L8.353,4.61c0,0-0.085-0.728-0.998-0.728H4.039L4,4.019
			c0,0,1.014,0.211,2.201,0.924l1.828,7.021h2.192l3.348-8.082H11.304z"/>
		<path fill="#0461A5" d="M27.854,11.964h1.932l-1.684-8.082h-1.691c-0.781,0-0.972,0.602-0.972,0.602l-3.138,7.48h2.193l0.439-1.2
			h2.675L27.854,11.964z M25.539,9.106l1.105-3.025l0.622,3.025H25.539z"/>
		<path fill="#0461A5" d="M22.466,5.826l0.3-1.736c0,0-0.927-0.352-1.892-0.352c-1.044,0-3.524,0.456-3.524,2.675
			c0,2.088,2.911,2.114,2.911,3.21c0,1.096-2.611,0.901-3.472,0.209l-0.313,1.814c0,0,0.939,0.457,2.375,0.457
			c1.435,0,3.602-0.744,3.602-2.767c0-2.101-2.937-2.297-2.937-3.211C19.516,5.212,21.565,5.33,22.466,5.826z"/>
	</g>
	<path fill="#EF9F38" d="M9.061,8.244L8.353,4.61c0,0-0.085-0.728-0.998-0.728H4.039L4,4.019c0,0,1.594,0.33,3.123,1.568
		C8.585,6.77,9.061,8.244,9.061,8.244z"/>
</g>
</svg>
