<?xml version="1.0" encoding="utf-8"?>
<!-- Generator: Adobe Illustrator 17.0.0, SVG Export Plug-In . SVG Version: 6.00 Build 0)  -->
<!DOCTYPE svg PUBLIC "-//W3C//DTD SVG 1.1//EN" "http://www.w3.org/Graphics/SVG/1.1/DTD/svg11.dtd">
<svg version="1.1" id="图层_1" xmlns="http://www.w3.org/2000/svg" xmlns:xlink="http://www.w3.org/1999/xlink" x="0px" y="0px"
	 width="54.929px" height="16px" viewBox="0 0 54.929 16" enable-background="new 0 0 54.929 16" xml:space="preserve">
<path fill-rule="evenodd" clip-rule="evenodd" fill="#2069B6" d="M8.123,9.098H8.075L7.124,5.476H6.516l-0.89,3.622H5.579
	L4.812,5.476H4.047l1.108,4.854h0.739l0.903-3.416h0.048l0.93,3.416h0.738L9.62,5.476H8.82L8.123,9.098z M14.708,9.933
	c-0.171,0-0.41-0.014-0.629-0.109V7.585c0.274-0.151,0.472-0.226,0.746-0.226c0.458,0,0.773,0.28,0.773,1.15
	C15.598,9.618,15.215,9.933,14.708,9.933z M15.009,6.825c-0.369,0-0.718,0.144-0.924,0.253V5.127l-0.711,0.171v4.778
	c0.41,0.22,0.971,0.336,1.333,0.336c0.992,0,1.607-0.624,1.607-1.903C16.315,7.414,15.858,6.825,15.009,6.825z M10.537,8.29
	c0.075-0.685,0.396-1.006,0.813-1.006c0.369,0,0.718,0.287,0.752,1.006H10.537z M11.372,6.825c-1.026,0-1.553,0.753-1.553,1.793
	c0,1.082,0.472,1.794,1.621,1.794c0.493,0,0.903-0.137,1.211-0.315v-0.52c-0.376,0.226-0.718,0.356-1.088,0.356
	c-0.704,0-1.039-0.363-1.039-1.184h2.23V8.496C12.753,7.38,12.226,6.825,11.372,6.825z M19.461,9.303h-0.034l-1.532-3.827h-0.827
	v4.854h0.615V6.894h0.062l1.395,3.437h0.438l1.395-3.519h0.061v3.519h0.739V5.476h-0.848L19.461,9.303z M28.036,6.825
	c-0.786,0-1.436,0.321-1.744,0.507v2.998h0.711V7.619c0.212-0.123,0.561-0.247,0.835-0.247c0.348,0,0.615,0.097,0.615,0.637v2.321
	h0.711V7.852C29.165,7.146,28.857,6.825,28.036,6.825z M30.518,8.29c0.076-0.685,0.396-1.006,0.814-1.006
	c0.369,0,0.718,0.287,0.752,1.006H30.518z M31.352,6.825c-1.025,0-1.552,0.753-1.552,1.793c0,1.082,0.472,1.794,1.621,1.794
	c0.492,0,0.903-0.137,1.211-0.315v-0.52c-0.376,0.226-0.718,0.356-1.087,0.356c-0.704,0-1.04-0.363-1.04-1.184h2.23V8.496
	C32.734,7.38,32.207,6.825,31.352,6.825z M34.615,9.461h-0.041l-0.875-2.519h-0.752l1.313,3.423
	c-0.164,0.507-0.451,0.876-0.916,0.876v0.561c0.786,0,1.203-0.493,1.545-1.437l1.238-3.423h-0.732L34.615,9.461z M24.083,9.933
	c-0.485,0-0.841-0.376-0.841-1.314c0-0.925,0.389-1.315,0.841-1.315c0.465,0,0.841,0.39,0.841,1.315
	C24.925,9.557,24.569,9.933,24.083,9.933z M24.083,6.825c-0.902,0-1.559,0.595-1.559,1.793c0,1.17,0.623,1.794,1.559,1.794
	c0.937,0,1.56-0.624,1.56-1.794C25.643,7.42,24.986,6.825,24.083,6.825z M48.927,8.961l-0.963-1.07l-1.069,0.964l0.964,1.069
	L48.927,8.961z M48.013,6.699L47.05,5.63l-1.068,0.963l0.962,1.07L48.013,6.699z M44.996,4.441l0.962,1.07l1.069-0.964l-0.963-1.07
	L44.996,4.441z M48.908,6.775l0.712-0.642L48.979,5.42l-0.712,0.642L48.908,6.775z M49.819,8.895l0.712-0.642L49.89,7.539
	l-0.712,0.642L49.819,8.895z M42.382,5.132l1.282,1.427l1.426-1.284l-1.283-1.427L42.382,5.132z M45.635,12.548l-2.352-2.621
	l0.653-0.577L42.29,7.504l0.656-0.577l-1.671-1.844l2.606-2.352l0.831,0.908l1.4-1.249l0.829,0.858l0.552-0.494
	c-0.126-0.072-0.249-0.137-0.374-0.196c-0.794-0.39-1.685-0.609-2.626-0.609c-3.302,0-5.994,2.695-5.994,6c0,3.304,2.692,6,5.994,6
	c1.073,0,2.081-0.285,2.955-0.784c0.288-0.162,0.549-0.338,0.789-0.524l-1.206-1.379L45.635,12.548z M47.997,4.656l0.712-0.642
	L48.069,3.3l-0.712,0.642L47.997,4.656z M47.123,10.177L45.839,8.75l-1.425,1.285l1.284,1.427L47.123,10.177z M46.11,7.711
	l-1.284-1.427l-1.425,1.285l1.283,1.427L46.11,7.711z M47.836,11.016l0.962,1.069l1.069-0.963l-0.962-1.069L47.836,11.016z"/>
</svg>
