<?xml version="1.0" encoding="utf-8"?>
<!-- Generator: Adobe Illustrator 17.0.0, SVG Export Plug-In . SVG Version: 6.00 Build 0)  -->
<!DOCTYPE svg PUBLIC "-//W3C//DTD SVG 1.1//EN" "http://www.w3.org/Graphics/SVG/1.1/DTD/svg11.dtd">
<svg version="1.1" id="图层_1" xmlns="http://www.w3.org/2000/svg" xmlns:xlink="http://www.w3.org/1999/xlink" x="0px" y="0px"
	 width="56.137px" height="16px" viewBox="0 0 56.137 16" enable-background="new 0 0 56.137 16" xml:space="preserve">
<g>
	<g>
		<polygon fill-rule="evenodd" clip-rule="evenodd" fill="#111111" points="49.376,13.065 48.973,13.065 48.973,2.899 49.376,2.899 
			49.376,13.065 		"/>
		<polygon fill-rule="evenodd" clip-rule="evenodd" fill="#111111" points="44.51,13.035 44.106,13.035 44.106,2.868 44.51,2.868 
			44.51,13.035 		"/>
		<polygon fill-rule="evenodd" clip-rule="evenodd" fill="#111111" points="6.979,7.414 7.384,4.482 7.795,7.414 9.77,7.414 
			10.728,2.887 9.183,2.887 8.759,5.75 8.335,2.887 6.452,2.887 6.028,5.675 5.61,2.887 4,2.887 4.971,7.414 6.979,7.414 		"/>
		<polygon fill-rule="evenodd" clip-rule="evenodd" fill="#111111" points="11.503,7.414 15.435,7.414 15.435,6.236 13.455,6.236 
			13.455,5.701 15.324,5.701 15.324,4.536 13.455,4.536 13.455,4.051 15.371,4.051 15.371,2.887 11.503,2.887 11.503,7.414 		"/>
		<path fill-rule="evenodd" clip-rule="evenodd" fill="#111111" d="M16.282,5.961c-0.007,0.056-0.007,0.113-0.007,0.163
			c0,0.863,0.784,1.367,2.258,1.367c1.454,0,2.245-0.519,2.245-1.476c0-0.825-0.464-1.07-1.622-1.459
			c-0.618-0.209-0.977-0.198-0.977-0.512c0-0.171,0.109-0.293,0.367-0.293c0.306,0,0.454,0.201,0.441,0.499h1.67V4.058
			c0-0.799-0.724-1.281-2.058-1.281c-1.468,0-2.246,0.57-2.246,1.458c0,0.636,0.394,1.004,1.204,1.237
			c0.595,0.17,0.936,0.31,1.194,0.424c0.136,0.061,0.182,0.196,0.163,0.324c-0.027,0.176-0.133,0.284-0.401,0.284
			c-0.328,0-0.421-0.197-0.421-0.506V5.961H16.282L16.282,5.961z"/>
		<polygon fill-rule="evenodd" clip-rule="evenodd" fill="#111111" points="25.574,2.887 21.269,2.887 21.269,4.095 22.467,4.095 
			22.467,7.414 24.382,7.414 24.382,4.095 25.574,4.095 25.574,2.887 		"/>
		<polygon fill-rule="evenodd" clip-rule="evenodd" fill="#111111" points="26.399,7.414 30.33,7.414 30.33,6.236 28.35,6.236 
			28.35,5.701 30.2,5.701 30.2,4.536 28.35,4.536 28.35,4.051 30.265,4.051 30.265,2.887 26.399,2.887 26.399,7.414 		"/>
		<path fill-rule="evenodd" clip-rule="evenodd" fill="#111111" d="M31.529,7.414h1.884V5.801c0.063-0.007,0.126-0.007,0.174-0.007
			c0.453,0,0.52,0.165,0.592,0.656l0.048,0.333c0.028,0.202,0.084,0.41,0.146,0.63h1.912c-0.083-0.334-0.146-0.605-0.174-0.806
			l-0.062-0.484c-0.085-0.657-0.334-0.902-0.842-1.003c0.517-0.127,0.904-0.516,0.904-1.06c0-0.906-0.57-1.174-1.947-1.174h-2.635
			V7.414L31.529,7.414z M33.412,4.69V3.901c0.084-0.006,0.153-0.006,0.216-0.006c0.424,0,0.611,0.103,0.611,0.384
			c0,0.288-0.236,0.418-0.688,0.418C33.511,4.696,33.462,4.696,33.412,4.69L33.412,4.69z"/>
		<polygon fill-rule="evenodd" clip-rule="evenodd" fill="#111111" points="38.712,4.831 39.722,7.414 41.914,7.414 41.914,2.887 
			40.433,2.887 40.433,5.192 39.597,2.887 37.231,2.887 37.231,7.414 38.712,7.414 38.712,4.831 		"/>
		<polygon fill-rule="evenodd" clip-rule="evenodd" fill="#111111" points="23.727,10.234 24.737,12.818 26.928,12.818 26.928,8.29 
			25.447,8.29 25.447,10.595 24.612,8.29 22.246,8.29 22.246,12.818 23.727,12.818 23.727,10.234 		"/>
		<polygon fill-rule="evenodd" clip-rule="evenodd" fill="#111111" points="38.758,10.234 39.768,12.818 41.959,12.818 41.959,8.29 
			40.479,8.29 40.479,10.595 39.642,8.29 37.277,8.29 37.277,12.818 38.758,12.818 38.758,10.234 		"/>
		<path fill-rule="evenodd" clip-rule="evenodd" fill="#111111" d="M16.386,8.29v2.728c0,0.522,0.035,0.931,0.438,1.321
			c0.416,0.402,1.02,0.555,1.88,0.555c1.582,0,2.326-0.593,2.326-1.876V8.29h-1.881v2.797c0,0.371-0.167,0.572-0.445,0.572
			c-0.291,0-0.443-0.189-0.443-0.572V8.29H16.386L16.386,8.29z"/>
		<polygon fill-rule="evenodd" clip-rule="evenodd" fill="#111111" points="30.087,8.29 28.159,8.29 28.159,12.818 30.087,12.818 
			30.087,8.29 		"/>
		<path fill-rule="evenodd" clip-rule="evenodd" fill="#111111" d="M33.62,12.888c1.716,0,2.635-0.829,2.635-2.367
			c0-1.511-0.927-2.372-2.571-2.372c-1.66,0-2.592,0.861-2.592,2.378C31.091,12.033,32.016,12.888,33.62,12.888L33.62,12.888z
			 M33.676,9.2c0.445,0,0.551,0.392,0.551,1.25c0,0.957-0.113,1.393-0.557,1.393c-0.438,0-0.551-0.429-0.551-1.3
			C33.118,9.628,33.216,9.2,33.676,9.2L33.676,9.2z"/>
		<path fill-rule="evenodd" clip-rule="evenodd" fill="#111111" d="M51.451,2.82c-0.198,0-0.376,0.073-0.512,0.21
			c-0.144,0.146-0.224,0.334-0.224,0.529c0,0.194,0.076,0.375,0.216,0.517c0.141,0.143,0.324,0.221,0.52,0.221
			c0.194,0,0.38-0.078,0.526-0.219c0.139-0.135,0.215-0.317,0.215-0.519c0-0.197-0.079-0.381-0.214-0.518
			C51.837,2.897,51.653,2.82,51.451,2.82L51.451,2.82z M52.094,3.566c0,0.17-0.067,0.329-0.187,0.445
			C51.78,4.135,51.622,4.2,51.447,4.2c-0.164,0-0.325-0.068-0.447-0.191c-0.122-0.124-0.189-0.281-0.189-0.449
			c0-0.169,0.07-0.333,0.195-0.46c0.116-0.118,0.274-0.183,0.446-0.183c0.178,0,0.335,0.065,0.459,0.191
			C52.03,3.227,52.094,3.387,52.094,3.566L52.094,3.566z M51.472,3.127h-0.315v0.837h0.157V3.607h0.156l0.17,0.357h0.177
			L51.63,3.582c0.121-0.024,0.19-0.107,0.19-0.226C51.821,3.204,51.706,3.127,51.472,3.127L51.472,3.127z M51.443,3.23
			c0.148,0,0.216,0.041,0.216,0.143c0,0.098-0.068,0.133-0.212,0.133h-0.133V3.23H51.443L51.443,3.23z"/>
	</g>
</g>
</svg>
