<?xml version="1.0" encoding="utf-8"?>
<!-- Generator: Adobe Illustrator 17.0.0, SVG Export Plug-In . SVG Version: 6.00 Build 0)  -->
<!DOCTYPE svg PUBLIC "-//W3C//DTD SVG 1.1//EN" "http://www.w3.org/Graphics/SVG/1.1/DTD/svg11.dtd">
<svg version="1.1" id="图层_1" xmlns="http://www.w3.org/2000/svg" xmlns:xlink="http://www.w3.org/1999/xlink" x="0px" y="0px"
	 width="66.586px" height="16px" viewBox="0 0 66.586 16" enable-background="new 0 0 66.586 16" xml:space="preserve">
<g>
	<path fill="#929292" d="M20.448,11.048l-1.106-4.562l-1.267,4.562h-1.267l-1.625-4.987c-0.045-0.139-0.103-0.162-0.242-0.196
		l-0.495-0.104l0.139-0.633H16.9v0.633l-0.737,0.092l1.29,4.136l1.324-4.689h1.209l1.118,4.678l1.278-4.125l-0.748-0.092
		l0.125-0.633h2.178v0.633l-0.414,0.07c-0.196,0.034-0.242,0.08-0.288,0.231l-1.555,4.987H20.448z"/>
	<path fill="#929292" d="M28.518,8.065c0-1.51-0.553-2.177-1.67-2.177c-1.128,0-1.785,0.667-1.785,2.188
		c0,1.533,0.587,2.27,1.728,2.27C27.908,10.346,28.518,9.643,28.518,8.065 M23.98,8.065c0-1.809,0.922-3.052,2.892-3.052
		s2.73,1.256,2.73,2.983c0,1.934-0.876,3.189-2.845,3.189C24.753,11.186,23.98,9.896,23.98,8.065"/>
	<path fill="#929292" d="M30.138,11.048v-0.634l0.575-0.069c0.162-0.023,0.185-0.058,0.185-0.231V6.198
		c0-0.126-0.034-0.207-0.15-0.242l-0.656-0.22l0.103-0.609h1.508l0.115,0.795l0.036,0.011c0.38-0.427,0.944-0.921,1.726-0.921
		c0.266,0,0.623,0.045,0.83,0.103v1.74l-0.818-0.034l-0.139-0.796c-0.011-0.092-0.034-0.115-0.137-0.115
		c-0.519,0-1.106,0.473-1.371,0.726v3.467c0,0.185,0.011,0.22,0.184,0.231l1.059,0.092v0.623H30.138z"/>
	<path fill="#929292" d="M34.757,11.048v-0.634l0.715-0.069c0.161-0.012,0.184-0.058,0.184-0.231V3.422
		c0-0.126-0.034-0.207-0.15-0.242l-0.692-0.218l0.104-0.611h1.785v7.763c0,0.184,0.011,0.207,0.184,0.231l0.692,0.08v0.623H34.757z"
		/>
	<path fill="#929292" d="M42.049,6.498c-0.346-0.288-0.967-0.622-1.58-0.622c-1.081,0-1.508,0.944-1.508,2.315
		c0,1.6,0.542,2.119,1.348,2.119c0.679,0,1.232-0.449,1.74-0.955V6.498z M42.244,11.048l-0.092-0.76l-0.047-0.012
		c-0.53,0.506-1.128,0.91-2.027,0.91c-1.312,0-2.177-0.852-2.177-2.971c0-2.268,1.025-3.202,2.407-3.202
		c0.692,0,1.313,0.231,1.762,0.553V3.411c0-0.115-0.045-0.196-0.15-0.231l-0.69-0.218l0.103-0.611h1.762v7.763
		c0,0.184,0.012,0.207,0.185,0.231l0.587,0.08v0.623H42.244z"/>
	<path fill="#F01E14" d="M46.267,9.574c0.393,0.38,0.968,0.748,1.577,0.748c1.095,0,1.51-0.91,1.51-2.362
		c0-1.566-0.609-2.061-1.324-2.061c-0.737,0-1.427,0.449-1.762,0.714V9.574z M44.563,13.49v-0.634l0.472-0.069
		c0.162-0.023,0.195-0.058,0.195-0.231V6.198c0-0.126-0.033-0.207-0.148-0.242l-0.657-0.22l0.103-0.609h1.521l0.104,0.667
		l0.036,0.012c0.633-0.472,1.278-0.795,2.061-0.795c1.289,0,2.166,0.829,2.166,2.856c0,1.728-0.587,3.317-2.396,3.317
		c-0.657,0-1.21-0.161-1.751-0.634v1.994c0,0.184,0.012,0.218,0.184,0.229l1.083,0.093v0.622H44.563z"/>
	<path fill="#F01E14" d="M54.636,8.398l-1.301,0.115c-0.989,0.092-1.267,0.38-1.267,0.98c0,0.622,0.265,0.874,0.806,0.874
		c0.681,0,1.405-0.552,1.762-0.887V8.398z M54.833,11.048l-0.104-0.749l-0.034-0.011c-0.552,0.517-1.197,0.898-2.085,0.898
		c-1.44,0-1.623-0.989-1.623-1.577c0-1.153,0.714-1.693,2.096-1.809l1.555-0.128V7.063c0-0.841-0.161-1.256-1.162-1.256
		c-0.703,0-1.21,0.023-1.221,0.887l-0.991-0.103c0-1.418,1.313-1.578,2.223-1.578c1.636,0,2.189,0.46,2.189,2.05v3.052
		c0,0.184,0.011,0.207,0.184,0.231l0.587,0.08v0.623H54.833z"/>
	<path fill="#F01E14" d="M57.103,13.49v-0.634l0.829-0.103c0.139-0.012,0.185-0.081,0.254-0.243l0.668-1.532l-2.074-4.906
		c-0.058-0.139-0.103-0.162-0.242-0.196l-0.472-0.115l0.137-0.633h2.385v0.633l-0.76,0.092l1.532,3.87l1.6-3.87l-0.782-0.092
		l0.126-0.633h2.281v0.633l-0.391,0.058c-0.139,0.023-0.231,0.07-0.288,0.196l-2.8,6.738c0,0-0.134,0.314-0.191,0.452
		c-0.069,0.162-0.231,0.285-0.46,0.285H57.103z"/>
	<path fill="#F01E14" d="M11.926,10.632c-0.08,0.121-0.17,0.239-0.269,0.353c-0.221,0.254-0.482,0.486-0.775,0.688
		c-0.362,0.25-0.745,0.447-1.14,0.586c-0.34,0.119-0.638,0.181-0.911,0.191H8.825c-0.03,0.001-0.063,0.003-0.099,0.003
		c-0.128,0-0.22-0.018-0.28-0.051L8.42,12.383c-0.008-0.007-0.016-0.014-0.022-0.021c-0.003-0.004-0.004-0.008-0.007-0.012
		c-0.003-0.018,0-0.036,0.007-0.06c0.027-0.064,0.07-0.122,0.119-0.18l0.004-0.004H8.52c0.018-0.019,0.036-0.038,0.054-0.059
		c0.199-0.052,0.399-0.114,0.612-0.188c0.202,0.044,0.402,0.056,0.589,0.034c0.233-0.026,0.454-0.095,0.656-0.202
		c0.236-0.125,0.449-0.301,0.611-0.508c0.11-0.14,0.199-0.294,0.263-0.46c0.361-0.279,0.653-0.56,0.896-0.858
		c0.043-0.054,0.084-0.106,0.122-0.158C12.257,10.021,12.124,10.331,11.926,10.632 M10.579,11.212
		c0.073-0.043,0.147-0.086,0.22-0.134c-0.107,0.132-0.233,0.248-0.373,0.342c-0.18,0.121-0.373,0.206-0.576,0.251
		c-0.086,0.019-0.174,0.03-0.262,0.036C9.928,11.566,10.262,11.4,10.579,11.212 M12.978,7.923c-0.001-0.376-0.097-0.752-0.276-1.087
		c-0.162-0.305-0.39-0.59-0.679-0.847c-0.069-0.35-0.248-0.689-0.521-0.98C11.283,4.776,11,4.565,10.661,4.383
		c-0.266-0.141-0.554-0.258-0.858-0.347C9.548,3.961,9.301,3.911,9.065,3.888C8.847,3.866,8.659,3.87,8.486,3.898
		C8.321,3.924,8.159,3.979,8.015,4.053L7.988,4.066c-0.195-0.019-0.39-0.023-0.574-0.012L7.356,4.057
		C7.17,4.069,6.797,4.123,6.814,4.308c0,0,0.003,0.103,0.236,0.178c0.125-0.074,0.198-0.119,0.322-0.199
		C7.348,4.282,7.324,4.279,7.297,4.274c0.107-0.018,0.209-0.026,0.294-0.032c0.025-0.001,0.049-0.004,0.071-0.004
		C7.643,4.249,7.621,4.263,7.601,4.275L7.488,4.346C7.295,4.47,7.229,4.512,7.022,4.63C6.897,4.707,6.77,4.783,6.643,4.854
		C6.4,4.99,6.146,5.122,5.887,5.247C5.684,5.344,5.461,5.444,5.188,5.559l-0.022,0.01C5.103,5.597,5.039,5.623,4.975,5.651
		L4.962,5.657c-0.067,0.03-0.145,0.065-0.189,0.141L4.757,5.85L4.76,5.893l0.005,0.019C4.77,5.923,4.774,5.933,4.778,5.944
		l0.034,0.041l0.043,0.029c0.004,0.003,0.01,0.005,0.016,0.007C4.914,6.033,4.96,6.037,5.018,6.037c0.033,0,0.066-0.001,0.099-0.003
		l0.144-0.007C5.35,6.023,5.439,6.019,5.527,6.015c0.428-0.016,0.83-0.016,1.206,0C7.1,6.03,7.469,6.062,7.829,6.108
		c0.183,0.023,0.365,0.052,0.545,0.085c0.115-0.099,0.207-0.187,0.277-0.259C8.275,5.86,7.896,5.802,7.521,5.764
		c-0.382-0.038-0.782-0.06-1.19-0.067c-0.049,0-0.097,0-0.147,0c-0.199,0-0.401,0.005-0.598,0.011
		c0.195-0.091,0.372-0.178,0.535-0.265c0.25-0.133,0.501-0.277,0.744-0.427c0.187-0.115,0.38-0.246,0.608-0.409l0.033-0.023
		c0.266,0.049,0.579,0.108,0.898,0.174C8.631,4.805,8.856,4.86,9.075,4.917C8.979,4.688,8.708,4.559,8.552,4.5
		C8.334,4.456,8.099,4.412,7.823,4.364c0.071-0.047,0.136-0.088,0.199-0.124C8.239,4.268,8.428,4.312,8.6,4.378
		c0.129,0.049,0.237,0.108,0.328,0.174c0.018,0.014,0.036,0.027,0.051,0.04c0.003,0.001,0.003,0.003,0.004,0.003
		c0.162,0.134,0.248,0.296,0.255,0.476c0.01,0.144-0.026,0.302-0.104,0.462C9.09,5.624,9.032,5.715,8.963,5.807
		C8.944,5.835,8.83,5.999,8.572,6.232h0.001C8.321,6.462,8.019,6.681,7.656,6.895C7.531,6.969,7.403,7.039,7.28,7.103
		c-0.154,0.078-0.31,0.152-0.447,0.214c-0.211,0.099-0.565,0.247-1.01,0.38c-0.233,0.071-0.458,0.13-0.679,0.174
		C4.966,7.906,4.759,7.943,4.547,7.95c0.236-0.108,0.5-0.166,0.773-0.214c0.526-0.124,0.965-0.292,1.263-0.423
		c-0.273,0-0.556,0.012-0.843,0.043C5.265,7.403,4.885,7.478,4.543,7.593c-0.192,0.065-0.457,0.17-0.53,0.338
		C3.987,7.994,3.99,8.059,4.02,8.124c0.048,0.1,0.162,0.163,0.328,0.181c0.133,0.016,0.274,0.014,0.469-0.007
		C5.169,8.262,5.549,8.177,5.98,8.038c0.375-0.121,0.727-0.259,1.047-0.409c0.366,0.015,0.731,0.058,1.087,0.124
		c0.379,0.07,0.712,0.161,1.022,0.276C9.492,8.16,9.79,8.306,10.044,8.469c0.092-0.066,0.173-0.129,0.239-0.183
		c-0.007-0.004-0.014-0.01-0.021-0.015c-0.32-0.213-0.683-0.392-1.08-0.535C8.851,7.617,8.5,7.523,8.104,7.451
		C7.92,7.415,7.732,7.387,7.544,7.367C7.856,7.197,8.13,7.02,8.38,6.83c0.224-0.169,0.412-0.336,0.576-0.512
		c0.451,0.114,0.821,0.235,1.161,0.377c0.409,0.172,0.758,0.364,1.064,0.585l0.025,0.018c0.066-0.097,0.119-0.199,0.158-0.281
		c-0.272-0.192-0.576-0.366-0.911-0.519C10.081,6.329,9.68,6.189,9.227,6.067C9.211,6.063,9.194,6.059,9.178,6.055
		c0.2-0.27,0.316-0.535,0.34-0.788c0.007-0.075,0.007-0.151-0.003-0.225c0.386,0.118,0.752,0.259,1.094,0.421
		c0.34,0.161,0.63,0.333,0.884,0.524c0.005,0.004,0.01,0.008,0.015,0.011c-0.063-0.279-0.207-0.48-0.285-0.574
		c-0.159-0.091-0.329-0.176-0.515-0.259c-0.32-0.145-0.663-0.272-1.048-0.388C9.576,4.751,9.493,4.728,9.41,4.705L9.399,4.702
		C9.279,4.497,9.094,4.37,8.957,4.3C8.795,4.215,8.615,4.154,8.409,4.116c0.085-0.015,0.176-0.023,0.268-0.025h0.022
		c0.084,0,0.174,0.005,0.266,0.016c0.021,0.003,0.04,0.004,0.06,0.007c0.218,0.03,0.443,0.084,0.69,0.165
		c0.287,0.093,0.559,0.211,0.804,0.351c0.303,0.172,0.556,0.372,0.751,0.593c0.07,0.08,0.13,0.161,0.183,0.242
		c0.01,0.016,0.021,0.033,0.03,0.049c0.003,0.004,0.005,0.008,0.007,0.012c0.092,0.154,0.181,0.364,0.203,0.62
		c0,0.001,0,0.001,0.001,0.001c0.027,0.268-0.027,0.524-0.103,0.733c-0.004,0.014-0.103,0.305-0.294,0.564
		C11.11,7.724,10.867,7.991,10.56,8.26c-0.071,0.065-0.265,0.233-0.535,0.417V8.676C9.762,8.859,9.485,9.03,9.193,9.185
		C8.979,9.298,8.744,9.41,8.456,9.535C8.343,9.585,8.173,9.655,7.974,9.723C7.66,9.837,7.343,9.933,7.03,10.01
		c-0.458,0.111-0.87,0.174-1.26,0.194c-0.155,0.01-0.306,0.008-0.451-0.001c-0.215-0.015-0.434-0.045-0.565-0.158
		c-0.008-0.008-0.015-0.018-0.021-0.026c-0.001-0.004-0.003-0.007-0.003-0.01c0-0.005,0-0.011,0-0.015
		c0.023-0.074,0.096-0.134,0.156-0.178c0.089-0.064,0.195-0.122,0.325-0.176c0.302-0.122,0.642-0.198,1.042-0.231
		C6.624,9.377,7,9.391,7.359,9.449c0.189,0.03,0.371,0.074,0.545,0.129c0.134-0.045,0.258-0.093,0.358-0.134
		C8.037,9.344,7.79,9.268,7.523,9.213C7.153,9.137,6.761,9.104,6.368,9.119C5.955,9.133,5.577,9.195,5.242,9.302
		C4.966,9.39,4.66,9.512,4.48,9.745c-0.082,0.106-0.114,0.224-0.097,0.35c0.021,0.158,0.163,0.265,0.222,0.303
		c0.173,0.111,0.38,0.152,0.521,0.174c0.156,0.025,0.324,0.037,0.511,0.037c0.029,0,0.058,0,0.086-0.001
		C6.108,10.601,6.512,10.549,7,10.442c0.402-0.088,0.828-0.215,1.263-0.38c0.122-0.047,0.244-0.096,0.361-0.147
		c0.193,0.134,0.338,0.281,0.43,0.436c0.089,0.151,0.132,0.306,0.129,0.46c-0.004,0.139-0.044,0.283-0.122,0.424
		c-0.018,0.034-0.04,0.067-0.062,0.102c0.088-0.032,0.18-0.067,0.272-0.106c0.015-0.029,0.027-0.056,0.038-0.084
		c0.07-0.173,0.095-0.355,0.069-0.527c-0.029-0.199-0.118-0.394-0.257-0.565c-0.071-0.088-0.155-0.172-0.248-0.25
		c0.421-0.195,0.795-0.399,1.138-0.623c0.172-0.114,0.339-0.232,0.497-0.355c0.269,0.253,0.456,0.53,0.557,0.823
		c0.054,0.156,0.081,0.32,0.081,0.48c0.102-0.085,0.191-0.17,0.258-0.237c-0.032-0.232-0.11-0.464-0.232-0.682
		c-0.108-0.192-0.258-0.382-0.443-0.564c0.36-0.306,0.641-0.613,0.859-0.937c0.012-0.019,0.025-0.038,0.036-0.056
		c0.269,0.266,0.467,0.55,0.586,0.843l0.003,0.008c0.023,0.056,0.044,0.115,0.062,0.173c0.086-0.215,0.128-0.392,0.145-0.512
		c-0.11-0.206-0.246-0.401-0.409-0.583c-0.067-0.074-0.14-0.147-0.22-0.221c0.15-0.295,0.237-0.585,0.259-0.862
		c0.07,0.081,0.13,0.161,0.184,0.239c0.199,0.299,0.321,0.618,0.353,0.921c0.012,0.114,0.014,0.226,0.008,0.34
		c0,0.01,0.001,0.125-0.04,0.314c-0.007,0.03-0.014,0.062-0.021,0.093c-0.001-0.001-0.001-0.001-0.001-0.003
		c-0.038,0.147-0.099,0.325-0.198,0.527c0.001,0.001,0.001,0.001,0.001,0.001c-0.008,0.016-0.018,0.034-0.027,0.051
		C12.3,9.001,12.29,9.018,12.282,9.036H12.28c-0.172,0.314-0.41,0.623-0.712,0.924c-0.04,0.038-0.081,0.077-0.125,0.118
		c-0.11,0.106-0.257,0.235-0.41,0.342c-0.287,0.22-0.597,0.42-0.926,0.597c-0.254,0.136-0.517,0.258-0.789,0.368
		c-0.294,0.124-0.57,0.21-0.779,0.268c0.001,0,0.001,0,0.001,0c-0.39,0.111-0.774,0.185-1.145,0.218
		c-0.336,0.032-0.601,0.026-0.848-0.012c-0.156-0.025-0.281-0.065-0.379-0.122c-0.026-0.018-0.049-0.037-0.066-0.054
		c-0.005-0.01-0.011-0.018-0.015-0.027c-0.001-0.004-0.001-0.008-0.003-0.014c0.001-0.005,0.003-0.011,0.003-0.016
		c0.054-0.128,0.226-0.195,0.388-0.244c0.163-0.049,0.349-0.074,0.567-0.074h0.026c0.194,0.001,0.398,0.026,0.608,0.073
		c0.198,0.044,0.388,0.106,0.565,0.166c0.01,0.003,0.019,0.007,0.029,0.011c0.075-0.018,0.174-0.043,0.291-0.077
		c-0.015-0.007-0.032-0.012-0.047-0.019c-0.078-0.033-0.155-0.065-0.233-0.096c-0.22-0.088-0.405-0.15-0.585-0.195
		c-0.222-0.056-0.442-0.088-0.65-0.096c-0.224-0.008-0.445,0.012-0.652,0.063c-0.221,0.054-0.387,0.139-0.493,0.253
		c-0.078,0.084-0.118,0.188-0.113,0.292c0.005,0.107,0.058,0.211,0.148,0.29c0.242,0.213,0.615,0.261,0.914,0.279
		c0.377,0.023,0.79-0.007,1.23-0.091c0.056-0.011,0.113-0.022,0.17-0.034c-0.045,0.062-0.08,0.13-0.085,0.206
		c-0.01,0.121,0.055,0.231,0.18,0.302c0.118,0.069,0.276,0.102,0.482,0.102c0.041,0,0.082-0.001,0.122-0.004
		c0.324-0.015,0.668-0.091,1.054-0.232c0.376-0.137,0.738-0.324,1.076-0.554c0.307-0.21,0.587-0.456,0.832-0.729
		c0.257-0.285,0.457-0.6,0.597-0.932c0.139-0.332,0.209-0.693,0.202-1.044c-0.001-0.051-0.004-0.102-0.01-0.152
		C12.887,8.693,12.98,8.301,12.978,7.923"/>
</g>
</svg>
