<?xml version="1.0" encoding="utf-8"?><!DOCTYPE svg PUBLIC "-//W3C//DTD SVG 1.1//EN" "http://www.w3.org/Graphics/SVG/1.1/DTD/svg11.dtd"><svg width="480" height="384" viewBox="0 0 480 384" xmlns="http://www.w3.org/2000/svg" xmlns:xlink="http://www.w3.org/1999/xlink"><svg width="96" height="96" viewBox="0 0 96 96" id="a-and-v-checked" x="96" xmlns="http://www.w3.org/2000/svg"><path fill="#F2B211" d="M86.782 53.156L74.315 65.661l-.012.012a7.918 7.918 0 0 1-3.417 2.028 8.07 8.07 0 0 1-8.029-2.042l-14.91-14.902-3.442 3.441a7.788 7.788 0 0 1-2.186 1.557 7.845 7.845 0 0 1-1.244.483 8.242 8.242 0 0 1-2.294.326c-.471 0-.942-.049-1.413-.121a7.9 7.9 0 0 1-1.558-.423 7.747 7.747 0 0 1-1.437-.749 9.143 9.143 0 0 1-1.316-1.075h-.012l-1.014-1.244 9.046-9.066 6.847-6.845.024-.024v-.012a4.86 4.86 0 0 1 6.87.001l3.441 3.442 7.899-7.92 20.624 20.628z"/><path fill="#FACE32" d="M74.303 65.673L58.241 81.73a14.446 14.446 0 0 1-10.24 4.248 14.484 14.484 0 0 1-10.082-4.083L9.227 53.156l20.622-20.63 7.788 7.928 3.442-3.44a4.824 4.824 0 0 1 6.858.001l-.012.012v.012l-6.847 6.845-9.046 9.066 1.014 1.244h.012c.41.411.857.761 1.316 1.075.459.302.942.556 1.437.749a7.863 7.863 0 0 0 1.558.423c.471.085.942.121 1.413.121a8.2 8.2 0 0 0 2.294-.326c.423-.121.845-.29 1.244-.483a7.788 7.788 0 0 0 2.186-1.557l3.442-3.429L58.33 61.153l4.515 4.517a8.052 8.052 0 0 0 8.041 2.03 7.911 7.911 0 0 0 3.417-2.027z"/><path fill="#4F74B3" d="M29.85 32.522L9.23 53.152l-6.896-6.918A8.001 8.001 0 0 1 0 40.585V12.022a2 2 0 0 1 2-2h3.74c1.063 0 2.077.418 2.828 1.171 7.77 7.79 21.282 21.329 21.282 21.329zM96 12.022v28.574a8 8 0 0 1-2.334 5.648l-6.886 6.908-20.62-20.63s13.51-13.537 21.272-21.328a3.988 3.988 0 0 1 2.829-1.172H94a2 2 0 0 1 2 2z"/></svg><svg width="96" height="96" viewBox="0 0 96 96" id="assessed-supplier" x="288" y="96" xmlns="http://www.w3.org/2000/svg"><circle fill="#5375BD" cx="48" cy="48" r="48"/><circle fill="#FFF" cx="48" cy="48" r="44"/><g fill="#5375BD"><path d="M18.222 69.22s.298-1.364 0-2.928c-.45-2.364-1.585-3.624-3.146-6.061-1.529-2.387-2.033-4.975-2.033-4.975s-.646 5.892.787 8.445c1.769 3.155 4.392 5.519 4.392 5.519z"/><path d="M18.449 73.949c3.155 1.689 7.317 1.013 7.317 1.013s-.452-.365-1.353-1.48c-1.182-1.464-1.546-3.296-2.053-5.999-.507-2.702-4.138-6.596-4.138-6.596 1.013 1.689 1.915 4.279 2.066 7.521.095 2.027.639 3.229.639 3.229s-1.297.115-4.113-1.658C13.443 67.858 12 64.576 12 64.576s.76 3.209 1.689 4.645c.929 1.435 1.605 3.039 4.76 4.728z"/><path d="M37.542 77.818s-.798.016-2.15-.322c-1.351-.338-2.42-.831-4.729-2.4-3.096-2.105-5.743-5.876-5.743-5.876s.4 2.308 1.711 4.335c1.312 2.027 2.849 3.434 2.849 3.434s-2.027 1.014-6.587.676c-4.56-.338-7.172-2.871-7.172-2.871s.918 1.911 3.963 3.547c1.706.916 4.336 2.252 8.896 2.252 5.18-.001 8.962-2.775 8.962-2.775zM77.779 69.22s2.622-2.365 4.392-5.518c1.433-2.552.787-8.445.787-8.445s-.504 2.588-2.033 4.975c-1.561 2.437-2.696 3.696-3.146 6.061a8.121 8.121 0 0 0 0 2.927z"/><path d="M79.186 69.98c-2.816 1.774-4.113 1.658-4.113 1.658s.544-1.202.639-3.229c.152-3.243 1.053-5.832 2.066-7.521 0 0-3.631 3.894-4.138 6.596-.507 2.703-.871 4.535-2.053 5.999-.9 1.115-1.353 1.48-1.353 1.48s4.162.676 7.317-1.013c3.155-1.689 3.831-3.294 4.76-4.729C83.24 67.785 84 64.576 84 64.576s-1.443 3.282-4.814 5.404z"/><path d="M66.519 76.99s1.537-1.407 2.849-3.434c1.311-2.027 1.711-4.335 1.711-4.335s-2.647 3.772-5.743 5.876c-2.309 1.569-3.378 2.062-4.729 2.4-1.351.338-2.15.322-2.15.322s3.782 2.774 8.961 2.774c4.56 0 7.19-1.335 8.896-2.252 3.045-1.636 3.963-3.547 3.963-3.547s-2.612 2.533-7.172 2.871c-4.559.338-6.586-.675-6.586-.675z"/><path d="M65.506 82.31c-3.716-1.013-5.451-2.248-7.753-3.12-3.282-1.243-5.674-.934-7.025-.849-1.351.084-2.702.38-2.702.38h-.049s-1.351-.295-2.702-.38c-1.351-.084-3.744-.394-7.025.849-2.303.871-4.038 2.107-7.754 3.12-3.716 1.013-7.432-.844-7.432-.844s1.418 1.681 1.944 2.093c1.135.887 2.659 1.693 5.938 1.482 4.004-.257 6.516-2.224 9.261-3.955 2.745-1.731 4.687-1.267 4.687-1.267s-1.478.591-3.505 2.238-4.18 3.842-4.18 3.842l1.689 1.52s2.956-3.42 4.856-4.806c1.9-1.387 4.223-2.541 4.223-2.541h.049s2.322 1.154 4.222 2.541c1.9 1.386 4.856 4.806 4.856 4.806l1.689-1.52s-2.153-2.196-4.18-3.842c-2.027-1.647-3.505-2.238-3.505-2.238s1.942-.464 4.687 1.267c2.744 1.731 5.256 3.698 9.26 3.955 3.279.211 4.804-.595 5.939-1.482.526-.412 1.944-2.093 1.944-2.093s-3.717 1.857-7.432.844z"/></g><g fill="#5375BD"><path d="M14.551 43.919l-.228 3.021 1.769.769-.106 1.408-7.576-3.533.092-1.216 8.02-2.364-.105 1.414-1.866.501zm-1.291 2.558l.17-2.26-3.32.887 3.15 1.373zM15.958 36.913c-.151-.044-.293-.062-.425-.052s-.265.06-.398.149a2.122 2.122 0 0 0-.43.405 7.94 7.94 0 0 0-.521.718 8.02 8.02 0 0 1-.656.882c-.226.263-.462.476-.708.641s-.506.274-.779.328a1.795 1.795 0 0 1-.869-.053 1.892 1.892 0 0 1-.778-.438c-.216-.203-.383-.449-.5-.737s-.179-.61-.187-.967.047-.732.163-1.128c.124-.422.296-.784.517-1.085s.47-.537.748-.707a2.234 2.234 0 0 1 1.823-.246l-.381 1.299a1.474 1.474 0 0 0-.527-.062 1.08 1.08 0 0 0-.473.145 1.26 1.26 0 0 0-.391.366 2.023 2.023 0 0 0-.278.607 2.16 2.16 0 0 0-.099.62c.003.184.033.345.094.483a.9.9 0 0 0 .257.345c.112.09.241.157.39.2.278.082.549.019.812-.19.262-.208.552-.559.868-1.052.247-.387.492-.712.734-.978.241-.265.487-.472.738-.62s.51-.237.778-.267c.268-.03.551-.001.851.087.315.093.582.238.798.438.215.199.378.44.486.725.109.284.163.604.16.962a4.13 4.13 0 0 1-.182 1.145 4.053 4.053 0 0 1-.46 1.023c-.2.322-.44.594-.72.813a2.402 2.402 0 0 1-.937.456c-.346.083-.718.066-1.116-.05l.383-1.305c.237.069.453.088.647.053.195-.034.368-.108.519-.223.151-.114.281-.264.39-.448s.196-.393.264-.622c.133-.454.141-.822.023-1.104a.932.932 0 0 0-.628-.556zM18.801 30.744c-.14-.073-.274-.118-.405-.135s-.271.005-.421.065a2.18 2.18 0 0 0-.502.312 7.58 7.58 0 0 0-.654.599 7.968 7.968 0 0 1-.818.733c-.274.212-.548.374-.822.486s-.551.168-.829.166a1.794 1.794 0 0 1-.841-.226 1.9 1.9 0 0 1-.675-.585 2.052 2.052 0 0 1-.343-.822 2.675 2.675 0 0 1 .01-.984c.064-.351.192-.709.385-1.072.206-.39.447-.71.724-.961s.567-.432.873-.543a2.225 2.225 0 0 1 1.837.123l-.633 1.196a1.464 1.464 0 0 0-.504-.166 1.096 1.096 0 0 0-.493.046 1.248 1.248 0 0 0-.455.282 2.018 2.018 0 0 0-.395.539 2.126 2.126 0 0 0-.22.588 1.257 1.257 0 0 0-.005.492c.03.148.092.278.183.389.092.111.205.203.342.274.256.136.534.128.833-.024.299-.151.652-.438 1.061-.857.32-.329.625-.6.915-.811.289-.211.572-.365.848-.46.274-.096.547-.131.815-.106s.54.109.815.255a1.892 1.892 0 0 1 1.027 1.397c.05.3.038.624-.035.975a4.17 4.17 0 0 1-.407 1.085c-.175.332-.394.636-.654.911s-.55.493-.868.653c-.317.16-.653.247-1.009.26-.354.013-.716-.078-1.083-.272l.635-1.201c.219.115.427.176.624.182.198.005.382-.033.553-.115s.328-.202.471-.362a2.71 2.71 0 0 0 .383-.557c.221-.418.302-.777.244-1.077s-.228-.524-.507-.672zM21.958 23.957l-2.019 2.499 1.872 1.512 2.359-2.92.844.682-3.213 3.978-6.084-4.914 3.189-3.949.853.689-2.336 2.891 1.68 1.357 2.019-2.499.836.674zM27.486 20.945a1.21 1.21 0 0 0-.324-.277c-.115-.064-.254-.097-.415-.097s-.355.033-.583.1c-.227.067-.504.17-.831.31a8.105 8.105 0 0 1-1.034.371 3.53 3.53 0 0 1-.944.142 2.142 2.142 0 0 1-.831-.158 1.792 1.792 0 0 1-.694-.525c-.202-.241-.338-.506-.405-.795s-.07-.587-.009-.892c.062-.305.188-.607.38-.908s.444-.584.76-.85a3.465 3.465 0 0 1 1.031-.617 2.665 2.665 0 0 1 1.015-.176 2.234 2.234 0 0 1 1.655.806l-1.036.87c-.122-.145-.258-.26-.405-.344s-.306-.131-.474-.142-.344.019-.528.09c-.184.07-.373.188-.567.351a2.136 2.136 0 0 0-.426.463c-.1.153-.163.305-.189.454a.886.886 0 0 0 .023.429c.043.138.114.265.213.383.187.222.447.318.781.291.334-.028.77-.16 1.306-.396.42-.185.804-.32 1.152-.407.348-.086.667-.122.958-.107.291.016.557.085.796.208.24.124.46.305.66.544.212.252.353.521.422.807.069.285.071.576.005.873s-.2.593-.399.89c-.2.297-.462.581-.785.853a4.157 4.157 0 0 1-.949.599c-.346.156-.695.25-1.05.278-.354.029-.698-.017-1.032-.139s-.635-.342-.902-.659l1.041-.875c.158.189.329.323.51.402.182.08.366.113.556.102.189-.011.38-.063.572-.158.192-.094.38-.218.563-.372.362-.304.572-.605.632-.906a.945.945 0 0 0-.219-.816zM33.274 17.369a1.172 1.172 0 0 0-.263-.337.83.83 0 0 0-.388-.177 2.133 2.133 0 0 0-.591-.018 7.954 7.954 0 0 0-.876.138c-.38.081-.742.134-1.088.159a3.55 3.55 0 0 1-.953-.05c-.291-.058-.552-.164-.783-.319s-.423-.372-.576-.652c-.15-.276-.23-.563-.239-.86s.047-.589.168-.875.306-.558.553-.815c.247-.257.552-.483.913-.681a3.461 3.461 0 0 1 1.134-.401 2.663 2.663 0 0 1 1.028.03 2.23 2.23 0 0 1 1.463 1.117l-1.188.647c-.091-.166-.2-.306-.328-.417s-.273-.189-.437-.233a1.252 1.252 0 0 0-.535-.018c-.194.033-.403.11-.626.231a2.138 2.138 0 0 0-.509.369c-.129.132-.221.268-.276.408s-.076.282-.062.425.059.282.132.417c.14.255.375.401.708.44.333.038.786-.005 1.358-.129a7.347 7.347 0 0 1 1.21-.171c.358-.016.679.013.961.085.282.073.528.193.739.362.21.169.39.39.539.663.157.289.242.581.253.875.012.293-.045.579-.169.856s-.313.542-.568.793a4.142 4.142 0 0 1-.938.68c-.33.18-.68.312-1.049.397-.37.086-.731.107-1.084.065a2.39 2.39 0 0 1-.984-.341c-.304-.186-.554-.461-.753-.826l1.193-.65c.118.217.258.383.42.496s.337.184.524.21.385.013.592-.042c.207-.054.416-.138.627-.253.415-.226.681-.48.799-.763a.922.922 0 0 0-.051-.835zM39.656 13.462l-3.063.963.722 2.296 3.581-1.127.325 1.035-4.877 1.534-2.346-7.46 4.842-1.522.328 1.045-3.545 1.115.647 2.06 3.063-.964.323 1.025zM42.056 16.456l-.803-7.778 2.298-.237a3.74 3.74 0 0 1 1.45.115c.447.13.842.341 1.184.631.341.291.62.655.839 1.094.218.438.355.938.414 1.501l.039.385c.059.563.026 1.08-.096 1.552a3.303 3.303 0 0 1-.602 1.236c-.279.353-.629.64-1.051.859s-.902.357-1.439.413l-2.233.229zm.661-6.828l.579 5.61.882-.092a2.43 2.43 0 0 0 .948-.278c.266-.147.479-.344.639-.587s.27-.531.329-.865.068-.704.026-1.109l-.041-.396c-.087-.845-.337-1.47-.75-1.878-.413-.407-.968-.575-1.666-.503l-.946.098zM56.055 14.87c.029-.154.032-.297.01-.427a.827.827 0 0 0-.188-.383 2.109 2.109 0 0 0-.446-.388 7.658 7.658 0 0 0-.765-.448c-.346-.179-.659-.367-.942-.566s-.519-.413-.707-.643a2.153 2.153 0 0 1-.403-.743 1.818 1.818 0 0 1-.032-.869c.059-.31.179-.583.36-.818s.409-.425.685-.569c.275-.146.59-.238.944-.281a3.76 3.76 0 0 1 1.138.052c.433.082.81.218 1.131.408s.58.415.777.675a2.251 2.251 0 0 1 .424 1.791l-1.33-.252c.035-.187.038-.363.01-.531a1.103 1.103 0 0 0-.189-.457 1.246 1.246 0 0 0-.403-.352 1.997 1.997 0 0 0-.631-.218 2.104 2.104 0 0 0-.628-.037c-.182.021-.34.066-.472.141a.893.893 0 0 0-.317.289c-.079.12-.133.256-.161.407-.055.285.035.548.269.789.233.24.61.494 1.133.761.408.208.757.42 1.044.635s.517.439.689.675c.172.234.286.483.342.748.056.264.055.549-.003.854a1.999 1.999 0 0 1-.357.837c-.178.234-.402.42-.674.556a2.613 2.613 0 0 1-.942.254c-.355.033-.741.01-1.156-.068-.37-.07-.725-.189-1.064-.357s-.633-.38-.88-.637a2.4 2.4 0 0 1-.545-.888c-.117-.335-.137-.707-.06-1.115l1.335.253a1.42 1.42 0 0 0 .011.649c.054.19.145.355.273.494.128.14.29.254.484.344a2.8 2.8 0 0 0 .645.201c.465.088.832.06 1.102-.084a.934.934 0 0 0 .489-.682zM66.226 12.385l-2.02 4.826c-.173.413-.395.745-.665.997s-.571.431-.902.536a2.656 2.656 0 0 1-1.054.109 3.713 3.713 0 0 1-1.115-.283 3.824 3.824 0 0 1-1.008-.605 2.586 2.586 0 0 1-.658-.825 2.318 2.318 0 0 1-.239-1.015c-.006-.367.078-.757.251-1.17l2.02-4.826 1.248.522-2.02 4.826a2.133 2.133 0 0 0-.177.709c-.011.215.021.41.096.585.074.174.188.328.343.46.154.133.342.245.563.338.221.093.434.147.638.165s.395-.009.569-.079.335-.185.481-.343c.146-.158.272-.366.38-.624l2.02-4.826 1.249.523zM67.017 18.589l-1.664 2.382-1.114-.778 4.48-6.41 2.452 1.714c.372.261.668.543.886.846.219.304.364.616.437.938s.073.644.003.966a2.54 2.54 0 0 1-.412.924c-.218.311-.465.553-.741.727s-.574.276-.893.307c-.318.031-.654-.009-1.007-.12s-.716-.297-1.088-.558l-1.339-.938zm.625-.893l1.338.936c.215.149.417.252.608.307.19.056.37.069.537.042.168-.027.321-.092.46-.193s.264-.231.374-.391c.104-.149.183-.309.233-.479a1.222 1.222 0 0 0-.163-1.042 1.762 1.762 0 0 0-.486-.48l-1.339-.936-1.562 2.236zM72.749 23.189l-2.124 1.983-.927-.993 5.716-5.337 2.041 2.187c.311.332.541.67.691 1.012s.228.678.231 1.008c.004.329-.062.645-.197.944a2.56 2.56 0 0 1-.597.818c-.277.259-.569.444-.876.557s-.619.15-.937.114a2.544 2.544 0 0 1-.96-.327 4.074 4.074 0 0 1-.948-.771l-1.113-1.195zm.797-.744l1.114 1.194c.179.19.355.333.531.426.175.094.348.145.517.153.17.008.333-.023.49-.094.156-.07.306-.172.447-.304.134-.125.242-.265.328-.42.085-.155.134-.322.146-.501.012-.178-.018-.361-.09-.552s-.197-.381-.376-.571l-1.114-1.193-1.993 1.862zM75.838 29.85l1.876 3.014-.921.573-2.593-4.168 6.64-4.132.718 1.154-5.72 3.559zM77.69 35.628l-.551-1.237 7.146-3.178.55 1.236-7.145 3.179zM82.922 40.456l-.877-3.089-2.315.657 1.026 3.611-1.044.297-1.397-4.919 7.523-2.137 1.387 4.882-1.054.3-1.016-3.575-2.077.59.878 3.09-1.034.293zM83.083 45.435l-.12-1.51-3.004.238-.107-1.355 7.796-.617.218 2.741c.035.446.016.848-.058 1.206a2.474 2.474 0 0 1-.38.922 1.9 1.9 0 0 1-.692.606 2.593 2.593 0 0 1-1.003.269c-.521.041-.968-.05-1.339-.273-.372-.224-.67-.554-.895-.988l-3.111 2.009-.069.006-.115-1.451 2.879-1.803zm.966-1.597l.11 1.393c.02.243.068.452.147.63.078.177.18.321.304.434.123.112.267.192.429.241.161.048.337.064.526.05.199-.017.379-.06.536-.129.158-.07.29-.169.397-.296.106-.127.184-.285.231-.474s.062-.411.041-.669l-.109-1.387-2.612.207z"/></g><path fill="#5375BD" d="M76.16 48c0 16.038-13.484 28.933-29.747 27.947-13.946-.846-25.311-12.18-26.195-26.124C19.185 33.538 32.096 20 48.16 20c4.245 0 8.268.942 11.864 2.639.562.265.728.99.36 1.491L43.36 47.26l-5.31-2.89-.06-.04-.07-.03a6.605 6.605 0 0 0-3.212-.716c-3.511.117-6.378 3.18-6.286 6.691.041 1.558.598 2.98 1.618 4.125l9.15 10.46c1.67 1.94 4.14 3.07 6.78 3.07 3.3 0 6.33-1.79 7.92-4.68l16.214-30.13a1.005 1.005 0 0 1 1.733-.061A27.815 27.815 0 0 1 76.16 48z"/><path fill="#D8725B" d="M67.369 28.737a2.512 2.512 0 0 0-2.504-2.504c-.852 0-1.553.401-2.054 1.002l-18.43 25.041-8.364-4.558a2.675 2.675 0 0 0-1.202-.301 2.51 2.51 0 0 0-2.504 2.504c0 .651.2 1.202.601 1.653l9.165 10.468a4.924 4.924 0 0 0 3.756 1.703 5.017 5.017 0 0 0 4.407-2.604l16.828-31.252a2.32 2.32 0 0 0 .301-1.152z"/></svg><svg width="96" height="96" viewBox="0 0 96 96" id="business-identity" y="96" xmlns="http://www.w3.org/2000/svg"><path fill="#4F74B3" d="M94 86H2a2 2 0 0 1-2-2V12a2 2 0 0 1 2-2h92a2 2 0 0 1 2 2v72a2 2 0 0 1-2 2z"/><circle fill="#FFF" cx="27.999" cy="38.005" r="8"/><path fill="#FACE32" d="M64.588 74L52 61.52l4.807-4.765 7.782 7.715L79.194 50 84 54.766z"/><path fill="#375EA3" d="M52 22h32v4H52z"/><path fill="#FFF" d="M44 74H12V54a4 4 0 0 1 4-4h24a4 4 0 0 1 4 4v20z"/><path fill="#375EA3" d="M52 30h32v4H52zM52 38h32v4H52z"/></svg><svg width="96" height="96" viewBox="0 0 96 96" id="company-video" x="96" y="96" xmlns="http://www.w3.org/2000/svg"><path fill="#4F74B3" d="M94 86H2a2 2 0 0 1-2-2V12a2 2 0 0 1 2-2h92a2 2 0 0 1 2 2v72a2 2 0 0 1-2 2z"/><path fill="#FFF" d="M62 48L38 61.86V34.14zM40 20h16v2H40zM20 20h16v2H20zM60 20h16v2H60zM80 20h16v2H80zM0 20h16v2H0zM40 74h16v2H40zM20 74h16v2H20zM60 74h16v2H60zM80 74h16v2H80zM0 74h16v2H0z"/></svg><svg width="96" height="96" viewBox="0 0 96 96" id="diamond" x="192" xmlns="http://www.w3.org/2000/svg"><path d="M94.745 35.893L75.559 10.817a2.283 2.283 0 0 0-1.815-.897H22.383s-1.462.16-2.395 1.522C17.561 14.992 2.195 37.04 2.195 37.04l-1.027 1.483 1.21 1.34 41.751 46.221c.33.367.647.657.986.878.668.437 3.074 1.076 4.492.025.32-.235.65-.495.982-.85l39.368-38.112a2.278 2.278 0 1 0-3.17-3.274L52.844 78.035 67.62 39.604l.008-.022H91.79c.217 0 1.767-.04 2.278-.335a2.28 2.28 0 0 0 .676-3.354zm-20.42-21.769l-9.113 20.613H31.955L23.44 14.124h50.885zM20.3 18.482l6.97 16.255H9.096L20.3 18.482zM7.898 39.21h20.795l13.334 37.792L7.898 39.21zm39.539 40.463L33.323 39.23H62.75L47.437 79.673zm22.295-44.648l6.969-15.303 11.653 15.303H69.732z" fill="#F60" fill-rule="evenodd"/></svg><svg width="96" height="96" viewBox="0 0 96 96" id="diamond-level-half" x="192" y="96" xmlns="http://www.w3.org/2000/svg"><defs><filter id="fa" filterUnits="userSpaceOnUse" x="1.412" y="7.276" width="92.68" height="80.194"><feColorMatrix values="1 0 0 0 0 0 1 0 0 0 0 0 1 0 0 0 0 0 1 0"/></filter></defs><mask maskUnits="userSpaceOnUse" x="1.412" y="7.276" width="92.68" height="80.194" id="fb"><path fill="#FFF" d="M94.702 7.683H46.575v80.418h48.127z" filter="url(#fa)"/></mask><g mask="url(#fb)"><path fill="#F7BC1A" d="M1.864 29.186l45.262 55.349.106-.137L24.78 29.186z"/><path fill="#FACB25" d="M1.412 28.645l.452.54H24.78L35.013 8.773H20.718z"/><path fill="#DAE2ED" d="M93.394 30.682H69.633L58.299 7.277h17.003L93.819 29.6m-22.311-1.91H88.44L73.964 10.267H63.07l8.437 17.424z"/><path fill="#DAE2ED" d="M94.092 30.054L48.012 87.47l-2.155-3.28 23.722-56.5h22.6m-20.617 2.99L52.585 75.576l37.108-44.893H71.562z"/><path fill="none" stroke="#DAE2ED" stroke-width="2" d="M24.78 29.186l22.452 55.212L70.57 29.186zM24.78 29.186h45.79L60.686 8.772H35.013z"/></g><defs><filter id="fc" filterUnits="userSpaceOnUse" x="1.995" y="7.591" width="90.445" height="80.726"><feColorMatrix values="1 0 0 0 0 0 1 0 0 0 0 0 1 0 0 0 0 0 1 0"/></filter></defs><mask maskUnits="userSpaceOnUse" x="1.995" y="7.591" width="90.445" height="80.726" id="fd"><path fill="#FFF" d="M.163 7.308H48.29v84.96H.163z" filter="url(#fc)"/></mask><g mask="url(#fd)"><path fill="#F7BC1A" d="M92.44 28.818l-44.428 58.36-.25.499-.498-.375 22.26-58.484z"/><path fill="#FF8A3D" d="M34.182 7.591l-9.887 21.791h-22.3L20.232 7.591z"/><path fill="#FF6A00" d="M47.634 88.316L1.994 29.382h22.3z"/><path fill="#FF8A3D" d="M70.084 29.382l-22.45 58.934-23.34-58.934z"/><path fill="#FFAC74" d="M70.084 29.382h-45.79l9.888-21.791H59.85z"/></g></svg><svg width="96" height="96" viewBox="0 0 96 96" id="diamond-level-half-filled" y="192" xmlns="http://www.w3.org/2000/svg"><defs><path id="ga" d="M0 0h49.308v86.889H0z"/><path id="gc" d="M0 0h49.308v86.889H0z"/></defs><g fill="none" fill-rule="evenodd"><g transform="matrix(-1 0 0 1 97 8)"><mask id="gb" fill="#fff"><use xlink:href="#ga"/></mask><use fill-opacity="0" fill="#FFF" xlink:href="#ga"/><g mask="url(#gb)"><path fill="#F7BC1A" d="M95.117 22.575L48.744 82.998l-.108-.151 23.002-60.272z"/><path fill="#FACB25" d="M95.58 21.985l-.463.59h-23.48L61.155.29H75.8z"/><path d="M34.854.29l-10.13 22.285H1.878L20.562.29h14.292zm13.782 82.557L1.877 22.575h22.848l23.911 60.272zm23.002-60.272L48.636 82.847 24.725 22.575h46.913zm0 0H24.725L34.854.29h26.3l10.484 22.285z" fill="#EBECF0"/></g></g><g transform="translate(-1 8)"><mask id="gd" fill="#fff"><use xlink:href="#gc"/></mask><use fill-opacity="0" fill="#FFF" xlink:href="#gc"/><g mask="url(#gd)"><path fill="#F7BC1A" d="M95.117 22.575L48.744 82.998l-.108-.151 23.002-60.272z"/><path fill="#FACB25" d="M95.58 21.985l-.463.59h-23.48L61.155.29H75.8z"/><path fill="#FF8A3D" d="M34.854.29l-10.13 22.285H1.878L20.562.29z"/><path fill="#FF6A00" d="M48.636 82.847L1.877 22.575h22.848z"/><path fill="#FF8A3D" d="M71.638 22.575L48.636 82.847 24.725 22.575z"/><path fill="#FFAC74" d="M71.638 22.575H24.725L34.854.29h26.3z"/></g></g></g></svg><svg width="96" height="96" viewBox="0 0 96 96" id="diamond-level-one" x="96" y="192" xmlns="http://www.w3.org/2000/svg"><g fill="none" fill-rule="evenodd"><path fill="#FF6A00" d="M92.84 31.143L47.415 90.408l-.106-.148 22.533-59.117z"/><path fill="#FF8A3D" d="M93.294 30.564l-.453.579h-23L59.57 9.284h14.347zM33.807 9.284l-9.922 21.859H1.504L19.807 9.284z"/><path fill="#FF6A00" d="M47.308 90.26L1.504 31.143h22.381z"/><path fill="#FF8A3D" d="M69.84 31.143L47.309 90.26 23.885 31.143z"/><path fill="#FFAC74" d="M69.84 31.143H23.886l9.922-21.859h25.764z"/></g></svg><svg width="96" height="96" viewBox="0 0 96 96" id="e-credit-line" x="192" y="192" xmlns="http://www.w3.org/2000/svg"><path fill="#55A344" d="M46 91.154l-40-23.1a4.002 4.002 0 0 1-2-3.464V6.309a2 2 0 0 1 2-2h84a2 2 0 0 1 2 2V64.59a4 4 0 0 1-2 3.464l-40 23.1a3.998 3.998 0 0 1-4 0z"/><defs><path id="ia" d="M36.498 66.794l-21.959 6.263L4 66.971V4.381h88v62.59L55.864 87.839z"/></defs><clipPath id="ib"><use xlink:href="#ia" overflow="visible"/></clipPath><g clip-path="url(#ib)"><path fill="#FFF" d="M44.235 106.454v-8.646a33.055 33.055 0 0 1-5.175-1.078c-2.771-.812-5.277-2.116-7.45-3.874-2.222-1.794-4.022-4.141-5.349-6.974-1.323-2.816-1.993-6.24-1.993-10.176v-3h8.428v3c0 2.737.455 5.004 1.352 6.739.906 1.751 2.068 3.157 3.454 4.18a13.894 13.894 0 0 0 4.91 2.292c1.952.493 3.892.743 5.768.743 2.166 0 4.1-.325 5.75-.965 1.64-.636 3.033-1.484 4.141-2.521a10.468 10.468 0 0 0 2.491-3.5c.566-1.307.854-2.667.854-4.045 0-1.592-.212-2.99-.632-4.155-.378-1.049-1.048-2.037-1.992-2.938-1.074-1.023-2.569-2.027-4.443-2.984-2.016-1.03-4.583-2.106-7.631-3.198-2.886-.972-5.543-2.001-7.887-3.057-2.521-1.135-4.711-2.504-6.513-4.068A16.923 16.923 0 0 1 27.9 52.28c-1.007-2.267-1.518-4.991-1.518-8.099 0-2.779.484-5.371 1.438-7.703a17.479 17.479 0 0 1 4.206-6.153c1.788-1.68 3.947-3.026 6.419-4.001 1.624-.64 3.403-1.096 5.297-1.357v-8.656h8.473v8.711c1.942.306 3.76.813 5.409 1.51 2.521 1.065 4.699 2.595 6.472 4.545 1.752 1.93 3.11 4.279 4.036 6.982.897 2.627 1.353 5.64 1.353 8.955v3h-8.428v-3c0-2.086-.302-4.03-.896-5.779-.569-1.671-1.408-3.129-2.493-4.334-1.065-1.181-2.412-2.123-4.005-2.8-1.626-.691-3.576-1.042-5.796-1.042-2.365 0-4.399.33-6.046.981-1.622.641-2.963 1.479-3.987 2.491a9.61 9.61 0 0 0-2.251 3.431 11.574 11.574 0 0 0-.771 4.127c0 1.572.173 2.974.514 4.167.281.985.862 1.939 1.726 2.835.983 1.019 2.43 2.026 4.3 2.993 2.023 1.047 4.746 2.144 8.094 3.261 2.849.99 5.466 2.016 7.784 3.051 2.511 1.123 4.707 2.493 6.524 4.073a17.792 17.792 0 0 1 4.48 5.917c1.069 2.283 1.61 5.025 1.61 8.152 0 2.819-.495 5.427-1.471 7.749-.985 2.347-2.397 4.394-4.198 6.084-1.771 1.665-3.908 2.997-6.354 3.958a24.42 24.42 0 0 1-5.113 1.363v8.761h-8.473z"/></g></svg><svg width="96" height="96" viewBox="0 0 96 96" id="gold-plus-supplier" x="288" xmlns="http://www.w3.org/2000/svg"><g fill-rule="nonzero" fill="none"><circle cx="48" cy="48" r="48" fill="#FED340"/><path d="M13.834 48c0-18.87 15.296-34.166 34.166-34.166 18.87 0 34.166 15.296 34.166 34.166 0 18.87-15.296 34.166-34.166 34.166-18.87 0-34.166-15.296-34.166-34.166" fill="#D8725B"/><path fill="#FED340" d="M47.287 49.018l28.896-28.896 11.265 11.265-40.131 40.13-.144-.143-.03.03L21.8 46.059l11.264-11.264z"/></g></svg><svg width="96" height="96" viewBox="0 0 96 96" id="gold-supplier" xmlns="http://www.w3.org/2000/svg"><circle fill="#FACE32" cx="48" cy="48" r="48"/><circle fill="#E3715D" cx="48" cy="48" r="34"/><path fill="#FACE32" d="M26 30.002l4 16h36l4-16zM30 50.002l-4 16h44l-4-16zM42 2h12v22.002H42zM42 71.998h12V94H42z"/></svg><svg width="96" height="96" viewBox="0 0 96 96" id="inspection-service" x="288" y="192" xmlns="http://www.w3.org/2000/svg"><path fill="#FACE32" d="M96 26H0V12a2 2 0 0 1 2-2h92a2 2 0 0 1 2 2v14z"/><path fill="#E3715D" d="M96 26v54.344L90.343 86H2a2 2 0 0 1-2-2V26h96z"/><path fill="#FFF" d="M96 80.344L85.925 70.27A23.986 23.986 0 0 0 90.615 56c0-13.298-10.819-24.117-24.117-24.117S42.382 42.702 42.382 56 53.2 80.116 66.498 80.116a23.97 23.97 0 0 0 13.686-4.275L90.343 86H94a2 2 0 0 0 2-2v-3.656zm-29.501-8.228c-8.887 0-16.116-7.229-16.116-16.116s7.229-16.117 16.116-16.117S82.616 47.114 82.616 56s-7.231 16.116-16.117 16.116z"/></svg><svg width="96" height="96" viewBox="0 0 96 96" id="logistic-service" y="288" xmlns="http://www.w3.org/2000/svg"><circle fill="#FFF" cx="48" cy="48" r="48"/><g fill="#4F74B3"><path d="M24.033 46h21.97V26h-19.1c-1.69 6.04-2.72 12.85-2.87 20zM26.903 70h19.1V50h-21.97c.15 7.15 1.18 13.96 2.87 20zM46.003 22V1.17c-7.34 1.25-13.86 9.31-17.86 20.83h17.86zM73.253 70h17.404a47.717 47.717 0 0 0 5.292-20H75.973c-.14 7.14-1.1 13.9-2.72 20zM46.003 94.83V74h-17.86c4 11.52 10.52 19.58 17.86 20.83zM72.083 22h16.256C81.761 11.815 71.438 4.284 59.312 1.353 64.65 5.664 69.116 12.924 72.083 22zM67.863 22c-4-11.52-10.52-19.58-17.86-20.83V22h17.86zM73.253 26c1.62 6.1 2.58 12.86 2.72 20h19.976a47.732 47.732 0 0 0-5.292-20H73.253zM23.923 74H7.661c6.58 10.187 16.906 17.719 29.036 20.649C31.358 90.338 26.89 83.078 23.923 74zM50.003 74v20.83c7.34-1.25 13.86-9.31 17.86-20.83h-17.86zM20.033 50H.051a47.732 47.732 0 0 0 5.292 20h17.41c-1.62-6.1-2.58-12.86-2.72-20zM72.083 74c-2.967 9.076-7.433 16.336-12.771 20.647C71.438 91.716 81.761 84.185 88.339 74H72.083zM5.343 26A47.717 47.717 0 0 0 .051 46h19.983c.14-7.14 1.1-13.9 2.72-20H5.343zM71.973 50h-21.97v20h19.1c1.69-6.04 2.72-12.85 2.87-20zM23.923 22c2.967-9.078 7.435-16.338 12.774-20.649C24.567 4.28 14.241 11.813 7.661 22h16.262zM69.103 26h-19.1v20h21.97c-.15-7.15-1.18-13.96-2.87-20z"/></g><path fill="#D9624E" d="M75.908 46l-6.21-9.318-6.504-10.586c-2.063-3.262-3.051-7.29-3.051-10.084C60.143 7.168 67.201 0 75.908 0s15.765 7.168 15.765 16.011c0 0 .401 5.168-3.185 10.335L83.62 34.26 75.908 46z"/><path fill="#C43F31" d="M75.914 8.718a6.572 6.572 0 0 1 6.571 6.571 6.577 6.577 0 0 1-6.571 6.571 6.572 6.572 0 0 1-6.571-6.571 6.567 6.567 0 0 1 6.571-6.571z"/></svg><svg width="96" height="96" viewBox="0 0 96 96" id="new" x="96" y="288" xmlns="http://www.w3.org/2000/svg"><g fill="none" fill-rule="evenodd"><path fill="#1DC11D" d="M0 25h96v41.143H5.486L0 71.629z"/><path d="M31.382 57.914h-3.166L16.95 40.043l-.096.032v17.84h-3.166v-23.4h3.166L28.12 52.37l.096-.032V34.514h3.166v23.4zm18.113-10.848h-9.611v8.373h11.25v2.475H36.718v-23.4h14.24v2.491H39.883v7.57h9.61v2.491zm10.334 2.732l.401 3.07.097.016.546-3.086 4.147-15.284h3.101L72.3 49.798l.546 3.134h.097l.434-3.134 3.343-15.284h3.439l-5.657 23.4h-2.829l-4.677-16.232-.353-2.105h-.097l-.337 2.105-4.741 16.232h-2.829L53 34.514h3.422l3.408 15.284z" fill="#FFF"/></g></svg><svg width="96" height="96" viewBox="0 0 96 96" id="onsite-check" x="192" y="288" xmlns="http://www.w3.org/2000/svg"><path fill="#FACE32" d="M78.499 62.057l-8.319 8.319a7.525 7.525 0 0 1-5.308 2.205 7.48 7.48 0 0 1-5.216-2.123L44.794 55.575l10.677-10.687 4.032 4.114 1.786-1.786c.98-.99 2.562-.99 3.552 0l-.01.01-3.542 3.552-4.685 4.695.521.643h.01c.214.214.439.388.684.551.235.163.48.296.745.388.255.102.531.184.806.225.245.041.48.061.725.061a4.28 4.28 0 0 0 1.194-.163c.214-.071.439-.153.643-.255.408-.194.796-.47 1.133-.806l1.776-1.776 5.379 5.379 2.338 2.337c.102.102.214.204.327.286.225.184.449.337.694.459.102.061.214.112.327.153.02.01.031.01.051.02.255.112.51.184.766.235.47.092.939.102 1.409.031h.02c.194-.031.388-.072.572-.133a3.99 3.99 0 0 0 1.775-1.051z"/><path fill="#F2B211" d="M84.96 55.575l-6.461 6.482a3.97 3.97 0 0 1-1.776 1.051 3.657 3.657 0 0 1-.572.133h-.02c-.47.071-.939.061-1.409-.031a4.424 4.424 0 0 1-.766-.235c-.02-.01-.031-.01-.051-.02a1.948 1.948 0 0 1-.327-.153 3.705 3.705 0 0 1-.694-.459 2.911 2.911 0 0 1-.327-.286l-2.338-2.337-5.379-5.379-1.776 1.776a4.116 4.116 0 0 1-1.133.806 4.913 4.913 0 0 1-.643.255 4.28 4.28 0 0 1-1.194.163c-.245 0-.48-.02-.725-.061a3.583 3.583 0 0 1-.806-.225 3.076 3.076 0 0 1-.745-.388 4.357 4.357 0 0 1-.684-.551h-.01l-.521-.643 4.685-4.695 3.542-3.552.01-.01h.01c.49-.49 1.133-.745 1.776-.745s1.286.255 1.776.745l1.786 1.776.051-.051 4.042-4.052L84.96 55.575z"/><path fill="#4F74B3" d="M91.072 46.671a2 2 0 0 1 .003 2.826l-6.084 6.109-.031-.031-10.677-10.687 7.492-7.513 9.297 9.296zM55.471 44.888L44.794 55.575l-6.017-6.005a2 2 0 0 1-.001-2.83l9.214-9.214 7.481 7.362z"/><path fill="#4F74B3" d="M92 77.586v12a2 2 0 0 1-2 2H6a2 2 0 0 1-2-2V49.243c0-1.061.421-2.078 1.172-2.828L46.586 5a2 2 0 0 1 2.828 0L75.78 31.366l-11.32 11.31L48 26.216h-.01l-27.99 28h-.01v21.37H90a2 2 0 0 1 2 2z"/></svg><svg width="96" height="96" viewBox="0 0 96 96" id="secure-payment" x="288" y="288" xmlns="http://www.w3.org/2000/svg"><path fill="#FACE32" d="M93.994 85.996H2.004a2 2 0 0 1-2-2V12.004a2 2 0 0 1 2-2h91.99a2 2 0 0 1 2 2v71.992a2 2 0 0 1-2 2z"/><path fill="#FFF" d="M.005 46.001h9.999v4H.005zM85.997 46.001h9.999v4h-9.999z"/><g fill="#FFF"><path d="M30.187 10.004a41.944 41.944 0 0 0-15.958 13.029l-.6.81H0v-4h11.629a45.528 45.528 0 0 1 10.489-9.839h8.069zM96 19.863v4H82.381l-.6-.81a42.005 42.005 0 0 0-15.958-13.049h8.039a45.796 45.796 0 0 1 10.529 9.859H96z"/></g><g fill="#FFF"><path d="M30.057 85.996h-8.009a46.164 46.164 0 0 1-9.639-8.859H0v-4h14.339l.6.76c4.119 5.25 9.298 9.349 15.118 12.099zM95.99 72.157v4H84.371a45.528 45.528 0 0 1-10.489 9.839h-8.069a41.944 41.944 0 0 0 15.958-13.029l.6-.81H95.99z"/></g><g fill="#55A344"><path d="M26.002 34.001h-8.999v27.997h5.999V52h3a9 9 0 0 0 0-17.999zm3 9.5a2.5 2.5 0 0 1-2.5 2.5h-3.5v-5.999h3.5a2.5 2.5 0 0 1 2.5 2.5v.999zM80.997 34.001l-8 16.999v10.999h-5.999V51l-7.999-16.999h6.399l4.58 10.249 4.519-10.249zM57.659 56.999l-1.07-4-.54-2L51.5 34.001h-7L39.951 51l-.54 2-1.07 4-1.34 4.999H43L44.23 57h7.539l1.23 4.999h5.999l-1.339-5zM47.99 41.651L50.29 51H45.7l2.29-9.349z"/></g></svg><svg width="96" height="96" viewBox="0 0 96 96" id="ta-selected" x="384" xmlns="http://www.w3.org/2000/svg"><g fill="none" fill-rule="evenodd"><path d="M91.294 58.202C82.412 75.487 66.936 88.835 48.19 94.937h-1.87C27.734 88.888 12.366 75.722 3.45 58.652V.908c0-.746.607-1.344 1.346-1.344h85.152c.74 0 1.346.598 1.346 1.344v57.294z" fill="#F8BD00"/><path d="M91.29.908v57.294c-8.882 17.285-24.357 30.632-43.103 36.735h-.815V-.436h42.573c.74 0 1.346.598 1.346 1.344" fill="#FBCC00"/><path d="M43.597 56.306a6.31 6.31 0 0 1-4.815-2.203l-8.623-9.898c-.64-.722-.983-1.652-.983-2.679 0-2.24 1.813-4.06 4.04-4.06a4.17 4.17 0 0 1 1.885.462l6.643 3.638L58.27 18.999l.033-.039c.832-1.003 1.978-1.556 3.226-1.556 2.228 0 4.04 1.821 4.04 4.06 0 .682-.174 1.349-.504 1.929L49.23 52.952a6.412 6.412 0 0 1-5.633 3.354" fill="#DB5D45"/></g></svg><svg width="96" height="96" viewBox="0 0 96 96" id="trade-assurance" x="384" y="96" xmlns="http://www.w3.org/2000/svg"><path fill-rule="evenodd" clip-rule="evenodd" fill="#FFBA00" d="M78.402 8.347v13.405H63.725V3.954L48 0 32.275 3.954v17.798H17.598V8.347L2.387 12.975l3.967 70.054L48 96l41.646-12.971 3.967-70.054z"/><path fill-rule="evenodd" clip-rule="evenodd" fill="#FF991F" d="M2.387 12.975l15.211-4.628v13.405h14.677V3.954L48 0v96L6.354 83.029z"/><path fill="#FFF" d="M53.464 60.959c0-1.599-.495-2.9-1.489-3.902-.992-1.002-2.712-1.935-5.157-2.799-3.952-1.341-6.881-2.923-8.784-4.743s-2.854-4.376-2.854-7.667c0-3.126.914-5.649 2.744-7.57 1.828-1.921 4.361-3.076 7.597-3.462v-6.011h4.413v6.066c3.218.479 5.696 1.807 7.433 3.985 1.738 2.179 2.608 5.134 2.608 8.867H53.3c0-2.353-.507-4.187-1.517-5.501-1.011-1.315-2.437-1.973-4.275-1.973-1.913 0-3.327.492-4.246 1.476-.921.984-1.379 2.34-1.379 4.069 0 1.617.479 2.909 1.434 3.874.956.966 2.739 1.908 5.35 2.827 3.952 1.416 6.857 3.02 8.716 4.812 1.856 1.793 2.785 4.326 2.785 7.599 0 3.236-.952 5.787-2.855 7.654-1.903 1.866-4.556 2.973-7.956 3.324v5.377h-4.384v-5.35c-3.347-.349-6.073-1.531-8.179-3.543-2.104-2.014-3.158-5.061-3.158-9.143h6.703c0 2.666.63 4.546 1.888 5.639 1.26 1.095 2.864 1.642 4.813 1.642 2.078 0 3.668-.487 4.772-1.463 1.102-.976 1.652-2.338 1.652-4.084z"/><path opacity=".2" fill-rule="evenodd" clip-rule="evenodd" fill="#FFF" d="M48 96L2.387 12.975 48 41.105zM48 96l45.613-83.025L48 41.132z"/></svg><svg width="96" height="96" viewBox="0 0 96 96" id="trade-assurance_100percent" x="384" y="192" xmlns="http://www.w3.org/2000/svg"><defs><path id="sc" d="M0 11.428h96v73.143H0z"/></defs><clipPath id="sd"><use xlink:href="#sc" overflow="visible"/></clipPath><g clip-path="url(#sd)"><defs><path id="se" d="M68.25 66.286c-6.323 10.931-18.142 18.286-31.679 18.286C16.374 84.571 0 68.198 0 48s16.374-36.571 36.571-36.571c13.537 0 25.355 7.354 31.679 18.286h-5.415C57.053 21.424 47.446 16 36.571 16c-17.673 0-32 14.327-32 32 0 17.673 14.327 32 32 32 10.874 0 20.482-5.424 26.264-13.714h5.415z"/></defs><clipPath id="sf"><use xlink:href="#se" overflow="visible"/></clipPath><g clip-path="url(#sf)"><defs><path id="sg" d="M0 11.428h96v73.143H0z"/></defs><clipPath id="sh"><use xlink:href="#sg" overflow="visible"/></clipPath><path clip-path="url(#sh)" fill="#1DC11D" d="M-22.857-11.429H91.108v118.857H-22.857z"/></g></g><g clip-path="url(#sd)"><defs><path id="si" d="M0 11.428h96v73.143H0z"/></defs><clipPath id="sj"><use xlink:href="#si" overflow="visible"/></clipPath><g clip-path="url(#sj)"><text transform="translate(9.146 61.716)" fill="#0EC826" font-family="'Roboto-Regular'" font-size="36.571">100%</text></g><g clip-path="url(#sj)"><text transform="translate(9.146 61.716)" fill="#0EC826" font-family="'Roboto-Regular'" font-size="36.571">100%</text></g></g></svg><svg width="96" height="96" viewBox="0 0 96 96" id="trade-assurance_new" x="384" y="288" xmlns="http://www.w3.org/2000/svg"><path fill-rule="evenodd" clip-rule="evenodd" fill="#FACE32" d="M78.402 8.347v13.405H63.725V3.954L48 0 32.275 3.954v17.798H17.598V8.347L2.387 12.975l3.967 70.054L48 96l41.646-12.971 3.967-70.054z"/><path fill="#FFF" d="M53.464 60.959c0-1.599-.495-2.9-1.489-3.902-.992-1.002-2.712-1.935-5.157-2.799-3.952-1.341-6.881-2.923-8.784-4.743-1.903-1.82-2.854-4.376-2.854-7.667 0-3.126.914-5.649 2.744-7.57 1.828-1.921 4.361-3.076 7.597-3.462v-6.011h4.413v6.066c3.218.479 5.696 1.807 7.433 3.986 1.738 2.179 2.608 5.134 2.608 8.867H53.3c0-2.353-.507-4.187-1.517-5.501s-2.437-1.973-4.275-1.973c-1.913 0-3.327.492-4.246 1.476-.921.984-1.379 2.34-1.379 4.069 0 1.617.479 2.909 1.434 3.874.956.966 2.739 1.908 5.35 2.827 3.952 1.416 6.857 3.02 8.716 4.812 1.856 1.793 2.786 4.326 2.786 7.599 0 3.236-.952 5.787-2.855 7.654s-4.556 2.973-7.956 3.324v5.377h-4.384v-5.35c-3.347-.349-6.073-1.531-8.179-3.543-2.104-2.014-3.158-5.061-3.158-9.143h6.703c0 2.666.63 4.546 1.888 5.639 1.26 1.095 2.864 1.642 4.813 1.642 2.078 0 3.668-.487 4.772-1.463 1.101-.977 1.651-2.339 1.651-4.085z"/></svg></svg>