<?xml version="1.0" encoding="utf-8"?><!DOCTYPE svg PUBLIC "-//W3C//DTD SVG 1.1//EN" "http://www.w3.org/Graphics/SVG/1.1/DTD/svg11.dtd"><svg width="320" height="256" viewBox="0 0 320 256" xmlns="http://www.w3.org/2000/svg" xmlns:xlink="http://www.w3.org/1999/xlink"><svg width="64" height="64" viewBox="0 0 64 64" id="a-and-v-checked" x="64" xmlns="http://www.w3.org/2000/svg"><path fill="#F2B211" d="M57.854 35.437l-8.311 8.337-.008.008a5.273 5.273 0 0 1-2.278 1.352 5.38 5.38 0 0 1-5.353-1.361l-9.94-9.935-2.295 2.294a5.187 5.187 0 0 1-1.457 1.038 5.226 5.226 0 0 1-.829.322 5.48 5.48 0 0 1-2.471.136 5.18 5.18 0 0 1-1.038-.282 5.203 5.203 0 0 1-.958-.499 6.078 6.078 0 0 1-.877-.716h-.008l-.676-.829 6.03-6.044 4.565-4.563.016-.016v-.008a3.24 3.24 0 0 1 4.58.001l2.294 2.294 5.266-5.28 13.748 13.751z"/><path fill="#FACE32" d="M49.535 43.782L38.827 54.486A9.63 9.63 0 0 1 32 57.318a9.648 9.648 0 0 1-6.721-2.722L6.151 35.437l13.748-13.753 5.192 5.286 2.295-2.294a3.216 3.216 0 0 1 4.572.001l-.008.008v.008l-4.565 4.563-6.03 6.044.676.829h.008c.274.274.571.507.877.716.306.201.628.37.958.499.338.129.684.225 1.038.282a5.48 5.48 0 0 0 2.471-.136c.282-.08.563-.193.829-.322a5.207 5.207 0 0 0 1.457-1.038l2.295-2.286 6.921 6.924 3.01 3.011a5.368 5.368 0 0 0 5.361 1.353 5.247 5.247 0 0 0 2.279-1.35z"/><path fill="#4F74B3" d="M19.9 21.681L6.153 35.434l-4.597-4.612A5.336 5.336 0 0 1 0 27.057V8.014c0-.736.597-1.333 1.333-1.333h2.493c.708 0 1.385.279 1.885.78 5.181 5.194 14.189 14.22 14.189 14.22zM64 8.014v19.049c0 1.411-.56 2.765-1.556 3.765l-4.591 4.606-13.746-13.753s9.007-9.025 14.181-14.219a2.656 2.656 0 0 1 1.886-.781h2.492c.737 0 1.334.597 1.334 1.333z"/></svg><svg width="64" height="64" viewBox="0 0 64 64" id="assessed-supplier" x="192" y="64" xmlns="http://www.w3.org/2000/svg"><circle fill="#4F74B3" cx="32" cy="32" r="32"/><circle fill="#FFF" cx="32" cy="32" r="22.667"/><circle fill="#4F74B3" cx="32.107" cy="32" r="20"/><path fill="#E36E5B" d="M31.587 43.933a5.015 5.015 0 0 1-3.819-1.738l-6.84-7.811c-.507-.57-.779-1.303-.779-2.113a3.208 3.208 0 0 1 3.204-3.204c.507 0 1.009.123 1.494.365l5.269 2.87 13.106-17.807.026-.031c.66-.792 1.569-1.229 2.559-1.229a3.208 3.208 0 0 1 3.204 3.204 3.06 3.06 0 0 1-.4 1.521L36.054 41.286a5.088 5.088 0 0 1-4.467 2.647z"/><path fill="#FFF" d="M45.808 14.57c1.01 0 1.871.823 1.871 1.871 0 .299-.075.599-.225.861L34.88 40.654a3.749 3.749 0 0 1-3.293 1.946 3.684 3.684 0 0 1-2.807-1.272l-6.848-7.822c-.299-.337-.449-.749-.449-1.235 0-1.01.823-1.871 1.871-1.871.299 0 .599.075.898.225l6.25 3.406 13.772-18.712c.374-.45.897-.749 1.534-.749m0-2.667c-1.392 0-2.665.606-3.583 1.708l-.052.062-.048.065-12.392 16.837-4.206-2.292-.042-.023-.042-.021a4.64 4.64 0 0 0-2.09-.506 4.543 4.543 0 0 0-4.538 4.538c0 1.141.388 2.181 1.123 3.007l6.835 7.806c1.182 1.379 2.943 2.182 4.813 2.182a6.418 6.418 0 0 0 5.631-3.33L49.79 18.589a4.404 4.404 0 0 0 .556-2.148 4.543 4.543 0 0 0-4.538-4.538z"/></svg><svg width="64" height="64" viewBox="0 0 64 64" id="business-identity" y="64" xmlns="http://www.w3.org/2000/svg"><path fill="#4F74B3" d="M62.667 57.333H1.333A1.333 1.333 0 0 1 0 56V8c0-.736.597-1.333 1.333-1.333h61.333C63.403 6.667 64 7.264 64 8v48c0 .736-.597 1.333-1.333 1.333z"/><circle fill="#FFF" cx="18.666" cy="25.337" r="5.333"/><path fill="#FACE32" d="M43.059 49.333l-8.393-8.32 3.205-3.176 5.188 5.143 9.737-9.647L56 36.511z"/><path fill="#375EA3" d="M34.667 14.667H56v2.667H34.667z"/><path fill="#FFF" d="M29.333 49.333H8V36a2.667 2.667 0 0 1 2.667-2.667h16A2.667 2.667 0 0 1 29.334 36v13.333z"/><path fill="#375EA3" d="M34.667 20H56v2.667H34.667zM34.667 25.333H56V28H34.667z"/></svg><svg width="64" height="64" viewBox="0 0 64 64" id="company-video" x="64" y="64" xmlns="http://www.w3.org/2000/svg"><path fill="#4F74B3" d="M62.667 57.333H1.333A1.333 1.333 0 0 1 0 56V8c0-.736.597-1.333 1.333-1.333h61.333C63.403 6.667 64 7.264 64 8v48c0 .736-.597 1.333-1.333 1.333z"/><path fill="#FFF" d="M41.333 32l-16 9.24V22.76zM26.667 13.333h10.667v1.333H26.667zM13.333 13.333H24v1.333H13.333zM40 13.333h10.667v1.333H40zM53.333 13.333H64v1.333H53.333zM0 13.333h10.667v1.333H0zM26.667 49.333h10.667v1.333H26.667zM13.333 49.333H24v1.333H13.333zM40 49.333h10.667v1.333H40zM53.333 49.333H64v1.333H53.333zM0 49.333h10.667v1.333H0z"/></svg><svg width="64" height="64" viewBox="0 0 64 64" id="diamond" x="128" xmlns="http://www.w3.org/2000/svg"><path d="M62.497 24.595L49.706 7.878a1.522 1.522 0 0 0-1.21-.598H14.255s-.974.107-1.596 1.015C11.04 10.662.797 25.359.797 25.359l-.685.99.806.892 27.835 30.815c.22.244.431.437.657.585.445.29 2.05.717 2.995.017.213-.157.434-.33.654-.567l26.245-25.408a1.519 1.519 0 0 0-2.113-2.183L34.563 52.69l9.85-25.62.006-.015h16.108c.145 0 1.178-.026 1.519-.224a1.52 1.52 0 0 0 .45-2.236zM48.883 10.083l-6.075 13.742H20.637l-5.678-13.742h33.924zm-36.016 2.905l4.647 10.837H5.397l7.47-10.837zM4.599 26.807h13.863l8.89 25.195L4.599 26.807zm26.359 26.975l-9.41-26.961h19.618L30.958 53.78zM45.82 24.017l4.646-10.202 7.77 10.202H45.82z" fill="#F60" fill-rule="evenodd"/></svg><svg width="64" height="64" viewBox="0 0 64 64" id="diamond-level-half" x="128" y="64" xmlns="http://www.w3.org/2000/svg"><defs><filter id="fa" filterUnits="userSpaceOnUse" x=".61" y="4.728" width="61.982" height="54.188"><feColorMatrix values="1 0 0 0 0 0 1 0 0 0 0 0 1 0 0 0 0 0 1 0"/></filter></defs><mask maskUnits="userSpaceOnUse" x=".61" y="4.728" width="61.982" height="54.188" id="fb"><path fill="#FFF" d="M63 5H30.814v53.781H63z" filter="url(#fa)"/></mask><g mask="url(#fb)"><path fill="#F7BC1A" d="M.912 19.38l30.27 37.017.07-.092L16.24 19.38z"/><path fill="#FACB25" d="M.61 19.019l.302.362h15.327l6.843-13.653H13.52z"/><path fill="#DAE2ED" d="M62.125 20.38h-15.89l-7.58-15.652h11.37l12.385 14.93M47.489 18.38h11.324L49.13 6.728h-7.285l5.643 11.653z"/><path fill="#DAE2ED" d="M62.592 19.96l-30.816 38.4-1.442-2.192L46.199 18.38h15.114m-13.788 2L34.833 50.405 59.65 20.38H47.525z"/><path fill="none" stroke="#DAE2ED" stroke-width="2" d="M16.239 19.38l15.014 36.925L46.862 19.38zM16.239 19.38h30.623L40.25 5.729H23.082z"/></g><defs><filter id="fc" filterUnits="userSpaceOnUse" x="1" y="4.938" width="60.487" height="53.987"><feColorMatrix values="1 0 0 0 0 0 1 0 0 0 0 0 1 0 0 0 0 0 1 0"/></filter></defs><mask maskUnits="userSpaceOnUse" x="1" y="4.938" width="60.487" height="53.987" id="fd"><path fill="#FFF" d="M-.226 4.749H31.96v56.819H-.226z" filter="url(#fc)"/></mask><g mask="url(#fd)"><path fill="#F7BC1A" d="M61.488 19.135L31.775 58.164l-.167.334-.333-.251L46.16 19.135z"/><path fill="#FF8A3D" d="M22.526 4.938l-6.612 14.574H1L13.197 4.938z"/><path fill="#FF6A00" d="M31.522 58.926L1 19.512h14.914z"/><path fill="#FF8A3D" d="M46.536 19.512L31.522 58.926 15.914 19.512z"/><path fill="#FFAC74" d="M46.536 19.512H15.914l6.612-14.574h17.167z"/></g></svg><svg width="64" height="64" viewBox="0 0 64 64" id="diamond-level-half-filled" y="128" xmlns="http://www.w3.org/2000/svg"><defs><path id="ga" d="M0 0h32.201v56.335H0z"/><path id="gc" d="M0 0h32.201v56.335H0z"/></defs><g fill="none" fill-rule="evenodd"><g transform="matrix(-1 0 0 1 64 4)"><mask id="gb" fill="#fff"><use xlink:href="#ga"/></mask><use fill-opacity="0" fill="#FFF" xlink:href="#ga"/><g mask="url(#gb)"><path fill="#F7BC1A" d="M62.117 14.637L31.833 53.812l-.07-.098 15.02-39.077z"/><path fill="#FACB25" d="M62.42 14.254l-.303.383H46.784L39.938.187h9.564z"/><path d="M22.761.188l-6.614 14.449H1.226L13.428.187h9.333zm9.001 53.526L1.226 14.637h14.92l15.616 39.077zm15.022-39.077L31.762 53.714 16.147 14.637h30.637zm0 0H16.147L22.76.187h17.177l6.846 14.45z" fill="#EBECF0"/></g></g><g transform="translate(0 4)"><mask id="gd" fill="#fff"><use xlink:href="#gc"/></mask><use fill-opacity="0" fill="#FFF" xlink:href="#gc"/><g mask="url(#gd)"><path fill="#F7BC1A" d="M62.117 14.637L31.833 53.812l-.07-.098 15.02-39.077z"/><path fill="#FACB25" d="M62.42 14.254l-.303.383H46.784L39.938.187h9.564z"/><path fill="#FF8A3D" d="M22.761.188l-6.614 14.449H1.226L13.428.187z"/><path fill="#FF6A00" d="M31.762 53.714L1.226 14.637h14.92z"/><path fill="#FF8A3D" d="M46.784 14.637L31.762 53.714 16.147 14.637z"/><path fill="#FFAC74" d="M46.784 14.637H16.147L22.76.187h17.177z"/></g></g></g></svg><svg width="64" height="64" viewBox="0 0 64 64" id="diamond-level-one" x="64" y="128" xmlns="http://www.w3.org/2000/svg"><g fill="none" fill-rule="evenodd"><path fill="#FF6A00" d="M62.228 20.762L31.943 60.273l-.07-.099 15.022-39.412z"/><path fill="#FF8A3D" d="M62.53 20.376l-.302.386H46.895L40.048 6.19h9.565zM22.872 6.19l-6.615 14.572H1.336L13.539 6.19z"/><path fill="#FF6A00" d="M31.873 60.174L1.336 20.762h14.921z"/><path fill="#FF8A3D" d="M46.895 20.762L31.873 60.174 16.257 20.762z"/><path fill="#FFAC74" d="M46.895 20.762H16.257L22.872 6.19h17.176z"/></g></svg><svg width="64" height="64" viewBox="0 0 64 64" id="e-credit-line" x="128" y="128" xmlns="http://www.w3.org/2000/svg"><path fill="#55A344" d="M30.682 60.443L4.318 45.218A2.636 2.636 0 0 1 3 42.935V4.522c0-.728.59-1.318 1.318-1.318h55.364c.728 0 1.318.59 1.318 1.318v38.412c0 .942-.502 1.812-1.318 2.283L33.318 60.443a2.635 2.635 0 0 1-2.636 0z"/><defs><path id="ia" d="M24.419 44.387L9.946 48.515 3 44.503V3.251h58v41.252L37.183 58.258z"/></defs><clipPath id="ib"><use xlink:href="#ia" overflow="visible"/></clipPath><g clip-path="url(#ib)"><path fill="#FFF" d="M29.519 70.526v-5.698a21.777 21.777 0 0 1-3.411-.711 14.052 14.052 0 0 1-4.91-2.553c-1.464-1.182-2.651-2.729-3.526-4.596-.872-1.856-1.314-4.113-1.314-6.707v-1.977h5.555v1.977c0 1.804.3 3.298.891 4.441.597 1.154 1.363 2.081 2.277 2.755a9.154 9.154 0 0 0 3.236 1.511c1.286.325 2.565.49 3.802.49 1.427 0 2.702-.214 3.789-.636 1.081-.419 1.999-.978 2.729-1.662a6.896 6.896 0 0 0 1.642-2.307 6.675 6.675 0 0 0 .563-2.666c0-1.049-.14-1.971-.416-2.738-.249-.691-.691-1.343-1.313-1.936-.708-.674-1.693-1.336-2.929-1.967-1.329-.679-3.021-1.388-5.029-2.108a57.09 57.09 0 0 1-5.198-2.015c-1.661-.748-3.105-1.65-4.292-2.681a11.15 11.15 0 0 1-2.912-3.921c-.664-1.494-1-3.29-1-5.338 0-1.832.319-3.54.947-5.077a11.526 11.526 0 0 1 2.772-4.056c1.178-1.107 2.602-1.995 4.231-2.637a15.163 15.163 0 0 1 3.491-.894v-5.705h5.585v5.741a15.25 15.25 0 0 1 3.565.995 12.04 12.04 0 0 1 4.266 2.996c1.155 1.272 2.05 2.82 2.66 4.602.592 1.732.891 3.717.891 5.902v1.977h-5.555V31.35c0-1.375-.199-2.656-.591-3.809-.375-1.101-.928-2.062-1.643-2.856-.702-.778-1.59-1.399-2.64-1.845-1.072-.456-2.357-.687-3.82-.687-1.559 0-2.9.218-3.985.647-1.069.423-1.953.975-2.628 1.642a6.335 6.335 0 0 0-1.484 2.261 7.624 7.624 0 0 0-.508 2.72c0 1.036.114 1.96.339 2.746.185.649.568 1.278 1.137 1.868.648.672 1.602 1.336 2.834 1.972 1.333.69 3.128 1.413 5.335 2.149a65.312 65.312 0 0 1 5.13 2.011c1.655.74 3.102 1.643 4.3 2.685a11.731 11.731 0 0 1 2.953 3.9c.704 1.505 1.061 3.312 1.061 5.373 0 1.858-.326 3.577-.969 5.107a11.616 11.616 0 0 1-2.767 4.01c-1.167 1.097-2.576 1.975-4.188 2.609a16.071 16.071 0 0 1-3.37.899v5.774h-5.583z"/></g></svg><svg width="64" height="64" viewBox="0 0 64 64" id="gold-plus-supplier" x="192" xmlns="http://www.w3.org/2000/svg"><g fill-rule="nonzero" fill="none"><circle cx="32" cy="32" r="32" fill="#FED340"/><path d="M9.223 32C9.223 19.42 19.42 9.223 32 9.223 44.58 9.223 54.777 19.42 54.777 32c0 12.58-10.197 22.777-22.777 22.777C19.42 54.777 9.223 44.58 9.223 32" fill="#D8725B"/><path fill="#FED340" d="M31.525 32.679l19.264-19.264 7.51 7.51-26.755 26.753-.095-.095-.02.02-16.896-16.897 7.51-7.51z"/></g></svg><svg width="64" height="64" viewBox="0 0 64 64" id="gold-supplier" xmlns="http://www.w3.org/2000/svg"><circle fill="#FACE32" cx="32" cy="32" r="32"/><circle fill="#E3715D" cx="32" cy="32" r="22.667"/><path fill="#FACE32" d="M17.333 20.001L20 30.668h24l2.667-10.667zM20 33.335l-2.667 10.666h29.334L44 33.335zM28 1.333h8v14.668h-8zM28 47.999h8v14.668h-8z"/></svg><svg width="64" height="64" viewBox="0 0 64 64" id="inspection-service" x="192" y="128" xmlns="http://www.w3.org/2000/svg"><path fill="#FACE32" d="M64 17.333H0V8c0-.736.597-1.333 1.333-1.333h61.333C63.403 6.667 64 7.264 64 8v9.333z"/><path fill="#E3715D" d="M64 17.333v36.23l-3.771 3.77H1.333A1.333 1.333 0 0 1 0 56V17.333h64z"/><path fill="#FFF" d="M64 53.563l-6.716-6.716a15.987 15.987 0 0 0 3.127-9.513c0-8.865-7.213-16.078-16.078-16.078s-16.077 7.213-16.077 16.078 7.212 16.077 16.077 16.077c3.386 0 6.53-1.055 9.124-2.85l6.772 6.772h2.438c.736 0 1.333-.597 1.333-1.333v-2.437zm-19.668-5.485c-5.924 0-10.744-4.82-10.744-10.744s4.82-10.745 10.744-10.745 10.745 4.82 10.745 10.745-4.82 10.744-10.745 10.744z"/></svg><svg width="64" height="64" viewBox="0 0 64 64" id="logistic-service" y="192" xmlns="http://www.w3.org/2000/svg"><circle fill="#FFF" cx="32" cy="32" r="32"/><g fill="#4F74B3"><path d="M16.022 30.667h14.647V17.333H17.935c-1.126 4.027-1.813 8.567-1.913 13.334zM17.935 46.667h12.733V33.333H16.022c.1 4.767.787 9.307 1.913 13.334zM30.669 14.667V.78c-4.893.833-9.24 6.207-11.907 13.887h11.907zM48.835 46.667h11.603a31.806 31.806 0 0 0 3.528-13.333H50.649c-.094 4.759-.734 9.266-1.814 13.333zM30.669 63.22V49.333H18.762c2.667 7.68 7.013 13.053 11.907 13.887zM48.055 14.667h10.837C54.507 7.877 47.625 2.856 39.541.902c3.559 2.874 6.537 7.714 8.514 13.765zM45.242 14.667C42.575 6.987 38.229 1.613 33.335.78v13.887h11.907zM48.835 17.333c1.08 4.067 1.72 8.573 1.813 13.333h13.318a31.817 31.817 0 0 0-3.528-13.333H48.835zM15.949 49.333H5.107c4.387 6.792 11.271 11.813 19.357 13.766-3.559-2.874-6.537-7.714-8.515-13.766zM33.335 49.333V63.22c4.893-.833 9.24-6.207 11.907-13.887H33.335zM13.355 33.333H.034a31.817 31.817 0 0 0 3.528 13.333h11.607c-1.08-4.066-1.72-8.573-1.814-13.333zM48.055 49.333c-1.978 6.051-4.956 10.89-8.514 13.764 8.084-1.954 14.966-6.975 19.351-13.764H48.055zM3.562 17.333A31.806 31.806 0 0 0 .034 30.666h13.322c.093-4.76.733-9.267 1.813-13.333H3.562zM47.982 33.333H33.335v13.333h12.733c1.127-4.026 1.814-8.566 1.914-13.333zM15.949 14.667C17.927 8.615 20.906 3.775 24.465.901 16.378 2.854 9.494 7.875 5.107 14.667h10.842zM46.069 17.333H33.335v13.333h14.647c-.1-4.766-.787-9.306-1.913-13.333z"/></g><path fill="#D9624E" d="M50.605 30.667l-4.14-6.212-4.336-7.057c-1.375-2.175-2.034-4.86-2.034-6.723C40.095 4.779 44.8 0 50.605 0s10.51 4.779 10.51 10.674c0 0 .267 3.445-2.123 6.89l-3.245 5.276-5.142 7.827z"/><path fill="#C43F31" d="M50.61 5.812a4.382 4.382 0 0 1 4.381 4.381 4.386 4.386 0 0 1-4.381 4.381 4.382 4.382 0 0 1-4.381-4.381 4.378 4.378 0 0 1 4.381-4.381z"/></svg><svg width="64" height="64" viewBox="0 0 64 64" id="new" x="64" y="192" xmlns="http://www.w3.org/2000/svg"><g fill="none" fill-rule="evenodd"><path fill="#1DC11D" d="M0 16h64v27.429H3.657L0 47.086z"/><path d="M20.921 37.943h-2.11L11.3 26.029l-.064.021v11.893H9.125v-15.6h2.11l7.511 11.903.065-.021V22.343h2.11v15.6zm12.075-7.232H26.59v5.582h7.5v1.65h-9.61v-15.6h9.492v1.66H26.59v5.047h6.407v1.66zm6.89 1.821l.268 2.047.064.01.364-2.057 2.764-10.19h2.068l2.786 10.19.364 2.09h.065l.289-2.09 2.228-10.19h2.293l-3.771 15.6h-1.886l-3.118-10.82-.235-1.404h-.065l-.225 1.403-3.16 10.822h-1.886l-3.76-15.6h2.281l2.272 10.19z" fill="#FFF"/></g></svg><svg width="64" height="64" viewBox="0 0 64 64" id="onsite-check" x="128" y="192" xmlns="http://www.w3.org/2000/svg"><path fill="#FACE32" d="M52.102 41.265l-5.483 5.483a4.961 4.961 0 0 1-3.498 1.453 4.933 4.933 0 0 1-3.438-1.399l-9.796-9.809 7.037-7.044 2.657 2.711 1.177-1.177a1.644 1.644 0 0 1 2.341 0l-.007.007-2.335 2.341-3.088 3.095.343.424h.007c.141.141.289.256.451.363.155.108.316.195.491.256.168.067.35.121.531.148.161.027.316.04.478.04.269 0 .531-.034.787-.108.141-.047.289-.101.424-.168.269-.128.525-.31.747-.532l1.171-1.171 3.545 3.546 1.541 1.541c.067.067.141.135.215.188.148.121.296.222.457.303.067.04.141.074.215.101.013.007.02.007.034.013a2.68 2.68 0 0 0 1.433.175h.013a2.27 2.27 0 0 0 .377-.088c.433-.12.836-.349 1.173-.692z"/><path fill="#F2B211" d="M56.36 36.993l-4.259 4.272c-.336.343-.74.572-1.171.693a2.49 2.49 0 0 1-.377.088h-.013c-.309.047-.619.04-.928-.02a2.981 2.981 0 0 1-.505-.155c-.013-.007-.02-.007-.034-.013a1.279 1.279 0 0 1-.215-.101 2.48 2.48 0 0 1-.457-.303 1.892 1.892 0 0 1-.215-.188l-1.541-1.541-3.545-3.546-1.171 1.171a2.719 2.719 0 0 1-.747.532 3.337 3.337 0 0 1-.424.168 2.864 2.864 0 0 1-1.265.068 2.403 2.403 0 0 1-.531-.148 2.017 2.017 0 0 1-.491-.256 2.977 2.977 0 0 1-.451-.363h-.007l-.343-.424 3.088-3.095 2.335-2.341.007-.007h.007c.323-.323.747-.491 1.171-.491s.848.168 1.171.491l1.177 1.171.034-.034 2.664-2.671 7.036 7.043z"/><path fill="#4F74B3" d="M60.388 31.124c.514.514.515 1.347.002 1.862l-4.01 4.026-.02-.02-7.037-7.044 4.938-4.952 6.127 6.128zM36.924 29.949l-7.037 7.044-3.966-3.958a1.318 1.318 0 0 1-.001-1.865l6.073-6.073 4.931 4.852z"/><path fill="#4F74B3" d="M61 51.5v7.909c0 .728-.59 1.318-1.318 1.318H4.318c-.728 0-1.318-.59-1.318-1.318v-26.59c0-.699.278-1.37.772-1.864L31.068 3.659a1.318 1.318 0 0 1 1.864 0L50.31 21.036l-7.461 7.454L32 17.642h-.007L13.545 36.097h-.007v14.085h46.143A1.317 1.317 0 0 1 61 51.5z"/></svg><svg width="64" height="64" viewBox="0 0 64 64" id="secure-payment" x="192" y="192" xmlns="http://www.w3.org/2000/svg"><path fill="#FACE32" d="M62.663 57.331H1.336a1.333 1.333 0 0 1-1.333-1.333V8.003c0-.736.597-1.333 1.333-1.333h61.327c.736 0 1.333.597 1.333 1.333v47.995c0 .736-.597 1.333-1.333 1.333z"/><path fill="#FFF" d="M.003 30.667h6.666v2.666H.003zM57.331 30.667h6.666v2.666h-6.666z"/><g fill="#FFF"><path d="M20.125 6.669a27.963 27.963 0 0 0-10.639 8.686l-.4.54H0v-2.666h7.753a30.359 30.359 0 0 1 6.993-6.559h5.379zM64 13.242v2.666h-9.079l-.4-.54a27.997 27.997 0 0 0-10.639-8.699h5.359c2.646 1.793 5.026 4 7.019 6.573H64z"/></g><g fill="#FFF"><path d="M20.038 57.331h-5.339a30.767 30.767 0 0 1-6.426-5.906H0v-2.666h9.559l.4.507a28.028 28.028 0 0 0 10.079 8.065zM63.993 48.105v2.666h-7.746a30.339 30.339 0 0 1-6.993 6.559h-5.379a27.963 27.963 0 0 0 10.639-8.686l.4-.54h9.079z"/></g><g fill="#55A344"><path d="M17.335 22.668h-5.999v18.665h4v-6.666h2a6 6 0 1 0-.001-11.999zm2 6.332c0 .92-.747 1.666-1.666 1.666h-2.333v-4h2.333c.92 0 1.666.747 1.666 1.666V29zM53.998 22.668L48.665 34v7.332h-4V34l-5.332-11.332h4.266l3.053 6.832 3.013-6.832zM38.439 37.999l-.713-2.666-.36-1.333-3.033-11.332h-4.666L26.634 34l-.36 1.333-.713 2.666-.893 3.333h4l.82-3.333h5.026l.82 3.333h4l-.895-3.333zm-6.445-10.232L33.527 34h-3.06l1.527-6.233z"/></g></svg><svg width="64" height="64" viewBox="0 0 64 64" id="ta-selected" x="256" xmlns="http://www.w3.org/2000/svg"><g fill="none" fill-rule="evenodd"><path d="M60.862 38.468c-5.92 11.523-16.238 20.422-28.736 24.49H30.88C18.49 58.925 8.244 50.148 2.3 38.768V.272c0-.497.404-.896.898-.896h56.768c.493 0 .896.399.896.896v38.196z" fill="#F8BD00"/><path d="M60.86.272v38.196C54.94 49.99 44.622 58.889 32.124 62.958h-.543V-.624h28.382c.494 0 .897.399.897.896" fill="#FBCC00"/><path d="M29.065 37.204a4.206 4.206 0 0 1-3.21-1.468l-5.75-6.6a2.653 2.653 0 0 1-.654-1.785 2.704 2.704 0 0 1 2.694-2.707c.425 0 .848.103 1.256.308l4.429 2.425 11.016-15.044.022-.026c.555-.67 1.319-1.038 2.15-1.038a2.703 2.703 0 0 1 2.694 2.707c0 .455-.116.9-.336 1.286L32.82 34.968a4.274 4.274 0 0 1-3.755 2.236" fill="#DB5D45"/></g></svg><svg width="64" height="64" viewBox="0 0 64 64" id="trade-assurance" x="256" y="64" xmlns="http://www.w3.org/2000/svg"><path fill-rule="evenodd" clip-rule="evenodd" fill="#FFBA00" d="M52.268 5.564v8.937h-9.784V2.636L32 0 21.516 2.636v11.865h-9.784V5.564L1.592 8.65l2.644 46.703L32 64l27.764-8.647L62.409 8.65z"/><path fill-rule="evenodd" clip-rule="evenodd" fill="#FF991F" d="M1.591 8.65l10.141-3.086v8.937h9.784V2.636L32 0v64L4.236 55.353z"/><path fill="#FFF" d="M35.643 40.639c0-1.066-.33-1.933-.993-2.602-.661-.668-1.808-1.29-3.438-1.866-2.635-.894-4.587-1.949-5.856-3.162s-1.902-2.917-1.902-5.111c0-2.084.609-3.766 1.829-5.047 1.219-1.281 2.907-2.051 5.065-2.308v-4.008h2.942v4.044c2.145.319 3.797 1.204 4.955 2.657 1.159 1.453 1.738 3.423 1.738 5.911h-4.45c0-1.569-.338-2.791-1.012-3.668s-1.624-1.315-2.85-1.315c-1.275 0-2.218.328-2.831.984-.614.656-.92 1.56-.92 2.712 0 1.078.319 1.939.956 2.583s1.826 1.272 3.567 1.885c2.635.944 4.572 2.013 5.81 3.208 1.238 1.196 1.857 2.884 1.857 5.066 0 2.157-.635 3.858-1.904 5.102s-3.037 1.982-5.304 2.216v3.584h-2.923v-3.567c-2.232-.233-4.049-1.02-5.453-2.362-1.403-1.343-2.105-3.374-2.105-6.095h4.469c0 1.777.42 3.03 1.259 3.759.84.73 1.909 1.095 3.209 1.095 1.385 0 2.445-.325 3.181-.975.737-.648 1.104-1.555 1.104-2.72z"/><path opacity=".2" fill-rule="evenodd" clip-rule="evenodd" fill="#FFF" d="M32 64L1.592 8.65 32 27.403zM32 64L62.409 8.65 32 27.421z"/></svg><svg width="64" height="64" viewBox="0 0 64 64" id="trade-assurance_100percent" x="256" y="128" xmlns="http://www.w3.org/2000/svg"><defs><path id="sc" d="M0 7.619h64v48.762H0z"/></defs><clipPath id="sd"><use xlink:href="#sc" overflow="visible"/></clipPath><g clip-path="url(#sd)"><defs><path id="se" d="M45.5 44.19c-4.216 7.287-12.095 12.19-21.119 12.19C10.916 56.381 0 45.465 0 32S10.916 7.619 24.381 7.619c9.024 0 16.904 4.903 21.119 12.19h-3.61c-3.855-5.527-10.26-9.143-17.51-9.143C12.599 10.667 3.048 20.218 3.048 32s9.551 21.333 21.333 21.333c7.25 0 13.654-3.616 17.51-9.143H45.5z"/></defs><clipPath id="sf"><use xlink:href="#se" overflow="visible"/></clipPath><g clip-path="url(#sf)"><defs><path id="sg" d="M0 7.619h64v48.762H0z"/></defs><clipPath id="sh"><use xlink:href="#sg" overflow="visible"/></clipPath><path clip-path="url(#sh)" fill="#1DC11D" d="M-15.238-7.619h75.976v79.238h-75.976z"/></g></g><g clip-path="url(#sd)"><defs><path id="si" d="M0 7.619h64v48.762H0z"/></defs><clipPath id="sj"><use xlink:href="#si" overflow="visible"/></clipPath><g clip-path="url(#sj)"><text transform="translate(6.097 41.144)" fill="#0EC826" font-family="'Roboto-Regular'" font-size="24.381">100%</text></g><g clip-path="url(#sj)"><text transform="translate(6.097 41.144)" fill="#0EC826" font-family="'Roboto-Regular'" font-size="24.381">100%</text></g></g></svg><svg width="64" height="64" viewBox="0 0 64 64" id="trade-assurance_new" x="256" y="192" xmlns="http://www.w3.org/2000/svg"><path fill-rule="evenodd" clip-rule="evenodd" fill="#FACE32" d="M52.268 5.564v8.937h-9.784V2.636L32 0 21.516 2.636v11.865h-9.784V5.564L1.592 8.65l2.644 46.703L32 64l27.764-8.647L62.408 8.65z"/><path fill="#FFF" d="M35.643 40.639c0-1.066-.33-1.933-.993-2.602-.661-.668-1.808-1.29-3.438-1.866-2.635-.894-4.587-1.949-5.856-3.162s-1.902-2.917-1.902-5.111c0-2.084.609-3.766 1.829-5.047 1.219-1.281 2.907-2.051 5.065-2.308v-4.008h2.942v4.044c2.145.319 3.797 1.204 4.955 2.657 1.159 1.453 1.738 3.423 1.738 5.911h-4.45c0-1.569-.338-2.791-1.012-3.668-.674-.876-1.624-1.315-2.85-1.315-1.275 0-2.218.328-2.831.984-.614.656-.92 1.56-.92 2.712 0 1.078.319 1.939.956 2.583s1.826 1.272 3.567 1.885c2.635.944 4.572 2.013 5.81 3.208 1.238 1.196 1.857 2.884 1.857 5.066 0 2.157-.635 3.858-1.904 5.102s-3.037 1.982-5.304 2.216v3.584h-2.923v-3.567c-2.232-.233-4.049-1.02-5.453-2.362-1.403-1.343-2.105-3.374-2.105-6.095h4.469c0 1.777.42 3.03 1.259 3.759.84.73 1.909 1.095 3.209 1.095 1.385 0 2.445-.325 3.181-.975.737-.648 1.104-1.555 1.104-2.72z"/></svg></svg>